<?xml version="1.0" encoding="UTF-8"?>
<svg version="1.1" xmlns="http://www.w3.org/2000/svg" width="1024" height="1024">
<path d="M0 0 C0.79019531 0.61359375 1.58039063 1.2271875 2.39453125 1.859375 C16.10901219 12.58281405 25.87470208 25.06183359 33 41 C33.66 41 34.32 41 35 41 C35.10707275 42.0216626 35.21414551 43.0433252 35.32446289 44.09594727 C36.00319929 48.01848926 37.08969743 50.890342 38.80859375 54.46484375 C39.09071716 55.05560196 39.37284058 55.64636017 39.66351318 56.25502014 C40.57652506 58.15509167 41.50527563 60.04678804 42.4375 61.9375 C42.7540152 62.58517334 43.0705304 63.23284668 43.39663696 63.90014648 C51.03290004 79.49741467 59.45427708 93.02707203 71 106 C72.06531744 107.28934393 73.1283998 108.58054421 74.1875 109.875 C77.45039485 113.65260502 81.19457445 116.78423304 85 120 C86.04537184 120.90628366 87.08955369 121.81394099 88.1328125 122.72265625 C94.76905758 128.4853384 101.50481637 134.07145012 108.46923828 139.43457031 C111.14241219 141.49952867 113.63577008 143.59044938 116 146 C116.61875 146.28875 117.2375 146.5775 117.875 146.875 C120.18402321 148.09742405 121.69030373 149.64534525 123.50585938 151.49755859 C126.36355062 154.3711259 129.34808707 157.11240204 132.3125 159.875 C132.98474609 160.502854 133.65699219 161.13070801 134.34960938 161.77758789 C137.5172543 164.72670833 140.6943443 167.64265203 144 170.4375 C154.2989221 179.33919416 163.62335889 189.29080908 172 200 C172.93860318 201.14033382 173.88019595 202.27821124 174.82421875 203.4140625 C211.29695087 247.57178329 229.056159 301.73699286 224 359 C220.12001985 399.20256356 203.32522634 437.29320899 172.4375 464 C163.71068847 471.06401564 154.13817712 478.11698477 144 483 C145.17804199 483.27880005 145.17804199 483.27880005 146.37988281 483.56323242 C150.00581352 484.42762745 153.62783436 485.3074668 157.25 486.1875 C158.48492188 486.47947266 159.71984375 486.77144531 160.9921875 487.07226562 C180.95884146 491.95884146 180.95884146 491.95884146 186 497 C185.8828125 499.47265625 185.8828125 499.47265625 185 502 C156.56232042 524.99913717 78.02441852 525.04032926 43 524 C42.67 524.99 42.34 525.98 42 527 C42 526.34 42 525.68 42 525 C40.9469165 525.06058594 39.89383301 525.12117187 38.80883789 525.18359375 C-16.868732 528.30476448 -72.37422472 527.73012628 -128 524 C-128.90478088 523.93963562 -129.80956177 523.87927124 -130.74176025 523.81707764 C-237.04332217 516.62511219 -237.04332217 516.62511219 -258 501.5625 C-259 500 -259 500 -258.9375 498 C-257.29537045 494.4967903 -254.56189992 493.23194271 -251.06640625 491.7890625 C-240.1981929 488.1784409 -229.16963368 485.5095767 -218 483 C-218.95777344 482.51273438 -219.91554688 482.02546875 -220.90234375 481.5234375 C-237.2901735 472.90220388 -252.03243757 461.03351768 -263.4375 446.375 C-264.14072388 445.47322021 -264.14072388 445.47322021 -264.8581543 444.55322266 C-272.1399576 435.05867551 -277.86437311 424.79648836 -283 414 C-283.66 414 -284.32 414 -285 414 C-285.103125 413.01 -285.20625 412.02 -285.3125 411 C-285.81679619 407.35126876 -286.96287019 404.18452108 -288.37890625 400.796875 C-289 399 -289 399 -289 396 C-289.99 395.67 -290.98 395.34 -292 395 C-291.34 395 -290.68 395 -290 395 C-290.34227572 392.02934491 -290.34227572 392.02934491 -291 389 C-291.66 388.67 -292.32 388.34 -293 388 C-293.6328125 385.453125 -293.6328125 385.453125 -294.125 382.25 C-294.29257812 381.20328125 -294.46015625 380.1565625 -294.6328125 379.078125 C-294.95898328 376.3438423 -295.07126854 373.74892942 -295 371 C-295.66 370.67 -296.32 370.34 -297 370 C-298.63496358 359.73321666 -298.24192657 348.8821578 -298.25 338.5 C-298.25067474 337.71141602 -298.25134949 336.92283203 -298.25204468 336.11035156 C-298.21934092 311.92302079 -294.4153275 288.98198428 -285.87963867 266.28979492 C-284.7849192 263.37042307 -284 261.14841059 -284 258 C-283.34 258 -282.68 258 -282 258 C-281.76216797 257.19187866 -281.76216797 257.19187866 -281.51953125 256.36743164 C-279.63610649 250.32109187 -277.08911254 244.95455043 -274 239.4375 C-273.27586914 238.13594971 -273.27586914 238.13594971 -272.53710938 236.80810547 C-263.17628011 220.25060754 -251.75667323 204.7166735 -238.58203125 190.98828125 C-236.68868472 189.03222249 -236.68868472 189.03222249 -237 186 C-236.01 186.33 -235.02 186.66 -234 187 C-233.77183594 186.44441406 -233.54367187 185.88882813 -233.30859375 185.31640625 C-231.63141689 182.34755288 -229.50336096 180.31384481 -227.0625 177.9375 C-226.18722656 177.08027344 -225.31195313 176.22304688 -224.41015625 175.33984375 C-223.21712891 174.18162109 -223.21712891 174.18162109 -222 173 C-221.4740625 172.46761719 -220.948125 171.93523437 -220.40625 171.38671875 C-218.80687306 169.80955538 -217.1369273 168.34381608 -215.4375 166.875 C-212.31667177 164.1642076 -209.24356108 161.40854608 -206.1875 158.625 C-200.93897827 153.89416251 -195.4989748 149.43510279 -190 145 C-172.04818504 130.51664318 -172.04818504 130.51664318 -154.68359375 115.33984375 C-152.88598758 113.90926621 -151.08448343 112.95329767 -149 112 C-149 111.34 -149 110.68 -149 110 C-147.36358969 108.30361654 -145.69160008 106.64135454 -144 105 C-127.81169422 86.79941874 -117.27531944 65.41116343 -107.6875 43.1875 C-98.57380745 22.12301155 -83.93252659 2.43617507 -62.21264648 -6.59130859 C-42.22935732 -14.324444 -17.26242887 -14.01154811 0 0 Z M-190 274 C-198.85016119 284.45030194 -201.907342 297.57469894 -201 311 C-198.76509292 327.49664461 -191.89549837 338.30217937 -180.1875 349.75 C-163.89973395 361.24724663 -146.06048927 363.52755858 -126.78515625 360.6328125 C-123.81008564 360.13090823 -123.81008564 360.13090823 -121 358 C-122.17175781 357.90203125 -123.34351563 357.8040625 -124.55078125 357.703125 C-138.26138483 356.44674577 -151.71374523 354.27088379 -161.3125 343.375 C-161.869375 342.59125 -162.42625 341.8075 -163 341 C-163.63164062 340.40445313 -164.26328125 339.80890625 -164.9140625 339.1953125 C-174.66481543 328.93328413 -176.50219777 313.92970337 -176.421875 300.43798828 C-176.08419876 288.68818792 -172.65091643 276.55724155 -164.05859375 268.0859375 C-162.40911335 266.67971381 -160.70911411 265.33310901 -159 264 C-159 263.67 -159 263.34 -159 263 C-171.23364978 262.14814044 -181.17031311 265.29103149 -190 274 Z M85 264 C85.70125 264.639375 86.4025 265.27875 87.125 265.9375 C97.33701354 276.23630119 101.84776139 289.87198303 102.375 304.125 C102.09714177 318.85148599 97.19637705 333.29741357 87.02734375 344.15625 C80.06488605 350.48819612 72.57180347 353.833512 63.5546875 356.2734375 C61.08630059 356.75146536 61.08630059 356.75146536 60 358 C57.81360547 358.07258946 55.62499611 358.08373783 53.4375 358.0625 C52.23996094 358.05347656 51.04242187 358.04445313 49.80859375 358.03515625 C48.41833984 358.01775391 48.41833984 358.01775391 47 358 C59.43431285 364.71058154 74.9687532 362.70408728 88 359 C96.13201614 356.31879178 102.61885371 352.70149757 109 347 C109.62261719 346.44699219 110.24523437 345.89398437 110.88671875 345.32421875 C112.75470951 343.61743187 112.75470951 343.61743187 115 341 C115 340.01 115 339.02 115 338 C115.99 337.67 116.98 337.34 118 337 C125.60532794 325.86928567 128.63784421 311.13178047 126.49609375 297.8828125 C124.79077644 289.44392798 121.72871581 283.09307372 117 276 C116.34 276 115.68 276 115 276 C114.79375 275.4225 114.5875 274.845 114.375 274.25 C110.76027017 268.33498755 103.40017979 266.3290339 97.0859375 264.421875 C94.59685532 263.91846512 92.28755121 263.90411117 89.75 263.9375 C88.85796875 263.94652344 87.9659375 263.95554687 87.046875 263.96484375 C86.37140625 263.97644531 85.6959375 263.98804688 85 264 Z M-155 278 C-157.32277854 281.90649118 -157.47123693 285.52324921 -157 290 C-155.10092929 294.29355117 -153.0776092 296.31022611 -148.8125 298.0625 C-143.62568746 299.50898733 -139.66009812 298.57752922 -135 296 C-131.98747615 293.28872853 -131.14514467 291.52252083 -130.0625 287.625 C-129.98697595 283.24460506 -130.81583653 280.78588335 -133 277 C-136.16559264 273.93333213 -139.19006444 273.74692054 -143.4375 273.5625 C-148.36663196 273.70864677 -151.32173804 274.51036685 -155 278 Z M32 281.6875 C30.37125584 285.45397087 30.25441804 288.97943188 31 293 C32.70784602 296.32432579 35.09888047 298.42428475 38.25 300.4375 C42.93908868 301.39663178 47.67196836 301.38423503 51.87890625 298.8828125 C54.69370015 296.59028156 56.72193297 294.7282394 57.30859375 291.08203125 C57.56093742 286.6392533 57.28130166 283.62757238 54.5625 280 C51.45042683 276.85863673 48.69781931 275.88953045 44.3125 275.7265625 C39.4123403 276.30597327 35.71539534 278.55263518 32 281.6875 Z " fill="#006B76" transform="translate(549,237)"/>
<path d="M0 0 C0.79019531 0.61359375 1.58039063 1.2271875 2.39453125 1.859375 C16.10901219 12.58281405 25.87470208 25.06183359 33 41 C33.66 41 34.32 41 35 41 C35.10707275 42.0216626 35.21414551 43.0433252 35.32446289 44.09594727 C36.00319929 48.01848926 37.08969743 50.890342 38.80859375 54.46484375 C39.09071716 55.05560196 39.37284058 55.64636017 39.66351318 56.25502014 C40.57652506 58.15509167 41.50527563 60.04678804 42.4375 61.9375 C42.7540152 62.58517334 43.0705304 63.23284668 43.39663696 63.90014648 C51.03290004 79.49741467 59.45427708 93.02707203 71 106 C72.06531744 107.28934393 73.1283998 108.58054421 74.1875 109.875 C77.45039485 113.65260502 81.19457445 116.78423304 85 120 C86.04537184 120.90628366 87.08955369 121.81394099 88.1328125 122.72265625 C94.76905758 128.4853384 101.50481637 134.07145012 108.46923828 139.43457031 C111.14241219 141.49952867 113.63577008 143.59044938 116 146 C116.61875 146.28875 117.2375 146.5775 117.875 146.875 C120.18402321 148.09742405 121.69030373 149.64534525 123.50585938 151.49755859 C126.36355062 154.3711259 129.34808707 157.11240204 132.3125 159.875 C132.98474609 160.502854 133.65699219 161.13070801 134.34960938 161.77758789 C137.5172543 164.72670833 140.6943443 167.64265203 144 170.4375 C154.2989221 179.33919416 163.62335889 189.29080908 172 200 C172.93860318 201.14033382 173.88019595 202.27821124 174.82421875 203.4140625 C211.29695087 247.57178329 229.056159 301.73699286 224 359 C220.12001985 399.20256356 203.32522634 437.29320899 172.4375 464 C163.71068847 471.06401564 154.13817712 478.11698477 144 483 C145.17804199 483.27880005 145.17804199 483.27880005 146.37988281 483.56323242 C150.00581352 484.42762745 153.62783436 485.3074668 157.25 486.1875 C158.48492188 486.47947266 159.71984375 486.77144531 160.9921875 487.07226562 C180.95884146 491.95884146 180.95884146 491.95884146 186 497 C185.8828125 499.47265625 185.8828125 499.47265625 185 502 C156.56232042 524.99913717 78.02441852 525.04032926 43 524 C42.67 524.99 42.34 525.98 42 527 C42 526.34 42 525.68 42 525 C40.9469165 525.06058594 39.89383301 525.12117187 38.80883789 525.18359375 C-16.868732 528.30476448 -72.37422472 527.73012628 -128 524 C-128.90478088 523.93963562 -129.80956177 523.87927124 -130.74176025 523.81707764 C-237.04332217 516.62511219 -237.04332217 516.62511219 -258 501.5625 C-259 500 -259 500 -258.9375 498 C-257.29537045 494.4967903 -254.56189992 493.23194271 -251.06640625 491.7890625 C-240.1981929 488.1784409 -229.16963368 485.5095767 -218 483 C-218.95777344 482.51273438 -219.91554688 482.02546875 -220.90234375 481.5234375 C-237.2901735 472.90220388 -252.03243757 461.03351768 -263.4375 446.375 C-264.14072388 445.47322021 -264.14072388 445.47322021 -264.8581543 444.55322266 C-272.1399576 435.05867551 -277.86437311 424.79648836 -283 414 C-283.66 414 -284.32 414 -285 414 C-285.103125 413.01 -285.20625 412.02 -285.3125 411 C-285.81679619 407.35126876 -286.96287019 404.18452108 -288.37890625 400.796875 C-289 399 -289 399 -289 396 C-289.99 395.67 -290.98 395.34 -292 395 C-291.34 395 -290.68 395 -290 395 C-290.34227572 392.02934491 -290.34227572 392.02934491 -291 389 C-291.66 388.67 -292.32 388.34 -293 388 C-293.6328125 385.453125 -293.6328125 385.453125 -294.125 382.25 C-294.29257812 381.20328125 -294.46015625 380.1565625 -294.6328125 379.078125 C-294.95898328 376.3438423 -295.07126854 373.74892942 -295 371 C-295.66 370.67 -296.32 370.34 -297 370 C-298.63496358 359.73321666 -298.24192657 348.8821578 -298.25 338.5 C-298.25067474 337.71141602 -298.25134949 336.92283203 -298.25204468 336.11035156 C-298.21934092 311.92302079 -294.4153275 288.98198428 -285.87963867 266.28979492 C-284.7849192 263.37042307 -284 261.14841059 -284 258 C-283.34 258 -282.68 258 -282 258 C-281.76216797 257.19187866 -281.76216797 257.19187866 -281.51953125 256.36743164 C-279.63610649 250.32109187 -277.08911254 244.95455043 -274 239.4375 C-273.27586914 238.13594971 -273.27586914 238.13594971 -272.53710938 236.80810547 C-263.17628011 220.25060754 -251.75667323 204.7166735 -238.58203125 190.98828125 C-236.68868472 189.03222249 -236.68868472 189.03222249 -237 186 C-236.01 186.33 -235.02 186.66 -234 187 C-233.77183594 186.44441406 -233.54367187 185.88882813 -233.30859375 185.31640625 C-231.63141689 182.34755288 -229.50336096 180.31384481 -227.0625 177.9375 C-226.18722656 177.08027344 -225.31195313 176.22304688 -224.41015625 175.33984375 C-223.21712891 174.18162109 -223.21712891 174.18162109 -222 173 C-221.4740625 172.46761719 -220.948125 171.93523437 -220.40625 171.38671875 C-218.80687306 169.80955538 -217.1369273 168.34381608 -215.4375 166.875 C-212.31667177 164.1642076 -209.24356108 161.40854608 -206.1875 158.625 C-200.93897827 153.89416251 -195.4989748 149.43510279 -190 145 C-172.04818504 130.51664318 -172.04818504 130.51664318 -154.68359375 115.33984375 C-152.88598758 113.90926621 -151.08448343 112.95329767 -149 112 C-149 111.34 -149 110.68 -149 110 C-147.36358969 108.30361654 -145.69160008 106.64135454 -144 105 C-127.81169422 86.79941874 -117.27531944 65.41116343 -107.6875 43.1875 C-98.57380745 22.12301155 -83.93252659 2.43617507 -62.21264648 -6.59130859 C-42.22935732 -14.324444 -17.26242887 -14.01154811 0 0 Z M-99 62 C-99.44988281 63.09054687 -99.89976562 64.18109375 -100.36328125 65.3046875 C-111.3586369 91.33450903 -128.07013928 114.97764174 -150 133 C-151.55890177 134.32929608 -153.1177372 135.65867063 -154.67553711 136.98925781 C-159.04158163 140.70989796 -163.43756236 144.37906496 -167.9375 147.9375 C-177.17203393 155.26506513 -186.04454821 163.05189248 -194.76171875 170.984375 C-196.87189491 172.88463834 -199.02287855 174.72484813 -201.1875 176.5625 C-204.46488131 179.42121384 -207.30342158 182.48293092 -210.109375 185.80078125 C-212.21327602 188.2480876 -214.41714264 190.58363917 -216.625 192.9375 C-226.67657836 203.98504268 -235.65425552 215.98970204 -243 229 C-243.3604541 229.63341309 -243.7209082 230.26682617 -244.09228516 230.91943359 C-251.87911051 244.71143742 -257.88229067 258.82570059 -261.8125 274.1875 C-262.0074707 274.94587158 -262.20244141 275.70424316 -262.40332031 276.4855957 C-265.39917167 288.96963061 -266.39345918 301.56513491 -266.375 314.375 C-266.37412384 315.04943146 -266.37324768 315.72386292 -266.37234497 316.41873169 C-266.25246893 344.49834645 -255.55991018 367.94673897 -236 388 C-235.37867188 388.69480469 -234.75734375 389.38960937 -234.1171875 390.10546875 C-204.11640826 422.72963452 -151.99481814 435.93171212 -110 442 C-108.31243216 442.25997667 -106.62492713 442.52036156 -104.9375 442.78125 C-64.50661913 448.79047504 -23.5494317 448.49607777 17 444 C19.27202507 443.76844593 21.54415542 443.53792184 23.81640625 443.30859375 C58.927382 439.60763484 94.84313109 430.98632506 126 414 C126.60779297 413.67531738 127.21558594 413.35063477 127.84179688 413.01611328 C154.23101247 398.87098678 178.39528997 376.6738006 187.515625 347.3515625 C194.2396036 324.24403605 193.68007617 300.31276297 188 277 C187.82339844 276.25782227 187.64679688 275.51564453 187.46484375 274.75097656 C180.56213895 246.61606311 165.31069192 217.2712679 145.1953125 196.30078125 C143.32491532 194.34052513 141.55634433 192.34102246 139.7890625 190.2890625 C135.78906228 185.69743781 131.55720036 181.36511579 127.25 177.0625 C126.45505127 176.26835693 125.66010254 175.47421387 124.84106445 174.65600586 C119.96403296 169.82958554 115.04187199 165.29616629 109.63671875 161.06640625 C106.51998529 158.62381069 103.51154319 156.07021906 100.5 153.5 C96.47565571 150.07569409 92.41970287 146.70015437 88.3125 143.375 C83.9093694 139.78868204 79.65812837 136.07112669 75.46484375 132.2421875 C73.82620083 130.7515678 72.17246685 129.27736542 70.50390625 127.8203125 C49.81163573 109.67825941 36.00529787 86.50986472 24 62 C22.0562361 65.66839263 21.24846483 69.11813349 20.375 73.1875 C17.38069116 85.95208937 11.89478235 98.2571105 3 108 C2.52820313 108.59683594 2.05640625 109.19367188 1.5703125 109.80859375 C-5.0841553 117.54915344 -17.33042983 123.4214087 -27.38671875 124.82421875 C-45.3148175 126.03014467 -60.72279081 123.35579084 -74.75 111.4375 C-88.66836204 98.06063043 -93.54413278 80.12684707 -98 62 C-98.33 62 -98.66 62 -99 62 Z " fill="#002B38" transform="translate(549,237)"/>
<path d="M0 0 C2.50870979 2.20450995 4.88809073 4.47969796 7.234375 6.85546875 C7.79769531 7.396875 8.36101562 7.93828125 8.94140625 8.49609375 C18.89642678 18.89764554 22.77969579 32.84900424 22.54296875 46.84375 C21.68191984 61.52445532 15.44948495 73.68840531 4.87890625 83.71875 C-9.10159964 95.01466834 -24.08735742 98.48176197 -41.765625 96.85546875 C-56.77422553 94.1872731 -69.21336562 85.82671878 -78.015625 73.54296875 C-85.68876836 61.4373829 -87.83481299 46.37876767 -85.08203125 32.37890625 C-80.45068389 16.27488515 -71.90640127 4.75539128 -57.765625 -4.14453125 C-38.82411253 -14.45017509 -17.38109441 -13.47771304 0 0 Z " fill="#FDD920" transform="translate(543.765625,248.14453125)"/>
<path d="M0 0 C11.1165845 7.59513582 20.40657073 15.42917427 24.82080078 28.57177734 C25.34574318 31.88672851 25.39515669 35.09591236 25.32080078 38.44677734 C25.30871582 39.32374268 25.29663086 40.20070801 25.28417969 41.10424805 C24.951666 51.98147619 21.32676653 59.95137273 14.82080078 68.57177734 C14.20462891 69.39806641 13.58845703 70.22435547 12.95361328 71.07568359 C6.11376401 79.08056214 -3.88239389 84.51625837 -14.17919922 86.57177734 C-25.97510531 87.41318628 -35.9000967 85.33068256 -46.17919922 79.57177734 C-46.81986328 79.24048828 -47.46052734 78.90919922 -48.12060547 78.56787109 C-51.66387468 76.68157955 -54.07467566 75.00547367 -56.17919922 71.57177734 C-58.01253255 68.40511068 -58.01253255 68.40511068 -61.17919922 66.57177734 C-62.48299362 64.06001307 -63.63885253 61.60630341 -64.74169922 59.00927734 C-65.04527344 58.33058594 -65.34884766 57.65189453 -65.66162109 56.95263672 C-71.72627937 42.93389504 -72.70258404 25.82562163 -67.44482422 11.40380859 C-64.12196391 3.96839587 -60.22155257 -1.96133152 -54.17919922 -7.42822266 C-65.08799798 -8.14355372 -73.12829775 -4.80705431 -81.59716797 1.98583984 C-83.41461067 3.43442107 -83.41461067 3.43442107 -83.17919922 5.57177734 C-84.04544922 6.34521484 -84.04544922 6.34521484 -84.92919922 7.13427734 C-92.04466706 14.84270084 -93.6683013 26.45643186 -93.42529297 36.59130859 C-92.20538141 51.36579298 -87.31414249 63.02822133 -76.93701172 73.61083984 C-75.17919922 75.57177734 -75.17919922 75.57177734 -75.17919922 77.57177734 C-84.81872557 75.34727126 -92.42880361 67.2473601 -98.17919922 59.57177734 C-104.12794184 49.89927636 -106.72668075 39.99431742 -106.55419922 28.69677734 C-106.54404785 27.73151123 -106.53389648 26.76624512 -106.5234375 25.77172852 C-106.21041538 11.36421806 -102.06061735 -0.95252035 -92.08935547 -11.64697266 C-67.15738123 -34.89642103 -24.53201844 -16.07800895 0 0 Z M-48.17919922 6.57177734 C-50.50197776 10.47826853 -50.65043614 14.09502655 -50.17919922 18.57177734 C-48.28012851 22.86532851 -46.25680842 24.88200346 -41.99169922 26.63427734 C-36.80488668 28.08076467 -32.83929734 27.14930657 -28.17919922 24.57177734 C-25.16667537 21.86050588 -24.32434389 20.09429817 -23.24169922 16.19677734 C-23.16617517 11.8163824 -23.99503575 9.35766069 -26.17919922 5.57177734 C-29.34479186 2.50510947 -32.36926366 2.31869788 -36.61669922 2.13427734 C-41.54583117 2.28042411 -44.50093725 3.0821442 -48.17919922 6.57177734 Z " fill="#00131D" transform="translate(442.17919921875,508.42822265625)"/>
<path d="M0 0 C10.33623099 8.13999978 16.21651886 20.3201841 19 33 C20.30863144 50.05186418 18.26771247 66.31686301 7.6875 80.375 C4.12567348 83.85399334 0.24168759 86.41873371 -4 89 C-4.68191406 89.41765625 -5.36382813 89.8353125 -6.06640625 90.265625 C-10.67825704 93 -10.67825704 93 -13 93 C-11.43909056 89.16867684 -8.8924866 86.8924866 -6 84 C-5.505 82.515 -5.505 82.515 -5 81 C-4.37351562 80.3915625 -3.74703125 79.783125 -3.1015625 79.15625 C4.30227909 71.55974339 5.86661655 58.74350536 6.3125 48.5625 C6.05540604 39.70882669 3.76171371 31.31426748 -0.9140625 23.8046875 C-2 22 -2 22 -3 19 C-3.66 19 -4.32 19 -5 19 C-6.0828125 17.88625 -6.0828125 17.88625 -7.1875 16.75 C-13.72979928 10.35308515 -20.98916261 7.90324714 -30 7.875 C-31.33361135 7.90653811 -32.66717225 7.94446551 -34 8 C-32.989375 8.721875 -31.97875 9.44375 -30.9375 10.1875 C-21.08145624 18.7240734 -17.90089248 31.74332979 -16.6875 44.2109375 C-16.08428709 59.4797644 -21.00505334 73.96869987 -30.6875 85.75 C-38.64620239 94.22510674 -48.82586219 99.7891554 -60.48828125 100.50390625 C-74.95832263 100.83967517 -84.11799901 99.19096402 -95.375 89.625 C-104.38040334 81.00925354 -111.67524133 70.52620294 -112.3359375 57.6953125 C-112.65023723 41.83777486 -112.65023723 41.83777486 -108 35 C-107.50242187 34.24589844 -107.00484375 33.49179687 -106.4921875 32.71484375 C-102.42505665 27.04923589 -97.71241103 22.94625496 -92 19 C-91.18917969 18.43667969 -90.37835937 17.87335938 -89.54296875 17.29296875 C-66.36510858 1.89897766 -25.83615207 -17.01405136 0 0 Z M-88 24.6875 C-89.62874416 28.45397087 -89.74558196 31.97943188 -89 36 C-87.29215398 39.32432579 -84.90111953 41.42428475 -81.75 43.4375 C-77.06091132 44.39663178 -72.32803164 44.38423503 -68.12109375 41.8828125 C-65.30629985 39.59028156 -63.27806703 37.7282394 -62.69140625 34.08203125 C-62.43906258 29.6392533 -62.71869834 26.62757238 -65.4375 23 C-68.54957317 19.85863673 -71.30218069 18.88953045 -75.6875 18.7265625 C-80.5876597 19.30597327 -84.28460466 21.55263518 -88 24.6875 Z " fill="#00141E" transform="translate(669,494)"/>
<path d="M0 0 C3.91000506 0.47940444 7.76527526 1.34431626 11.625 2.125 C13.32813354 2.46905884 13.32813354 2.46905884 15.06567383 2.82006836 C26.06508481 5.11294963 36.71801613 7.41772358 46 14 C45.7578125 16.34765625 45.7578125 16.34765625 45 19 C16.56232042 41.99913717 -61.97558148 42.04032926 -97 41 C-97.33 41.99 -97.66 42.98 -98 44 C-98 43.34 -98 42.68 -98 42 C-99.0530835 42.06058594 -100.10616699 42.12117187 -101.19116211 42.18359375 C-156.868732 45.30476448 -212.37422472 44.73012628 -268 41 C-269.35717133 40.90945343 -269.35717133 40.90945343 -270.74176025 40.81707764 C-377.04332217 33.62511219 -377.04332217 33.62511219 -398 18.5625 C-399 17 -399 17 -398.9375 15 C-397.27437813 11.45200667 -394.50265747 10.20610248 -390.9609375 8.75390625 C-383.89243422 6.40543839 -376.82547568 4.35082884 -369.5625 2.6875 C-368.83015137 2.51613525 -368.09780273 2.34477051 -367.34326172 2.16821289 C-357.35988798 -0.00765062 -351.31926781 1.30624317 -342.125 5.5 C-290.59759672 27.92699295 -232.24742916 33.247591 -176.5625 33.1875 C-175.12624771 33.18709213 -175.12624771 33.18709213 -173.66098022 33.18667603 C-157.69603983 33.16594428 -141.89207034 32.6375612 -126 31 C-124.42412109 30.83927002 -124.42412109 30.83927002 -122.81640625 30.67529297 C-115.5263406 29.90903301 -108.26140457 29.00053241 -101 28 C-99.49953125 27.79552246 -99.49953125 27.79552246 -97.96875 27.58691406 C-45.85165643 21.74098308 -45.85165643 21.74098308 0 0 Z " fill="#D6D7D6" transform="translate(689,720)"/>
<path d="M0 0 C2 1 2 1 3.0625 3.1875 C6.919382 14.758146 5.8577773 26.96524069 1 38 C-0.54683391 41.08052192 -2.19190869 44.06555672 -4 47 C-0.14291774 41.13324057 2.6855461 35.80656429 4.26171875 28.93359375 C4.50535156 28.29550781 4.74898437 27.65742188 5 27 C5.99 26.67 6.98 26.34 8 26 C8.33 25.34 8.66 24.68 9 24 C9.73126077 30.28884265 7.66405166 35.03171043 5.2890625 40.81640625 C3.96041153 43.94937172 3.96041153 43.94937172 3.0859375 47.09375 C-0.75279312 57.36718734 -12.0543622 64.82318021 -21.625 69.3125 C-34.2861762 74.84238131 -50.08963716 75.00828996 -63.0078125 70.32421875 C-74.72238362 65.13983284 -84.74256414 58.46096859 -90.125 46.5 C-92.40250447 39.99284436 -92.40250447 39.99284436 -91.0625 36.6875 C-90.711875 36.130625 -90.36125 35.57375 -90 35 C-88 37 -88 37 -88 40 C-87.34 40 -86.68 40 -86 40 C-86.27714844 39.34773438 -86.55429687 38.69546875 -86.83984375 38.0234375 C-87.20207031 37.14945312 -87.56429688 36.27546875 -87.9375 35.375 C-88.29714844 34.51648438 -88.65679687 33.65796875 -89.02734375 32.7734375 C-91.39699154 26.01661047 -90.95780261 19.66774761 -90.5625 12.625 C-90.51029297 11.60277344 -90.45808594 10.58054687 -90.40429688 9.52734375 C-90.27530513 7.01786804 -90.14037142 4.5088606 -90 2 C-89.34 1.67 -88.68 1.34 -88 1 C-87.79375 2.27875 -87.5875 3.5575 -87.375 4.875 C-85.13369372 14.72129034 -79.1784884 22.25330001 -71 28 C-58.80727511 34.73943865 -45.89278382 37.24369481 -32.1875 33.8125 C-21.57040124 30.40434848 -11.24749541 25.08247478 -5.33203125 15.21875 C-3.02847676 10.30089761 -1.28857041 5.2714244 0 0 Z " fill="#FBA413" transform="translate(555,272)"/>
<path d="M0 0 C3.96721334 2.71357392 5.71876371 5.64495241 6.6875 10.3125 C4.90158217 19.89151381 -0.75922293 27.64384275 -8 34 C-13.88279726 37.93230922 -19.86907788 40.99294353 -27.08984375 40.46875 C-30.11124477 39.7273019 -31.89985502 38.23140404 -34 36 C-36.12853614 31.74292771 -35.59051213 26.61053701 -35 22 C-33.50423842 18.51701231 -31.47289595 15.85291782 -29 13 C-28.49339844 12.37351562 -27.98679687 11.74703125 -27.46484375 11.1015625 C-21.04137248 3.87318451 -9.9276646 -2.92197221 0 0 Z " fill="#25B1AB" transform="translate(394,410)"/>
<path d="M0 0 C0.33 0 0.66 0 1 0 C1.73126077 6.28884265 -0.33594834 11.03171043 -2.7109375 16.81640625 C-4.03958847 19.94937172 -4.03958847 19.94937172 -4.9140625 23.09375 C-8.75279312 33.36718734 -20.0543622 40.82318021 -29.625 45.3125 C-42.2861762 50.84238131 -58.08963716 51.00828996 -71.0078125 46.32421875 C-82.72238362 41.13983284 -92.74256414 34.46096859 -98.125 22.5 C-100.40250447 15.99284436 -100.40250447 15.99284436 -99.0625 12.6875 C-98.711875 12.130625 -98.36125 11.57375 -98 11 C-96 13 -96 13 -96 16 C-95.08927734 16.12181641 -95.08927734 16.12181641 -94.16015625 16.24609375 C-91.29872375 17.24474922 -90.8752693 18.43485266 -89.4375 21.0625 C-82.90188495 31.40095404 -71.63457293 36.58513778 -60.0625 39.25 C-44.64800923 41.86303187 -32.66861935 37.1043052 -19.7421875 28.96484375 C-17.18968465 27.13591364 -15.14423707 25.28214443 -13 23 C-12.31164062 22.36835938 -11.62328125 21.73671875 -10.9140625 21.0859375 C-8.75089992 18.72853175 -7.64658198 16.55374044 -6.375 13.625 C-5.95605469 12.66207031 -5.53710938 11.69914062 -5.10546875 10.70703125 C-3.93494396 7.84069315 -2.88251946 4.96847454 -2 2 C-1.34 2 -0.68 2 0 2 C0 1.34 0 0.68 0 0 Z " fill="#FCC415" transform="translate(563,296)"/>
<path d="M0 0 C3.00970713 2.66170974 4.9177099 5.92611196 7 9.3125 C14.74011438 21.58826368 23.98158944 32.53378106 34 43 C34.47018555 43.49741699 34.94037109 43.99483398 35.42480469 44.50732422 C42.50328508 51.9668061 50.0043868 58.53786424 58.24414062 64.68847656 C59.38843113 65.54319411 60.52802834 66.40424261 61.66210938 67.27246094 C71.79220679 75.02434552 82.7331003 81.05803142 94 87 C90.7335643 88.084031 88.8291592 87.9109202 85.578125 86.84765625 C84.72549072 86.57010498 83.87285645 86.29255371 82.99438477 86.0065918 C82.08873779 85.6950415 81.18309082 85.38349121 80.25 85.0625 C79.312771 84.7425708 78.37554199 84.4226416 77.40991211 84.09301758 C48.84160849 74.05774104 22.74883709 54.32607053 8.89941406 26.89892578 C4.84077348 18.32995008 1.66807725 9.34123258 0 0 Z " fill="#00707A" transform="translate(275,624)"/>
<path d="M0 0 C1.42090757 4.2627227 -0.15863908 7.41380659 -1.5625 11.5 C-1.83916504 12.31154541 -2.11583008 13.12309082 -2.40087891 13.95922852 C-12.62819997 43.07779805 -36.28809186 64.18297242 -63.3828125 77.3984375 C-72.55276485 81.45856759 -82.07930862 84.43603218 -92 86 C-90.61503406 83.23006812 -89.07657842 83.0115802 -86.25 81.75 C-69.38892314 73.54184987 -54.19234697 61.77150718 -40.40234375 49.1796875 C-37.48306116 46.53097256 -34.49771149 43.96485304 -31.49609375 41.41015625 C-29.88204282 40.05086049 -29.88204282 40.05086049 -29 38 C-28.34 38 -27.68 38 -27 38 C-26.62875 37.14535156 -26.62875 37.14535156 -26.25 36.2734375 C-24.80178705 33.63950019 -23.0767746 31.79819628 -21 29.625 C-12.78710223 20.65826137 -5.98922164 10.56635037 0 0 Z " fill="#00707B" transform="translate(748,625)"/>
<path d="M0 0 C5.45087587 2.23208098 9.58362308 5.56315192 12 11 C13.02119874 16.84054016 12.83960102 21.55838486 9.375 26.5 C5.93973167 30.3986301 2.88467196 32.62763221 -2.390625 33.30859375 C-9.51922882 33.66075532 -13.01314628 31.66395062 -18.3125 26.9375 C-21.56349356 23.20487776 -21.27650537 19.21074311 -21.21484375 14.50390625 C-20.80471187 9.72400563 -19.0279519 6.94887868 -15.5625 3.75 C-10.33989638 0.18334387 -6.31600577 -1.00599764 0 0 Z " fill="#FEFCD7" transform="translate(501,250)"/>
<path d="M0 0 C3.35902598 0.61896659 5.44706783 1.86834475 8.1875 3.875 C18.02027334 10.5045522 28.1927006 11.52707207 39.90625 9.49609375 C44.96430757 8.13010598 49.00554877 6.00440219 53.2109375 2.890625 C55 2 55 2 57.2265625 2.359375 C58.10441406 2.67648437 58.10441406 2.67648437 59 3 C59.79805255 7.07893526 59.66414606 8.98886509 57.34765625 12.515625 C49.85116976 21.3164211 41.29851866 25.70416124 29.92578125 27.2890625 C21.07325963 27.89300473 11.75869992 23.50126737 5 18 C1.04858608 14.31524592 -1.75650171 11.65037728 -2.5625 6.1875 C-2 3 -2 3 0 0 Z " fill="#123C50" transform="translate(392,564)"/>
<path d="M0 0 C2.4140625 0.296875 2.4140625 0.296875 4.2890625 1.359375 C5.4140625 3.296875 5.4140625 3.296875 5.5390625 6.484375 C3.68376947 12.77175692 0.18803954 16.5448895 -5.33203125 20.03125 C-8.36655805 21.62546174 -11.41315455 23.00112013 -14.5859375 24.296875 C-15.79636719 24.80927734 -15.79636719 24.80927734 -17.03125 25.33203125 C-28.86433122 29.42224421 -45.51947627 29.26971747 -57.09765625 24.578125 C-62.0282932 22.0392727 -66.65175682 19.23105568 -70.5859375 15.296875 C-70.8359375 12.796875 -70.8359375 12.796875 -70.5859375 10.296875 C-69.9259375 9.636875 -69.2659375 8.976875 -68.5859375 8.296875 C-63.95979386 8.61319251 -60.51882618 10.13820276 -56.4609375 12.296875 C-46.57022415 17.53165458 -33.86684949 18.14141911 -23.0234375 15.109375 C-21.52547938 14.55343178 -20.04427968 13.94970688 -18.5859375 13.296875 C-17.80992187 12.9565625 -17.03390625 12.61625 -16.234375 12.265625 C-10.99589997 9.67266746 -7.73536832 6.57930448 -4.2890625 1.87109375 C-2.5859375 0.296875 -2.5859375 0.296875 0 0 Z " fill="#00121A" transform="translate(547.5859375,584.703125)"/>
<path d="M0 0 C3.96295339 0.44643322 6.61622901 1.7915287 9.9375 3.9375 C16.71272305 8.30757255 22.40287776 9.34376333 30.3125 9.3125 C31.11623047 9.32861328 31.91996094 9.34472656 32.74804688 9.36132812 C40.03179724 9.36718794 46.2200531 7.92457863 52.25 3.75 C55 2 55 2 57.875 2.25 C58.57625 2.4975 59.2775 2.745 60 3 C61.12025654 6.92089789 61.28708255 8.46836565 59.3125 12.125 C55.74870948 16.55565848 52.80804063 19.38120821 47.5625 21.6875 C46.63566406 22.10386719 45.70882812 22.52023437 44.75390625 22.94921875 C36.73383125 26.00936084 26.30820809 26.54736 18.01171875 24.12890625 C10.98726832 20.79693521 4.25384432 15.57526378 0 9 C-0.70456896 6.28740951 -0.81490852 3.82264504 -1 1 C-0.67 0.67 -0.34 0.34 0 0 Z " fill="#123C50" transform="translate(573,565)"/>
<path d="M0 0 C5.99657736 0.66628637 10.0985248 1.99219724 14.16015625 6.55078125 C25.58682779 21.76208285 25.58682779 21.76208285 25.5625 29.4375 C25.376875 30.613125 25.19125 31.78875 25 33 C21.85227204 34.81232822 20.43383305 35.11279659 16.875 34.1875 C11.28150276 31.46435003 6.70104963 27.00074577 2 23 C1.08476562 22.30777344 0.16953125 21.61554688 -0.7734375 20.90234375 C-3.61728199 18.47260293 -3.87999748 16.42858043 -4.875 12.875 C-5.04707519 7.54066924 -2.86196412 4.36721861 0 0 Z " fill="#F7A41D" transform="translate(436,202)"/>
<path d="M0 0 C4.36017258 1.98189663 5.53565388 3.150217 7.4375 7.5625 C8.65127285 16.51407475 7.56034429 30.85967253 2.4375 38.5625 C-0.4375 39.5 -0.4375 39.5 -3.5625 39.5625 C-6.45961013 37.99210386 -7.41069348 36.96868503 -8.57421875 33.85546875 C-8.79722656 32.83066406 -9.02023437 31.80585938 -9.25 30.75 C-9.48074219 29.73292969 -9.71148437 28.71585938 -9.94921875 27.66796875 C-13.13513372 11.53546939 -13.13513372 11.53546939 -10.375 4.5625 C-7.0086409 0.84789685 -5.13461304 -0.63056651 0 0 Z " fill="#F8A61D" transform="translate(513.5625,175.4375)"/>
<path d="M0 0 C2.58250506 2.51270763 3.81243352 4.24973407 4.6875 7.75 C2.6470269 17.39587284 -7.48633858 24.39389719 -15 30 C-17.88945462 31.72846655 -18.67045357 32.01977279 -22.125 31.8125 C-25 31 -25 31 -27 28 C-26.27925703 18.24327568 -19.42904339 9.045527 -13 2 C-8.38788325 -1.75003886 -5.48520502 -3.01686276 0 0 Z " fill="#F7A21C" transform="translate(589,205)"/>
<path d="M0 0 C2.60881235 2.40813448 4.70271882 4.93176282 6.75 7.8125 C9.96371486 12.20457697 13.79124661 15.58172313 18 19 C16.64062915 16.1394109 15.35479531 14.14072301 13 12 C13.33 11.34 13.66 10.68 14 10 C14.46148438 10.44730469 14.92296875 10.89460937 15.3984375 11.35546875 C24.74391466 20.01758097 33.37890238 22.78153669 46 24 C45.505 25.485 45.505 25.485 45 27 C31.28331692 27.93997574 22.37991595 25.85950373 11.625 16.625 C1.33595801 6.79987617 1.33595801 6.79987617 0 0 Z " fill="#000B12" transform="translate(562,567)"/>
<path d="M0 0 C2.90121088 1.32972165 5.12744003 2.8094802 7.5 4.9375 C8.19738281 5.56269531 8.89476562 6.18789063 9.61328125 6.83203125 C10.40089844 7.54746094 11.18851563 8.26289063 12 9 C12.90105469 9.80824219 13.80210937 10.61648438 14.73046875 11.44921875 C25.98317153 21.63165126 36.59701084 32.05661601 46 44 C46.77988281 44.92425781 47.55976562 45.84851563 48.36328125 46.80078125 C49.10964844 47.69152344 49.85601563 48.58226562 50.625 49.5 C51.29789063 50.2940625 51.97078125 51.088125 52.6640625 51.90625 C53.10492187 52.5971875 53.54578125 53.288125 54 54 C53.67 54.99 53.34 55.98 53 57 C52.48953125 56.36835938 51.9790625 55.73671875 51.453125 55.0859375 C49.43591321 52.60376554 47.40870635 50.13023434 45.37255859 47.66357422 C44.47501636 46.57573133 43.57942435 45.48627567 42.68603516 44.39501953 C36.40219335 36.74724307 29.74621004 29.56589079 22.75 22.5625 C22.00564697 21.81734131 21.26129395 21.07218262 20.49438477 20.30444336 C14.75028868 14.61778185 8.80157979 9.24858243 2.5 4.1875 C1.675 3.465625 0.85 2.74375 0 2 C0 1.34 0 0.68 0 0 Z " fill="#03242F" transform="translate(675,393)"/>
<path d="M0 0 C0.66 0 1.32 0 2 0 C1.96970703 0.59087402 1.93941406 1.18174805 1.90820312 1.79052734 C0.84109328 23.18607979 0.19209467 44.62797626 2 66 C-3.52812399 60.47187601 -2.24244965 48.71835215 -2.27575684 41.24108887 C-2.27420207 39.69164309 -2.26915945 38.14219713 -2.26074219 36.59277344 C-2.25007937 34.26730899 -2.26066575 31.94262776 -2.2734375 29.6171875 C-2.28138116 19.60340913 -1.48495803 9.90084774 0 0 Z " fill="#04222E" transform="translate(253,541)"/>
<path d="M0 0 C0 0.99 0 1.98 0 3 C0.78375 2.484375 1.5675 1.96875 2.375 1.4375 C3.674375 0.7259375 3.674375 0.7259375 5 0 C5.66 0.33 6.32 0.66 7 1 C-0.42725202 5.93893408 -6.00555527 8.31015327 -15 8 C-15 7.34 -15 6.68 -15 6 C-17.64 6 -20.28 6 -23 6 C-23 5.67 -23 5.34 -23 5 C-21.90300781 4.80664062 -20.80601562 4.61328125 -19.67578125 4.4140625 C-18.22130418 4.15131825 -16.76687983 3.88828199 -15.3125 3.625 C-14.59126953 3.49867188 -13.87003906 3.37234375 -13.12695312 3.2421875 C-8.80607819 2.4529866 -4.23828151 0 0 0 Z " fill="#000A12" transform="translate(439,586)"/>
<path d="M0 0 C4.58313101 4.11072872 7.42458072 8.66163414 10.4375 14 C10.91614502 14.83781006 11.39479004 15.67562012 11.88793945 16.53881836 C22 34.45048485 22 34.45048485 22 39 C21.34 39 20.68 39 20 39 C19.21689453 37.25589844 19.21689453 37.25589844 18.41796875 35.4765625 C13.99010031 25.79028183 9.18520227 16.59916259 3.45581055 7.61376953 C3.0050415 6.90462402 2.55427246 6.19547852 2.08984375 5.46484375 C1.68628662 4.842146 1.28272949 4.21944824 0.86694336 3.57788086 C0 2 0 2 0 0 Z " fill="#03232D" transform="translate(736,459)"/>
<path d="M0 0 C5.66336634 0.9009901 5.66336634 0.9009901 8.125 1.625 C10.0327558 2.15419192 10.0327558 2.15419192 12 1.4375 C14.67967184 0.85132179 15.56125641 1.78062821 18 3 C20.66360025 3.47125235 23.30493254 3.73049325 26 4 C26 4.66 26 5.32 26 6 C27.32 6.33 28.64 6.66 30 7 C19.12194429 7.46694357 9.57548796 6.43473641 0 1 C0 0.67 0 0.34 0 0 Z " fill="#04222B" transform="translate(398,588)"/>
<path d="M0 0 C0 0.33 0 0.66 0 1 C-2.31 1 -4.62 1 -7 1 C-7 1.66 -7 2.32 -7 3 C-15.41492059 3.95533528 -23.72434978 4.12181049 -32.1875 4.0625 C-34.0447168 4.05573242 -34.0447168 4.05573242 -35.93945312 4.04882812 C-38.95968785 4.03716699 -41.97981677 4.02080236 -45 4 C-45 3.67 -45 3.34 -45 3 C-40.03825297 2.56784413 -35.07610139 2.14079208 -30.11352539 1.71826172 C-28.42883743 1.57412247 -26.74426371 1.42864079 -25.05981445 1.28173828 C-22.62480737 1.06962211 -20.18941674 0.86249614 -17.75390625 0.65625 C-17.01290176 0.59062866 -16.27189728 0.52500732 -15.50843811 0.45739746 C-10.32304806 0.02487368 -5.2035843 -0.05399309 0 0 Z " fill="#DCDCDC" transform="translate(640,756)"/>
<path d="M0 0 C0.99 0.33 1.98 0.66 3 1 C2.66790527 1.54825439 2.33581055 2.09650879 1.99365234 2.66137695 C-6.80872818 17.15594091 -6.80872818 17.15594091 -15 32 C-15.91665136 29.51083571 -16.13481899 28.35699231 -15.18310547 25.83691406 C-14.74885254 25.07088867 -14.31459961 24.30486328 -13.8671875 23.515625 C-13.15175781 22.23558594 -13.15175781 22.23558594 -12.421875 20.9296875 C-11.91140625 20.04539062 -11.4009375 19.16109375 -10.875 18.25 C-10.38773437 17.38117188 -9.90046875 16.51234375 -9.3984375 15.6171875 C-6.40685443 10.31826642 -3.26126921 5.13679766 0 0 Z " fill="#04222B" transform="translate(286,458)"/>
<path d="M0 0 C0 0.99 0 1.98 0 3 C-15.74241342 12.16674419 -28.87070051 14.51688605 -47 14 C-47 13.67 -47 13.34 -47 13 C-46.41210693 12.96559814 -45.82421387 12.93119629 -45.21850586 12.89575195 C-28.50123818 11.84430021 -14.16008619 9.69549431 0 0 Z " fill="#035E68" transform="translate(655,586)"/>
<path d="M0 0 C2.86552734 2.51101258 4.34501251 5.2795563 6.06640625 8.65625 C6.63423828 9.76097656 7.20207031 10.86570312 7.78710938 12.00390625 C8.37298828 13.15761719 8.95886719 14.31132812 9.5625 15.5 C10.72899835 17.78200223 11.89690345 20.06328606 13.06640625 22.34375 C13.58146729 23.35630859 14.09652832 24.36886719 14.62719727 25.41210938 C16.01077579 28.12461388 16.01077579 28.12461388 18 31 C17.67 31.99 17.34 32.98 17 34 C12.41714865 27.24712301 8.40337148 20.25711139 4.5625 13.0625 C4.11342285 12.23387451 3.6643457 11.40524902 3.20166016 10.55151367 C2.78577637 9.76236572 2.36989258 8.97321777 1.94140625 8.16015625 C1.56701416 7.45511963 1.19262207 6.75008301 0.80688477 6.02368164 C0 4 0 4 0 0 Z " fill="#06262F" transform="translate(587,293)"/>
<path d="M0 0 C0.66 0.33 1.32 0.66 2 1 C-13.00542495 23.00361664 -13.00542495 23.00361664 -22 29 C-22 28.01 -22 27.02 -22 26 C-21.34 26 -20.68 26 -20 26 C-20 25.34 -20 24.68 -20 24 C-18.35948375 22.30758693 -16.68789548 20.64516395 -15 19 C-9.73692052 12.87652144 -4.76301794 6.51879711 0 0 Z " fill="#05252D" transform="translate(420,323)"/>
<path d="M0 0 C1.19866189 3.59598566 0.65659766 4.72947024 -0.42578125 8.296875 C-2.29310356 15.34955049 -2.34112861 21.99400264 -2.1875 29.25 C-2.17396484 30.48363281 -2.16042969 31.71726562 -2.14648438 32.98828125 C-2.11154967 35.99266604 -2.06250145 38.99608409 -2 42 C-8.50923266 32.23615101 -4.98814759 15.76792347 -3 5 C-2.67 4.01 -2.34 3.02 -2 2 C-1.34 2 -0.68 2 0 2 C0 1.34 0 0.68 0 0 Z " fill="#007A87" transform="translate(339,511)"/>
<path d="M0 0 C3.67975686 1.48495732 5.43162125 3.49252001 7.8125 6.625 C10.41678344 9.97752906 13.0358657 13.28804592 15.8125 16.5 C16.35519531 17.1290625 16.89789062 17.758125 17.45703125 18.40625 C19.11036351 20.22666025 19.11036351 20.22666025 22 22 C21.67 22.99 21.34 23.98 21 25 C4.98431792 9.42377261 4.98431792 9.42377261 0 2 C0 1.34 0 0.68 0 0 Z " fill="#04252F" transform="translate(607,330)"/>
<path d="M0 0 C0.33 0.99 0.66 1.98 1 3 C2.65 3 4.3 3 6 3 C1.45304599 8.11532327 -3.5283701 10.84279003 -10 13 C-8.43909056 9.16867684 -5.8924866 6.8924866 -3 4 C-2.67 3.01 -2.34 2.02 -2 1 C-1.34 0.67 -0.68 0.34 0 0 Z " fill="#010B10" transform="translate(666,574)"/>
<path d="M0 0 C5.0800102 1.48199986 9.37664349 3.70198137 13.9375 6.3125 C14.95360352 6.88000977 14.95360352 6.88000977 15.99023438 7.45898438 C20.55067892 10.04309053 24.75367202 12.92998399 29 16 C30.175625 16.5259375 30.175625 16.5259375 31.375 17.0625 C33 18 33 18 33.6015625 20.05859375 C33.79878906 21.01958984 33.79878906 21.01958984 34 22 C33.51273437 21.67128906 33.02546875 21.34257813 32.5234375 21.00390625 C21.91474869 13.88644048 11.34319892 6.90309332 0 1 C0 0.67 0 0.34 0 0 Z " fill="#018692" transform="translate(422,497)"/>
<path d="M0 0 C3.4388934 0.60313786 5.35440242 1.84873761 8.00390625 4.08984375 C9.11475586 5.01893555 9.11475586 5.01893555 10.24804688 5.96679688 C11.01181641 6.61712891 11.77558594 7.26746094 12.5625 7.9375 C14.08369101 9.21857018 15.60578984 10.49856336 17.12890625 11.77734375 C17.79994385 12.34702881 18.47098145 12.91671387 19.16235352 13.50366211 C21.13735015 15.16034675 21.13735015 15.16034675 24 17 C23.67 17.99 23.34 18.98 23 20 C22.17757812 19.29875 21.35515625 18.5975 20.5078125 17.875 C19.38051928 16.91630091 18.25289142 15.95799524 17.125 15 C16.54016846 14.50322754 15.95533691 14.00645508 15.3527832 13.49462891 C10.88828809 9.71721285 6.34427605 6.0551594 1.73046875 2.4609375 C1.15941406 1.97882813 0.58835937 1.49671875 0 1 C0 0.67 0 0.34 0 0 Z " fill="#03252F" transform="translate(637,362)"/>
<path d="M0 0 C0.33 0 0.66 0 1 0 C1.268125 1.216875 1.53625 2.43375 1.8125 3.6875 C3.37092658 9.82380465 5.82021804 13.28118218 11 17 C14.00313748 18.50156874 16.79067522 18.09281204 20.125 18.0625 C21.40632813 18.05347656 22.68765625 18.04445313 24.0078125 18.03515625 C25.48894531 18.01775391 25.48894531 18.01775391 27 18 C24.13321123 20.86678877 21.54082977 20.71515398 17.6015625 21.02734375 C12.44052312 20.97309859 9.106516 18.93047936 5.25 15.6875 C0.92697255 10.52388388 -0.40496392 6.74939866 0 0 Z " fill="#FDCF0E" transform="translate(478,264)"/>
<path d="M0 0 C2.80834837 4.21252255 2.53221474 7.97410371 2.75 12.9375 C2.80542969 13.84435547 2.86085938 14.75121094 2.91796875 15.68554688 C2.96050781 16.56146484 3.00304687 17.43738281 3.046875 18.33984375 C3.08651367 19.13769287 3.12615234 19.93554199 3.16699219 20.75756836 C2.97973915 23.27207005 2.26137441 24.83830571 1 27 C0.67 27 0.34 27 0 27 C0 18.09 0 9.18 0 0 Z " fill="#03212D" transform="translate(771,557)"/>
<path d="M0 0 C0 0.33 0 0.66 0 1 C-1.98 1 -3.96 1 -6 1 C-6 1.66 -6 2.32 -6 3 C-6.99 3.66 -7.98 4.32 -9 5 C-9.33 5.99 -9.66 6.98 -10 8 C-10.66 8 -11.32 8 -12 8 C-11.87625 9.27875 -11.7525 10.5575 -11.625 11.875 C-11.55539062 12.59429687 -11.48578125 13.31359375 -11.4140625 14.0546875 C-11.13625251 16.22668245 -11.13625251 16.22668245 -9 18 C-9.30903983 19.33917261 -9.65023242 20.67088318 -10 22 C-10.09730035 24.67319897 -10.04460478 27.32371292 -10 30 C-10.33 30 -10.66 30 -11 30 C-14.67066347 11.2206235 -14.67066347 11.2206235 -11.8125 4 C-8.11206972 -0.08323341 -5.41187037 -1.70087355 0 0 Z " fill="#E4A225" transform="translate(515,176)"/>
<path d="M0 0 C-1.52852925 3.53675651 -3.6416389 5.99564746 -6.25 8.8125 C-9.91708506 12.81134073 -13.49148593 16.86175264 -17 21 C-17.33 20.01 -17.66 19.02 -18 18 C-16.96777344 16.33007812 -16.96777344 16.33007812 -15.359375 14.53125 C-14.78316406 13.87769531 -14.20695312 13.22414063 -13.61328125 12.55078125 C-12.99839844 11.87402344 -12.38351562 11.19726562 -11.75 10.5 C-10.85087891 9.48486328 -10.85087891 9.48486328 -9.93359375 8.44921875 C-8.30428144 6.61759715 -6.66758752 4.79683343 -5 3 C-4.48083008 2.43345703 -3.96166016 1.86691406 -3.42675781 1.28320312 C-2 0 -2 0 0 0 Z " fill="#03212B" transform="translate(315,425)"/>
<path d="M0 0 C0.99 0.33 1.98 0.66 3 1 C1.989375 1.825 0.97875 2.65 -0.0625 3.5 C-3.5491513 6.4643594 -6.44349547 9.71800396 -9.32421875 13.265625 C-11.09359273 15.0968652 -12.67283334 16.00626435 -15 17 C-14.51005819 12.75383761 -11.93647079 9.90514844 -9 7 C-7.03081154 5.62156808 -5.03335209 4.28189588 -3 3 C-1.20605554 1.37648891 -1.20605554 1.37648891 0 0 Z " fill="#042934" transform="translate(337,401)"/>
<path d="M0 0 C5.61 0 11.22 0 17 0 C17 0.33 17 0.66 17 1 C23.93 1.495 23.93 1.495 31 2 C31 2.33 31 2.66 31 3 C21.1 3 11.2 3 1 3 C0.67 2.01 0.34 1.02 0 0 Z " fill="#CFCFCE" transform="translate(543,760)"/>
<path d="M0 0 C4.49324849 1.65770333 8.61186146 3.84982162 12.8125 6.125 C13.50537109 6.49753906 14.19824219 6.87007812 14.91210938 7.25390625 C16.60934836 8.16690377 18.30485138 9.08312716 20 10 C16.06236453 11.52644141 13.2326241 10.42982376 9.3125 9.1875 C8.15363281 8.83042969 6.99476563 8.47335937 5.80078125 8.10546875 C3 7 3 7 2 5 C3.32 5 4.64 5 6 5 C5.01 4.360625 4.02 3.72125 3 3.0625 C2.01 2.381875 1.02 1.70125 0 1 C0 0.67 0 0.34 0 0 Z " fill="#017D86" transform="translate(349,701)"/>
<path d="M0 0 C6.94966093 -0.1346906 13.71856383 0.24284996 20.625 1 C21.98818359 1.14308594 21.98818359 1.14308594 23.37890625 1.2890625 C25.58647043 1.52143768 27.79342261 1.75846489 30 2 C30 2.33 30 2.66 30 3 C26.52085059 3.02887814 23.04173169 3.04675687 19.5625 3.0625 C18.56927734 3.07087891 17.57605469 3.07925781 16.55273438 3.08789062 C15.60849609 3.09111328 14.66425781 3.09433594 13.69140625 3.09765625 C12.37958374 3.10551147 12.37958374 3.10551147 11.04125977 3.11352539 C9 3 9 3 8 2 C6.65252916 1.76924918 5.29622435 1.58846937 3.9375 1.4375 C2.638125 1.293125 1.33875 1.14875 0 1 C0 0.67 0 0.34 0 0 Z " fill="#DCDCDC" transform="translate(388,756)"/>
<path d="M0 0 C0 0.33 0 0.66 0 1 C-5.48269069 2.15664737 -10.80339274 2.11416255 -16.375 2.0625 C-17.30183594 2.05798828 -18.22867187 2.05347656 -19.18359375 2.04882812 C-21.45579709 2.03711574 -23.72786388 2.02071372 -26 2 C-26 1.67 -26 1.34 -26 1 C-17.05670282 -0.46037646 -9.0317771 -1.38950417 0 0 Z " fill="#1C3335" transform="translate(523,226)"/>
<path d="M0 0 C5.94 0.33 11.88 0.66 18 1 C18 1.33 18 1.66 18 2 C13.05 2 8.1 2 3 2 C2.67 2.99 2.34 3.98 2 5 C2 4.34 2 3.68 2 3 C-2.29 3 -6.58 3 -11 3 C-11 2.67 -11 2.34 -11 2 C-7.37 2 -3.74 2 0 2 C0 1.34 0 0.68 0 0 Z " fill="#D0CFCF" transform="translate(589,759)"/>
<path d="M0 0 C1.66666667 1.66666667 3.33333333 3.33333333 5 5 C5.928125 5.886875 6.85625 6.77375 7.8125 7.6875 C10 10 10 10 10 12 C4.25 10.25 4.25 10.25 2 8 C0 2.66666667 0 2.66666667 0 0 Z " fill="#041F26" transform="translate(357,574)"/>
<path d="M0 0 C0 3 0 3 -1.79296875 5.12109375 C-2.97826172 6.26771484 -2.97826172 6.26771484 -4.1875 7.4375 C-5.00476563 8.22898437 -5.82203125 9.02046875 -6.6640625 9.8359375 C-9.0212043 12.01964412 -11.41855036 14.08473091 -14 16 C-14.66 15.67 -15.32 15.34 -16 15 C-10.86877855 9.74595676 -5.5930976 4.76008307 0 0 Z " fill="#007A85" transform="translate(413,357)"/>
<path d="M0 0 C2 2 2 2 2.1953125 4.1640625 C2.17210937 4.97617188 2.14890625 5.78828125 2.125 6.625 C2.10695313 7.44226563 2.08890625 8.25953125 2.0703125 9.1015625 C2.03550781 10.04128906 2.03550781 10.04128906 2 11 C-2.43076923 13.09230769 -2.43076923 13.09230769 -5.3125 12.625 C-5.869375 12.41875 -6.42625 12.2125 -7 12 C-7 11.34 -7 10.68 -7 10 C-5.02 9.67 -3.04 9.34 -1 9 C-0.67 6.03 -0.34 3.06 0 0 Z " fill="#E3A01F" transform="translate(459,224)"/>
<path d="M0 0 C1.32 0.33 2.64 0.66 4 1 C3 3 3 3 -0.125 4.125 C-6.59810471 5.6425044 -13.39382183 5.1548323 -20 5 C-20 4.67 -20 4.34 -20 4 C-13.4 3.34 -6.8 2.68 0 2 C0 1.34 0 0.68 0 0 Z " fill="#F6DD17" transform="translate(526,340)"/>
<path d="M0 0 C0.99 0 1.98 0 3 0 C3 0.66 3 1.32 3 2 C3.66 2 4.32 2 5 2 C6.37073786 3.63604196 7.70055256 5.30678061 9 7 C9.98230498 8.0173873 10.97469597 9.02596117 12 10 C10 11 10 11 8.125 11 C5.16371653 9.60645484 4.42659796 7.56798464 3.02734375 4.69140625 C1.96247274 2.66934811 1.96247274 2.66934811 -1 1 C-0.67 0.67 -0.34 0.34 0 0 Z " fill="#032029" transform="translate(382,574)"/>
<path d="M0 0 C0.33 0.99 0.66 1.98 1 3 C-3.455 6.96 -3.455 6.96 -8 11 C-8.33 9.68 -8.66 8.36 -9 7 C-8.43410156 6.57847656 -7.86820313 6.15695312 -7.28515625 5.72265625 C-6.55167969 5.17480469 -5.81820312 4.62695312 -5.0625 4.0625 C-4.33160156 3.51722656 -3.60070312 2.97195313 -2.84765625 2.41015625 C-1.0865547 1.13092062 -1.0865547 1.13092062 0 0 Z " fill="#031C25" transform="translate(638,576)"/>
<path d="M0 0 C2.00461299 0.65266469 4.00379834 1.32204472 6 2 C6.845625 2.268125 7.69125 2.53625 8.5625 2.8125 C11.74414486 4.36253211 13.71222092 6.32003023 16 9 C16 9.99 16 10.98 16 12 C15.43152344 11.54109375 14.86304688 11.0821875 14.27734375 10.609375 C9.68430283 6.95947938 5.17996274 3.75529933 0 1 C0 0.67 0 0.34 0 0 Z " fill="#0C173A" transform="translate(531,240)"/>
<path d="M0 0 C0.91007813 0.00902344 1.82015625 0.01804687 2.7578125 0.02734375 C3.45648437 0.03894531 4.15515625 0.05054688 4.875 0.0625 C4.545 1.0525 4.215 2.0425 3.875 3.0625 C0.245 3.0625 -3.385 3.0625 -7.125 3.0625 C-7.125 2.4025 -7.125 1.7425 -7.125 1.0625 C-4.60024538 -0.19987731 -2.81299534 -0.03606404 0 0 Z " fill="#00050E" transform="translate(603.125,590.9375)"/>
<path d="M0 0 C0.99 0.495 0.99 0.495 2 1 C3.14170067 4.92773752 3.10357788 8.74578979 3.0625 12.8125 C3.05347656 13.97394531 3.04445313 15.13539063 3.03515625 16.33203125 C3.02355469 17.21246094 3.01195312 18.09289062 3 19 C2.67 19 2.34 19 2 19 C0.82706111 12.6221448 -0.29530838 6.49678438 0 0 Z " fill="#031E28" transform="translate(768,534)"/>
<path d="M0 0 C4.13621084 3.3810038 7.81316569 6.66590534 11 11 C10.01 11.495 10.01 11.495 9 12 C6.03595495 9.19195732 3.55500981 6.81684226 2 3 C1.34 3 0.68 3 0 3 C0 2.01 0 1.02 0 0 Z " fill="#18343A" transform="translate(555,242)"/>
<path d="M0 0 C1.8125 1.625 1.8125 1.625 3 3 C2.67 3.99 2.34 4.98 2 6 C1.34 4.68 0.68 3.36 0 2 C-3.3 2 -6.6 2 -10 2 C-9.67 1.01 -9.34 0.02 -9 -1 C-5.5303798 -2.61089509 -3.28607944 -1.68516894 0 0 Z " fill="#EEA722" transform="translate(589,205)"/>
<path d="M0 0 C0.33 0.66 0.66 1.32 1 2 C-2.20704349 5.20704349 -3.63346802 6.31882759 -8.125 7.125 C-9.03507813 7.29257812 -9.94515625 7.46015625 -10.8828125 7.6328125 C-11.58148437 7.75398437 -12.28015625 7.87515625 -13 8 C-11.47306036 4.94612072 -8.96382675 4.34037927 -5.9375 2.875 C-4.83277344 2.33617187 -3.72804688 1.79734375 -2.58984375 1.2421875 C-1.73519531 0.83226562 -0.88054688 0.42234375 0 0 Z " fill="#007F89" transform="translate(669,703)"/>
<path d="M0 0 C1.35949488 4.07848463 0.14486103 7.17680945 -0.9375 11.1875 C-1.13279297 11.93708984 -1.32808594 12.68667969 -1.52929688 13.45898438 C-2.01214375 15.30793459 -2.50510633 17.15423776 -3 19 C-3.33 19 -3.66 19 -4 19 C-3.85941524 16.54126232 -3.71277001 14.08314825 -3.5625 11.625 C-3.52318359 10.92632813 -3.48386719 10.22765625 -3.44335938 9.5078125 C-3.11328125 4.2265625 -3.11328125 4.2265625 -2 2 C-1.34 2 -0.68 2 0 2 C0 1.34 0 0.68 0 0 Z " fill="#02828E" transform="translate(339,511)"/>
<path d="M0 0 C3.9252025 3.70090521 6.94580156 7.54959656 10 12 C6.88175879 10.63746417 4.95262649 9.14891747 2.75 6.5625 C2.22921875 5.96566406 1.7084375 5.36882813 1.171875 4.75390625 C0 3 0 3 0 0 Z " fill="#082430" transform="translate(283,677)"/>
<path d="M0 0 C0.33 0 0.66 0 1 0 C1.22577402 5.4185766 0.46670113 9.77487721 -1 15 C-1.33 15 -1.66 15 -2 15 C-2.05429959 13.25034642 -2.09292823 11.50020213 -2.125 9.75 C-2.15980469 8.28820312 -2.15980469 8.28820312 -2.1953125 6.796875 C-1.99862781 3.9803502 -1.44568916 2.39050964 0 0 Z " fill="#010C14" transform="translate(375,521)"/>
<path d="M0 0 C0.53109375 0.33773438 1.0621875 0.67546875 1.609375 1.0234375 C2.31578125 1.46945312 3.0221875 1.91546875 3.75 2.375 C4.79414063 3.03628906 4.79414063 3.03628906 5.859375 3.7109375 C7.95588418 5.04548133 7.95588418 5.04548133 10.203125 5.9140625 C12 7 12 7 12.75 9.125 C12.87375 10.053125 12.87375 10.053125 13 11 C11.58235006 10.06398754 10.16592432 9.1261208 8.75 8.1875 C7.56664062 7.40439453 7.56664062 7.40439453 6.359375 6.60546875 C1.77510663 3.4860411 1.77510663 3.4860411 0 2 C0 1.34 0 0.68 0 0 Z " fill="#007D89" transform="translate(443,508)"/>
<path d="M0 0 C6.63157895 1.47368421 6.63157895 1.47368421 8.3125 3.875 C8.6528125 4.926875 8.6528125 4.926875 9 6 C9.65486777 7.33916781 10.32004504 8.673394 11 10 C10.45730469 9.59007812 9.91460938 9.18015625 9.35546875 8.7578125 C8.64003906 8.21898437 7.92460938 7.68015625 7.1875 7.125 C6.47980469 6.59132813 5.77210938 6.05765625 5.04296875 5.5078125 C3.39543703 4.29185219 1.70375789 3.13583859 0 2 C0 1.34 0 0.68 0 0 Z " fill="#02222D" transform="translate(662,382)"/>
<path d="M0 0 C0.99 0.66 1.98 1.32 3 2 C3.1875 4.625 3.1875 4.625 3 7 C2.01 7 1.02 7 0 7 C-0.33 7.99 -0.66 8.98 -1 10 C-1.66 10 -2.32 10 -3 10 C-1.125 2.25 -1.125 2.25 0 0 Z " fill="#F5E221" transform="translate(462,272)"/>
<path d="M0 0 C0.99 0.33 1.98 0.66 3 1 C0.03 3.97 -2.94 6.94 -6 10 C-6.33 9.01 -6.66 8.02 -7 7 C-5.37660195 5.29115995 -3.70680947 3.62553283 -2 2 C-1.34 2 -0.68 2 0 2 C0 1.34 0 0.68 0 0 Z " fill="#12333F" transform="translate(732,687)"/>
<path d="M0 0 C0.99 0.33 1.98 0.66 3 1 C2.36191406 1.48210937 1.72382813 1.96421875 1.06640625 2.4609375 C0.24011719 3.09257812 -0.58617187 3.72421875 -1.4375 4.375 C-2.26121094 5.00148438 -3.08492188 5.62796875 -3.93359375 6.2734375 C-6.08528092 7.83753904 -6.08528092 7.83753904 -7 10 C-7.66 9.67 -8.32 9.34 -9 9 C-8.06725891 7.87105124 -7.12859878 6.74699124 -6.1875 5.625 C-5.66542969 4.99851562 -5.14335937 4.37203125 -4.60546875 3.7265625 C-3 2 -3 2 0 0 Z " fill="#03222E" transform="translate(358,383)"/>
<path d="M0 0 C0.66 0.33 1.32 0.66 2 1 C2 2.32 2 3.64 2 5 C4.31 5.33 6.62 5.66 9 6 C8.34 6.66 7.68 7.32 7 8 C4 7.8125 4 7.8125 1 7 C-1 4 -1 4 -0.625 1.8125 C-0.41875 1.214375 -0.2125 0.61625 0 0 Z " fill="#D79825" transform="translate(563,229)"/>
<path d="M0 0 C0 3 0 3 -2.375 5.6875 C-5 8 -5 8 -7 8 C-7.33 8.99 -7.66 9.98 -8 11 C-8.66 10.67 -9.32 10.34 -10 10 C-3.84965831 2.51708428 -3.84965831 2.51708428 0 0 Z " fill="#000A0F" transform="translate(573,516)"/>
<path d="M0 0 C0 3 0 3 -1.96875 5.26171875 C-2.8040625 6.06222656 -3.639375 6.86273438 -4.5 7.6875 C-5.3353125 8.49574219 -6.170625 9.30398438 -7.03125 10.13671875 C-7.6809375 10.75160156 -8.330625 11.36648438 -9 12 C-9.66 11.67 -10.32 11.34 -11 11 C-7.81316569 6.66590534 -4.13621084 3.3810038 0 0 Z " fill="#007783" transform="translate(352,410)"/>
<path d="M0 0 C0.70125 0.2475 1.4025 0.495 2.125 0.75 C2.125 1.08 2.125 1.41 2.125 1.75 C0.145 1.75 -1.835 1.75 -3.875 1.75 C-3.875 2.41 -3.875 3.07 -3.875 3.75 C-4.865 4.41 -5.855 5.07 -6.875 5.75 C-7.205 6.74 -7.535 7.73 -7.875 8.75 C-8.535 8.75 -9.195 8.75 -9.875 8.75 C-9.75 6.5 -9.75 6.5 -8.875 3.75 C-4.11824324 -0.35810811 -4.11824324 -0.35810811 0 0 Z " fill="#EDAD25" transform="translate(512.875,175.25)"/>
<path d="M0 0 C0.66 0 1.32 0 2 0 C2.70226141 1.24176695 3.38629109 2.49385599 4.0625 3.75 C4.44535156 4.44609375 4.82820312 5.1421875 5.22265625 5.859375 C6.1312406 8.36140628 5.88336837 9.5332355 5 12 C4.15885829 10.56705502 3.32734313 9.12845595 2.5 7.6875 C1.80390625 6.48673828 1.80390625 6.48673828 1.09375 5.26171875 C0 3 0 3 0 0 Z " fill="#0C262F" transform="translate(576,270)"/>
<path d="M0 0 C0.66 0 1.32 0 2 0 C2.67119549 1.4562545 3.33681807 2.91507867 4 4.375 C4.556875 5.59316406 4.556875 5.59316406 5.125 6.8359375 C6 9 6 9 6 11 C5.34 11 4.68 11 4 11 C3.32591692 9.73308493 2.66099503 8.46129251 2 7.1875 C1.62875 6.47980469 1.2575 5.77210938 0.875 5.04296875 C0 3 0 3 0 0 Z " fill="#07232D" transform="translate(267,650)"/>
<path d="M0 0 C2.97 0 5.94 0 9 0 C8.67 0.99 8.34 1.98 8 3 C5.36 3 2.72 3 0 3 C0 2.01 0 1.02 0 0 Z M-2 3 C0 4 0 4 0 4 Z " fill="#FEF8C7" transform="translate(492,250)"/>
<path d="M0 0 C0.33 0.99 0.66 1.98 1 3 C1.66 3.66 2.32 4.32 3 5 C0.69 5.33 -1.62 5.66 -4 6 C-2.25 1.125 -2.25 1.125 0 0 Z " fill="#04262F" transform="translate(666,574)"/>
<path d="M0 0 C0.66 0 1.32 0 2 0 C3.28317892 3.84953676 3.06643637 6.94738135 3 11 C0.43383368 7.15075052 0.44902324 4.5650696 0 0 Z " fill="#02242E" transform="translate(765,522)"/>
<path d="M0 0 C0 0.99 0 1.98 0 3 C-5.2734375 6.22265625 -5.2734375 6.22265625 -7 7 C-7.66 6.67 -8.32 6.34 -9 6 C-6.03 4.02 -3.06 2.04 0 0 Z " fill="#05535D" transform="translate(655,586)"/>
<path d="M0 0 C1 2 1 2 0.44140625 3.9453125 C0.15136719 4.66460937 -0.13867188 5.38390625 -0.4375 6.125 C-0.72496094 6.84945312 -1.01242187 7.57390625 -1.30859375 8.3203125 C-1.53675781 8.87460937 -1.76492188 9.42890625 -2 10 C-2.33 10 -2.66 10 -3 10 C-2.25 2.25 -2.25 2.25 0 0 Z " fill="#031E28" transform="translate(263,507)"/>
<path d="M0 0 C0.99 0.33 1.98 0.66 3 1 C-0.96 4.465 -0.96 4.465 -5 8 C-5 5 -5 5 -2.5 2.3125 C-1.675 1.549375 -0.85 0.78625 0 0 Z " fill="#021C27" transform="translate(337,401)"/>
<path d="M0 0 C0.99 1.32 1.98 2.64 3 4 C2 7 2 7 -1 10 C-0.67 6.7 -0.34 3.4 0 0 Z " fill="#00828C" transform="translate(572,299)"/>
<path d="M0 0 C0.33 1.32 0.66 2.64 1 4 C-2.75 7 -2.75 7 -5 7 C-3.70700306 4.11562221 -2.34058637 2.12780579 0 0 Z " fill="#062A31" transform="translate(661,580)"/>
<path d="M0 0 C2.29013653 3.4352048 2.17842973 4.985331 2 9 C1.34 8.34 0.68 7.68 0 7 C-0.99 7.495 -0.99 7.495 -2 8 C-1.47731534 5.23723823 -0.89130413 2.6739124 0 0 Z " fill="#01838C" transform="translate(450,299)"/>
<path d="M0 0 C3.63 0.33 7.26 0.66 11 1 C11 1.33 11 1.66 11 2 C7.37 2.33 3.74 2.66 0 3 C0 2.01 0 1.02 0 0 Z " fill="#2A3E3A" transform="translate(512,225)"/>
<path d="M0 0 C0 3.10551666 -0.5393715 4.35261084 -2 7 C-2.99 6.34 -3.98 5.68 -5 5 C-3.35 3.35 -1.7 1.7 0 0 Z " fill="#1D3839" transform="translate(463,247)"/>
<path d="M0 0 C2.97 0 5.94 0 9 0 C9 0.33 9 0.66 9 1 C6.03 1 3.06 1 0 1 C0 0.67 0 0.34 0 0 Z " fill="#C8C9C8" transform="translate(633,759)"/>
<path d="M0 0 C0.33 0 0.66 0 1 0 C1 1.65 1 3.3 1 5 C0.34 3.68 -0.32 2.36 -1 1 C-0.67 0.67 -0.34 0.34 0 0 Z " fill="#02222D" transform="translate(370,544)"/>
<path d="M0 0 C1.32 0.33 2.64 0.66 4 1 C3.01 1.495 3.01 1.495 2 2 C1.34 1.34 0.68 0.68 0 0 Z " fill="#C7C8C7" transform="translate(379,758)"/>
<path d="M0 0 C1.65 0 3.3 0 5 0 C5 0.33 5 0.66 5 1 C3.35 1 1.7 1 0 1 C0 0.67 0 0.34 0 0 Z " fill="#C5C7C6" transform="translate(322,750)"/>
<path d="M0 0 C0.66 0.66 1.32 1.32 2 2 C1.01 2 0.02 2 -1 2 C-0.67 1.34 -0.34 0.68 0 0 Z " fill="#575D43" transform="translate(566,248)"/>
<path d="M0 0 C0.99 1.485 0.99 1.485 2 3 C1.34 3 0.68 3 0 3 C0 2.01 0 1.02 0 0 Z " fill="#073642" transform="translate(379,572)"/>
<path d="M0 0 C1 4 1 4 1 4 Z " fill="#073642" transform="translate(249,562)"/>
<path d="M0 0 C4 1 4 1 4 1 Z " fill="#012731" transform="translate(592,536)"/>
<path d="M0 0 C0 3 0 3 0 3 Z " fill="#032C39" transform="translate(673,533)"/>
<path d="M0 0 C0.66 0.66 1.32 1.32 2 2 C1.01 2.495 1.01 2.495 0 3 C0 2.01 0 1.02 0 0 Z " fill="#BF9838" transform="translate(433,221)"/>
<path d="M0 0 C0.66 0.66 1.32 1.32 2 2 C1.34 2 0.68 2 0 2 C0 1.34 0 0.68 0 0 Z " fill="#C6C7C7" transform="translate(701,750)"/>
<path d="M0 0 C3 1 3 1 3 1 Z " fill="#7D8D90" transform="translate(321,716)"/>
<path d="" fill="#052832" transform="translate(0,0)"/>
<path d="M0 0 C0.33 0.66 0.66 1.32 1 2 C0.34 1.67 -0.32 1.34 -1 1 C-0.67 0.67 -0.34 0.34 0 0 Z " fill="#062F3B" transform="translate(674,544)"/>
<path d="" fill="#011E2A" transform="translate(0,0)"/>
<path d="M0 0 C3 1 3 1 3 1 Z " fill="#726F41" transform="translate(504,224)"/>
<path d="M0 0 C2 1 2 1 2 1 Z " fill="#C2C3C2" transform="translate(539,765)"/>
<path d="M0 0 C2 1 2 1 2 1 Z " fill="#C0C2C3" transform="translate(521,765)"/>
<path d="M0 0 C2 1 2 1 2 1 Z " fill="#C0C2C2" transform="translate(481,765)"/>
<path d="M0 0 C2 1 2 1 2 1 Z " fill="#C8C9C9" transform="translate(395,759)"/>
<path d="M0 0 C2 1 2 1 2 1 Z " fill="#C9C9C9" transform="translate(363,756)"/>
<path d="M0 0 C2 1 2 1 2 1 Z " fill="#234C57" transform="translate(281,680)"/>
<path d="" fill="#184450" transform="translate(0,0)"/>
<path d="" fill="#17414D" transform="translate(0,0)"/>
<path d="" fill="#113E49" transform="translate(0,0)"/>
<path d="" fill="#113E48" transform="translate(0,0)"/>
<path d="" fill="#0D3C49" transform="translate(0,0)"/>
<path d="M0 0 C2 1 2 1 2 1 Z " fill="#0A616A" transform="translate(604,596)"/>
<path d="M0 0 C2 1 2 1 2 1 Z " fill="#0A646A" transform="translate(417,596)"/>
<path d="" fill="#0B3B49" transform="translate(0,0)"/>
<path d="M0 0 C2 1 2 1 2 1 Z " fill="#09636C" transform="translate(641,592)"/>
<path d="M0 0 C2 1 2 1 2 1 Z " fill="#0A444E" transform="translate(363,576)"/>
<path d="" fill="#021E29" transform="translate(0,0)"/>
<path d="" fill="#083B42" transform="translate(0,0)"/>
<path d="M0 0 C2 1 2 1 2 1 Z " fill="#022634" transform="translate(376,502)"/>
<path d="" fill="#043742" transform="translate(0,0)"/>
<path d="" fill="#0A3A44" transform="translate(0,0)"/>
<path d="M0 0 C2 1 2 1 2 1 Z " fill="#093844" transform="translate(648,368)"/>
<path d="" fill="#123B42" transform="translate(0,0)"/>
<path d="" fill="#1C4343" transform="translate(0,0)"/>
<path d="" fill="#1C4246" transform="translate(0,0)"/>
<path d="" fill="#384E44" transform="translate(0,0)"/>
<path d="" fill="#405342" transform="translate(0,0)"/>
<path d="" fill="#465342" transform="translate(0,0)"/>
<path d="M0 0 C2 1 2 1 2 1 Z " fill="#63623D" transform="translate(456,251)"/>
<path d="" fill="#756E40" transform="translate(0,0)"/>
<path d="M0 0 C2 1 2 1 2 1 Z " fill="#BA9335" transform="translate(441,230)"/>
<path d="M0 0 C2 1 2 1 2 1 Z " fill="#726C41" transform="translate(493,226)"/>
<path d="M0 0 C2 1 2 1 2 1 Z " fill="#6D6D43" transform="translate(520,224)"/>
<path d="M0 0 C2 1 2 1 2 1 Z " fill="#D4A132" transform="translate(572,208)"/>
<path d="M0 0 C2 1 2 1 2 1 Z " fill="#C99E35" transform="translate(517,176)"/>
<path d="" fill="#555757" transform="translate(0,0)"/>
<path d="" fill="#C1C4C2" transform="translate(0,0)"/>
<path d="" fill="#C1C2C0" transform="translate(0,0)"/>
<path d="" fill="#C1C3C2" transform="translate(0,0)"/>
<path d="" fill="#BEC0C0" transform="translate(0,0)"/>
<path d="" fill="#C0C0C0" transform="translate(0,0)"/>
<path d="" fill="#C2C4C4" transform="translate(0,0)"/>
<path d="" fill="#C1C4C4" transform="translate(0,0)"/>
<path d="" fill="#C7C8C6" transform="translate(0,0)"/>
<path d="" fill="#C7C9C9" transform="translate(0,0)"/>
<path d="" fill="#CACAC8" transform="translate(0,0)"/>
<path d="" fill="#C9CAC9" transform="translate(0,0)"/>
<path d="" fill="#C7CAC8" transform="translate(0,0)"/>
<path d="" fill="#C8CAC9" transform="translate(0,0)"/>
<path d="" fill="#C8C9C9" transform="translate(0,0)"/>
<path d="" fill="#C9CAC9" transform="translate(0,0)"/>
<path d="" fill="#C8C9C8" transform="translate(0,0)"/>
<path d="" fill="#C9CAC9" transform="translate(0,0)"/>
<path d="" fill="#C8C9C9" transform="translate(0,0)"/>
<path d="" fill="#C7C9C9" transform="translate(0,0)"/>
<path d="" fill="#C8C9C9" transform="translate(0,0)"/>
<path d="" fill="#C8C8C8" transform="translate(0,0)"/>
<path d="" fill="#C7C9C7" transform="translate(0,0)"/>
<path d="" fill="#C6C9C8" transform="translate(0,0)"/>
<path d="" fill="#C9CAC9" transform="translate(0,0)"/>
<path d="" fill="#C7CBC8" transform="translate(0,0)"/>
<path d="" fill="#C3C7C5" transform="translate(0,0)"/>
<path d="" fill="#C2C5C3" transform="translate(0,0)"/>
<path d="" fill="#BEC0C0" transform="translate(0,0)"/>
<path d="" fill="#B4B5B4" transform="translate(0,0)"/>
<path d="" fill="#B0B3B4" transform="translate(0,0)"/>
<path d="" fill="#AEB3B3" transform="translate(0,0)"/>
<path d="" fill="#ABB0B2" transform="translate(0,0)"/>
<path d="" fill="#A9AFAD" transform="translate(0,0)"/>
<path d="" fill="#AAB0B0" transform="translate(0,0)"/>
<path d="" fill="#ADB2B1" transform="translate(0,0)"/>
<path d="" fill="#A8ADAE" transform="translate(0,0)"/>
<path d="" fill="#A9AEAF" transform="translate(0,0)"/>
<path d="" fill="#A1A9A9" transform="translate(0,0)"/>
<path d="" fill="#8FA1A0" transform="translate(0,0)"/>
<path d="" fill="#8B9A9C" transform="translate(0,0)"/>
<path d="" fill="#919CA1" transform="translate(0,0)"/>
<path d="" fill="#899A9D" transform="translate(0,0)"/>
<path d="" fill="#89979D" transform="translate(0,0)"/>
<path d="" fill="#849195" transform="translate(0,0)"/>
<path d="" fill="#809193" transform="translate(0,0)"/>
<path d="" fill="#6F8488" transform="translate(0,0)"/>
<path d="" fill="#678084" transform="translate(0,0)"/>
<path d="" fill="#5F797C" transform="translate(0,0)"/>
<path d="" fill="#6A8086" transform="translate(0,0)"/>
<path d="" fill="#516C74" transform="translate(0,0)"/>
<path d="" fill="#3F646D" transform="translate(0,0)"/>
<path d="" fill="#4D6A73" transform="translate(0,0)"/>
<path d="" fill="#47646D" transform="translate(0,0)"/>
<path d="" fill="#46666C" transform="translate(0,0)"/>
<path d="" fill="#41616A" transform="translate(0,0)"/>
<path d="" fill="#3B5C65" transform="translate(0,0)"/>
<path d="" fill="#345761" transform="translate(0,0)"/>
<path d="" fill="#365B63" transform="translate(0,0)"/>
<path d="" fill="#2E545E" transform="translate(0,0)"/>
<path d="" fill="#284E59" transform="translate(0,0)"/>
<path d="" fill="#2A4D59" transform="translate(0,0)"/>
<path d="" fill="#1C4750" transform="translate(0,0)"/>
<path d="" fill="#1C4751" transform="translate(0,0)"/>
<path d="" fill="#1B4854" transform="translate(0,0)"/>
<path d="" fill="#1D4953" transform="translate(0,0)"/>
<path d="" fill="#17434C" transform="translate(0,0)"/>
<path d="" fill="#14444E" transform="translate(0,0)"/>
<path d="" fill="#143E48" transform="translate(0,0)"/>
<path d="" fill="#133F49" transform="translate(0,0)"/>
<path d="" fill="#143F48" transform="translate(0,0)"/>
<path d="" fill="#0E3D49" transform="translate(0,0)"/>
<path d="" fill="#103B45" transform="translate(0,0)"/>
<path d="" fill="#0F3B46" transform="translate(0,0)"/>
<path d="" fill="#0D3A45" transform="translate(0,0)"/>
<path d="" fill="#0C3D47" transform="translate(0,0)"/>
<path d="" fill="#0D3A45" transform="translate(0,0)"/>
<path d="" fill="#0A3843" transform="translate(0,0)"/>
<path d="" fill="#0B5F68" transform="translate(0,0)"/>
<path d="" fill="#07636B" transform="translate(0,0)"/>
<path d="" fill="#096068" transform="translate(0,0)"/>
<path d="" fill="#0A5F6B" transform="translate(0,0)"/>
<path d="" fill="#065E66" transform="translate(0,0)"/>
<path d="" fill="#076068" transform="translate(0,0)"/>
<path d="" fill="#0A3B44" transform="translate(0,0)"/>
<path d="" fill="#08626C" transform="translate(0,0)"/>
<path d="" fill="#075A67" transform="translate(0,0)"/>
<path d="" fill="#0A606B" transform="translate(0,0)"/>
<path d="" fill="#08515C" transform="translate(0,0)"/>
<path d="" fill="#08565F" transform="translate(0,0)"/>
<path d="" fill="#0A585F" transform="translate(0,0)"/>
<path d="" fill="#094F5A" transform="translate(0,0)"/>
<path d="" fill="#083942" transform="translate(0,0)"/>
<path d="" fill="#09414B" transform="translate(0,0)"/>
<path d="" fill="#0B4550" transform="translate(0,0)"/>
<path d="" fill="#0C4652" transform="translate(0,0)"/>
<path d="" fill="#0D404B" transform="translate(0,0)"/>
<path d="" fill="#073943" transform="translate(0,0)"/>
<path d="" fill="#09343E" transform="translate(0,0)"/>
<path d="" fill="#07343D" transform="translate(0,0)"/>
<path d="" fill="#093D48" transform="translate(0,0)"/>
<path d="" fill="#0C3C43" transform="translate(0,0)"/>
<path d="" fill="#09313C" transform="translate(0,0)"/>
<path d="" fill="#0C3844" transform="translate(0,0)"/>
<path d="" fill="#074049" transform="translate(0,0)"/>
<path d="" fill="#093A46" transform="translate(0,0)"/>
<path d="" fill="#052933" transform="translate(0,0)"/>
<path d="" fill="#08333E" transform="translate(0,0)"/>
<path d="" fill="#04262F" transform="translate(0,0)"/>
<path d="" fill="#042530" transform="translate(0,0)"/>
<path d="" fill="#03232F" transform="translate(0,0)"/>
<path d="" fill="#07313C" transform="translate(0,0)"/>
<path d="" fill="#052735" transform="translate(0,0)"/>
<path d="" fill="#09313B" transform="translate(0,0)"/>
<path d="" fill="#052F39" transform="translate(0,0)"/>
<path d="" fill="#052E39" transform="translate(0,0)"/>
<path d="" fill="#03232D" transform="translate(0,0)"/>
<path d="" fill="#072E36" transform="translate(0,0)"/>
<path d="" fill="#03232E" transform="translate(0,0)"/>
<path d="" fill="#08333F" transform="translate(0,0)"/>
<path d="" fill="#011F2D" transform="translate(0,0)"/>
<path d="" fill="#022430" transform="translate(0,0)"/>
<path d="" fill="#02232C" transform="translate(0,0)"/>
<path d="" fill="#031F2A" transform="translate(0,0)"/>
<path d="" fill="#03212C" transform="translate(0,0)"/>
<path d="" fill="#052330" transform="translate(0,0)"/>
<path d="" fill="#01222D" transform="translate(0,0)"/>
<path d="" fill="#02232F" transform="translate(0,0)"/>
<path d="" fill="#02222E" transform="translate(0,0)"/>
<path d="" fill="#04212B" transform="translate(0,0)"/>
<path d="" fill="#03242D" transform="translate(0,0)"/>
<path d="" fill="#03242E" transform="translate(0,0)"/>
<path d="" fill="#06222E" transform="translate(0,0)"/>
<path d="" fill="#032532" transform="translate(0,0)"/>
<path d="" fill="#04222F" transform="translate(0,0)"/>
<path d="" fill="#032632" transform="translate(0,0)"/>
<path d="" fill="#042631" transform="translate(0,0)"/>
<path d="" fill="#042630" transform="translate(0,0)"/>
<path d="" fill="#042834" transform="translate(0,0)"/>
<path d="" fill="#042331" transform="translate(0,0)"/>
<path d="" fill="#022833" transform="translate(0,0)"/>
<path d="" fill="#031F2C" transform="translate(0,0)"/>
<path d="" fill="#062C35" transform="translate(0,0)"/>
<path d="" fill="#041F29" transform="translate(0,0)"/>
<path d="" fill="#04242E" transform="translate(0,0)"/>
<path d="" fill="#01202B" transform="translate(0,0)"/>
<path d="" fill="#083945" transform="translate(0,0)"/>
<path d="" fill="#082733" transform="translate(0,0)"/>
<path d="" fill="#02232A" transform="translate(0,0)"/>
<path d="" fill="#042A36" transform="translate(0,0)"/>
<path d="" fill="#03232C" transform="translate(0,0)"/>
<path d="" fill="#042C35" transform="translate(0,0)"/>
<path d="" fill="#002833" transform="translate(0,0)"/>
<path d="" fill="#032532" transform="translate(0,0)"/>
<path d="" fill="#052935" transform="translate(0,0)"/>
<path d="" fill="#042D3A" transform="translate(0,0)"/>
<path d="" fill="#0B3C43" transform="translate(0,0)"/>
<path d="" fill="#073840" transform="translate(0,0)"/>
<path d="" fill="#053740" transform="translate(0,0)"/>
<path d="" fill="#083A43" transform="translate(0,0)"/>
<path d="" fill="#093742" transform="translate(0,0)"/>
<path d="" fill="#063543" transform="translate(0,0)"/>
<path d="" fill="#083C44" transform="translate(0,0)"/>
<path d="" fill="#073943" transform="translate(0,0)"/>
<path d="" fill="#093841" transform="translate(0,0)"/>
<path d="" fill="#063640" transform="translate(0,0)"/>
<path d="" fill="#073845" transform="translate(0,0)"/>
<path d="" fill="#083A44" transform="translate(0,0)"/>
<path d="" fill="#0A3742" transform="translate(0,0)"/>
<path d="" fill="#0C3840" transform="translate(0,0)"/>
<path d="" fill="#093741" transform="translate(0,0)"/>
<path d="" fill="#0A3E49" transform="translate(0,0)"/>
<path d="" fill="#0A3843" transform="translate(0,0)"/>
<path d="" fill="#083840" transform="translate(0,0)"/>
<path d="" fill="#0B3B44" transform="translate(0,0)"/>
<path d="" fill="#073740" transform="translate(0,0)"/>
<path d="" fill="#083943" transform="translate(0,0)"/>
<path d="" fill="#0B3742" transform="translate(0,0)"/>
<path d="" fill="#063A44" transform="translate(0,0)"/>
<path d="" fill="#093944" transform="translate(0,0)"/>
<path d="" fill="#073B45" transform="translate(0,0)"/>
<path d="" fill="#083841" transform="translate(0,0)"/>
<path d="" fill="#093A45" transform="translate(0,0)"/>
<path d="" fill="#073D47" transform="translate(0,0)"/>
<path d="" fill="#093C45" transform="translate(0,0)"/>
<path d="" fill="#0B3B43" transform="translate(0,0)"/>
<path d="" fill="#0B434A" transform="translate(0,0)"/>
<path d="" fill="#2A3836" transform="translate(0,0)"/>
<path d="" fill="#103C43" transform="translate(0,0)"/>
<path d="" fill="#0D3C46" transform="translate(0,0)"/>
<path d="" fill="#113D44" transform="translate(0,0)"/>
<path d="" fill="#123D45" transform="translate(0,0)"/>
<path d="" fill="#123E45" transform="translate(0,0)"/>
<path d="" fill="#183D44" transform="translate(0,0)"/>
<path d="" fill="#154043" transform="translate(0,0)"/>
<path d="" fill="#193E44" transform="translate(0,0)"/>
<path d="" fill="#1B4347" transform="translate(0,0)"/>
<path d="" fill="#204345" transform="translate(0,0)"/>
<path d="" fill="#1E4441" transform="translate(0,0)"/>
<path d="" fill="#274644" transform="translate(0,0)"/>
<path d="" fill="#2B4844" transform="translate(0,0)"/>
<path d="" fill="#2F4A42" transform="translate(0,0)"/>
<path d="" fill="#324D44" transform="translate(0,0)"/>
<path d="" fill="#314943" transform="translate(0,0)"/>
<path d="" fill="#334C44" transform="translate(0,0)"/>
<path d="" fill="#334A43" transform="translate(0,0)"/>
<path d="" fill="#364B43" transform="translate(0,0)"/>
<path d="" fill="#3C4F43" transform="translate(0,0)"/>
<path d="" fill="#545C41" transform="translate(0,0)"/>
<path d="" fill="#505943" transform="translate(0,0)"/>
<path d="" fill="#555941" transform="translate(0,0)"/>
<path d="" fill="#585F40" transform="translate(0,0)"/>
<path d="" fill="#565D43" transform="translate(0,0)"/>
<path d="" fill="#64653F" transform="translate(0,0)"/>
<path d="" fill="#706D3E" transform="translate(0,0)"/>
<path d="" fill="#696640" transform="translate(0,0)"/>
<path d="" fill="#8C793C" transform="translate(0,0)"/>
<path d="" fill="#87763C" transform="translate(0,0)"/>
<path d="" fill="#86773C" transform="translate(0,0)"/>
<path d="" fill="#91793A" transform="translate(0,0)"/>
<path d="" fill="#947C3A" transform="translate(0,0)"/>
<path d="" fill="#AE8637" transform="translate(0,0)"/>
<path d="" fill="#967D38" transform="translate(0,0)"/>
<path d="" fill="#6C673F" transform="translate(0,0)"/>
<path d="" fill="#977C36" transform="translate(0,0)"/>
<path d="" fill="#AF8A38" transform="translate(0,0)"/>
<path d="" fill="#9C8037" transform="translate(0,0)"/>
<path d="" fill="#736D3F" transform="translate(0,0)"/>
<path d="" fill="#6E6D3F" transform="translate(0,0)"/>
<path d="" fill="#716D3D" transform="translate(0,0)"/>
<path d="" fill="#776C3D" transform="translate(0,0)"/>
<path d="" fill="#A28139" transform="translate(0,0)"/>
<path d="" fill="#726C3F" transform="translate(0,0)"/>
<path d="" fill="#696740" transform="translate(0,0)"/>
<path d="" fill="#69663F" transform="translate(0,0)"/>
<path d="" fill="#747242" transform="translate(0,0)"/>
<path d="" fill="#6D6E45" transform="translate(0,0)"/>
<path d="" fill="#6C6B42" transform="translate(0,0)"/>
<path d="" fill="#787041" transform="translate(0,0)"/>
<path d="" fill="#BD9636" transform="translate(0,0)"/>
<path d="" fill="#C39633" transform="translate(0,0)"/>
<path d="" fill="#A88B39" transform="translate(0,0)"/>
<path d="" fill="#B48E35" transform="translate(0,0)"/>
<path d="" fill="#D09F35" transform="translate(0,0)"/>
<path d="" fill="#C59935" transform="translate(0,0)"/>
<path d="" fill="#C79B38" transform="translate(0,0)"/>
<path d="" fill="#C09536" transform="translate(0,0)"/>
<path d="" fill="#BC9635" transform="translate(0,0)"/>
<path d="" fill="#D6A330" transform="translate(0,0)"/>
<path d="" fill="#D3A334" transform="translate(0,0)"/>
<path d="" fill="#D7A431" transform="translate(0,0)"/>
<path d="" fill="#494844" transform="translate(0,0)"/>
</svg>
