<svg xmlns="http://www.w3.org/2000/svg" width="1024" height="1024"><path fill="#006B76" d="m549 237 2.395 1.86c13.714 10.723 23.48 23.202 30.605 39.14h2l.324 3.096c.68 3.922 1.766 6.794 3.485 10.369l.855 1.79c.913 1.9 1.841 3.792 2.774 5.683l.959 1.962c7.636 15.597 16.057 29.127 27.603 42.1q1.598 1.934 3.188 3.875c3.262 3.778 7.007 6.91 10.812 10.125q1.568 1.36 3.133 2.723c6.636 5.762 13.372 11.348 20.336 16.712 2.673 2.065 5.167 4.155 7.531 6.565l1.875.875c2.309 1.222 3.815 2.77 5.63 4.623 2.859 2.873 5.843 5.614 8.808 8.377l2.037 1.903c3.167 2.949 6.344 5.865 9.65 8.66 10.299 8.901 19.623 18.853 28 29.562a931 931 0 0 0 2.824 3.414C760.297 484.572 778.056 538.737 773 596c-3.88 40.203-20.675 78.293-51.562 105-8.727 7.064-18.3 14.117-28.438 19l2.38.563c3.626.865 7.248 1.744 10.87 2.625l3.742.884C729.96 728.96 729.96 728.96 735 734c-.117 2.473-.117 2.473-1 5-28.438 23-106.976 23.04-142 22l-1 3v-2l-3.191.184C532.13 765.304 476.626 764.73 421 761l-2.742-.183c-106.301-7.192-106.301-7.192-127.258-22.255-1-1.562-1-1.562-.937-3.562 1.642-3.503 4.375-4.768 7.87-6.21 10.869-3.612 21.897-6.28 33.067-8.79l-2.902-1.477c-16.388-8.62-31.13-20.49-42.536-35.148l-1.42-1.822C276.86 672.06 271.136 661.796 266 651h-2l-.312-3c-.505-3.649-1.65-6.815-3.067-10.203C260 636 260 636 260 633l-3-1h2c-.342-2.97-.342-2.97-1-6l-2-1c-.633-2.547-.633-2.547-1.125-5.75l-.508-3.172A55 55 0 0 1 254 608l-2-1c-1.635-10.267-1.242-21.118-1.25-31.5l-.002-2.39c.033-24.187 3.837-47.128 12.372-69.82 1.095-2.92 1.88-5.142 1.88-8.29h2l.48-1.633c1.884-6.046 4.43-11.412 7.52-16.93l1.463-2.629c9.36-16.557 20.78-32.091 33.955-45.82 1.893-1.956 1.893-1.956 1.582-4.988l3 1 .691-1.684c1.678-2.968 3.806-5.002 6.247-7.378l2.652-2.598L327 410l1.594-1.613c1.6-1.577 3.27-3.043 4.969-4.512a526 526 0 0 0 9.25-8.25c5.248-4.73 10.688-9.19 16.187-13.625 17.952-14.483 17.952-14.483 35.316-29.66 1.798-1.43 3.6-2.387 5.684-3.34v-2a214 214 0 0 1 5-5c16.188-18.2 26.725-39.589 36.313-61.812 9.113-21.065 23.754-40.752 45.474-49.78 19.984-7.732 44.95-7.42 62.213 6.592M359 511c-8.85 10.45-11.907 23.575-11 37 2.235 16.497 9.105 27.302 20.813 38.75 16.287 11.497 34.127 13.778 53.402 10.883 2.975-.502 2.975-.502 5.785-2.633l-3.55-.297c-13.711-1.256-27.164-3.432-36.762-14.328L386 578l-1.914-1.805c-9.75-10.262-11.588-25.265-11.508-38.757.338-11.75 3.771-23.88 12.363-32.352 1.65-1.406 3.35-2.753 5.059-4.086v-1c-12.234-.852-22.17 2.291-31 11m275-10 2.125 1.938c10.212 10.298 14.723 23.934 15.25 38.187-.278 14.726-5.179 29.172-15.348 40.031-6.962 6.332-14.455 9.678-23.472 12.117-2.469.478-2.469.478-3.555 1.727a153 153 0 0 1-6.562.063l-3.63-.028L596 595c12.434 6.71 27.969 4.704 41 1 8.132-2.681 14.619-6.299 21-12l1.887-1.676c1.868-1.707 1.868-1.707 4.113-4.324v-3l3-1c7.605-11.13 10.638-25.868 8.496-39.117-1.705-8.44-4.767-14.79-9.496-21.883h-2l-.625-1.75c-3.615-5.915-10.975-7.921-17.29-9.828-2.488-.504-4.797-.518-7.335-.485l-2.703.028zm-240 14c-2.323 3.906-2.471 7.523-2 12 1.9 4.294 3.922 6.31 8.188 8.063 5.186 1.446 9.152.515 13.812-2.063 3.013-2.711 3.855-4.477 4.938-8.375.075-4.38-.754-6.84-2.938-10.625-3.166-3.067-6.19-3.253-10.437-3.437-4.93.146-7.885.947-11.563 4.437m187 3.688c-1.629 3.766-1.746 7.291-1 11.312 1.708 3.324 4.099 5.424 7.25 7.438 4.69.959 9.422.946 13.629-1.555 2.815-2.293 4.843-4.155 5.43-7.801.252-4.443-.028-7.454-2.746-11.082-3.113-3.141-5.865-4.11-10.25-4.273-4.9.579-8.598 2.826-12.313 5.96"/><path fill="#002B38" d="m549 237 2.395 1.86c13.714 10.723 23.48 23.202 30.605 39.14h2l.324 3.096c.68 3.922 1.766 6.794 3.485 10.369l.855 1.79c.913 1.9 1.841 3.792 2.774 5.683l.959 1.962c7.636 15.597 16.057 29.127 27.603 42.1q1.598 1.934 3.188 3.875c3.262 3.778 7.007 6.91 10.812 10.125q1.568 1.36 3.133 2.723c6.636 5.762 13.372 11.348 20.336 16.712 2.673 2.065 5.167 4.155 7.531 6.565l1.875.875c2.309 1.222 3.815 2.77 5.63 4.623 2.859 2.873 5.843 5.614 8.808 8.377l2.037 1.903c3.167 2.949 6.344 5.865 9.65 8.66 10.299 8.901 19.623 18.853 28 29.562a931 931 0 0 0 2.824 3.414C760.297 484.572 778.056 538.737 773 596c-3.88 40.203-20.675 78.293-51.562 105-8.727 7.064-18.3 14.117-28.438 19l2.38.563c3.626.865 7.248 1.744 10.87 2.625l3.742.884C729.96 728.96 729.96 728.96 735 734c-.117 2.473-.117 2.473-1 5-28.438 23-106.976 23.04-142 22l-1 3v-2l-3.191.184C532.13 765.304 476.626 764.73 421 761l-2.742-.183c-106.301-7.192-106.301-7.192-127.258-22.255-1-1.562-1-1.562-.937-3.562 1.642-3.503 4.375-4.768 7.87-6.21 10.869-3.612 21.897-6.28 33.067-8.79l-2.902-1.477c-16.388-8.62-31.13-20.49-42.536-35.148l-1.42-1.822C276.86 672.06 271.136 661.796 266 651h-2l-.312-3c-.505-3.649-1.65-6.815-3.067-10.203C260 636 260 636 260 633l-3-1h2c-.342-2.97-.342-2.97-1-6l-2-1c-.633-2.547-.633-2.547-1.125-5.75l-.508-3.172A55 55 0 0 1 254 608l-2-1c-1.635-10.267-1.242-21.118-1.25-31.5l-.002-2.39c.033-24.187 3.837-47.128 12.372-69.82 1.095-2.92 1.88-5.142 1.88-8.29h2l.48-1.633c1.884-6.046 4.43-11.412 7.52-16.93l1.463-2.629c9.36-16.557 20.78-32.091 33.955-45.82 1.893-1.956 1.893-1.956 1.582-4.988l3 1 .691-1.684c1.678-2.968 3.806-5.002 6.247-7.378l2.652-2.598L327 410l1.594-1.613c1.6-1.577 3.27-3.043 4.969-4.512a526 526 0 0 0 9.25-8.25c5.248-4.73 10.688-9.19 16.187-13.625 17.952-14.483 17.952-14.483 35.316-29.66 1.798-1.43 3.6-2.387 5.684-3.34v-2a214 214 0 0 1 5-5c16.188-18.2 26.725-39.589 36.313-61.812 9.113-21.065 23.754-40.752 45.474-49.78 19.984-7.732 44.95-7.42 62.213 6.592m-99 62-1.363 3.305C437.64 328.335 420.93 351.978 399 370q-2.339 1.994-4.676 3.99c-4.366 3.72-8.762 7.39-13.262 10.947-9.234 7.328-18.107 15.115-26.824 23.047-2.11 1.9-4.26 3.74-6.425 5.579-3.278 2.858-6.116 5.92-8.922 9.238-2.104 2.447-4.308 4.783-6.516 7.137C322.323 440.985 313.345 452.99 306 466l-1.092 1.92c-7.787 13.791-13.79 27.906-17.72 43.267l-.591 2.299c-2.996 12.484-3.99 25.08-3.972 37.889l.003 2.044c.12 28.08 10.812 51.528 30.372 71.581l1.883 2.105c30 32.625 82.122 45.827 124.117 51.895l5.063.781c40.43 6.01 81.388 5.715 121.937 1.219q3.408-.348 6.816-.691C607.927 676.608 643.843 667.986 675 651l1.842-.984c26.389-14.145 50.553-36.342 59.674-65.664 6.724-23.108 6.164-47.04.484-70.352l-.535-2.249c-6.903-28.135-22.154-57.48-42.27-78.45-1.87-1.96-3.639-3.96-5.406-6.012-4-4.592-8.232-8.924-12.539-13.226l-2.409-2.407c-4.877-4.826-9.8-9.36-15.204-13.59-3.117-2.442-6.125-4.996-9.137-7.566-4.024-3.424-8.08-6.8-12.187-10.125-4.404-3.586-8.655-7.304-12.848-11.133a327 327 0 0 0-4.961-4.422C598.812 346.678 585.005 323.51 573 299c-1.944 3.668-2.752 7.118-3.625 11.188-2.994 12.764-8.48 25.07-17.375 34.812l-1.43 1.809c-6.654 7.74-18.9 13.612-28.957 15.015-17.928 1.206-33.336-1.468-47.363-13.387-13.918-13.376-18.794-31.31-23.25-49.437z"/><path fill="#FDD920" d="M543.766 248.145A140 140 0 0 1 551 255l1.707 1.64c9.955 10.402 13.838 24.354 13.602 38.348-.861 14.681-7.094 26.845-17.664 36.875C534.664 343.16 519.678 346.626 502 345c-15.009-2.668-27.448-11.029-36.25-23.312-7.673-12.106-9.82-27.165-7.066-41.165C463.314 264.42 471.859 252.9 486 244c18.942-10.306 40.385-9.333 57.766 4.145"/><path fill="#00131D" d="M442.18 508.428c11.116 7.595 20.406 15.43 24.82 28.572.525 3.315.574 6.524.5 9.875l-.037 2.657C467.131 560.41 463.506 568.38 457 577l-1.867 2.504c-6.84 8.005-16.836 13.44-27.133 15.496-11.796.841-21.72-1.241-32-7l-1.941-1.004c-3.544-1.886-5.954-3.562-8.059-6.996-1.833-3.167-1.833-3.167-5-5a107 107 0 0 1-3.563-7.563l-.92-2.056c-6.064-14.019-7.04-31.127-1.783-45.549 3.323-7.435 7.224-13.365 13.266-18.832-10.909-.715-18.95 2.621-27.418 9.414-1.817 1.449-1.817 1.449-1.582 3.586l-1.75 1.562c-7.115 7.709-8.74 19.323-8.496 29.458 1.22 14.774 6.111 26.436 16.488 37.02C367 584 367 584 367 586c-9.64-2.225-17.25-10.324-23-18-5.949-9.673-8.547-19.577-8.375-30.875l.03-2.925c.314-14.408 4.464-26.724 14.435-37.419 24.932-23.25 67.557-4.43 92.09 11.647M394 515c-2.323 3.906-2.471 7.523-2 12 1.9 4.294 3.922 6.31 8.187 8.062 5.187 1.447 9.153.516 13.813-2.062 3.013-2.711 3.855-4.477 4.937-8.375.076-4.38-.753-6.84-2.937-10.625-3.166-3.067-6.19-3.253-10.438-3.438-4.929.147-7.884.948-11.562 4.438"/><path fill="#00141E" d="M669 494c10.336 8.14 16.217 20.32 19 33 1.309 17.052-.732 33.317-11.312 47.375-3.562 3.479-7.446 6.044-11.688 8.625l-2.066 1.266C658.322 587 658.322 587 656 587c1.56-3.831 4.108-6.108 7-9l1-3 1.898-1.844c7.404-7.596 8.969-20.412 9.414-30.593-.257-8.854-2.55-17.249-7.226-24.758C667 516 667 516 666 513h-2l-2.187-2.25c-6.543-6.397-13.802-8.847-22.813-8.875-1.334.032-2.667.07-4 .125l3.063 2.188c9.856 8.536 13.036 21.555 14.25 34.023.603 15.269-4.318 29.758-14 41.539-7.96 8.475-18.139 14.04-29.801 14.754-14.47.336-23.63-1.313-34.887-10.879-9.005-8.616-16.3-19.099-16.96-31.93-.315-15.857-.315-15.857 4.335-22.695l1.508-2.285c4.067-5.666 8.78-9.769 14.492-13.715l2.457-1.707C602.635 495.899 643.164 476.986 669 494m-88 24.688c-1.629 3.766-1.746 7.291-1 11.312 1.708 3.324 4.099 5.424 7.25 7.438 4.69.959 9.422.946 13.629-1.555 2.815-2.293 4.843-4.155 5.43-7.801.252-4.443-.028-7.454-2.746-11.082-3.113-3.141-5.865-4.11-10.25-4.273-4.9.579-8.598 2.826-12.313 5.96"/><path fill="#D6D7D6" d="M689 720c3.91.48 7.765 1.344 11.625 2.125l3.44.695c11 2.293 21.653 4.598 30.935 11.18-.242 2.348-.242 2.348-1 5-28.438 23-106.976 23.04-142 22l-1 3v-2l-3.191.184C532.13 765.304 476.626 764.73 421 761l-2.742-.183c-106.301-7.192-106.301-7.192-127.258-22.255-1-1.562-1-1.562-.937-3.562 1.663-3.548 4.434-4.794 7.976-6.246 7.069-2.349 14.136-4.403 21.399-6.067.732-.17 1.464-.342 2.219-.519 9.983-2.176 16.024-.862 25.218 3.332 51.527 22.427 109.878 27.748 165.563 27.688l2.901-.001c15.965-.021 31.769-.55 47.661-2.187l3.184-.325A682 682 0 0 0 588 748l3.031-.413C643.148 741.74 643.148 741.74 689 720"/><path fill="#FBA413" d="M555 272c2 1 2 1 3.063 3.188 3.856 11.57 2.795 23.777-2.063 34.812a118 118 0 0 1-5 9c3.857-5.867 6.686-11.193 8.262-18.066L560 299l3-1 1-2c.731 6.289-1.336 11.032-3.71 16.816-1.33 3.133-1.33 3.133-2.204 6.278-3.839 10.273-15.14 17.73-24.711 22.219-12.661 5.53-28.465 5.695-41.383 1.011-11.714-5.184-21.735-11.863-27.117-23.824-2.278-6.507-2.278-6.507-.937-9.812L465 307c2 2 2 2 2 5h2l-.84-1.977-1.098-2.648-1.09-2.602c-2.369-6.756-1.93-13.105-1.534-20.148l.158-3.098q.194-3.764.404-7.527l2-1 .625 3.875c2.241 9.846 8.197 17.378 16.375 23.125 12.193 6.74 25.107 9.244 38.813 5.813 10.617-3.409 20.94-8.73 26.855-18.594 2.304-4.918 4.043-9.948 5.332-15.219"/><path fill="#25B1AB" d="M394 410c3.967 2.714 5.719 5.645 6.688 10.313-1.786 9.579-7.447 17.33-14.688 23.687-5.883 3.932-11.87 6.993-19.09 6.469-3.021-.742-4.81-2.238-6.91-4.469-2.129-4.257-1.59-9.39-1-14 1.496-3.483 3.527-6.147 6-9l1.535-1.898C372.96 413.873 384.072 407.078 394 410"/><path fill="#FCC415" d="M563 296h1c.731 6.289-1.336 11.032-3.71 16.816-1.33 3.133-1.33 3.133-2.204 6.278-3.839 10.273-15.14 17.73-24.711 22.219-12.661 5.53-28.465 5.695-41.383 1.011-11.714-5.184-21.735-11.863-27.117-23.824-2.278-6.507-2.278-6.507-.937-9.812L465 307c2 2 2 2 2 5l1.84.246c2.861.999 3.285 2.189 4.723 4.817 6.535 10.338 17.802 15.522 29.375 18.187 15.414 2.613 27.393-2.146 40.32-10.285 2.552-1.83 4.598-3.683 6.742-5.965l2.086-1.914c2.163-2.357 3.267-4.532 4.539-7.461l1.27-2.918c1.17-2.866 2.222-5.739 3.105-8.707h2z"/><path fill="#00707A" d="M275 624c3.01 2.662 4.918 5.926 7 9.313 7.74 12.275 16.982 23.22 27 33.687l1.425 1.507c7.078 7.46 14.58 14.03 22.82 20.181q1.715 1.282 3.417 2.584c10.13 7.752 21.071 13.786 32.338 19.728-3.266 1.084-5.17.91-8.422-.152l-2.584-.841c-.905-.312-1.81-.624-2.744-.944l-2.84-.97c-28.568-10.035-54.661-29.767-68.51-57.194-4.06-8.569-7.232-17.558-8.9-26.899"/><path fill="#00707B" d="M748 625c1.42 4.263-.159 7.414-1.562 11.5l-.839 2.46c-10.227 29.118-33.887 50.223-60.982 63.438-9.17 4.06-18.696 7.038-28.617 8.602 1.385-2.77 2.923-2.988 5.75-4.25 16.861-8.208 32.058-19.978 45.848-32.57 2.919-2.649 5.904-5.215 8.906-7.77 1.614-1.36 1.614-1.36 2.496-3.41h2l.75-1.727c1.448-2.633 3.173-4.475 5.25-6.648 8.213-8.967 15.01-19.059 21-29.625"/><path fill="#FEFCD7" d="M501 250c5.45 2.232 9.584 5.563 12 11 1.021 5.84.84 10.558-2.625 15.5-3.435 3.899-6.49 6.128-11.766 6.809-7.128.352-10.622-1.645-15.921-6.372-3.251-3.732-2.965-7.726-2.903-12.433.41-4.78 2.187-7.555 5.652-10.754 5.223-3.567 9.247-4.756 15.563-3.75"/><path fill="#123C50" d="M392 564c3.359.619 5.447 1.868 8.188 3.875 9.832 6.63 20.005 7.652 31.718 5.621 5.058-1.366 9.1-3.492 13.305-6.605C447 566 447 566 449.227 566.359L451 567c.798 4.079.664 5.989-1.652 9.516-7.497 8.8-16.05 13.188-27.422 14.773-8.853.604-18.167-3.788-24.926-9.289-3.951-3.685-6.757-6.35-7.562-11.812C390 567 390 567 392 564"/><path fill="#00121A" d="M547.586 584.703c2.414.297 2.414.297 4.289 1.36C553 588 553 588 553.125 591.188c-1.855 6.287-5.351 10.06-10.871 13.546-3.035 1.595-6.081 2.97-9.254 4.266l-2.445 1.035c-11.833 4.09-28.489 3.938-40.067-.754-4.93-2.539-9.554-5.347-13.488-9.281-.25-2.5-.25-2.5 0-5l2-2c4.626.316 8.067 1.841 12.125 4 9.89 5.235 22.594 5.845 33.438 2.813A73 73 0 0 0 529 598l2.352-1.031c5.238-2.593 8.499-5.687 11.945-10.395C545 585 545 585 547.586 584.704"/><path fill="#123C50" d="M573 565c3.963.446 6.616 1.792 9.938 3.938 6.775 4.37 12.465 5.406 20.375 5.375l2.435.048c7.284.006 13.472-1.436 19.502-5.611 2.75-1.75 2.75-1.75 5.625-1.5L633 568c1.12 3.92 1.287 5.468-.687 9.125-3.564 4.43-6.505 7.256-11.75 9.563l-2.81 1.261c-8.02 3.06-18.445 3.598-26.741 1.18-7.025-3.332-13.758-8.554-18.012-15.129-.705-2.713-.815-5.177-1-8z"/><path fill="#F7A41D" d="M436 202c5.997.666 10.099 1.992 14.16 6.55 11.427 15.212 11.427 15.212 11.402 22.887L461 235c-3.148 1.812-4.566 2.113-8.125 1.188C447.282 233.464 442.701 229 438 225l-2.773-2.098c-2.844-2.43-3.107-4.473-4.102-8.027-.172-5.334 2.013-8.508 4.875-12.875"/><path fill="#F8A61D" d="M513.563 175.438c4.36 1.981 5.535 3.15 7.437 7.562 1.214 8.952.123 23.297-5 31-2.875.938-2.875.938-6 1-2.897-1.57-3.848-2.594-5.012-5.707l-.675-3.106-.7-3.082c-3.186-16.132-3.186-16.132-.425-23.105 3.366-3.715 5.24-5.193 10.375-4.562"/><path fill="#F7A21C" d="M589 205c2.583 2.513 3.812 4.25 4.688 7.75-2.041 9.646-12.174 16.644-19.688 22.25-2.89 1.728-3.67 2.02-7.125 1.813C564 236 564 236 562 233c.72-9.757 7.571-18.954 14-26 4.612-3.75 7.515-5.017 13-2"/><path fill="#000B12" d="M562 567c2.609 2.408 4.703 4.932 6.75 7.813 3.214 4.392 7.041 7.769 11.25 11.187-1.36-2.86-2.645-4.86-5-7l1-2 1.398 1.355c9.346 8.663 17.98 11.427 30.602 12.645l-1 3c-13.717.94-22.62-1.14-33.375-10.375C563.336 573.8 563.336 573.8 562 567"/><path fill="#03242F" d="M675 393c2.901 1.33 5.127 2.81 7.5 4.938l2.113 1.894c.788.715 1.576 1.43 2.387 2.168l2.73 2.45c11.253 10.182 21.867 20.607 31.27 32.55l2.363 2.8 2.262 2.7 2.04 2.406L729 447l-1 3-1.547-1.914a1254 1254 0 0 0-6.08-7.422 1110 1110 0 0 1-2.687-3.269c-6.284-7.648-12.94-14.83-19.936-21.832l-2.256-2.259c-5.744-5.686-11.692-11.055-17.994-16.116L675 395z"/><path fill="#04222E" d="M253 541h2l-.092 1.79c-1.067 21.396-1.716 42.838.092 64.21-5.528-5.528-4.242-17.282-4.276-24.759q.003-2.325.015-4.648c.01-2.326 0-4.65-.012-6.976-.008-10.014.788-19.716 2.273-29.617"/><path fill="#000A12" d="M439 586v3l2.375-1.562L444 586l2 1c-7.427 4.939-13.006 7.31-22 7v-2h-8v-1l3.324-.586 4.363-.789 2.186-.383c4.32-.789 8.889-3.242 13.127-3.242"/><path fill="#03232D" d="M736 459c4.583 4.11 7.425 8.662 10.438 14l1.45 2.539C758 493.45 758 493.45 758 498h-2l-1.582-3.523c-4.428-9.687-9.233-18.878-14.962-27.863l-1.366-2.15-1.223-1.886C736 461 736 461 736 459"/><path fill="#04222B" d="M398 588c5.663.901 5.663.901 8.125 1.625 1.908.53 1.908.53 3.875-.187 2.68-.587 3.561.343 6 1.562 2.664.471 5.305.73 8 1v2l4 1c-10.878.467-20.425-.565-30-6z"/><path fill="#DCDCDC" d="M640 756v1h-7v2c-8.415.955-16.724 1.122-25.187 1.063l-3.752-.014q-4.53-.018-9.061-.049v-1q7.443-.649 14.886-1.282 2.528-.216 5.054-.436 3.652-.317 7.306-.626l2.246-.199c5.185-.432 10.304-.511 15.508-.457"/><path fill="#04222B" d="m286 458 3 1-1.006 1.661C279.19 475.156 279.19 475.156 271 490c-.917-2.49-1.135-3.643-.183-6.163l1.316-2.321 1.445-2.586 1.547-2.68 1.477-2.633c2.991-5.299 6.137-10.48 9.398-15.617"/><path fill="#035E68" d="M655 586v3c-15.742 9.167-28.87 11.517-47 11v-1l1.781-.104C626.5 597.844 640.84 595.696 655 586"/><path fill="#06262F" d="M587 293c2.866 2.511 4.345 5.28 6.066 8.656l1.721 3.348 1.775 3.496q1.75 3.423 3.504 6.844l1.561 3.068c1.384 2.713 1.384 2.713 3.373 5.588l-1 3c-4.583-6.753-8.597-13.743-12.437-20.937l-1.361-2.511-1.26-2.392-1.135-2.136C587 297 587 297 587 293"/><path fill="#05252D" d="m420 323 2 1c-15.005 22.004-15.005 22.004-24 28v-3h2v-2a249 249 0 0 1 5-5c5.263-6.123 10.237-12.481 15-19"/><path fill="#007A87" d="M339 511c1.199 3.596.657 4.73-.426 8.297-1.867 7.053-1.915 13.697-1.762 20.953l.042 3.738q.051 4.507.146 9.012c-6.51-9.764-2.988-26.232-1-37l1-3h2z"/><path fill="#04252F" d="M607 330c3.68 1.485 5.432 3.493 7.813 6.625 2.604 3.353 5.223 6.663 8 9.875.542.63 1.085 1.258 1.644 1.906 1.653 1.82 1.653 1.82 4.543 3.594l-1 3c-16.016-15.576-16.016-15.576-21-23z"/><path fill="#010B10" d="m666 574 1 3h5c-4.547 5.115-9.528 7.843-16 10 1.56-3.831 4.108-6.108 7-9l1-3z"/><path fill="#018692" d="M422 497c5.08 1.482 9.377 3.702 13.938 6.313l2.052 1.146c4.56 2.584 8.764 5.471 13.01 8.541l2.375 1.063c1.625.937 1.625.937 2.227 2.996L456 519l-1.477-.996c-10.608-7.118-21.18-14.1-32.523-20.004z"/><path fill="#03252F" d="M637 362c3.439.603 5.354 1.849 8.004 4.09l2.244 1.877 2.314 1.97q2.283 1.923 4.567 3.84l2.033 1.727c1.975 1.656 1.975 1.656 4.838 3.496l-1 3-2.492-2.125-3.383-2.875-1.772-1.505a434 434 0 0 0-13.623-11.034L637 363z"/><path fill="#FDCF0E" d="M478 264h1l.813 3.688c1.558 6.136 4.007 9.593 9.187 13.312 3.003 1.502 5.79 1.093 9.125 1.063l3.883-.028L505 282c-2.867 2.867-5.46 2.715-9.398 3.027-5.161-.054-8.495-2.097-12.352-5.34-4.323-5.163-5.655-8.938-5.25-15.687"/><path fill="#03212D" d="M771 557c2.808 4.213 2.532 7.974 2.75 12.938l.168 2.748.129 2.654.12 2.418c-.187 2.514-.906 4.08-2.167 6.242h-1z"/><path fill="#E4A225" d="M515 176v1h-6v2l-3 2-1 3h-2l.375 3.875c.07.72.14 1.439.21 2.18.279 2.172.279 2.172 2.415 3.945-.309 1.34-.65 2.67-1 4-.097 2.673-.045 5.324 0 8h-1c-3.67-18.78-3.67-18.78-.812-26 3.7-4.083 6.4-5.7 11.812-4"/><path fill="#03212B" d="M315 425c-1.529 3.537-3.642 5.996-6.25 8.813A417 417 0 0 0 298 446l-1-3c1.032-1.67 1.032-1.67 2.64-3.469l1.747-1.98 1.863-2.051 1.816-2.05A348 348 0 0 1 310 428l1.573-1.717C313 425 313 425 315 425"/><path fill="#042934" d="m337 401 3 1-3.062 2.5c-3.487 2.964-6.381 6.218-9.262 9.766-1.77 1.83-3.349 2.74-5.676 3.734.49-4.246 3.064-7.095 6-10a150 150 0 0 1 6-4c1.794-1.624 1.794-1.624 3-3"/><path fill="#CFCFCE" d="M543 760h17v1l14 1v1h-30z"/><path fill="#017D86" d="M349 701c4.493 1.658 8.612 3.85 12.813 6.125l2.1 1.129q2.544 1.37 5.087 2.746c-3.938 1.526-6.767.43-10.687-.812l-3.512-1.083C352 708 352 708 351 706h4l-3-1.937-3-2.063z"/><path fill="#DCDCDC" d="M388 756c6.95-.135 13.719.243 20.625 1l2.754.29q3.31.347 6.621.71v1c-3.48.029-6.958.047-10.437.063l-3.01.025-2.862.01-2.65.016C397 759 397 759 396 758a70 70 0 0 0-4.062-.562L388 757z"/><path fill="#1C3335" d="M523 226v1c-5.483 1.157-10.803 1.114-16.375 1.063l-2.809-.014q-3.408-.018-6.816-.049v-1c8.943-1.46 16.968-2.39 26-1"/><path fill="#D0CFCF" d="m589 759 18 1v1h-15l-1 3v-2h-13v-1h11z"/><path fill="#041F26" d="m357 574 5 5 2.813 2.688C367 584 367 584 367 586c-5.75-1.75-5.75-1.75-8-4-2-5.333-2-5.333-2-8"/><path fill="#007A85" d="M413 357c0 3 0 3-1.793 5.121l-2.394 2.317-2.477 2.398c-2.357 2.184-4.755 4.249-7.336 6.164l-2-1c5.131-5.254 10.407-10.24 16-15"/><path fill="#E3A01F" d="M459 224c2 2 2 2 2.195 4.164l-.07 2.461-.055 2.477L461 235c-4.43 2.092-4.43 2.092-7.312 1.625L452 236v-2l6-1z"/><path fill="#F6DD17" d="m526 340 4 1c-1 2-1 2-4.125 3.125-6.473 1.518-13.269 1.03-19.875.875v-1l20-2z"/><path fill="#032029" d="M382 574h3v2h2c1.37 1.636 2.7 3.307 4 5a98 98 0 0 0 3 3c-2 1-2 1-3.875 1-2.961-1.394-3.698-3.432-5.098-6.309-1.065-2.022-1.065-2.022-4.027-3.691z"/><path fill="#031C25" d="m638 576 1 3-9 8-1-4 1.715-1.277 2.222-1.66 2.215-1.653c1.761-1.28 1.761-1.28 2.848-2.41"/><path fill="#0C173A" d="M531 240q3.007.981 6 2l2.563.813c3.181 1.55 5.15 3.507 7.437 6.187v3l-1.723-1.39c-4.593-3.65-9.097-6.855-14.277-9.61z"/><path fill="#00050E" d="m603.125 590.938 2.758.027L608 591l-1 3h-11v-2c2.525-1.262 4.312-1.099 7.125-1.062"/><path fill="#031E28" d="m768 534 2 1c1.142 3.928 1.104 7.746 1.063 11.813l-.028 3.519L771 553h-1c-1.173-6.378-2.295-12.503-2-19"/><path fill="#18343A" d="M555 242c4.136 3.381 7.813 6.666 11 11l-2 1c-2.964-2.808-5.445-5.183-7-9h-2z"/><path fill="#EEA722" d="M589 205c1.813 1.625 1.813 1.625 3 3l-1 3-2-4h-10l1-3c3.47-1.61 5.714-.685 9 1"/><path fill="#007F89" d="m669 703 1 2c-3.207 3.207-4.633 4.319-9.125 5.125l-2.758.508L656 711c1.527-3.054 4.036-3.66 7.063-5.125l3.347-1.633z"/><path fill="#02828E" d="M339 511c1.36 4.078.145 7.177-.937 11.188l-.592 2.271A879 879 0 0 1 336 530h-1q.21-3.688.438-7.375l.119-2.117c.33-5.281.33-5.281 1.443-7.508h2z"/><path fill="#082430" d="M283 677c3.925 3.7 6.946 7.55 10 12-3.118-1.363-5.047-2.851-7.25-5.437l-1.578-1.81C283 680 283 680 283 677"/><path fill="#010C14" d="M375 521h1c.226 5.419-.533 9.775-2 15h-1q-.079-2.625-.125-5.25l-.07-2.953c.196-2.817.75-4.406 2.195-6.797"/><path fill="#007D89" d="m443 508 1.61 1.023 2.14 1.352 2.11 1.336c2.096 1.334 2.096 1.334 4.343 2.203C455 515 455 515 455.75 517.125L456 519a2768 2768 0 0 1-4.25-2.812l-2.39-1.583c-4.585-3.119-4.585-3.119-6.36-4.605z"/><path fill="#02222D" d="M662 382c6.632 1.474 6.632 1.474 8.313 3.875L671 388q.981 2.01 2 4l-1.645-1.242-2.168-1.633-2.144-1.617A129 129 0 0 0 662 384z"/><path fill="#F5E221" d="m462 272 3 2c.188 2.625.188 2.625 0 5h-3l-1 3h-2c1.875-7.75 1.875-7.75 3-10"/><path fill="#12333F" d="m732 687 3 1-9 9-1-3a141 141 0 0 1 5-5h2z"/><path fill="#03222E" d="m358 383 3 1-1.934 1.46-2.503 1.915-2.497 1.898c-2.151 1.565-2.151 1.565-3.066 3.727l-2-1a592 592 0 0 1 2.813-3.375l1.582-1.898C355 385 355 385 358 383"/><path fill="#D79825" d="m563 229 2 1v4l7 1-2 2c-3-.187-3-.187-6-1-2-3-2-3-1.625-5.187z"/><path fill="#000A0F" d="M573 516c0 3 0 3-2.375 5.688C568 524 568 524 566 524l-1 3-2-1c6.15-7.483 6.15-7.483 10-10"/><path fill="#007783" d="M352 410c0 3 0 3-1.969 5.262l-2.531 2.425-2.531 2.45L343 422l-2-1c3.187-4.334 6.864-7.619 11-11"/><path fill="#EDAD25" d="M512.875 175.25 515 176v1h-6v2l-3 2-1 3h-2c.125-2.25.125-2.25 1-5 4.757-4.108 4.757-4.108 8.875-3.75"/><path fill="#0C262F" d="M576 270h2a205 205 0 0 1 2.063 3.75l1.16 2.11c.908 2.501.66 3.673-.223 6.14a519 519 0 0 1-2.5-4.312l-1.406-2.426C576 273 576 273 576 270"/><path fill="#07232D" d="M267 650h2a875 875 0 0 1 2 4.375l1.125 2.46C273 659 273 659 273 661h-2a418 418 0 0 1-2-3.812l-1.125-2.145C267 653 267 653 267 650"/><path fill="#FEF8C7" d="M492 250h9l-1 3h-8zm-2 3 2 1Z"/><path fill="#04262F" d="m666 574 1 3 2 2-7 1c1.75-4.875 1.75-4.875 4-6"/><path fill="#02242E" d="M765 522h2c1.283 3.85 1.066 6.947 1 11-2.566-3.85-2.551-6.435-3-11"/><path fill="#05535D" d="M655 586v3c-5.273 3.223-5.273 3.223-7 4l-2-1z"/><path fill="#031E28" d="M263 507c1 2 1 2 .441 3.945l-.878 2.18-.872 2.195L261 517h-1c.75-7.75.75-7.75 3-10"/><path fill="#021C27" d="m337 401 3 1-8 7c0-3 0-3 2.5-5.687z"/><path fill="#00828C" d="m572 299 3 4c-1 3-1 3-4 6z"/><path fill="#062A31" d="m661 580 1 4c-3.75 3-3.75 3-6 3 1.293-2.884 2.66-4.872 5-7"/><path fill="#01838C" d="M450 299c2.29 3.435 2.178 4.985 2 9l-2-2-2 1c.523-2.763 1.109-5.326 2-8"/><path fill="#2A3E3A" d="m512 225 11 1v1l-11 1z"/><path fill="#1D3839" d="M463 247c0 3.106-.54 4.353-2 7l-3-2z"/><path fill="#C8C9C8" d="M633 759h9v1h-9z"/><path fill="#02222D" d="M370 544h1v5l-2-4z"/><path fill="#C7C8C7" d="m379 758 4 1-2 1z"/><path fill="#C5C7C6" d="M322 750h5v1h-5z"/><path fill="#575D43" d="m566 248 2 2h-3z"/><path fill="#073642" d="m379 572 2 3h-2zM249 562l1 4Z"/><path fill="#012731" d="m592 536 4 1Z"/><path fill="#032C39" d="M673 533v3Z"/><path fill="#BF9838" d="m433 221 2 2-2 1z"/><path fill="#C6C7C7" d="m701 750 2 2h-2z"/><path fill="#7D8D90" d="m321 716 3 1Z"/><path fill="#062F3B" d="m674 544 1 2-2-1z"/><path fill="#726F41" d="m504 224 3 1Z"/><path fill="#C2C3C2" d="m539 765 2 1Z"/><path fill="#C0C2C3" d="m521 765 2 1Z"/><path fill="#C0C2C2" d="m481 765 2 1Z"/><path fill="#C8C9C9" d="m395 759 2 1Z"/><path fill="#C9C9C9" d="m363 756 2 1Z"/><path fill="#234C57" d="m281 680 2 1Z"/><path fill="#0A616A" d="m604 596 2 1Z"/><path fill="#0A646A" d="m417 596 2 1Z"/><path fill="#09636C" d="m641 592 2 1Z"/><path fill="#0A444E" d="m363 576 2 1Z"/><path fill="#022634" d="m376 502 2 1Z"/><path fill="#093844" d="m648 368 2 1Z"/><path fill="#63623D" d="m456 251 2 1Z"/><path fill="#BA9335" d="m441 230 2 1Z"/><path fill="#726C41" d="m493 226 2 1Z"/><path fill="#6D6D43" d="m520 224 2 1Z"/><path fill="#D4A132" d="m572 208 2 1Z"/><path fill="#C99E35" d="m517 176 2 1Z"/></svg>