<svg xmlns="http://www.w3.org/2000/svg" width="1024" height="1024"><path fill="#008187" d="M562.57 279.441c13.27 13.974 22.026 29.977 29.713 47.523l1.334 3.02 1.175 2.71c1.178 2.248 2.379 3.586 4.208 5.306l1 4c1.661 3.307 3.365 6.365 6 9 .974 1.574 1.929 3.16 2.875 4.75 7.045 11.108 16.147 20.443 25.375 29.75l2.255 2.283c4.969 4.94 10.167 10.053 16.495 13.217l1.777 2.266c2.37 2.914 4.871 5.121 7.785 7.484l2.88 2.36c2.479 2.036 2.479 2.036 5.558 2.89l1.688 2.125c2.4 2.984 4.946 5.25 7.843 7.73C691.257 435.173 702.14 444.866 711 456v2h2c35.646 37.46 54.195 92.5 53.089 143.363-.645 19.127-5.323 37.19-13.089 54.637l-1.363 3.102C745.84 671.476 737.43 682.188 728 692l-2.316 2.438c-4.285 4.407-8.552 8.177-13.684 11.562 4.44 1.61 8.889 2.686 13.49 3.7 18.574 4.124 18.574 4.124 23.51 8.3 1.06 2.347 1.116 3.542.484 6.035-2.179 2.885-4.99 4.027-8.234 5.403l-2.146.913c-15.821 6.396-33.162 8.462-49.934 11.038l-3.87.595-3.463.523c-2.9.431-2.9.431-5.837 1.493-1.36.047-2.724.045-4.085.008-4.904-.054-9.686.356-14.56.867l-5.49.547q-4.255.432-8.51.869c-20.38 2.082-20.38 2.082-30.355 1.709v2l2 1h-7l4-1c-1.137-1.365-1.137-1.365-4.16-1.098l-3.903.035-3.91.028L597 749l-1 2-14-1v2q-19.487.07-38.975.104-9.058.014-18.116.047c-41.311.154-82.525-.684-123.721-3.963l-3.258-.253C290.85 739.592 290.85 739.592 275 725c-.777-3.191-.777-3.191-1-6 3.92-3.585 7.77-5.184 12.813-6.562l2.226-.634C296.6 709.716 304.266 708.28 312 707a168 168 0 0 0-9.625-9.062c-3.977-3.56-7.697-7.268-11.312-11.188l-1.396-1.5c-2.067-2.276-3.77-4.431-5.296-7.11L283 676h-3v-4c-1.298-2.571-1.298-2.571-3-5.125-3-4.68-3-4.68-3-6.875l-2-1c-.822-1.607-.822-1.607-1.621-3.684l-.892-2.298-.925-2.456-.945-2.479C262 633.203 262 633.203 262 627l-2-1v-9h-3l.531-2.848c.698-4.893.284-9.676-.031-14.59-1.668-31.85 5.388-62.992 19.5-91.562l1.07-2.178C290.018 481.782 306.608 459.57 326 441l2.5-2.5 2.5-2.5 1.695-1.766c4.721-4.854 9.735-9.098 15.082-13.254 2.46-1.86 2.46-1.86 3.223-4.98l2.105-.8c4.095-1.697 6.932-4.45 10.207-7.387l2.005-1.773q1.959-1.733 3.912-3.474c2.807-2.482 5.678-4.889 8.548-7.296 1.454-1.216 1.454-1.216 1.223-3.27l1.767-.292c2.713-.86 3.943-2.03 5.956-4.032l2.114-2.095 2.226-2.269 2.305-2.338C410.267 363.601 425.28 342.158 433 319c12.237-26.115 28.406-47.271 56-58 26.859-8.867 53.44-.6 73.57 18.441"/><path fill="#002E38" d="M562.57 279.441c13.27 13.974 22.026 29.977 29.713 47.523l1.334 3.02 1.175 2.71c1.178 2.248 2.379 3.586 4.208 5.306l1 4c1.661 3.307 3.365 6.365 6 9 .974 1.574 1.929 3.16 2.875 4.75 7.045 11.108 16.147 20.443 25.375 29.75l2.255 2.283c4.969 4.94 10.167 10.053 16.495 13.217l1.777 2.266c2.37 2.914 4.871 5.121 7.785 7.484l2.88 2.36c2.479 2.036 2.479 2.036 5.558 2.89l1.688 2.125c2.4 2.984 4.946 5.25 7.843 7.73C691.257 435.173 702.14 444.866 711 456v2h2c35.646 37.46 54.195 92.5 53.089 143.363-.645 19.127-5.323 37.19-13.089 54.637l-1.363 3.102C745.84 671.476 737.43 682.188 728 692l-2.316 2.438c-4.285 4.407-8.552 8.177-13.684 11.562 4.44 1.61 8.889 2.686 13.49 3.7 18.574 4.124 18.574 4.124 23.51 8.3 1.06 2.347 1.116 3.542.484 6.035-2.179 2.885-4.99 4.027-8.234 5.403l-2.146.913c-15.821 6.396-33.162 8.462-49.934 11.038l-3.87.595-3.463.523c-2.9.431-2.9.431-5.837 1.493-1.36.047-2.724.045-4.085.008-4.904-.054-9.686.356-14.56.867l-5.49.547q-4.255.432-8.51.869c-20.38 2.082-20.38 2.082-30.355 1.709v2l2 1h-7l4-1c-1.137-1.365-1.137-1.365-4.16-1.098l-3.903.035-3.91.028L597 749l-1 2-14-1v2q-19.487.07-38.975.104-9.058.014-18.116.047c-41.311.154-82.525-.684-123.721-3.963l-3.258-.253C290.85 739.592 290.85 739.592 275 725c-.777-3.191-.777-3.191-1-6 3.92-3.585 7.77-5.184 12.813-6.562l2.226-.634C296.6 709.716 304.266 708.28 312 707a168 168 0 0 0-9.625-9.062c-3.977-3.56-7.697-7.268-11.312-11.188l-1.396-1.5c-2.067-2.276-3.77-4.431-5.296-7.11L283 676h-3v-4c-1.298-2.571-1.298-2.571-3-5.125-3-4.68-3-4.68-3-6.875l-2-1c-.822-1.607-.822-1.607-1.621-3.684l-.892-2.298-.925-2.456-.945-2.479C262 633.203 262 633.203 262 627l-2-1v-9h-3l.531-2.848c.698-4.893.284-9.676-.031-14.59-1.668-31.85 5.388-62.992 19.5-91.562l1.07-2.178C290.018 481.782 306.608 459.57 326 441l2.5-2.5 2.5-2.5 1.695-1.766c4.721-4.854 9.735-9.098 15.082-13.254 2.46-1.86 2.46-1.86 3.223-4.98l2.105-.8c4.095-1.697 6.932-4.45 10.207-7.387l2.005-1.773q1.959-1.733 3.912-3.474c2.807-2.482 5.678-4.889 8.548-7.296 1.454-1.216 1.454-1.216 1.223-3.27l1.767-.292c2.713-.86 3.943-2.03 5.956-4.032l2.114-2.095 2.226-2.269 2.305-2.338C410.267 363.601 425.28 342.158 433 319c12.237-26.115 28.406-47.271 56-58 26.859-8.867 53.44-.6 73.57 18.441M448 330l-.812 2.719c-10.52 33.495-33.355 59.192-60.27 80.902-5.195 4.235-10.268 8.612-15.331 13.004q-2.012 1.741-4.032 3.473C354.807 441.268 342.115 453.365 332 467l-1.18 1.554C318.836 484.389 308.163 502.684 303 522l-.84 2.855c-6.277 25.138-3.176 51.99 9.775 74.378 23.479 38.949 68.578 57.048 110.668 67.757 8.507 2.09 17.069 3.764 25.71 5.197l2.756.47c20.355 3.197 40.833 3.673 61.395 3.604 3.417-.012 6.833-.005 10.25.007 21.784.062 43.164-.895 64.598-4.956l2.086-.388c44.173-8.256 93.41-23.89 121.352-61.674 14.75-22.503 19.87-48.233 14.792-74.753-8.047-37.421-30.259-66.273-56.667-92.872l-2.746-2.774a198 198 0 0 0-16.617-14.816c-2.588-2.096-5.055-4.288-7.512-6.535a216 216 0 0 0-10.312-8.812C607.342 388.895 582.838 362.935 574 332h-2l-.48 3.043C568.429 353.58 561.895 370.736 547 383c-6.52 4.512-13.284 8.075-21 10l-2.168.547c-18.174 2.908-34.74-.885-49.832-11.547-15.586-12.613-21.915-32.909-25-52z"/><path fill="#011C21" d="M659 410c9.713 1.968 18.07 12.01 24.754 18.785a114 114 0 0 0 6.121 5.59c7.603 6.539 14.919 13.742 21.125 21.625v2h2c35.646 37.46 54.195 92.5 53.089 143.363-.645 19.127-5.323 37.19-13.089 54.637l-1.363 3.102C745.84 671.476 737.43 682.188 728 692l-2.316 2.438c-4.285 4.407-8.552 8.177-13.684 11.562 4.44 1.61 8.889 2.686 13.49 3.7 18.574 4.124 18.574 4.124 23.51 8.3 1.06 2.347 1.116 3.542.484 6.035-2.179 2.885-4.99 4.027-8.234 5.403l-2.146.913c-15.821 6.396-33.162 8.462-49.934 11.038l-3.87.595-3.463.523c-2.9.431-2.9.431-5.837 1.493-1.36.047-2.724.045-4.085.008-4.904-.054-9.686.356-14.56.867l-5.49.547a6783 6783 0 0 0-8.51.869c-20.38 2.082-20.38 2.082-30.355 1.709v2l2 1h-7l4-1c-1.137-1.365-1.137-1.365-4.16-1.098l-3.903.035-3.91.028L597 749l-1 2-14-1v2q-19.487.07-38.975.104-9.058.014-18.116.047c-41.311.154-82.525-.684-123.721-3.963l-3.258-.253C290.85 739.592 290.85 739.592 275 725c-.777-3.191-.777-3.191-1-6 3.92-3.585 7.77-5.184 12.813-6.562l2.226-.634C296.6 709.716 304.266 708.28 312 707a168 168 0 0 0-9.625-9.062c-3.977-3.56-7.697-7.268-11.312-11.188l-1.396-1.5c-2.067-2.276-3.77-4.431-5.296-7.11L283 676h-3v-4c-1.298-2.571-1.298-2.571-3-5.125-3-4.68-3-4.68-3-6.875l-2-1c-.822-1.607-.822-1.607-1.621-3.684l-.892-2.298-.925-2.456-.945-2.479C262 633.203 262 633.203 262 627l-2-1v-9h-3l.531-2.848c.698-4.893.284-9.676-.031-14.59-1.668-31.85 5.388-62.992 19.5-91.562l1.07-2.178C298.122 465.475 298.122 465.475 310 461c-3.074 4.716-6.229 9.322-9.625 13.813-3.895 5.334-7.417 10.873-10.875 16.5-.54.86-1.082 1.72-1.64 2.606-2.87 4.744-4.062 7.476-3.86 13.081-1.04 3.495-2.415 6.858-3.75 10.25-2.65 7.007-5.037 13.922-6.625 21.25l-.433 1.985c-.44 2.166-.822 4.336-1.192 6.515l-.53 2.957c-1.668 10.21-1.868 20.28-1.845 30.606v2.676c.032 13.283.667 25.927 4.375 38.761l.551 2.033C280.16 644.378 291.281 662.068 306 677l2.105 2.145c22.27 21.15 55.447 35.251 84.895 42.855l3.133.824c16.575 4.323 33.075 7.618 50.063 9.81q3.483.455 6.956.98C524.565 743.77 610.665 739.255 676 707l2.807-1.376C690.243 699.967 701.3 694.384 711 686l1.55-1.293C726.57 672.949 736.77 658.772 744 642l.85-1.968c7.732-18.296 10.382-36.837 10.4-56.595l.003-2.354c-.015-17.658-1.67-34.61-6.374-51.673-.762-2.955-1.176-5.7-1.504-8.722-1.527-8.92-6.919-16.953-11.375-24.688l-1.237-2.148C728.376 482.916 720.93 472.86 713 463l-1.46-1.819C699.845 446.751 686.626 433.448 672 422a718 718 0 0 1-7.187-6l-1.752-1.46A198 198 0 0 1 659 411z"/><path fill="#FDE016" d="M542 280c11.192 8.322 19.795 20.95 22.719 34.727 1.78 14.396-.479 28.2-8.719 40.273-10.522 13.445-23.07 21.294-40 24-14.52 1.618-28.257-3.51-39.79-12.07-9.807-8.267-18.171-20.879-19.403-33.982-.58-15.762.936-29.212 11.193-41.948l1.773-2.297C488.09 266.426 518.744 264.685 542 280"/><path fill="#00171C" d="m392.438 512.563 2.937.029c25.524.62 53.176 12.452 71.629 30.127 4.36 4.982 7.184 10.289 7.558 16.968-.419 6.264-3.272 10.345-7.812 14.5-12.668 10.13-28.238 10.093-43.75 8.813-11.265-1.807-22.082-6.708-30-15l-1.574 1.023C382.08 575 382.08 575 379 575l4 4c-9.517-1.535-17.846-5.352-23.816-13.184-5.202-7.982-5-16.623-4.184-25.816 2.292-9.865 8.099-17.21 16.46-22.676 7.178-3.743 12.96-4.852 20.978-4.761M642.438 520.625l2.947-.074c8.353-.034 14.877 2.005 21.865 6.574 7.937 8.298 11.213 17.414 11.182 28.758-.234 8.232-3.078 14.125-8.932 19.93-5.088 4.103-11.23 6.482-17.5 8.187l-2-1 7-8-3 2c-3.175-.423-6.055-1.773-9-3v-5l-.883 1.574c-5.644 9.602-12.946 13.65-23.347 17.184-14.757 3.708-32.551 2.593-45.696-5.242-5.363-3.919-9.826-8.86-11.074-15.516-.78-6.91.734-10.585 5-16l1.398-1.777c15.715-17.59 49.185-28.568 72.04-28.598"/><path fill="#8FAAB2" d="M313 706c3.418 1.946 6.829 3.9 10.219 5.895C356.442 731.315 393.928 740.178 432 744l2.4.241c80.854 7.864 205.06 17.687 272.538-36.053 2.537-1.766 3.58-2.219 6.695-2.02 3.195.771 6.249 1.794 9.367 2.832 2.008.498 4.024.949 6.042 1.4 14.427 3.285 14.427 3.285 19.958 7.6 1.084 2.351 1.119 3.532.484 6.035-2.179 2.885-4.99 4.027-8.234 5.403l-2.146.913c-15.821 6.396-33.162 8.462-49.934 11.038l-3.87.595-3.463.523c-2.9.431-2.9.431-5.837 1.493-1.36.047-2.724.045-4.085.008-4.904-.054-9.686.356-14.56.867l-5.49.547a6783 6783 0 0 0-8.51.869c-20.38 2.082-20.38 2.082-30.355 1.709v2l2 1h-7l4-1c-1.137-1.365-1.137-1.365-4.16-1.098l-3.903.035-3.91.028L597 749l-1 2-14-1v2q-19.487.07-38.975.104-9.058.014-18.116.047c-41.311.154-82.525-.684-123.721-3.963l-3.258-.253C290.85 739.592 290.85 739.592 275 725c-.777-3.191-.777-3.191-1-6 3.92-3.585 7.77-5.183 12.813-6.562l2.228-.636c5.953-1.647 11.955-2.88 18.044-3.902 3.238-.319 3.238-.319 5.915-1.9"/><path fill="#F6A20B" d="M557 302c3.284 2.99 4.38 5.914 6 10h1c3.169 13.698.905 28.297-6.203 40.367-9.49 13.904-22.15 22.76-38.645 26.13-14.42 2.304-28.054-1.504-40.152-9.497-11.08-8.224-19.266-20.004-21.648-33.738-.499-4.504-.138-8.778.398-13.262l.227-2.29c.601-5.307 1.981-9.774 4.023-14.71 2.313.375 2.313.375 5 2 .719 2.008.719 2.008 1.313 4.5 2.435 9.47 9.54 16.45 17.687 21.5 7.837 4.543 15.28 6.376 24.313 6.313l2.552-.018c12.895-.251 23.866-5.242 33.135-14.295 5.176-6.182 6.541-13.22 8-21 2 1 2 1 2.619 2.724.436 2.606.493 5.055.479 7.698l-.01 3.105-.025 3.223-.014 3.27q-.018 3.99-.049 7.98c2.575-9.397 1.113-20.436 0-30"/><path fill="#8FABB3" d="M313 706c3.418 1.946 6.829 3.9 10.219 5.895C356.442 731.315 393.928 740.178 432 744l2.4.241c26.545 2.582 53.245 3.949 79.913 3.947l2.336.002a405 405 0 0 0 26.31-.837c6.208-.395 12.385-.47 18.604-.415l3.091.013q3.673.018 7.346.049l1 3q-21.38.072-42.76.104-9.938.014-19.877.047c-28.626.098-57.214-.058-85.824-1.042l-3.59-.12c-21.752-.745-43.337-2.447-64.949-4.989l-2.156-.25C287.5 736.076 287.5 736.076 275 725c-1.062-3.312-1.062-3.312-1-6 3.92-3.585 7.77-5.183 12.813-6.562l2.228-.636c5.953-1.647 11.955-2.88 18.044-3.902 3.238-.319 3.238-.319 5.915-1.9"/><path fill="#FBCB13" d="M557 302c3.284 2.99 4.38 5.914 6 10h1c3.169 13.698.905 28.297-6.203 40.367-9.49 13.904-22.15 22.76-38.645 26.13-14.42 2.304-28.054-1.504-40.152-9.497-11.08-8.224-19.266-20.004-21.648-33.738-.499-4.504-.138-8.778.398-13.262l.227-2.29c.601-5.307 1.981-9.774 4.023-14.71l2 1 1 22h1l.594 2.895c2.885 12.911 8.304 21.96 19.586 29.445 11.526 6.785 24.391 7.478 37.425 4.965A59 59 0 0 0 532 362l2.664-1.25c9.456-5.028 15.038-13.162 19.336-22.75l.977-1.852c5.052-10.606 3.347-22.777 2.023-34.148"/><path fill="#019293" d="M284 605c2.006 2.006 2.58 3.122 3.625 5.688C304.759 649.896 337.296 683.605 376 702c-8.512 2.837-24.029-6.202-32.014-10.007C333.588 686.794 324.053 680.266 315 673l-2.46-1.957c-17.81-14.922-26.044-37.58-28.084-60.1-.164-1.98-.312-3.962-.456-5.943"/><path fill="#019393" d="M740 621c1.65 3.3-.1 6.509-1.125 9.875l-.702 2.323c-8.129 26.337-24.556 44.813-48.728 57.63-12.105 6.1-25.87 11.733-39.445 13.172l-3-1 1.506-.76C670.271 691.203 689.366 677.88 707 661l1.507-1.425C720.703 648.003 730.381 634.73 740 621"/><path fill="#7CDFD1" d="M403 426c3.125 2 3.125 2 5 5 1.462 7.573-1.893 13.726-6 20-5.372 6.095-11.798 11.287-19.992 12.41-4.91.234-8.016.2-12.258-2.41-2.23-3.824-2.709-6.746-1.75-11 1.365-3.22 3.075-6.087 5-9l1.688-2.625c7.528-7.732 17.187-14.3 28.312-12.375"/><path fill="#289B97" d="M645 568c1 3 1 3 1 6 4.393 1.563 4.393 1.563 9 2 1.688-1.438 1.688-1.438 3-3-1.37 3.995-3.257 6.8-6 10l7-1c-2 2-2 2-5 4l2 2.125c2.361 3.394 2.59 4.827 2 8.875-1.405 3.934-3.364 5.425-7 7.188-9.274 3.706-20.859 5.896-30.5 2.625-2.856-2.071-4.24-3.507-5.5-6.813.5-2.625.5-2.625 2-5a113 113 0 0 1 5-3l1-3-2-2 3.324-1.54q2.183-1.041 4.364-2.085l2.185-1.004C637.75 579.043 641.262 574.69 645 568"/><path fill="#FEFAED" d="M508 285c3.972 3.266 6.005 5.927 7 11 .106 6.546-1.654 9.627-6.176 14.305-4.433 4.12-8.713 5.853-14.824 5.695-5.51-.972-9.457-3.491-12.863-7.914-2.134-3.915-2.55-7.683-2.137-12.086 1.578-5.35 4.255-8.991 9-12 6.796-3.674 13.467-2.574 20 1"/><path fill="#00161A" d="M549.375 590.75c2.625.25 2.625.25 4.438 1.375 1.85 2.92 1.853 4.48 1.187 7.875-5.686 7.38-16.182 10.468-25 12-3.92.3-7.82.334-11.75.313l-3.23-.015c-11.839-.177-21.511-1.934-30.711-9.732C483 601 483 601 482.625 597.437L483 594c3-2 3-2 5.414-1.809 3.585 1.121 6.116 3.122 9.11 5.336 6.27 3.73 12.712 3.81 19.789 3.785l2.685.05c8.047.005 16.193-1.193 22.564-6.487l1.942-1.57c2.663-2.323 2.663-2.323 4.871-2.555"/><path fill="#003C46" d="m397 526-1.496 2.52-1.942 3.293-1.933 3.269c-3.818 6.84-3.4 15.25-2.629 22.918.987 3.445 2.187 5.884 4 9-3.35 4.08-7.878 6.756-13 8-3.877-1.106-5.234-3.49-7.187-6.875l-1.543-2.617c-3.173-6.267-3.2-13.423-1.657-20.203 3.168-9.125 9.99-14.107 18.387-18.305 3.058-1.08 5.775-1.021 9-1"/><path fill="#2B546D" d="M637 557c1.274 4.3.712 6.791-1 11-5.053 7.27-13.089 10.524-21.457 12.613-11.768 1.79-23.109.411-33.043-6.426-3.619-2.977-5.599-5.91-7.5-10.187v-4c5.46.91 10.453 2.926 15.625 4.844 11.48 3.933 25.096 3.471 36.158-1.673 3.822-1.915 7.533-4.002 11.217-6.171"/><path fill="#F9BF1C" d="M445 236c8.044 4.267 13.504 11.992 17 20.25 1.034 3.877 1.317 5.974 0 9.75-1.812 1.875-1.812 1.875-4 3h-4l-1 2v-3l-2.16-.273c-7.877-2.016-15.304-9.103-19.84-15.727-1.685-3.003-2.01-4.558-1.937-8 1.185-3.792 2.91-5.477 5.937-8 3.917-1.306 5.976-.99 10 0"/><path fill="#FBC11C" d="M518 208c5.125 5.395 5.283 9.17 5.219 16.402-.471 7.747-1.938 15.677-7.219 21.598-2.54 1.311-3.704 1.06-6.5.5-4.654-2.793-5.98-6.732-7.45-11.723-2.088-8.686-2.665-15.753.075-24.277 1.875-2.5 1.875-2.5 5.125-4 4.329-.577 6.75-.236 10.75 1.5"/><path fill="#F9BF1C" d="M587 236c2.998 2.802 4.707 4.803 5.688 8.813-2.037 9.44-9.802 15.815-17.399 21.058-6.937 4.267-6.937 4.267-10.512 3.902-2.704-1.1-4.453-2.126-5.777-4.773-1.208-8.11 3.265-14.252 7.898-20.602 5.17-6.273 11.518-11.641 20.102-8.398"/><path fill="#2B536B" d="M398 550c5.17 1.928 9.982 4.505 14.854 7.078 8.85 4.54 16.625 5.243 26.459 5.172l3.224.023c7.024-.017 13.603-.773 20.463-2.273-.857 4.86-1.956 6.571-5.82 9.574-10.566 6.912-23.68 7.063-35.79 4.73-9.593-2.897-17.49-8.408-22.39-17.304-.697-2.443-.893-4.44-1-7"/><path fill="#00363F" d="M630 533c9.919-.65 18.635 1.963 26.34 8.402 4.783 4.603 5.835 7.813 6.076 14.397.066 6.593-.43 12.23-3.416 18.201h-2l-1.375 1.563L654 577c-3.18-.318-6.049-1.816-9-3l.095-1.737c.976-16.63.976-16.63-6.095-31.263a59 59 0 0 0-7.242-5.793L630 534z"/><path fill="#8B8C8E" d="M0 463h1v561H0z"/><path fill="#2EA09B" d="M376 578c27.927 3.927 27.927 3.927 34 10 .438 2.313.438 2.313 0 5-3.042 3.617-5.273 5.735-10.094 6.203-8.175.16-16.022-1.133-23.094-5.453C374 591 374 591 373.438 587.563c.535-3.388 1.318-6.372 2.563-9.563"/><path fill="#06181B" d="m461 278 1 3a91 91 0 0 1-4 4h-2l-.812 1.746c-1.218 2.31-2.615 4.233-4.188 6.317-7.052 9.981-12.696 21.138-17 32.562-3.34 8.725-8.032 16.487-13 24.375l-1.251 2.002c-12.427 19.73-28.752 37.615-47.147 51.967-3.109 2.427-6.103 4.97-9.102 7.531a496 496 0 0 1-11.875 9.813c-8.03 6.528-15.78 13.629-22.941 21.105C327 444 327 444 325 444l-.793 1.785c-1.271 2.333-2.61 3.819-4.52 5.652l-1.867 1.813L316 455q-1.473 1.465-2.937 2.938L311 460c.557-3.971 2.488-5.941 5.188-8.812 2.702-2.907 5.36-5.805 7.875-8.875 2.62-3.078 5.51-5.668 8.585-8.286 2.92-2.516 5.762-5.11 8.602-7.714l1.538-1.406c2.167-1.989 4.288-3.987 6.321-6.114 1.908-1.81 3.554-2.64 5.891-3.793a120 120 0 0 0 4.563-4.062c4.541-4.178 9.248-8.07 14.09-11.895 2.373-1.915 2.373-1.915 3.913-4.18C379 393 379 393 380.856 392.097 404.133 380.18 425.095 342.718 433 319c7.098-15.148 15.45-29.712 28-41"/><path fill="#5E8687" d="M568 746q5.156.21 10.313.438l2.958.119 2.842.127 2.619.11C589 747 589 747 592 748c2.293-.052 4.584-.177 6.871-.34l2.053-.139q3.258-.222 6.514-.458c9.53-.679 18.998-1.238 28.562-1.063v1c-7.693.848-15.263 1.122-23 1v2l2 1h-7l4-1c-1.137-1.365-1.137-1.365-4.16-1.098l-3.903.035-3.91.028L597 749l-1 2-14-1v2q-19.487.07-38.975.104-9.058.014-18.116.047c-37.36.14-74.633-.472-111.909-3.151v-1a448 448 0 0 1 25.137.356c14.57.615 29.107.777 43.687.742l7.014-.005q9.076-.006 18.154-.024 9.323-.014 18.647-.02 18.18-.016 36.361-.049v-1l6-1z"/><path fill="#8C8C8E" d="M0 191h1v271H0z"/><path fill="#BBD6DE" d="M443 746c2.426-.328 2.426-.328 5.535-.25l3.563.082c6.323.272 12.637.633 18.953 1.023 14.424.875 28.81 1.346 43.262 1.332l2.333.003c8.797-.001 17.534-.265 26.312-.837 6.21-.395 12.386-.47 18.605-.415l3.091.013q3.673.018 7.346.049l1 3q-22.494.035-44.988.052-10.446.007-20.893.023-10.095.017-20.19.02-3.838.003-7.675.01c-25.722.053-25.722.053-38.254-1.105z"/><path fill="#A2BCC5" d="M628 740c-1.964 1.506-3.783 2.891-6 4l10 1v1c-34.855 3-34.855 3-48.25 3.25l-3.64.078c-3.432-.362-4.511-1.199-7.11-3.328l3.206-.335q5.971-.627 11.943-1.264 2.568-.273 5.138-.541c8.777-.918 17.503-1.838 26.179-3.497 2.87-.411 5.638-.422 8.534-.363"/><path fill="#118B8A" d="M645 568c1 3 1 3 1 6 4.393 1.563 4.393 1.563 9 2 1.688-1.438 1.688-1.438 3-3-1.445 5.297-4.871 8.596-9 12-5.497 3.111-10.81 3.639-17 4 .604-3.218 1.653-5.14 3.688-7.687 3.337-4.292 6.341-8.762 9.312-13.313"/><path fill="#97B1B9" d="M403 741c6.187-.165 11.96.468 18.063 1.438C429.712 743.75 438.26 744.61 447 745v1l6 1v1c-12.217 1.213-23.902 1.096-36.125.063l-3.13-.263-2.94-.265-2.657-.238C406 747 406 747 404 746v-2l-2-1z"/><path fill="#091A1D" d="M560 278c4.939 3.92 8.858 7.985 12.5 13.125l1.44 2.012c7.534 10.66 12.987 21.747 18.242 33.675l1.365 3.067 1.214 2.768c1.194 2.267 2.391 3.619 4.239 5.353l1 4a132 132 0 0 0 2.125 3.563L604 349l-1 3c-3.328-4.486-6.1-8.84-8.562-13.875l-.995-2.013c-2.165-4.407-4.261-8.846-6.345-13.292-6.97-14.822-13.695-27.752-25.192-39.543C560 281 560 281 560 278"/><path fill="#04A9A7" d="m669 691 1 2-3 3 2 1c3.12-1.185 6.117-2.582 9.152-3.969C681 692 681 692 684 693c-11.91 5.43-23.807 10.09-37 11 1.686-3.372 5.465-4.362 8.75-5.937 4.53-2.197 8.979-4.381 13.25-7.063"/><path fill="#076F72" d="M645 568c1 3 1 3 1 6 4.393 1.563 4.393 1.563 9 2 1.688-1.438 1.688-1.438 3-3-.895 3.01-1.645 4.699-4.062 6.75-3.882 1.652-7.71 2.409-11.938 2.25-2.277-.988-2.277-.988-4-2l1.25-2.062c1.96-3.29 3.857-6.61 5.75-9.938"/><path fill="#B1CED7" d="M616 742c-3.54 2.36-5.991 2.586-10.187 3.125l-3.856.508L599 746l5 1v1c-6.656.694-13.308 1.138-20 1.25l-3.75.078c-3.538-.357-4.585-1.134-7.25-3.328q7.74-.86 15.479-1.709l5.26-.582q3.79-.42 7.581-.834l2.359-.265c4.13-.447 8.158-.703 12.321-.61"/><path fill="#0F1C1D" d="m461 278 1 3a91 91 0 0 1-4 4h-2l-.816 1.754c-1.198 2.273-2.566 4.14-4.122 6.183-6.005 8.41-10.392 17.87-15.062 27.063-1.237-3.805-.515-5.735 1.248-9.33l1.065-2.045 1.091-2.13c5.632-10.68 12.588-20.392 21.596-28.495"/><path fill="#ABC8D1" d="m572 747 1 3q-7.794.074-15.588.11-2.652.016-5.302.04c-2.542.025-5.084.036-7.626.045l-2.39.032c-3.843 0-6.84-.04-10.094-2.227 13.343-1.003 26.623-1.115 40-1"/><path fill="#AAC9D0" d="M403 741c7.932-.327 15.667.904 23.5 2l4.227.578q5.138.703 10.273 1.422v1l-20 1-1-2c-5.458-.111-10.615.083-16 1v-2l-2-1z"/><path fill="#000A0C" d="M368 547h1l.227 3.148c.919 10.46 2.793 18.83 11.148 25.977L383 578c-4.84 1.613-8.58-.81-13-3-4.47-2.812-7.947-5.668-11-10l1-2 1.066 1.39c3.58 4.449 6.829 7.057 11.934 9.61l1-1-1.312-2.133c-4.61-8.172-5.43-14.573-4.688-23.867"/><path fill="#05181B" d="M604 353h3a85 85 0 0 1 4.438 6.188c5.714 8.377 12.4 15.65 19.562 22.812l-1 3c-6.677-6.196-12.54-12.693-18.062-19.937l-1.697-2.223c-2.397-3.194-4.531-6.217-6.241-9.84"/><path fill="#909091" d="M0 87h1v75H0z"/><path fill="#039F9E" d="M740 621c1.703 3.406-.247 6.9-1.312 10.375l-.686 2.328c-1.087 3.622-2.24 6.939-4.002 10.297-1.26-2.52-.662-3.351 0-6l-1-2-4 2c1.75-3.886 4.183-7.278 6.625-10.75l1.273-1.824A2066 2066 0 0 1 740 621"/><path fill="#04191C" d="M632 386c3.432.575 4.928 1.634 7.25 4.188 4.025 4.216 8.502 8.188 13.75 10.812 1.762 1.927 3.357 3.968 5 6l-1 2c-6.235-4.948-12.268-10.05-18.125-15.437l-1.721-1.576c-4.03-3.738-4.03-3.738-5.154-5.987"/><path fill="#101F20" d="M560 278c5.035 3.977 8.938 8.137 12.625 13.375l1.429 1.995c6.406 9.004 6.406 9.004 8.946 13.63l-1 2c-3.07-2.694-4.963-6.051-7.062-9.5-3.784-6.096-8.04-11.19-13.067-16.293C560 281 560 281 560 278"/><path fill="#129A97" d="m634 581 2 1c-4.687 7.882-4.687 7.882-6.945 8.73L623 592v-3l-2-2q3.18-1.544 6.375-3.062l3.586-1.723z"/><path fill="#3E708F" d="m462 560 1 3c-3.235 6.061-8.727 8.879-15 11-4.084 1.165-8.033 1.11-12.25 1.063l-2.258-.014q-2.745-.02-5.492-.049v-1l2.71-.113c10.048-.547 19.234-1.442 27.29-7.887l2-3h-5c2.62-1.746 4.038-2.387 7-3"/><path fill="#04ABA9" d="M348 686c5.348 1.82 9.612 5 14.209 8.191 4.44 3.033 8.937 5.492 13.791 7.809-3.456 1.152-4.633.808-8.062-.187l-2.66-.731C363 700 363 700 362.104 698.145c-1.677-3.254-4.64-4.534-7.73-6.27A122 122 0 0 1 348 688z"/><path fill="#88A2AA" d="m618 743-2 1v2h-8v2l-17-1v-1c3.562-.506 7.124-1.003 10.688-1.5l3.052-.434 2.96-.41 2.713-.38c2.551-.272 5.024-.324 7.587-.276"/><path fill="#061F23" d="m393 381 1 3a692 692 0 0 1-6.25 6.563l-1.777 1.904-1.739 1.787-1.587 1.666c-1.647 1.08-1.647 1.08-3.85.752L377 396c.75-1.937.75-1.937 2-4l1.75-.312c3.368-1.03 5.083-3.238 7.5-5.75l2.703-2.786z"/><path fill="#081417" d="M260 612c1.929 2.893 2.437 4.355 3.07 7.668l.528 2.705.527 2.814.55 2.85q.672 3.48 1.325 6.963l-3-1-.375-3.437L262 627l-2-1z"/><path fill="#015D63" d="M371 562c1.506 1.964 2.891 3.783 4 6h9c-.812 2.438-.812 2.438-2 5-3 1-3 1-6 0-1.387-1.742-1.387-1.742-2.687-3.875l-1.325-2.117C371 565 371 565 371 562"/><path fill="#03A0A5" d="M572 332h2l.883 2.203a208 208 0 0 0 9.078 19.399L585 356l-1 2c-3.853-6.152-7.24-12.28-10-19l-2 2z"/><path fill="#839CA3" d="m568 746 21 1v1l-7 1v1c-6.737.11-13.3-.299-20-1v-1l6-1z"/><path fill="#BDDEE6" d="M443 746c2.547-.328 2.547-.328 5.75-.25l3.496.078c5.928.272 11.84.676 17.754 1.172v1c-9.71.838-19.26 1.123-29 1z"/><path fill="#061519" d="M758 635h1c-.294 8.513-3.468 15.406-7 23h-2c2.528-7.717 5.25-15.36 8-23"/><path fill="#045A5F" d="M645 568c1 3 1 3 1 6 3.91 1.47 3.91 1.47 8 2l-1 3c-1.46-.114-2.917-.242-4.375-.375-.812-.07-1.624-.14-2.46-.21C644 578 644 578 642 576c.353-3.442 1.046-5.069 3-8"/><path fill="#002026" d="m521.25 601.813 2.547.04c2.068.036 4.136.09 6.203.147-1.637 1.985-2.501 2.918-5.085 3.34-.78-.015-1.56-.03-2.364-.047l-2.569-.03c-.88-.024-1.762-.05-2.67-.076l-2.705-.04A550 550 0 0 1 508 605c3.833-4.012 8.094-3.345 13.25-3.187"/><path fill="#00151C" d="M355 697c4.95.796 9.582 2.453 14.313 4.063l2.533.853q3.078 1.039 6.154 2.084c-1.887 1.045-1.887 1.045-4 2-1.8-.719-1.8-.719-4-2a433 433 0 0 0-9.13-3.145c-4.762-1.638-4.762-1.638-5.87-3.855"/><path fill="#26342E" d="M527 259c-3.471 2.314-4.313 2.157-8.324 1.758l-3.115-.293-3.249-.34-3.283-.316q-4.015-.39-8.029-.809v-1c9.032-1.39 17.057-.46 26 1"/><path fill="#049E9D" d="M355 692c2.164.996 2.164.996 4.625 2.438l2.477 1.433L364 697c-1.64 1.148-1.64 1.148-4 2-2.797-.898-2.797-.898-5.75-2.375l-2.984-1.46L349 694l1.875-.437c2.158-.495 2.158-.495 4.125-1.563"/><path fill="#86A1A9" d="M447 745v1l6 1v1q-4 .04-8 .063l-2.254.025c-5.007.022-9.789-.373-14.746-1.088v-1q3.062-.254 6.125-.5l3.445-.281c3.156-.202 6.27-.257 9.43-.219"/><path fill="#1F2B29" d="M543 266c4.357 1.471 7.72 3.83 11.313 6.625l1.666 1.273A817 817 0 0 1 560 277l-3 1c-2.594-1.582-2.594-1.582-5.5-3.812l-2.906-2.208L546 270l-3-2z"/><path fill="#036F73" d="M393.293 569.895 395 571l-5.625 1.875L387 574l-1 3-5-1c1-3 1-3 2.926-4.238.787-.355 1.575-.71 2.387-1.074l2.363-1.114c2.324-.574 2.324-.574 4.617.32"/><path fill="#0E2025" d="M278 666h2a101 101 0 0 1 3.625 6l1.914 3.375L287 678h-3l-1-2h-3v-4l-2-3z"/><path fill="#05B0AE" d="M284 605c2.098 2.098 2.968 3.756 4.188 6.438l1.105 2.37C290 616 290 616 289 619l-1-1-2 3z"/><path fill="#06A5A8" d="M448 330c1.724 3.449 2.51 5.791 3.188 9.5l.542 2.844C452 345 452 345 451 349l-3-10-2 1z"/><path fill="#1A2623" d="m461 278 1 3a91 91 0 0 1-4 4h-2l-.875 1.813C454 289 454 289 452 292l-3-1q2.718-2.97 5.438-5.937l1.564-1.71c3.885-4.24 3.885-4.24 4.998-5.353"/><path fill="#031015" d="M259 573h1v19h-2c-1.458-3.957-.68-7.698-.062-11.75l.302-2.113q.372-2.57.76-5.137"/><path fill="#031317" d="M280 502h2c-.595 4.758-2.49 8.947-5 13l-2 1c.535-5.348 2.467-9.358 5-14"/><path fill="#199F9A" d="M376 578c4.116.475 7.364 1.021 11 3l-2.117.402-2.758.535-2.742.528C377 582.9 377 582.9 375 584z"/><path fill="#729197" d="m313 706 3 2c-1 1-1 1-4.562 1.063L308 709l-1 2-4-1-1 2-6-1v-1l3.465-.621 4.473-.817 2.287-.408c3.695-.397 3.695-.397 6.775-2.154"/><path fill="#07AEAE" d="M740 621c1.572 3.143.117 5.365-.937 8.625l-1.153 3.602L737 636l-1-3-.875-2.25c-.192-4.224 2.257-6.606 4.875-9.75"/><path fill="#929295" d="M0 22h1v28H0z"/><path fill="#919193" d="M0 59h1v27H0z"/><path fill="#041216" d="M272 522c1.214 3.642.667 4.332-.937 7.688l-1.153 2.449L269 534h-1c.714-8.571.714-8.571 4-12"/><path fill="#072024" d="m351 416 3 1c-1.882 3.482-3.501 6.032-7 8l-3-1 1.531-1.242 1.969-1.633 1.969-1.617L351 418z"/><path fill="#7F9BA0" d="M748 724v2c-1.264.7-2.537 1.384-3.812 2.063l-2.145 1.16C740 730 740 730 737 729h2v-2c5.625-3 5.625-3 9-3"/><path fill="#061619" d="M760 554h2c.222 1.623.427 3.249.625 4.875l.352 2.742L763 564l-2 2c-.982-4.053-1.082-7.839-1-12"/><path fill="#000D0F" d="M496 608h9v2l3 1c-4.548.178-7.88-.002-12-2z"/><path fill="#8E8E8F" d="M0 167h1v23H0z"/><path fill="#376683" d="M398 550c4.875 1.75 4.875 1.75 6 4l-4-1 2 7c-2.797-2.068-3.027-3.144-3.687-6.687z"/><path fill="#78959B" d="m276 717 2 1-.562 1.75c-.478 2.457-.195 3.894.562 6.25l-3-1c-.625-2.875-.625-2.875-1-6z"/><path fill="#06BAB6" d="M366 698c4.154 1.227 6.437 2.328 10 5l-10-2z"/><path fill="#366684" d="M637 557c.625 1.813.625 1.813 1 4l-2 3-1-3-6 2c2.366-2.615 4.942-4.264 8-6"/><path fill="#D8AA22" d="M572 264h2c-1 3-1 3-3.812 4.813C567 270 567 270 564.625 269.188L563 268l1.715-.621 2.222-.817 2.215-.808c1.831-.608 1.831-.608 2.848-1.754"/><path fill="#B6D4DB" d="M315 708c4.11 1.45 7.433 3.511 11 6l-2 1a198 198 0 0 1-5-3c-2.191-.696-2.191-.696-4-1z"/><path fill="#1B2926" d="M560 278q1.758 1.428 3.5 2.875l1.969 1.617L567 284v2c-2.862-1.283-5.025-2.53-7-5z"/><path fill="#E2B322" d="M517 240h2c-.935 3.228-1.447 4.665-4.375 6.438-2.625.562-2.625.562-4.937-.313L508 245h7z"/><path fill="#015057" d="M645 568c1 3 1 3 1 6l2 2h-5l-1-3c1.438-2.687 1.438-2.687 3-5"/><path fill="#0C171B" d="M566 286c3.335 1.38 5.186 2.85 7 6l-1 3a1273 1273 0 0 1-3-3.937l-1.687-2.215C566 287 566 287 566 286"/><path fill="#959597" d="M0 0h1v18H0z"/><path fill="#149090" d="m620 593 2 1a159 159 0 0 1-5 6h-2c1.25-3.653 1.671-4.78 5-7"/><path fill="#356582" d="m462 560 1 3-2 2-6-2c2.62-1.746 4.038-2.387 7-3"/><path fill="#019B9F" d="M309 507c1.044 3.133.934 3.99 0 7h-2l-1 2c.498-3.735.875-5.812 3-9"/><path fill="#7B7D3D" d="M513 256c1.791-.054 3.583-.093 5.375-.125l3.023-.07C524 256 524 256 526 258l-13-1z"/><path fill="#699797" d="m386 747 6 1v1h-7z"/><path fill="#598C8C" d="M602 750h5l1 2-6-1z"/><path fill="#5D9090" d="M418 750h6l-1 2-5-1z"/><path fill="#919193" d="M0 51h1v7H0z"/><path fill="#548A8C" d="M434 751h6v1h-6z"/><path fill="#7AA0A2" d="M680 743h6v1h-6z"/><path fill="#7A7C42" d="M558 272h2l-1 3-2-2z"/><path fill="#7D7C3C" d="M501 256h6v1h-6z"/><path fill="#779EA2" d="m327 741 4 1-2 1z"/><path fill="#23484D" d="m277 669 2 3-3-1z"/><path fill="#1E4644" d="m590 320 2 1-1 3z"/><path fill="#5F6A42" d="M564 280h3v2l-3-1z"/><path fill="#639494" d="m401 749 4 1Z"/><path fill="#759D9F" d="m340 743 4 1Z"/><path fill="#65888C" d="m719 707 4 1Z"/><path fill="#10363C" d="m258 618 1 4Z"/><path fill="#0C393D" d="m741 497 2 1-1 2z"/><path fill="#4C8686" d="m588 751 3 1Z"/><path fill="#78A0A1" d="m687 742 2 1-2 1z"/><path fill="#789FA0" d="m320 740 3 1Z"/><path fill="#7EA1A2" d="m725 735 3 1Z"/><path fill="#22474B" d="M275 667h2l-1 2z"/><path fill="#154043" d="m604 344 3 1Z"/><path fill="#4B6041" d="M571 288h2l-1 2z"/><path fill="#D7BA2E" d="m568 240 2 1-2 1z"/><path fill="#538789" d="m593 751 2 1Z"/><path fill="#578A8B" d="m429 751 2 1Z"/><path fill="#719B9B" d="m646 747 2 1Z"/><path fill="#6E999A" d="m641 747 2 1Z"/><path fill="#6D9A9A" d="m377 747 2 1Z"/><path fill="#799EA0" d="m696 741 2 1Z"/><path fill="#7A9FA1" d="m296 735 2 1Z"/><path fill="#6E8F94" d="m739 712 2 1Z"/><path fill="#0C383E" d="m297 464 2 1Z"/><path fill="#0B3A3F" d="m689 432 2 1Z"/><path fill="#0D3C42" d="m360 408 2 1Z"/><path fill="#465E43" d="m442 296 2 1Z"/><path fill="#A49636" d="m454 271 2 1Z"/><path fill="#84803E" d="m477 264 2 1Z"/><path fill="#CEB12F" d="m440 263 2 1Z"/><path fill="#D5B52F" d="m508 205 2 1Z"/></svg>