<?xml version="1.0" encoding="UTF-8"?>
<svg version="1.1" xmlns="http://www.w3.org/2000/svg" width="1024" height="1024">
<path d="M0 0 C13.26942895 13.97343402 22.02608086 29.97708629 29.71289062 47.52294922 C30.15310547 48.51955566 30.59332031 49.51616211 31.046875 50.54296875 C31.43472168 51.43725586 31.82256836 52.33154297 32.22216797 53.25292969 C33.39926797 55.50051004 34.60047987 56.83889235 36.4296875 58.55859375 C36.76302083 59.89192708 37.09635417 61.22526042 37.4296875 62.55859375 C39.09065435 65.86569738 40.79486968 68.92377593 43.4296875 71.55859375 C44.40324634 73.13261103 45.35871085 74.71784694 46.3046875 76.30859375 C53.34966931 87.41632581 62.45217461 96.75137792 71.6796875 106.05859375 C72.79597534 107.18890015 72.79597534 107.18890015 73.93481445 108.34204102 C78.90332566 113.28185483 84.1019122 118.3947061 90.4296875 121.55859375 C91.01621094 122.30625 91.60273437 123.05390625 92.20703125 123.82421875 C94.57589745 126.7384654 97.07805431 128.94556874 99.9921875 131.30859375 C100.94222656 132.0871875 101.89226562 132.86578125 102.87109375 133.66796875 C105.35055334 135.70413991 105.35055334 135.70413991 108.4296875 136.55859375 C108.9865625 137.25984375 109.5434375 137.96109375 110.1171875 138.68359375 C112.51717982 141.66736798 115.06384382 143.93315579 117.9609375 146.4140625 C128.68660861 155.73114073 139.56828741 165.42503979 148.4296875 176.55859375 C148.4296875 177.21859375 148.4296875 177.87859375 148.4296875 178.55859375 C149.0896875 178.55859375 149.7496875 178.55859375 150.4296875 178.55859375 C186.07556842 216.01878597 204.62507407 271.05826295 203.51855469 321.921875 C202.87392922 341.0481251 198.19532783 359.11085687 190.4296875 376.55859375 C189.97980469 377.58210938 189.52992188 378.605625 189.06640625 379.66015625 C183.2709676 392.03464215 174.860931 402.74612248 165.4296875 412.55859375 C164.28306641 413.76515625 164.28306641 413.76515625 163.11328125 414.99609375 C158.8291688 419.40343786 154.56168702 423.1736579 149.4296875 426.55859375 C153.86899724 428.16821102 158.3187369 429.24474468 162.91894531 430.25805664 C181.49326631 434.38258087 181.49326631 434.38258087 186.4296875 438.55859375 C187.49003313 440.90581339 187.54563064 442.10096969 186.9140625 444.59375 C184.73496986 447.47818052 181.92348937 448.62093951 178.6796875 449.99609375 C177.97142822 450.29757324 177.26316895 450.59905273 176.53344727 450.90966797 C160.71243966 457.30608179 143.37159888 459.37171552 126.59936523 461.94775391 C125.32262939 462.1441748 124.04589355 462.3405957 122.73046875 462.54296875 C121.01597534 462.80158691 121.01597534 462.80158691 119.2668457 463.06542969 C116.36574814 463.49707966 116.36574814 463.49707966 113.4296875 464.55859375 C112.06893612 464.60593813 110.70603737 464.60359969 109.3449707 464.56640625 C104.44065716 464.51297144 99.65894041 464.92265314 94.78515625 465.43359375 C92.95508399 465.61594426 91.12500567 465.79823403 89.29492188 465.98046875 C86.45805969 466.26834086 83.62140899 466.55815999 80.78491211 466.84960938 C60.40526841 468.93165794 60.40526841 468.93165794 50.4296875 468.55859375 C50.4296875 469.21859375 50.4296875 469.87859375 50.4296875 470.55859375 C51.0896875 470.88859375 51.7496875 471.21859375 52.4296875 471.55859375 C50.1196875 471.55859375 47.8096875 471.55859375 45.4296875 471.55859375 C46.7496875 471.22859375 48.0696875 470.89859375 49.4296875 470.55859375 C48.29267153 469.19326826 48.29267153 469.19326826 45.26953125 469.4609375 C43.98175781 469.47253906 42.69398438 469.48414063 41.3671875 469.49609375 C39.43166016 469.50962891 39.43166016 469.50962891 37.45703125 469.5234375 C36.45800781 469.53503906 35.45898438 469.54664063 34.4296875 469.55859375 C34.0996875 470.21859375 33.7696875 470.87859375 33.4296875 471.55859375 C28.8096875 471.22859375 24.1896875 470.89859375 19.4296875 470.55859375 C19.4296875 471.21859375 19.4296875 471.87859375 19.4296875 472.55859375 C6.43801443 472.60583425 -6.55363682 472.64091192 -19.54537964 472.66221809 C-25.5839958 472.67246605 -31.62255148 472.68625619 -37.66113281 472.70947266 C-78.9726465 472.86380935 -120.1865672 472.0251986 -161.3828125 468.74609375 C-162.45779999 468.66277802 -163.53278748 468.57946228 -164.64035034 468.49362183 C-271.72115212 460.15040946 -271.72115212 460.15040946 -287.5703125 445.55859375 C-288.34765625 442.3671875 -288.34765625 442.3671875 -288.5703125 439.55859375 C-284.65030556 435.97350002 -280.79988471 434.37476288 -275.7578125 432.99609375 C-275.02312744 432.78702393 -274.28844238 432.5779541 -273.53149414 432.36254883 C-265.96926474 430.27460899 -258.30454419 428.83895781 -250.5703125 427.55859375 C-253.67811994 424.40136887 -256.85034807 421.39916489 -260.1953125 418.49609375 C-264.17222832 414.93654541 -267.89269763 411.2282987 -271.5078125 407.30859375 C-271.96816895 406.81351318 -272.42852539 406.31843262 -272.90283203 405.80834961 C-274.97038828 403.53235493 -276.67362833 401.37723359 -278.19921875 398.69921875 C-278.65167969 397.9928125 -279.10414063 397.28640625 -279.5703125 396.55859375 C-280.5603125 396.55859375 -281.5503125 396.55859375 -282.5703125 396.55859375 C-282.5703125 395.23859375 -282.5703125 393.91859375 -282.5703125 392.55859375 C-283.86783433 389.98742348 -283.86783433 389.98742348 -285.5703125 387.43359375 C-288.5703125 382.75303819 -288.5703125 382.75303819 -288.5703125 380.55859375 C-289.2303125 380.22859375 -289.8903125 379.89859375 -290.5703125 379.55859375 C-291.39233398 377.95141602 -291.39233398 377.95141602 -292.19140625 375.875 C-292.48587646 375.11654785 -292.78034668 374.3580957 -293.08374023 373.57666016 C-293.38868408 372.76632324 -293.69362793 371.95598633 -294.0078125 371.12109375 C-294.31984619 370.30302246 -294.63187988 369.48495117 -294.95336914 368.64208984 C-300.5703125 353.76095228 -300.5703125 353.76095228 -300.5703125 347.55859375 C-301.2303125 347.22859375 -301.8903125 346.89859375 -302.5703125 346.55859375 C-302.5703125 343.58859375 -302.5703125 340.61859375 -302.5703125 337.55859375 C-303.5603125 337.55859375 -304.5503125 337.55859375 -305.5703125 337.55859375 C-305.395 336.61886719 -305.2196875 335.67914062 -305.0390625 334.7109375 C-304.34155852 329.81735761 -304.75535096 325.03474943 -305.0703125 320.12109375 C-306.73784269 288.26995416 -299.68196141 257.12814963 -285.5703125 228.55859375 C-285.21710938 227.83978027 -284.86390625 227.1209668 -284.5 226.38037109 C-272.55269441 202.34071618 -255.96254579 180.12950892 -236.5703125 161.55859375 C-235.7453125 160.73359375 -234.9203125 159.90859375 -234.0703125 159.05859375 C-233.2453125 158.23359375 -232.4203125 157.40859375 -231.5703125 156.55859375 C-231.01085937 155.9759375 -230.45140625 155.39328125 -229.875 154.79296875 C-225.15393215 149.93810546 -220.1402173 145.6947646 -214.79296875 141.5390625 C-212.33371423 139.67867447 -212.33371423 139.67867447 -211.5703125 136.55859375 C-210.87550781 136.29433594 -210.18070312 136.03007812 -209.46484375 135.7578125 C-205.37068819 134.06158341 -202.53281939 131.30876794 -199.2578125 128.37109375 C-198.59644287 127.78610107 -197.93507324 127.2011084 -197.25366211 126.59838867 C-195.9473561 125.44287815 -194.64301137 124.28514586 -193.34082031 123.125 C-190.53467083 120.64233934 -187.6636728 118.23561565 -184.79296875 115.828125 C-183.33908441 114.61225974 -183.33908441 114.61225974 -183.5703125 112.55859375 C-182.98709229 112.46215576 -182.40387207 112.36571777 -181.80297852 112.26635742 C-179.08992916 111.40631039 -177.86023554 110.23599225 -175.84765625 108.234375 C-175.14987061 107.5429541 -174.45208496 106.8515332 -173.7331543 106.13916016 C-172.9987915 105.39069824 -172.26442871 104.64223633 -171.5078125 103.87109375 C-170.74702393 103.09942871 -169.98623535 102.32776367 -169.20239258 101.53271484 C-152.3035517 84.15933833 -137.28971047 62.71678766 -129.5703125 39.55859375 C-117.3328742 13.44407158 -101.16426366 -7.71287804 -73.5703125 -18.44140625 C-46.71159385 -27.30801939 -20.13054751 -19.04151789 0 0 Z " fill="#008187" transform="translate(562.5703125,279.44140625)"/>
<path d="M0 0 C13.26942895 13.97343402 22.02608086 29.97708629 29.71289062 47.52294922 C30.15310547 48.51955566 30.59332031 49.51616211 31.046875 50.54296875 C31.43472168 51.43725586 31.82256836 52.33154297 32.22216797 53.25292969 C33.39926797 55.50051004 34.60047987 56.83889235 36.4296875 58.55859375 C36.76302083 59.89192708 37.09635417 61.22526042 37.4296875 62.55859375 C39.09065435 65.86569738 40.79486968 68.92377593 43.4296875 71.55859375 C44.40324634 73.13261103 45.35871085 74.71784694 46.3046875 76.30859375 C53.34966931 87.41632581 62.45217461 96.75137792 71.6796875 106.05859375 C72.79597534 107.18890015 72.79597534 107.18890015 73.93481445 108.34204102 C78.90332566 113.28185483 84.1019122 118.3947061 90.4296875 121.55859375 C91.01621094 122.30625 91.60273437 123.05390625 92.20703125 123.82421875 C94.57589745 126.7384654 97.07805431 128.94556874 99.9921875 131.30859375 C100.94222656 132.0871875 101.89226562 132.86578125 102.87109375 133.66796875 C105.35055334 135.70413991 105.35055334 135.70413991 108.4296875 136.55859375 C108.9865625 137.25984375 109.5434375 137.96109375 110.1171875 138.68359375 C112.51717982 141.66736798 115.06384382 143.93315579 117.9609375 146.4140625 C128.68660861 155.73114073 139.56828741 165.42503979 148.4296875 176.55859375 C148.4296875 177.21859375 148.4296875 177.87859375 148.4296875 178.55859375 C149.0896875 178.55859375 149.7496875 178.55859375 150.4296875 178.55859375 C186.07556842 216.01878597 204.62507407 271.05826295 203.51855469 321.921875 C202.87392922 341.0481251 198.19532783 359.11085687 190.4296875 376.55859375 C189.97980469 377.58210938 189.52992188 378.605625 189.06640625 379.66015625 C183.2709676 392.03464215 174.860931 402.74612248 165.4296875 412.55859375 C164.28306641 413.76515625 164.28306641 413.76515625 163.11328125 414.99609375 C158.8291688 419.40343786 154.56168702 423.1736579 149.4296875 426.55859375 C153.86899724 428.16821102 158.3187369 429.24474468 162.91894531 430.25805664 C181.49326631 434.38258087 181.49326631 434.38258087 186.4296875 438.55859375 C187.49003313 440.90581339 187.54563064 442.10096969 186.9140625 444.59375 C184.73496986 447.47818052 181.92348937 448.62093951 178.6796875 449.99609375 C177.97142822 450.29757324 177.26316895 450.59905273 176.53344727 450.90966797 C160.71243966 457.30608179 143.37159888 459.37171552 126.59936523 461.94775391 C125.32262939 462.1441748 124.04589355 462.3405957 122.73046875 462.54296875 C121.01597534 462.80158691 121.01597534 462.80158691 119.2668457 463.06542969 C116.36574814 463.49707966 116.36574814 463.49707966 113.4296875 464.55859375 C112.06893612 464.60593813 110.70603737 464.60359969 109.3449707 464.56640625 C104.44065716 464.51297144 99.65894041 464.92265314 94.78515625 465.43359375 C92.95508399 465.61594426 91.12500567 465.79823403 89.29492188 465.98046875 C86.45805969 466.26834086 83.62140899 466.55815999 80.78491211 466.84960938 C60.40526841 468.93165794 60.40526841 468.93165794 50.4296875 468.55859375 C50.4296875 469.21859375 50.4296875 469.87859375 50.4296875 470.55859375 C51.0896875 470.88859375 51.7496875 471.21859375 52.4296875 471.55859375 C50.1196875 471.55859375 47.8096875 471.55859375 45.4296875 471.55859375 C46.7496875 471.22859375 48.0696875 470.89859375 49.4296875 470.55859375 C48.29267153 469.19326826 48.29267153 469.19326826 45.26953125 469.4609375 C43.98175781 469.47253906 42.69398438 469.48414063 41.3671875 469.49609375 C39.43166016 469.50962891 39.43166016 469.50962891 37.45703125 469.5234375 C36.45800781 469.53503906 35.45898438 469.54664063 34.4296875 469.55859375 C34.0996875 470.21859375 33.7696875 470.87859375 33.4296875 471.55859375 C28.8096875 471.22859375 24.1896875 470.89859375 19.4296875 470.55859375 C19.4296875 471.21859375 19.4296875 471.87859375 19.4296875 472.55859375 C6.43801443 472.60583425 -6.55363682 472.64091192 -19.54537964 472.66221809 C-25.5839958 472.67246605 -31.62255148 472.68625619 -37.66113281 472.70947266 C-78.9726465 472.86380935 -120.1865672 472.0251986 -161.3828125 468.74609375 C-162.45779999 468.66277802 -163.53278748 468.57946228 -164.64035034 468.49362183 C-271.72115212 460.15040946 -271.72115212 460.15040946 -287.5703125 445.55859375 C-288.34765625 442.3671875 -288.34765625 442.3671875 -288.5703125 439.55859375 C-284.65030556 435.97350002 -280.79988471 434.37476288 -275.7578125 432.99609375 C-275.02312744 432.78702393 -274.28844238 432.5779541 -273.53149414 432.36254883 C-265.96926474 430.27460899 -258.30454419 428.83895781 -250.5703125 427.55859375 C-253.67811994 424.40136887 -256.85034807 421.39916489 -260.1953125 418.49609375 C-264.17222832 414.93654541 -267.89269763 411.2282987 -271.5078125 407.30859375 C-271.96816895 406.81351318 -272.42852539 406.31843262 -272.90283203 405.80834961 C-274.97038828 403.53235493 -276.67362833 401.37723359 -278.19921875 398.69921875 C-278.65167969 397.9928125 -279.10414063 397.28640625 -279.5703125 396.55859375 C-280.5603125 396.55859375 -281.5503125 396.55859375 -282.5703125 396.55859375 C-282.5703125 395.23859375 -282.5703125 393.91859375 -282.5703125 392.55859375 C-283.86783433 389.98742348 -283.86783433 389.98742348 -285.5703125 387.43359375 C-288.5703125 382.75303819 -288.5703125 382.75303819 -288.5703125 380.55859375 C-289.2303125 380.22859375 -289.8903125 379.89859375 -290.5703125 379.55859375 C-291.39233398 377.95141602 -291.39233398 377.95141602 -292.19140625 375.875 C-292.48587646 375.11654785 -292.78034668 374.3580957 -293.08374023 373.57666016 C-293.38868408 372.76632324 -293.69362793 371.95598633 -294.0078125 371.12109375 C-294.31984619 370.30302246 -294.63187988 369.48495117 -294.95336914 368.64208984 C-300.5703125 353.76095228 -300.5703125 353.76095228 -300.5703125 347.55859375 C-301.2303125 347.22859375 -301.8903125 346.89859375 -302.5703125 346.55859375 C-302.5703125 343.58859375 -302.5703125 340.61859375 -302.5703125 337.55859375 C-303.5603125 337.55859375 -304.5503125 337.55859375 -305.5703125 337.55859375 C-305.395 336.61886719 -305.2196875 335.67914062 -305.0390625 334.7109375 C-304.34155852 329.81735761 -304.75535096 325.03474943 -305.0703125 320.12109375 C-306.73784269 288.26995416 -299.68196141 257.12814963 -285.5703125 228.55859375 C-285.21710938 227.83978027 -284.86390625 227.1209668 -284.5 226.38037109 C-272.55269441 202.34071618 -255.96254579 180.12950892 -236.5703125 161.55859375 C-235.7453125 160.73359375 -234.9203125 159.90859375 -234.0703125 159.05859375 C-233.2453125 158.23359375 -232.4203125 157.40859375 -231.5703125 156.55859375 C-231.01085937 155.9759375 -230.45140625 155.39328125 -229.875 154.79296875 C-225.15393215 149.93810546 -220.1402173 145.6947646 -214.79296875 141.5390625 C-212.33371423 139.67867447 -212.33371423 139.67867447 -211.5703125 136.55859375 C-210.87550781 136.29433594 -210.18070312 136.03007812 -209.46484375 135.7578125 C-205.37068819 134.06158341 -202.53281939 131.30876794 -199.2578125 128.37109375 C-198.59644287 127.78610107 -197.93507324 127.2011084 -197.25366211 126.59838867 C-195.9473561 125.44287815 -194.64301137 124.28514586 -193.34082031 123.125 C-190.53467083 120.64233934 -187.6636728 118.23561565 -184.79296875 115.828125 C-183.33908441 114.61225974 -183.33908441 114.61225974 -183.5703125 112.55859375 C-182.98709229 112.46215576 -182.40387207 112.36571777 -181.80297852 112.26635742 C-179.08992916 111.40631039 -177.86023554 110.23599225 -175.84765625 108.234375 C-175.14987061 107.5429541 -174.45208496 106.8515332 -173.7331543 106.13916016 C-172.9987915 105.39069824 -172.26442871 104.64223633 -171.5078125 103.87109375 C-170.74702393 103.09942871 -169.98623535 102.32776367 -169.20239258 101.53271484 C-152.3035517 84.15933833 -137.28971047 62.71678766 -129.5703125 39.55859375 C-117.3328742 13.44407158 -101.16426366 -7.71287804 -73.5703125 -18.44140625 C-46.71159385 -27.30801939 -20.13054751 -19.04151789 0 0 Z M-114.5703125 50.55859375 C-114.8384375 51.45578125 -115.1065625 52.35296875 -115.3828125 53.27734375 C-125.90208177 86.77291168 -148.73768737 112.46930811 -175.65234375 134.1796875 C-180.84724224 138.41488587 -185.92029239 142.79175236 -190.98339844 147.18310547 C-192.32387312 148.34498768 -193.66920929 149.50125761 -195.015625 150.65625 C-207.76308124 161.82693029 -220.45464485 173.92355862 -230.5703125 187.55859375 C-230.95944824 188.07131836 -231.34858398 188.58404297 -231.74951172 189.11230469 C-243.73565259 204.94763443 -254.40858548 223.24269704 -259.5703125 242.55859375 C-259.84746094 243.50089844 -260.12460937 244.44320312 -260.41015625 245.4140625 C-266.68726345 270.55141806 -263.58647478 297.40412869 -250.63525391 319.79199219 C-227.15634056 358.74050593 -182.05750835 376.83933867 -139.96728516 387.54882812 C-131.46029573 389.63820773 -122.89841617 391.3122107 -114.2578125 392.74609375 C-113.34813721 392.90094238 -112.43846191 393.05579102 -111.5012207 393.21533203 C-91.14650985 396.41266205 -70.66811314 396.88850541 -50.10668945 396.81933594 C-46.6896209 396.80793077 -43.27286347 396.81474638 -39.8558054 396.82619953 C-18.07239501 396.8884302 3.30766749 395.93207289 24.7421875 391.87109375 C25.77463593 391.67892776 25.77463593 391.67892776 26.82794189 391.48287964 C71.00109528 383.22637475 120.23829745 367.59297347 148.1796875 329.80859375 C162.92898094 307.30600425 168.05000613 281.57581327 162.97167969 255.05566406 C154.92429014 217.63443361 132.71310647 188.78222607 106.3046875 162.18359375 C105.39855713 161.26803711 104.49242676 160.35248047 103.55883789 159.40917969 C98.25911026 154.13485547 92.79628806 149.24557929 86.94189453 144.59326172 C84.35418008 142.49743935 81.88702956 140.30518165 79.4296875 138.05859375 C76.07642478 135.00105184 72.6551355 132.08771624 69.1171875 129.24609375 C44.77144965 109.45448126 20.26837156 83.49398798 11.4296875 52.55859375 C10.7696875 52.55859375 10.1096875 52.55859375 9.4296875 52.55859375 C9.27113281 53.56277344 9.11257813 54.56695312 8.94921875 55.6015625 C5.85824897 74.13826329 -0.67501904 91.29437776 -15.5703125 103.55859375 C-22.09113155 108.07038761 -28.85449909 111.6333428 -36.5703125 113.55859375 C-37.28574219 113.7390625 -38.00117187 113.91953125 -38.73828125 114.10546875 C-56.91216567 117.01329026 -73.47825681 113.22097527 -88.5703125 102.55859375 C-104.1560931 89.94535894 -110.48524862 69.64969495 -113.5703125 50.55859375 C-113.9003125 50.55859375 -114.2303125 50.55859375 -114.5703125 50.55859375 Z " fill="#002E38" transform="translate(562.5703125,279.44140625)"/>
<path d="M0 0 C9.71253493 1.96789923 18.06928386 12.01035345 24.75390625 18.78515625 C26.73576967 20.73944592 28.75826715 22.56993334 30.875 24.375 C38.47825489 30.91379921 45.79393534 38.11662057 52 46 C52 46.66 52 47.32 52 48 C52.66 48 53.32 48 54 48 C89.64588092 85.46019222 108.19538657 140.4996692 107.08886719 191.36328125 C106.44424172 210.48953135 101.76564033 228.55226312 94 246 C93.32517578 247.53527344 93.32517578 247.53527344 92.63671875 249.1015625 C86.8412801 261.4760484 78.4312435 272.18752873 69 282 C67.85337891 283.2065625 67.85337891 283.2065625 66.68359375 284.4375 C62.3994813 288.84484411 58.13199952 292.61506415 53 296 C57.43930974 297.60961727 61.8890494 298.68615093 66.48925781 299.69946289 C85.06357881 303.82398712 85.06357881 303.82398712 90 308 C91.06034563 310.34721964 91.11594314 311.54237594 90.484375 314.03515625 C88.30528236 316.91958677 85.49380187 318.06234576 82.25 319.4375 C81.54174072 319.73897949 80.83348145 320.04045898 80.10375977 320.35107422 C64.28275216 326.74748804 46.94191138 328.81312177 30.16967773 331.38916016 C28.89294189 331.58558105 27.61620605 331.78200195 26.30078125 331.984375 C24.58628784 332.24299316 24.58628784 332.24299316 22.8371582 332.50683594 C19.93606064 332.93848591 19.93606064 332.93848591 17 334 C15.63924862 334.04734438 14.27634987 334.04500594 12.9152832 334.0078125 C8.01096966 333.95437769 3.22925291 334.36405939 -1.64453125 334.875 C-3.47460351 335.05735051 -5.30468183 335.23964028 -7.13476562 335.421875 C-9.97162781 335.70974711 -12.80827851 335.99956624 -15.64477539 336.29101562 C-36.02441909 338.37306419 -36.02441909 338.37306419 -46 338 C-46 338.66 -46 339.32 -46 340 C-45.34 340.33 -44.68 340.66 -44 341 C-46.31 341 -48.62 341 -51 341 C-49.68 340.67 -48.36 340.34 -47 340 C-48.13701597 338.63467451 -48.13701597 338.63467451 -51.16015625 338.90234375 C-52.44792969 338.91394531 -53.73570312 338.92554688 -55.0625 338.9375 C-56.99802734 338.95103516 -56.99802734 338.95103516 -58.97265625 338.96484375 C-59.97167969 338.97644531 -60.97070312 338.98804688 -62 339 C-62.33 339.66 -62.66 340.32 -63 341 C-67.62 340.67 -72.24 340.34 -77 340 C-77 340.66 -77 341.32 -77 342 C-89.99167307 342.0472405 -102.98332432 342.08231817 -115.97506714 342.10362434 C-122.0136833 342.1138723 -128.05223898 342.12766244 -134.09082031 342.15087891 C-175.402334 342.3052156 -216.6162547 341.46660485 -257.8125 338.1875 C-258.88748749 338.10418427 -259.96247498 338.02086853 -261.07003784 337.93502808 C-368.15083962 329.59181571 -368.15083962 329.59181571 -384 315 C-384.77734375 311.80859375 -384.77734375 311.80859375 -385 309 C-381.07999306 305.41490627 -377.22957221 303.81616913 -372.1875 302.4375 C-371.45281494 302.22843018 -370.71812988 302.01936035 -369.96118164 301.80395508 C-362.39895224 299.71601524 -354.73423169 298.28036406 -347 297 C-350.10780744 293.84277512 -353.28003557 290.84057114 -356.625 287.9375 C-360.60191582 284.37795166 -364.32238513 280.66970495 -367.9375 276.75 C-368.39785645 276.25491943 -368.85821289 275.75983887 -369.33251953 275.24975586 C-371.40007578 272.97376118 -373.10331583 270.81863984 -374.62890625 268.140625 C-375.08136719 267.43421875 -375.53382813 266.7278125 -376 266 C-376.99 266 -377.98 266 -379 266 C-379 264.68 -379 263.36 -379 262 C-380.29752183 259.42882973 -380.29752183 259.42882973 -382 256.875 C-385 252.19444444 -385 252.19444444 -385 250 C-385.66 249.67 -386.32 249.34 -387 249 C-387.82202148 247.39282227 -387.82202148 247.39282227 -388.62109375 245.31640625 C-388.91556396 244.5579541 -389.21003418 243.79950195 -389.51342773 243.01806641 C-389.97084351 241.80256104 -389.97084351 241.80256104 -390.4375 240.5625 C-390.74953369 239.74442871 -391.06156738 238.92635742 -391.38305664 238.08349609 C-397 223.20235853 -397 223.20235853 -397 217 C-397.66 216.67 -398.32 216.34 -399 216 C-399 213.03 -399 210.06 -399 207 C-399.99 207 -400.98 207 -402 207 C-401.73703125 205.59041016 -401.73703125 205.59041016 -401.46875 204.15234375 C-400.77124602 199.25876386 -401.18503846 194.47615568 -401.5 189.5625 C-403.16753019 157.71136041 -396.11164891 126.56955588 -382 98 C-381.64679688 97.28118652 -381.29359375 96.56237305 -380.9296875 95.82177734 C-360.87776762 55.4745015 -360.87776762 55.4745015 -349 51 C-352.07400455 55.71580243 -355.22887127 60.32222101 -358.625 64.8125 C-362.52002446 70.1473195 -366.04156763 75.68605712 -369.5 81.3125 C-370.04092285 82.17270752 -370.5818457 83.03291504 -371.13916016 83.91918945 C-374.0103135 88.66301491 -375.20198928 91.39479743 -375 97 C-376.04087852 100.49497924 -377.4148937 103.85839457 -378.75 107.25 C-381.40039287 114.25718711 -383.78655126 121.17243095 -385.375 128.5 C-385.51776367 129.15516602 -385.66052734 129.81033203 -385.80761719 130.48535156 C-386.24802305 132.65112472 -386.62989872 134.82107833 -387 137 C-387.17515137 137.97573975 -387.35030273 138.95147949 -387.53076172 139.95678711 C-389.19798334 150.16610271 -389.39782224 160.23778926 -389.375 170.5625 C-389.37468277 171.88735916 -389.37468277 171.88735916 -389.37435913 173.23898315 C-389.34261499 186.52172309 -388.70832756 199.16559107 -385 212 C-384.81808105 212.67095703 -384.63616211 213.34191406 -384.44873047 214.03320312 C-378.84147195 234.37767998 -367.71882845 252.0681639 -353 267 C-352.30519531 267.70769531 -351.61039062 268.41539062 -350.89453125 269.14453125 C-328.624263 290.2948247 -295.44794693 304.39627639 -266 312 C-264.96617187 312.27199219 -263.93234375 312.54398438 -262.8671875 312.82421875 C-246.29186087 317.1473962 -229.79247102 320.44215677 -212.80419922 322.63427734 C-210.4808182 322.93729186 -208.16447332 323.2645572 -205.84765625 323.61328125 C-134.4350204 333.77077886 -48.33535208 329.25567524 17 297 C17.92619141 296.5457666 18.85238281 296.0915332 19.80664062 295.62353516 C31.24276435 289.96709839 42.3011176 284.38401933 52 276 C52.51143555 275.57315918 53.02287109 275.14631836 53.54980469 274.70654297 C67.57147359 262.94900814 77.76971304 248.77196259 85 232 C85.28069336 231.35063477 85.56138672 230.70126953 85.85058594 230.03222656 C93.58237009 211.73640282 96.23228232 193.19505734 96.25 173.4375 C96.25100708 172.66054779 96.25201416 171.88359558 96.25305176 171.08309937 C96.23761196 153.42473629 94.58292205 136.47306228 89.87890625 119.41015625 C89.11718477 116.45467691 88.7026692 113.7103637 88.375 110.6875 C86.84835149 101.7686587 81.45645344 93.73545994 77 86 C76.38777588 84.93676514 76.38777588 84.93676514 75.76318359 83.85205078 C69.37587867 72.91625027 61.92938047 62.86043203 54 53 C53.27756104 52.09967041 53.27756104 52.09967041 52.54052734 51.18115234 C40.84352558 36.75010356 27.62479869 23.44827536 13 12 C10.58788953 10.01916227 8.19854717 8.01210718 5.8125 6 C5.23459717 5.51797119 4.65669434 5.03594238 4.0612793 4.53930664 C2.68809532 3.38220427 1.34117755 2.19405314 0 1 C0 0.67 0 0.34 0 0 Z " fill="#011C21" transform="translate(659,410)"/>
<path d="M0 0 C11.19176362 8.32208064 19.79493137 20.95087859 22.71875 34.7265625 C24.49981053 49.12346845 22.24004385 62.92654444 14 75 C3.47786111 88.44495525 -9.07092367 96.29386512 -26 99 C-40.51963822 100.61821922 -54.25666811 95.49014832 -65.7890625 86.9296875 C-75.59702279 78.66255481 -83.96126636 66.05133706 -85.19287109 52.94799805 C-85.7737016 37.18637031 -84.25703101 23.7362186 -74 11 C-73.12214844 9.86304688 -73.12214844 9.86304688 -72.2265625 8.703125 C-53.91140336 -13.57408897 -23.25557481 -15.31464683 0 0 Z " fill="#FDE016" transform="translate(542,280)"/>
<path d="M0 0 C0.969375 0.00974854 1.93875 0.01949707 2.9375 0.02954102 C28.46127582 0.64956027 56.11354929 12.48133811 74.56640625 30.15625 C78.92558836 35.13817241 81.75075095 40.44522159 82.125 47.125 C81.7059478 53.38872764 78.85281237 57.46910767 74.3125 61.625 C61.64435422 71.75411443 46.07459093 71.71772404 30.5625 70.4375 C19.29744778 68.63009664 8.48029515 63.72978547 0.5625 55.4375 C0.04300781 55.77523437 -0.47648437 56.11296875 -1.01171875 56.4609375 C-10.35657514 62.4375 -10.35657514 62.4375 -13.4375 62.4375 C-12.1175 63.7575 -10.7975 65.0775 -9.4375 66.4375 C-18.95465015 64.90247578 -27.28323687 61.08512416 -33.25390625 53.25390625 C-38.45524067 45.27166036 -38.25405258 36.63059753 -37.4375 27.4375 C-35.14593848 17.57213348 -29.33847625 10.22671481 -20.9765625 4.76171875 C-13.79983344 1.01877851 -8.01827474 -0.09092453 0 0 Z " fill="#00171C" transform="translate(392.4375,512.5625)"/>
<path d="M0 0 C0.97259766 -0.02449219 1.94519531 -0.04898438 2.94726562 -0.07421875 C11.30057463 -0.10769895 17.82462566 1.93100524 24.8125 6.5 C32.74981751 14.79810467 36.02530759 23.91409061 35.99414062 35.25756836 C35.76002299 43.49039035 32.91624095 49.38336702 27.0625 55.1875 C21.97453678 59.29101056 15.83222805 61.66991815 9.5625 63.375 C8.9025 63.045 8.2425 62.715 7.5625 62.375 C11.0275 58.415 11.0275 58.415 14.5625 54.375 C13.5725 55.035 12.5825 55.695 11.5625 56.375 C8.38714957 55.95161994 5.50737474 54.60203114 2.5625 53.375 C2.5625 51.725 2.5625 50.075 2.5625 48.375 C2.27117187 48.89449219 1.97984375 49.41398438 1.6796875 49.94921875 C-3.9641728 59.55088046 -11.26650539 63.59886523 -21.66796875 67.1328125 C-36.42419451 70.84145685 -54.21853618 69.72555384 -67.36328125 61.890625 C-72.72609828 57.97203176 -77.18944605 53.03128774 -78.4375 46.375 C-79.21763195 39.46525985 -77.70351477 35.7895572 -73.4375 30.375 C-72.97601562 29.78847656 -72.51453125 29.20195313 -72.0390625 28.59765625 C-56.32485142 11.0089073 -22.85440344 0.03017083 0 0 Z " fill="#00171C" transform="translate(642.4375,520.625)"/>
<path d="M0 0 C3.41800528 1.94636412 6.82895968 3.899327 10.21875 5.89453125 C43.44208913 25.314364 80.9275669 34.17818925 119 38 C120.18795166 38.11939941 120.18795166 38.11939941 121.39990234 38.24121094 C202.25426096 46.10481365 326.46016682 55.92837607 393.9375 2.1875 C396.47452217 0.42153359 397.51721596 -0.03080076 400.6328125 0.16796875 C403.82807533 0.93909218 406.88155641 1.96172052 410 3 C412.00802496 3.49783234 414.02368383 3.94892373 416.04248047 4.40087891 C430.46855284 7.68522035 430.46855284 7.68522035 436 12 C437.08417114 14.35144674 437.11862919 15.53177419 436.484375 18.03515625 C434.30528236 20.91958677 431.49380187 22.06234576 428.25 23.4375 C427.18761108 23.88971924 427.18761108 23.88971924 426.10375977 24.35107422 C410.28275216 30.74748804 392.94191138 32.81312177 376.16967773 35.38916016 C374.89294189 35.58558105 373.61620605 35.78200195 372.30078125 35.984375 C371.15778564 36.15678711 370.01479004 36.32919922 368.8371582 36.50683594 C365.93606064 36.93848591 365.93606064 36.93848591 363 38 C361.63924862 38.04734438 360.27634987 38.04500594 358.9152832 38.0078125 C354.01096966 37.95437769 349.22925291 38.36405939 344.35546875 38.875 C342.52539649 39.05735051 340.69531817 39.23964028 338.86523438 39.421875 C336.02837219 39.70974711 333.19172149 39.99956624 330.35522461 40.29101562 C309.97558091 42.37306419 309.97558091 42.37306419 300 42 C300 42.66 300 43.32 300 44 C300.66 44.33 301.32 44.66 302 45 C299.69 45 297.38 45 295 45 C296.32 44.67 297.64 44.34 299 44 C297.86298403 42.63467451 297.86298403 42.63467451 294.83984375 42.90234375 C293.55207031 42.91394531 292.26429688 42.92554688 290.9375 42.9375 C289.64714844 42.94652344 288.35679687 42.95554687 287.02734375 42.96484375 C285.52880859 42.98224609 285.52880859 42.98224609 284 43 C283.67 43.66 283.34 44.32 283 45 C276.07 44.505 276.07 44.505 269 44 C269 44.66 269 45.32 269 46 C256.00832693 46.0472405 243.01667568 46.08231817 230.02493286 46.10362434 C223.9863167 46.1138723 217.94776102 46.12766244 211.90917969 46.15087891 C170.597666 46.3052156 129.3837453 45.46660485 88.1875 42.1875 C87.11251251 42.10418427 86.03752502 42.02086853 84.92996216 41.93502808 C-22.15083962 33.59181571 -22.15083962 33.59181571 -38 19 C-38.77734375 15.80859375 -38.77734375 15.80859375 -39 13 C-35.07986839 9.41479225 -31.22952068 7.81657324 -26.1875 6.4375 C-25.08438477 6.12280762 -25.08438477 6.12280762 -23.95898438 5.80175781 C-18.00615876 4.15496164 -12.0040958 2.92180298 -5.91479492 1.90014648 C-2.67656247 1.58103254 -2.67656247 1.58103254 0 0 Z " fill="#8FAAB2" transform="translate(313,706)"/>
<path d="M0 0 C3.2843893 2.98999026 4.38083305 5.91353103 6 10 C6.33 10 6.66 10 7 10 C10.16894979 23.69804103 7.90530542 38.29693188 0.796875 50.3671875 C-8.6920811 64.270571 -21.35260877 73.12779351 -37.84765625 76.49609375 C-52.26758977 78.80113888 -65.90230792 74.99256264 -78 67 C-89.07970321 58.77557045 -97.26610123 46.99603086 -99.6484375 33.26171875 C-100.14679398 28.75807227 -99.78568369 24.48443775 -99.25 20 C-99.17523438 19.24460937 -99.10046875 18.48921875 -99.0234375 17.7109375 C-98.42151951 12.40311521 -97.04175964 7.93612222 -95 3 C-92.6875 3.375 -92.6875 3.375 -90 5 C-89.28125 7.0078125 -89.28125 7.0078125 -88.6875 9.5 C-86.25169132 18.96954834 -79.14612872 25.95035296 -71 31 C-63.1628513 35.54283859 -55.71912119 37.37552597 -46.6875 37.3125 C-45.84517822 37.30686035 -45.00285645 37.3012207 -44.13500977 37.29541016 C-31.23996447 37.0436171 -20.26870468 32.05315341 -11 23 C-5.82371683 16.81803895 -4.45888401 9.78071469 -3 2 C-1 3 -1 3 -0.38110352 4.72363281 C0.05526759 7.33011851 0.11234122 9.7785805 0.09765625 12.421875 C0.09282227 13.95908203 0.09282227 13.95908203 0.08789062 15.52734375 C0.07532227 17.12255859 0.07532227 17.12255859 0.0625 18.75 C0.05798828 19.82894531 0.05347656 20.90789062 0.04882812 22.01953125 C0.03705727 24.67974383 0.02061399 27.33984365 0 30 C2.57469109 20.60250538 1.11345433 9.5637774 0 0 Z " fill="#F6A20B" transform="translate(557,302)"/>
<path d="M0 0 C3.41800528 1.94636412 6.82895968 3.899327 10.21875 5.89453125 C43.44208913 25.314364 80.9275669 34.17818925 119 38 C120.18795166 38.11939941 120.18795166 38.11939941 121.39990234 38.24121094 C147.94454474 40.82284692 174.64461007 42.18950425 201.3125 42.1875 C202.08362122 42.18840637 202.85474243 42.18931274 203.64923096 42.19024658 C212.44475282 42.18906677 221.18141923 41.92449546 229.95831299 41.35296631 C236.16722117 40.95835465 242.34354369 40.88291092 248.5625 40.9375 C250.09293945 40.94426758 250.09293945 40.94426758 251.65429688 40.95117188 C254.1029349 40.96266783 256.55142937 40.97890003 259 41 C259.33 41.99 259.66 42.98 260 44 C245.7468143 44.04781781 231.49363984 44.08250271 217.24038887 44.10362434 C210.61465601 44.11371454 203.98898489 44.1275966 197.36328125 44.15087891 C168.73687303 44.24859757 140.14944643 44.09261216 111.5390625 43.109375 C110.35409306 43.06977787 109.16912361 43.03018074 107.948246 42.9893837 C86.19723066 42.24379117 64.61160193 40.5424365 43 38 C42.28835693 37.91772156 41.57671387 37.83544312 40.84350586 37.75067139 C-25.50046659 30.07471613 -25.50046659 30.07471613 -38 19 C-39.0625 15.6875 -39.0625 15.6875 -39 13 C-35.07986839 9.41479225 -31.22952068 7.81657324 -26.1875 6.4375 C-25.08438477 6.12280762 -25.08438477 6.12280762 -23.95898438 5.80175781 C-18.00615876 4.15496164 -12.0040958 2.92180298 -5.91479492 1.90014648 C-2.67656247 1.58103254 -2.67656247 1.58103254 0 0 Z " fill="#8FABB3" transform="translate(313,706)"/>
<path d="M0 0 C3.2843893 2.98999026 4.38083305 5.91353103 6 10 C6.33 10 6.66 10 7 10 C10.16894979 23.69804103 7.90530542 38.29693188 0.796875 50.3671875 C-8.6920811 64.270571 -21.35260877 73.12779351 -37.84765625 76.49609375 C-52.26758977 78.80113888 -65.90230792 74.99256264 -78 67 C-89.07970321 58.77557045 -97.26610123 46.99603086 -99.6484375 33.26171875 C-100.14679398 28.75807227 -99.78568369 24.48443775 -99.25 20 C-99.17523438 19.24460937 -99.10046875 18.48921875 -99.0234375 17.7109375 C-98.42151951 12.40311521 -97.04175964 7.93612222 -95 3 C-94.34 3.33 -93.68 3.66 -93 4 C-92.67 11.26 -92.34 18.52 -92 26 C-91.67 26 -91.34 26 -91 26 C-90.8040625 26.95519531 -90.608125 27.91039062 -90.40625 28.89453125 C-87.52149479 41.80636704 -82.10229075 50.85438951 -70.8203125 58.33984375 C-59.29367401 65.12491488 -46.42889964 65.81835768 -33.39453125 63.3046875 C-30.45188446 62.39867206 -27.77362001 61.33267027 -25 60 C-24.12085938 59.5875 -23.24171875 59.175 -22.3359375 58.75 C-12.88015805 53.72215352 -7.29825837 45.58842251 -3 36 C-2.67773438 35.38898438 -2.35546875 34.77796875 -2.0234375 34.1484375 C3.02911547 23.54193318 1.32382325 11.37069609 0 0 Z " fill="#FBCB13" transform="translate(557,302)"/>
<path d="M0 0 C2.00613179 2.00613179 2.57927565 3.12205475 3.625 5.6875 C20.75900494 44.8956062 53.29623209 78.60490776 92 97 C83.48752534 99.83749155 67.97102835 90.79818983 59.98632812 86.99316406 C49.58823839 81.79411919 40.05346979 75.26625745 31 68 C30.18789063 67.35417969 29.37578125 66.70835937 28.5390625 66.04296875 C10.73003393 51.12106938 2.49613145 28.46355581 0.45581055 5.94262695 C0.29220416 3.96268097 0.144301 1.98144654 0 0 Z " fill="#019293" transform="translate(284,605)"/>
<path d="M0 0 C1.64964405 3.29928809 -0.09930978 6.50902295 -1.125 9.875 C-1.35654785 10.64150879 -1.5880957 11.40801758 -1.82666016 12.19775391 C-9.95555793 38.53538268 -26.38312869 57.01056709 -50.5546875 69.828125 C-62.65998976 75.92748293 -76.42436059 81.56138747 -90 83 C-90.99 82.67 -91.98 82.34 -93 82 C-92.25447876 81.62415771 -92.25447876 81.62415771 -91.49389648 81.24072266 C-69.72872741 70.20168923 -50.633413 56.87894856 -33 40 C-32.50258301 39.52981445 -32.00516602 39.05962891 -31.49267578 38.57519531 C-19.29734483 27.0027547 -9.61910715 13.72965836 0 0 Z " fill="#019393" transform="translate(740,621)"/>
<path d="M0 0 C3.125 2 3.125 2 5 5 C6.4615338 12.5734024 3.10698585 18.72567254 -1 25 C-6.37244694 31.09470961 -12.79773817 36.28689622 -20.9921875 37.41015625 C-25.90261021 37.64427176 -29.00836712 37.61023562 -33.25 35 C-35.48064765 31.1760326 -35.95881323 28.25378249 -35 24 C-33.63482341 20.78054811 -31.92533626 17.9132639 -30 15 C-29.443125 14.13375 -28.88625 13.2675 -28.3125 12.375 C-20.78359735 4.64261349 -11.12506464 -1.92513598 0 0 Z " fill="#7CDFD1" transform="translate(403,426)"/>
<path d="M0 0 C1 3 1 3 1 6 C5.39253773 7.56272189 5.39253773 7.56272189 10 8 C11.68798827 6.56249809 11.68798827 6.56249809 13 5 C11.6302836 8.99500618 9.74277578 11.80009492 7 15 C10.465 14.505 10.465 14.505 14 14 C12 16 12 16 9 18 C9.66 18.70125 10.32 19.4025 11 20.125 C13.36101255 23.51895555 13.59037916 24.95168576 13 29 C11.59501312 32.93396327 9.63585904 34.42485635 6 36.1875 C-3.27433945 39.89423438 -14.85851693 42.08371747 -24.5 38.8125 C-27.35613339 36.74180329 -28.74073062 35.30558213 -30 32 C-29.5 29.375 -29.5 29.375 -28 27 C-26.35857037 25.9590934 -24.69287785 24.95495674 -23 24 C-22.67 23.01 -22.34 22.02 -22 21 C-22.66 20.34 -23.32 19.68 -24 19 C-22.90300781 18.49210938 -21.80601562 17.98421875 -20.67578125 17.4609375 C-19.22098816 16.76639112 -17.76658126 16.07103542 -16.3125 15.375 C-15.59126953 15.04371094 -14.87003906 14.71242188 -14.12695312 14.37109375 C-7.25010095 11.04257169 -3.73845277 6.68986285 0 0 Z " fill="#289B97" transform="translate(645,568)"/>
<path d="M0 0 C3.97216914 3.26600574 6.00524511 5.92675008 7 11 C7.10558088 17.54601442 5.34589271 20.62709375 0.82421875 25.3046875 C-3.60886772 29.42451518 -7.88939599 31.15813023 -14 31 C-19.51011771 30.0282344 -23.4574327 27.50887507 -26.86328125 23.0859375 C-28.99667764 19.17104516 -29.41346175 15.40336769 -29 11 C-27.4217466 5.65045505 -24.74451483 2.00871672 -20 -1 C-13.203859 -4.67358973 -6.53257353 -3.57442703 0 0 Z " fill="#FEFAED" transform="translate(508,285)"/>
<path d="M0 0 C2.625 0.25 2.625 0.25 4.4375 1.375 C6.28738074 4.29586433 6.29068725 5.85499501 5.625 9.25 C-0.06072531 16.63050882 -10.55675697 19.71807569 -19.375 21.25 C-23.29541328 21.55023261 -27.19434695 21.5837152 -31.125 21.5625 C-32.19105469 21.55758545 -33.25710938 21.5526709 -34.35546875 21.54760742 C-46.1937242 21.37101166 -55.86631253 19.61417622 -65.06640625 11.81640625 C-66.375 10.25 -66.375 10.25 -66.75 6.6875 C-66.62625 5.553125 -66.5025 4.41875 -66.375 3.25 C-63.375 1.25 -63.375 1.25 -60.9609375 1.44140625 C-57.37603246 2.56236598 -54.84452143 4.56255414 -51.8515625 6.77734375 C-45.58041804 10.50639968 -39.13914741 10.58790074 -32.0625 10.5625 C-30.7331543 10.58666992 -30.7331543 10.58666992 -29.37695312 10.61132812 C-21.32953339 10.61719787 -13.1837478 9.41885516 -6.8125 4.125 C-5.85150391 3.34769531 -5.85150391 3.34769531 -4.87109375 2.5546875 C-2.20815412 0.23243728 -2.20815412 0.23243728 0 0 Z " fill="#00161A" transform="translate(549.375,590.75)"/>
<path d="M0 0 C-0.49371094 0.83144531 -0.98742187 1.66289063 -1.49609375 2.51953125 C-2.45708984 4.14955078 -2.45708984 4.14955078 -3.4375 5.8125 C-4.07558594 6.89144531 -4.71367187 7.97039063 -5.37109375 9.08203125 C-9.18931289 15.92186266 -8.77023821 24.33237927 -8 32 C-7.01255937 35.44526228 -5.81318257 37.88359246 -4 41 C-7.35073843 45.07915983 -11.87780771 47.7555237 -17 49 C-20.87700466 47.89436265 -22.23371558 45.51022031 -24.1875 42.125 C-24.95126953 40.82949219 -24.95126953 40.82949219 -25.73046875 39.5078125 C-28.90308857 33.24066813 -28.92959517 26.08548194 -27.38671875 19.3046875 C-24.2194405 10.17957749 -17.39667543 5.19833772 -9 1 C-5.94248415 -0.07912324 -3.22506995 -0.021148 0 0 Z " fill="#003C46" transform="translate(397,526)"/>
<path d="M0 0 C1.27388947 4.29937696 0.712068 6.79116618 -1 11 C-6.05285271 18.26928809 -14.08858382 21.52449548 -22.45703125 23.61328125 C-34.22466259 25.40282887 -45.56572514 24.02418731 -55.5 17.1875 C-59.11871459 14.20959945 -61.09892655 11.27741525 -63 7 C-63 5.68 -63 4.36 -63 3 C-57.53972224 3.91004629 -52.54737523 5.92640401 -47.375 7.84375 C-35.89524837 11.77662787 -22.27881388 11.31537276 -11.21728516 6.17089844 C-7.39523376 4.25634965 -3.68408646 2.16885735 0 0 Z " fill="#2B546D" transform="translate(637,557)"/>
<path d="M0 0 C8.04430459 4.26711639 13.50370232 11.99177651 17 20.25 C18.03379036 24.12671383 18.31731911 26.22368521 17 30 C15.1875 31.875 15.1875 31.875 13 33 C11.68 33 10.36 33 9 33 C8.67 33.66 8.34 34.32 8 35 C8 34.01 8 33.02 8 32 C6.93072266 31.86464844 6.93072266 31.86464844 5.83984375 31.7265625 C-2.03686235 29.71133921 -9.46420794 22.62421431 -14 16 C-15.68451531 12.99716837 -16.00921809 11.44246811 -15.9375 8 C-14.75244217 4.20781495 -13.02702155 2.52251796 -10 0 C-6.082874 -1.30570867 -4.02357494 -0.98940367 0 0 Z " fill="#F9BF1C" transform="translate(445,236)"/>
<path d="M0 0 C5.12536675 5.39512289 5.28282531 9.16984335 5.21875 16.40234375 C4.74773069 24.14892913 3.28131844 32.07852174 -2 38 C-4.54048893 39.31122009 -5.70366554 39.05926689 -8.5 38.5 C-13.15429253 35.70742448 -14.47933444 31.76769171 -15.94921875 26.77734375 C-18.03803399 18.09127493 -18.61498822 11.02440778 -15.875 2.5 C-14 0 -14 0 -10.75 -1.5 C-6.4209627 -2.07720497 -4.00048833 -1.73606097 0 0 Z " fill="#FBC11C" transform="translate(518,208)"/>
<path d="M0 0 C2.997944 2.80242591 4.70731305 4.8026443 5.6875 8.8125 C3.65121976 18.25343565 -4.11379871 24.62753542 -11.7109375 29.87109375 C-18.64793219 34.13782062 -18.64793219 34.13782062 -22.22265625 33.7734375 C-24.92727109 32.67381997 -26.67631491 31.64737019 -28 29 C-29.20789637 20.88983867 -24.73509718 14.74809613 -20.1015625 8.3984375 C-14.93184267 2.12529921 -8.58434364 -3.24297426 0 0 Z " fill="#F9BF1C" transform="translate(587,236)"/>
<path d="M0 0 C5.17060693 1.92768258 9.98239173 4.50505286 14.85351562 7.078125 C23.70383293 11.6176179 31.47888244 12.32070306 41.3125 12.25 C42.37662109 12.25773438 43.44074219 12.26546875 44.53710938 12.2734375 C51.56094275 12.25629575 58.13966876 11.50040374 65 10 C64.14328227 14.8605113 63.04402694 16.57120798 59.1796875 19.57421875 C48.61373923 26.48563652 35.50006447 26.63745831 23.390625 24.3046875 C13.79706772 21.40714101 5.90046794 15.89597142 1 7 C0.30257735 4.55671139 0.10669175 2.56060199 0 0 Z " fill="#2B536B" transform="translate(398,550)"/>
<path d="M0 0 C9.91858913 -0.65039929 18.63468587 1.96292022 26.33984375 8.40234375 C31.12288237 13.00531504 32.17450822 16.21514329 32.41601562 22.79931641 C32.48225915 29.39205282 31.98528571 35.02942857 29 41 C28.34 41 27.68 41 27 41 C26.54625 41.515625 26.0925 42.03125 25.625 42.5625 C25.08875 43.036875 24.5525 43.51125 24 44 C20.82088374 43.68208837 17.95145104 42.18350265 15 41 C15.0314209 40.42668945 15.0628418 39.85337891 15.09521484 39.26269531 C16.07116682 22.63248071 16.07116682 22.63248071 9 8 C6.68486333 5.84297022 4.37517574 3.98217364 1.7578125 2.20703125 C1.17773438 1.80871094 0.59765625 1.41039062 0 1 C0 0.67 0 0.34 0 0 Z " fill="#00363F" transform="translate(630,533)"/>
<path d="M0 0 C0.33 0 0.66 0 1 0 C1 185.13 1 370.26 1 561 C0.67 561 0.34 561 0 561 C0 375.87 0 190.74 0 0 Z " fill="#8B8C8E" transform="translate(0,463)"/>
<path d="M0 0 C27.9266055 3.9266055 27.9266055 3.9266055 34 10 C34.4375 12.3125 34.4375 12.3125 34 15 C30.95816902 18.61731252 28.72731794 20.73540945 23.90625 21.203125 C15.73119551 21.36237931 7.8842852 20.07006233 0.8125 15.75 C-2 13 -2 13 -2.5625 9.5625 C-2.02757071 6.17461452 -1.24542924 3.19141243 0 0 Z " fill="#2EA09B" transform="translate(376,578)"/>
<path d="M0 0 C0.33 0.99 0.66 1.98 1 3 C-0.28965176 4.37562854 -1.62689293 5.70766393 -3 7 C-3.66 7 -4.32 7 -5 7 C-5.268125 7.57621094 -5.53625 8.15242188 -5.8125 8.74609375 C-7.02976449 11.05649378 -8.42732685 12.97946417 -10 15.0625 C-17.05181491 25.04398332 -22.69634036 36.20140488 -27 47.625 C-30.34001701 56.35032533 -35.03222415 64.1122903 -40 72 C-40.4129834 72.66064453 -40.8259668 73.32128906 -41.25146484 74.00195312 C-53.67847734 93.73113149 -70.00336369 111.61717539 -88.3984375 125.96875 C-91.50684389 128.39573397 -94.50122879 130.93978599 -97.5 133.5 C-101.41220034 136.83280575 -105.36078579 140.1023198 -109.375 143.3125 C-117.40543744 149.84092632 -125.15420845 156.94174541 -132.31640625 164.41796875 C-134 166 -134 166 -136 166 C-136.26167969 166.58910156 -136.52335937 167.17820312 -136.79296875 167.78515625 C-138.0642275 170.11785434 -139.40230531 171.60354368 -141.3125 173.4375 C-141.92867188 174.035625 -142.54484375 174.63375 -143.1796875 175.25 C-143.78039062 175.8275 -144.38109375 176.405 -145 177 C-145.98160543 177.97672182 -146.96112694 178.95554767 -147.9375 179.9375 C-148.618125 180.618125 -149.29875 181.29875 -150 182 C-149.44315305 178.02904224 -147.51205759 176.05888873 -144.8125 173.1875 C-142.11030486 170.28072227 -139.45208001 167.38278829 -136.9375 164.3125 C-134.31662807 161.23458229 -131.42610542 158.64486002 -128.3515625 156.02734375 C-125.43256135 153.51079625 -122.58964097 150.91788139 -119.75 148.3125 C-118.98888916 147.61688965 -118.98888916 147.61688965 -118.21240234 146.90722656 C-116.0450303 144.91814182 -113.92368271 142.9201495 -111.890625 140.79296875 C-109.98277368 138.98366347 -108.33668244 138.15264374 -106 137 C-104.44316871 135.68737754 -102.92561001 134.32754675 -101.4375 132.9375 C-96.89594233 128.759806 -92.18902709 124.86730342 -87.34765625 121.04296875 C-84.9735666 119.12845087 -84.9735666 119.12845087 -83.43359375 116.86328125 C-82 115 -82 115 -80.14306641 114.09741211 C-56.86778133 102.17870553 -35.90605083 64.71815249 -28 41 C-20.90167999 25.85228438 -12.54999932 11.28798821 0 0 Z " fill="#06181B" transform="translate(461,278)"/>
<path d="M0 0 C3.43782031 0.13883419 6.87516029 0.28727054 10.3125 0.4375 C11.28896484 0.47681641 12.26542969 0.51613281 13.27148438 0.55664062 C14.20927734 0.59853516 15.14707031 0.64042969 16.11328125 0.68359375 C17.40939331 0.73858032 17.40939331 0.73858032 18.73168945 0.79467773 C21 1 21 1 24 2 C26.29257408 1.94797432 28.58373684 1.82325423 30.87109375 1.66015625 C31.88744652 1.59144569 31.88744652 1.59144569 32.92433167 1.52134705 C35.09582021 1.37403012 37.26665213 1.21895533 39.4375 1.0625 C48.96843003 0.38396098 58.43637607 -0.17488161 68 0 C68 0.33 68 0.66 68 1 C60.307359 1.84800767 52.73708326 2.12152487 45 2 C45 2.66 45 3.32 45 4 C45.99 4.495 45.99 4.495 47 5 C44.69 5 42.38 5 40 5 C41.32 4.67 42.64 4.34 44 4 C42.86298403 2.63467451 42.86298403 2.63467451 39.83984375 2.90234375 C38.55207031 2.91394531 37.26429688 2.92554688 35.9375 2.9375 C34.64714844 2.94652344 33.35679687 2.95554687 32.02734375 2.96484375 C31.02832031 2.97644531 30.02929688 2.98804688 29 3 C28.67 3.66 28.34 4.32 28 5 C21.07 4.505 21.07 4.505 14 4 C14 4.66 14 5.32 14 6 C1.00832693 6.0472405 -11.98332432 6.08231817 -24.97506714 6.10362434 C-31.0136833 6.1138723 -37.05223898 6.12766244 -43.09082031 6.15087891 C-80.4509577 6.29059268 -117.72437167 5.67919704 -155 3 C-155 2.67 -155 2.34 -155 2 C-146.60671992 1.88431926 -138.24927879 2.00208833 -129.86274433 2.35625553 C-115.29356046 2.97107504 -100.75596414 3.13291434 -86.17578125 3.09765625 C-83.83782482 3.09578319 -81.49986798 3.09436351 -79.16191101 3.09336853 C-73.11075693 3.08961309 -67.05962819 3.07984556 -61.00848389 3.06866455 C-54.79276878 3.05829733 -48.57704945 3.05383867 -42.36132812 3.04882812 C-30.24087449 3.03821441 -18.12043938 3.02122585 -6 3 C-6 2.67 -6 2.34 -6 2 C-4.02 1.67 -2.04 1.34 0 1 C0 0.67 0 0.34 0 0 Z " fill="#5E8687" transform="translate(568,746)"/>
<path d="M0 0 C0.33 0 0.66 0 1 0 C1 89.43 1 178.86 1 271 C0.67 271 0.34 271 0 271 C0 181.57 0 92.14 0 0 Z " fill="#8C8C8E" transform="translate(0,191)"/>
<path d="M0 0 C2.42602539 -0.328125 2.42602539 -0.328125 5.53515625 -0.25 C6.71094238 -0.22292969 7.88672852 -0.19585938 9.09814453 -0.16796875 C15.42054288 0.10420057 21.73485967 0.46510549 28.05093384 0.85531616 C42.47511576 1.7297717 56.86165532 2.20059233 71.3125 2.1875 C72.46768631 2.18858765 72.46768631 2.18858765 73.64620972 2.18969727 C82.44280243 2.18875344 91.18034133 1.92456565 99.95831299 1.35296631 C106.16722117 0.95835465 112.34354369 0.88291092 118.5625 0.9375 C120.09293945 0.94426758 120.09293945 0.94426758 121.65429688 0.95117188 C124.1029349 0.96266783 126.55142937 0.97890003 129 1 C129.33 1.99 129.66 2.98 130 4 C115.00415952 4.02346233 100.00832047 4.0410442 85.01246548 4.05181217 C78.04809896 4.05694699 71.08374391 4.06393543 64.11938477 4.07543945 C57.38907274 4.08655148 50.65877504 4.092297 43.92845345 4.09487724 C41.37025834 4.09671432 38.81206383 4.10030145 36.25387383 4.10573006 C10.53201299 4.1581055 10.53201299 4.1581055 -2 3 C-1.34 2.01 -0.68 1.02 0 0 Z " fill="#BBD6DE" transform="translate(443,746)"/>
<path d="M0 0 C-1.96382007 1.50559539 -3.78263366 2.89131683 -6 4 C-2.7 4.33 0.6 4.66 4 5 C4 5.33 4 5.66 4 6 C-30.8554238 8.99920794 -30.8554238 8.99920794 -44.25 9.25 C-45.45140625 9.27578125 -46.6528125 9.3015625 -47.890625 9.328125 C-51.32169686 8.96605209 -52.40107685 8.1294584 -55 6 C-53.94200195 5.88930176 -52.88400391 5.77860352 -51.79394531 5.66455078 C-47.81259578 5.2469974 -43.83177023 4.82461342 -39.85107422 4.40087891 C-38.13864519 4.21925278 -36.42608256 4.0388812 -34.71337891 3.85986328 C-25.93569146 2.94156635 -17.21030347 2.02188883 -8.53417969 0.36279297 C-5.66325934 -0.04820777 -2.89631447 -0.05864482 0 0 Z " fill="#A2BCC5" transform="translate(628,740)"/>
<path d="M0 0 C1 3 1 3 1 6 C5.39253773 7.56272189 5.39253773 7.56272189 10 8 C11.68798827 6.56249809 11.68798827 6.56249809 13 5 C11.55523683 10.29746496 8.12882433 13.59582647 4 17 C-1.49663659 20.11130373 -6.80930187 20.63877214 -13 21 C-12.39616046 17.78189044 -11.34709668 15.85975097 -9.3125 13.3125 C-5.97458376 9.0208934 -2.97075771 4.55094797 0 0 Z " fill="#118B8A" transform="translate(645,568)"/>
<path d="M0 0 C6.18680296 -0.16488583 11.95922792 0.46796834 18.0625 1.4375 C26.71194896 2.7500147 35.26007911 3.61066405 44 4 C44 4.33 44 4.66 44 5 C45.98 5.33 47.96 5.66 50 6 C50 6.33 50 6.66 50 7 C37.78291334 8.21304407 26.09797591 8.0960225 13.875 7.0625 C12.32558716 6.93234497 12.32558716 6.93234497 10.74487305 6.79956055 C9.77461182 6.71230713 8.80435059 6.62505371 7.8046875 6.53515625 C6.48960205 6.41732788 6.48960205 6.41732788 5.14794922 6.29711914 C3 6 3 6 1 5 C1 4.34 1 3.68 1 3 C0.34 2.67 -0.32 2.34 -1 2 C-0.67 1.34 -0.34 0.68 0 0 Z " fill="#97B1B9" transform="translate(403,741)"/>
<path d="M0 0 C4.93886214 3.92044714 8.85831802 7.9853354 12.5 13.125 C12.97501953 13.78894775 13.45003906 14.45289551 13.93945312 15.13696289 C21.47433912 25.79728884 26.92676916 36.88394855 32.18164062 48.81225586 C32.63216797 49.82425049 33.08269531 50.83624512 33.546875 51.87890625 C33.94745117 52.7922876 34.34802734 53.70566895 34.76074219 54.64672852 C35.95464434 56.91387249 37.15201397 58.26595341 39 60 C39.33333333 61.33333333 39.66666667 62.66666667 40 64 C40.68867486 65.19900763 41.39908054 66.38566811 42.125 67.5625 C42.74375 68.696875 43.3625 69.83125 44 71 C43.505 72.485 43.505 72.485 43 74 C39.6723896 69.51371909 36.89996956 65.16011672 34.4375 60.125 C34.10943359 59.46081055 33.78136719 58.79662109 33.44335938 58.11230469 C31.27811001 53.70489819 29.18200324 49.26646604 27.09765625 44.8203125 C20.12862172 29.99795508 13.40260263 17.06803071 1.90625 5.27734375 C0 3 0 3 0 0 Z " fill="#091A1D" transform="translate(560,278)"/>
<path d="M0 0 C0.33 0.66 0.66 1.32 1 2 C0.01 2.99 -0.98 3.98 -2 5 C-1.34 5.33 -0.68 5.66 0 6 C3.12017732 4.81478156 6.11692168 3.41802849 9.15234375 2.03125 C12 1 12 1 15 2 C3.08939129 7.43036871 -8.8066881 12.09011642 -22 13 C-20.31397777 9.62795554 -16.53489739 8.63844109 -13.25 7.0625 C-8.7190841 4.86630965 -4.27102078 2.68199927 0 0 Z " fill="#04A9A7" transform="translate(669,691)"/>
<path d="M0 0 C1 3 1 3 1 6 C5.39253773 7.56272189 5.39253773 7.56272189 10 8 C11.68798827 6.56249809 11.68798827 6.56249809 13 5 C12.10521704 8.00972449 11.35476058 9.69899102 8.9375 11.75 C5.0560874 13.40166493 1.22882097 14.15886447 -3 14 C-5.27734375 13.01171875 -5.27734375 13.01171875 -7 12 C-6.5875 11.319375 -6.175 10.63875 -5.75 9.9375 C-3.79034942 6.64808652 -1.8926147 3.32839137 0 0 Z " fill="#076F72" transform="translate(645,568)"/>
<path d="M0 0 C-3.5397007 2.35980046 -5.99106288 2.58600808 -10.1875 3.125 C-11.45980469 3.29257812 -12.73210938 3.46015625 -14.04296875 3.6328125 C-15.01878906 3.75398437 -15.99460937 3.87515625 -17 4 C-14.525 4.495 -14.525 4.495 -12 5 C-12 5.33 -12 5.66 -12 6 C-18.65617681 6.69412645 -25.30794694 7.13815052 -32 7.25 C-33.2375 7.27578125 -34.475 7.3015625 -35.75 7.328125 C-39.28838475 6.97088423 -40.33537508 6.19397106 -43 4 C-37.84094601 3.42617829 -32.68144259 2.85664863 -27.52148438 2.29101562 C-25.76777492 2.0981723 -24.01419183 1.904176 -22.26074219 1.70898438 C-19.73405121 1.42792227 -17.2069283 1.15106908 -14.6796875 0.875 C-13.90132538 0.78750488 -13.12296326 0.70000977 -12.3210144 0.60986328 C-8.19038368 0.16303525 -4.16280243 -0.09263538 0 0 Z " fill="#B1CED7" transform="translate(616,742)"/>
<path d="M0 0 C0.33 0.99 0.66 1.98 1 3 C-0.28965176 4.37562854 -1.62689293 5.70766393 -3 7 C-3.66 7 -4.32 7 -5 7 C-5.26941406 7.57878906 -5.53882813 8.15757812 -5.81640625 8.75390625 C-7.01428933 11.02711672 -8.38173258 12.89484204 -9.9375 14.9375 C-15.94289311 23.34759501 -20.33036615 32.80788729 -25 42 C-26.23726744 38.19518177 -25.51489056 36.26486028 -23.75195312 32.66992188 C-23.40068359 31.99509766 -23.04941406 31.32027344 -22.6875 30.625 C-22.32720703 29.92181641 -21.96691406 29.21863281 -21.59570312 28.49414062 C-15.96373508 17.81546867 -9.0084818 8.10260095 0 0 Z " fill="#0F1C1D" transform="translate(461,278)"/>
<path d="M0 0 C0.495 1.485 0.495 1.485 1 3 C-4.19611221 3.04947953 -9.39208691 3.08575727 -14.58837891 3.10986328 C-16.35565582 3.11991384 -18.12291613 3.13355642 -19.89013672 3.15087891 C-22.43200785 3.17516885 -24.97365889 3.18649255 -27.515625 3.1953125 C-28.69865204 3.21079636 -28.69865204 3.21079636 -29.90557861 3.22659302 C-33.74889664 3.22737709 -36.74651174 3.18664676 -40 1 C-26.65717153 -0.00295086 -13.37666 -0.11527017 0 0 Z " fill="#ABC8D1" transform="translate(572,747)"/>
<path d="M0 0 C7.93225768 -0.32710341 15.66659062 0.90354345 23.5 2 C24.90878714 2.19319768 26.31764092 2.38591018 27.7265625 2.578125 C31.1518284 3.04648818 34.5761443 3.52142389 38 4 C38 4.33 38 4.66 38 5 C28.1 5.495 28.1 5.495 18 6 C17.67 5.34 17.34 4.68 17 4 C11.54230189 3.88861841 6.38490641 4.08342019 1 5 C1 4.34 1 3.68 1 3 C0.34 2.67 -0.32 2.34 -1 2 C-0.67 1.34 -0.34 0.68 0 0 Z " fill="#AAC9D0" transform="translate(403,741)"/>
<path d="M0 0 C0.33 0 0.66 0 1 0 C1.07476562 1.03898438 1.14953125 2.07796875 1.2265625 3.1484375 C2.14566398 13.60886707 4.02030078 21.97797057 12.375 29.125 C13.24125 29.74375 14.1075 30.3625 15 31 C10.15978103 32.61340632 6.41970963 30.19024072 2 28 C-2.46996118 25.18752442 -5.94715078 22.33187168 -9 18 C-8.67 17.34 -8.34 16.68 -8 16 C-7.64808594 16.45890625 -7.29617188 16.9178125 -6.93359375 17.390625 C-3.35455285 21.83872805 -0.10527523 24.44736238 5 27 C5.33 26.67 5.66 26.34 6 26 C5.3503125 24.94425781 5.3503125 24.94425781 4.6875 23.8671875 C0.0787116 15.69512289 -0.74242435 9.29405292 0 0 Z " fill="#000A0C" transform="translate(368,547)"/>
<path d="M0 0 C0.99 0 1.98 0 3 0 C4.60364308 2.02965832 6.02217421 4.03183261 7.4375 6.1875 C13.15224396 14.56538371 19.83823606 21.83823606 27 29 C26.67 29.99 26.34 30.98 26 32 C19.32262981 25.80436393 13.45935066 19.3072612 7.9375 12.0625 C7.37780518 11.329104 6.81811035 10.59570801 6.24145508 9.84008789 C3.84401374 6.64558662 1.7099894 3.62265534 0 0 Z " fill="#05181B" transform="translate(604,353)"/>
<path d="M0 0 C0.33 0 0.66 0 1 0 C1 24.75 1 49.5 1 75 C0.67 75 0.34 75 0 75 C0 50.25 0 25.5 0 0 Z " fill="#909091" transform="translate(0,87)"/>
<path d="M0 0 C1.70296886 3.40593771 -0.24720409 6.89907512 -1.3125 10.375 C-1.53873047 11.14328125 -1.76496094 11.9115625 -1.99804688 12.703125 C-3.08526387 16.32509286 -4.23751625 19.64203921 -6 23 C-7.26041675 20.4791665 -6.66225891 19.64903564 -6 17 C-6.33 16.34 -6.66 15.68 -7 15 C-8.98 15.99 -8.98 15.99 -11 17 C-9.24933204 13.11390189 -6.81675994 9.72187742 -4.375 6.25 C-3.95476563 5.64800781 -3.53453125 5.04601562 -3.1015625 4.42578125 C-2.07006863 2.94886957 -1.03535421 1.47420806 0 0 Z " fill="#039F9E" transform="translate(740,621)"/>
<path d="M0 0 C3.43233636 0.57454326 4.92758415 1.63396995 7.25 4.1875 C11.27516366 8.40392413 15.75211524 12.37605762 21 15 C22.76164986 16.92713818 24.35729773 18.96823666 26 21 C25.67 21.66 25.34 22.32 25 23 C18.76534062 18.05225428 12.73179707 12.94967522 6.875 7.5625 C6.30692627 7.04268555 5.73885254 6.52287109 5.15356445 5.98730469 C1.12472241 2.24944483 1.12472241 2.24944483 0 0 Z " fill="#04191C" transform="translate(632,386)"/>
<path d="M0 0 C5.03476973 3.97656474 8.93796839 8.1370424 12.625 13.375 C13.09647461 14.03330811 13.56794922 14.69161621 14.05371094 15.36987305 C20.46001261 24.37359439 20.46001261 24.37359439 23 29 C22.67 29.66 22.34 30.32 22 31 C18.93083642 28.30606331 17.0366634 24.94852622 14.9375 21.5 C11.15447257 15.40375345 6.89849094 10.31094894 1.87109375 5.20703125 C0 3 0 3 0 0 Z " fill="#101F20" transform="translate(560,278)"/>
<path d="M0 0 C0.66 0.33 1.32 0.66 2 1 C-2.68683622 8.88240637 -2.68683622 8.88240637 -4.9453125 9.73046875 C-6.96354167 10.15364583 -8.98177083 10.57682292 -11 11 C-11 10.01 -11 9.02 -11 8 C-11.66 7.34 -12.32 6.68 -13 6 C-10.87959258 4.96966118 -8.75352092 3.95097146 -6.625 2.9375 C-5.44164062 2.36902344 -4.25828125 1.80054688 -3.0390625 1.21484375 C-2.03617188 0.81394531 -1.03328125 0.41304687 0 0 Z " fill="#129A97" transform="translate(634,581)"/>
<path d="M0 0 C0.495 1.485 0.495 1.485 1 3 C-2.2346153 9.06138781 -7.72690056 11.87855183 -14 14 C-18.08443496 15.1647969 -22.03324419 15.11092564 -26.25 15.0625 C-26.99507813 15.05798828 -27.74015625 15.05347656 -28.5078125 15.04882812 C-30.3385764 15.03709246 -32.16929873 15.0191585 -34 15 C-34 14.67 -34 14.34 -34 14 C-33.10539062 13.96261719 -32.21078125 13.92523437 -31.2890625 13.88671875 C-21.24230615 13.34046654 -12.05581276 12.44465021 -4 6 C-3.34 5.01 -2.68 4.02 -2 3 C-3.65 3 -5.3 3 -7 3 C-4.38058783 1.25372522 -2.96175123 0.61277612 0 0 Z " fill="#3E708F" transform="translate(462,560)"/>
<path d="M0 0 C5.3483102 1.82026619 9.61191295 5.00044215 14.20898438 8.19140625 C18.64844858 11.2239018 23.14584115 13.68336481 28 16 C24.54368579 17.15210474 23.36739344 16.80762372 19.9375 15.8125 C19.05964844 15.57144531 18.18179687 15.33039062 17.27734375 15.08203125 C15 14 15 14 14.10546875 12.14453125 C12.42826722 8.89087881 9.46405086 7.61094097 6.375 5.875 C4.19612252 4.63846405 2.10313705 3.36852017 0 2 C0 1.34 0 0.68 0 0 Z " fill="#04ABA9" transform="translate(348,686)"/>
<path d="M0 0 C-0.99 0.495 -0.99 0.495 -2 1 C-2 1.66 -2 2.32 -2 3 C-4.64 3 -7.28 3 -10 3 C-10 3.66 -10 4.32 -10 5 C-15.61 4.67 -21.22 4.34 -27 4 C-27 3.67 -27 3.34 -27 3 C-23.43826523 2.4944461 -19.87550181 1.99653886 -16.3125 1.5 C-14.80139648 1.28537109 -14.80139648 1.28537109 -13.25976562 1.06640625 C-11.79506836 0.86337891 -11.79506836 0.86337891 -10.30078125 0.65625 C-9.40528564 0.53056641 -8.50979004 0.40488281 -7.5871582 0.27539062 C-5.03602639 0.00383484 -2.5633257 -0.04847897 0 0 Z " fill="#88A2AA" transform="translate(618,743)"/>
<path d="M0 0 C0.33 0.99 0.66 1.98 1 3 C-1.06867563 5.20319933 -3.15281794 7.38672975 -5.25 9.5625 C-6.12978516 10.50512695 -6.12978516 10.50512695 -7.02734375 11.46679688 C-7.60097656 12.05654297 -8.17460937 12.64628906 -8.765625 13.25390625 C-9.28930664 13.80377197 -9.81298828 14.3536377 -10.35253906 14.92016602 C-12 16 -12 16 -14.20214844 15.67163086 C-14.79543945 15.44999268 -15.38873047 15.22835449 -16 15 C-15.25 13.0625 -15.25 13.0625 -14 11 C-13.4225 10.896875 -12.845 10.79375 -12.25 10.6875 C-8.88226629 9.65847025 -7.16718065 7.45009567 -4.75 4.9375 C-3.85796875 4.01839844 -2.9659375 3.09929687 -2.046875 2.15234375 C-1.37140625 1.44207031 -0.6959375 0.73179687 0 0 Z " fill="#061F23" transform="translate(393,381)"/>
<path d="M0 0 C1.92859455 2.89289183 2.43725716 4.35497915 3.0703125 7.66796875 C3.33134766 9.00698242 3.33134766 9.00698242 3.59765625 10.37304688 C3.77167969 11.30181641 3.94570313 12.23058594 4.125 13.1875 C4.30675781 14.12787109 4.48851562 15.06824219 4.67578125 16.03710938 C5.12326865 18.35697829 5.56442242 20.67787059 6 23 C5.01 22.67 4.02 22.34 3 22 C2.87625 20.865625 2.7525 19.73125 2.625 18.5625 C2.41875 17.386875 2.2125 16.21125 2 15 C1.34 14.67 0.68 14.34 0 14 C0 9.38 0 4.76 0 0 Z " fill="#081417" transform="translate(260,612)"/>
<path d="M0 0 C1.50559539 1.96382007 2.89131683 3.78263366 4 6 C6.97 6 9.94 6 13 6 C12.1875 8.4375 12.1875 8.4375 11 11 C8 12 8 12 5 11 C3.61328125 9.2578125 3.61328125 9.2578125 2.3125 7.125 C1.87550781 6.42632813 1.43851562 5.72765625 0.98828125 5.0078125 C0 3 0 3 0 0 Z " fill="#015D63" transform="translate(371,562)"/>
<path d="M0 0 C0.66 0 1.32 0 2 0 C2.29132812 0.72703125 2.58265625 1.4540625 2.8828125 2.203125 C5.597062 8.86071811 8.57966154 15.25542387 11.9609375 21.6015625 C12.30382812 22.39304687 12.64671875 23.18453125 13 24 C12.67 24.66 12.34 25.32 12 26 C8.14679713 19.84771941 4.75912543 13.71928194 2 7 C1.34 7.66 0.68 8.32 0 9 C0 6.03 0 3.06 0 0 Z " fill="#03A0A5" transform="translate(572,332)"/>
<path d="M0 0 C6.93 0.33 13.86 0.66 21 1 C21 1.33 21 1.66 21 2 C18.69 2.33 16.38 2.66 14 3 C14 3.33 14 3.66 14 4 C7.26257354 4.11044961 0.70019789 3.70132913 -6 3 C-6 2.67 -6 2.34 -6 2 C-4.02 1.67 -2.04 1.34 0 1 C0 0.67 0 0.34 0 0 Z " fill="#839CA3" transform="translate(568,746)"/>
<path d="M0 0 C2.546875 -0.328125 2.546875 -0.328125 5.75 -0.25 C7.48056641 -0.21132813 7.48056641 -0.21132813 9.24609375 -0.171875 C15.17421064 0.09954763 21.08668346 0.50352965 27 1 C27 1.33 27 1.66 27 2 C17.29056184 2.83779436 7.73944972 3.12276617 -2 3 C-1.34 2.01 -0.68 1.02 0 0 Z " fill="#BDDEE6" transform="translate(443,746)"/>
<path d="M0 0 C0.33 0 0.66 0 1 0 C0.70645238 8.51288089 -2.46776577 15.40623651 -6 23 C-6.66 23 -7.32 23 -8 23 C-5.47191206 15.28267891 -2.74972528 7.64054098 0 0 Z " fill="#061519" transform="translate(758,635)"/>
<path d="M0 0 C1 3 1 3 1 6 C4.91063224 7.47047336 4.91063224 7.47047336 9 8 C8.67 8.99 8.34 9.98 8 11 C6.54077307 10.88590407 5.08259402 10.75834456 3.625 10.625 C2.81289063 10.55539062 2.00078125 10.48578125 1.1640625 10.4140625 C-1 10 -1 10 -3 8 C-2.64700993 4.55834679 -1.95418308 2.93127462 0 0 Z " fill="#045A5F" transform="translate(645,568)"/>
<path d="M0 0 C1.26070312 0.02030273 1.26070312 0.02030273 2.546875 0.04101562 C4.61485938 0.07626536 6.68251271 0.1300698 8.75 0.1875 C7.11292167 2.17260058 6.24903853 3.10597304 3.6652832 3.52807617 C2.88499756 3.51236572 2.10471191 3.49665527 1.30078125 3.48046875 C0.45322266 3.47080078 -0.39433594 3.46113281 -1.26757812 3.45117188 C-2.14865234 3.42603516 -3.02972656 3.40089844 -3.9375 3.375 C-4.83017578 3.36146484 -5.72285156 3.34792969 -6.64257812 3.33398438 C-8.84566166 3.29864079 -11.04752582 3.24930493 -13.25 3.1875 C-9.41669799 -0.82482985 -5.15568073 -0.15708715 0 0 Z " fill="#002026" transform="translate(521.25,601.8125)"/>
<path d="M0 0 C4.95021409 0.79647029 9.58170153 2.45320707 14.3125 4.0625 C15.14845703 4.34416016 15.98441406 4.62582031 16.84570312 4.91601562 C18.89805624 5.60795182 20.94915483 6.30360709 23 7 C21.11254883 8.04492188 21.11254883 8.04492188 19 9 C17.19921875 8.28125 17.19921875 8.28125 15 7 C11.96681551 5.91845307 8.92566674 4.86919098 5.86914062 3.85546875 C1.10828384 2.21656768 1.10828384 2.21656768 0 0 Z " fill="#00151C" transform="translate(355,697)"/>
<path d="M0 0 C-3.47098534 2.31399023 -4.31320105 2.15669824 -8.32421875 1.7578125 C-9.35224609 1.66113281 -10.38027344 1.56445312 -11.43945312 1.46484375 C-12.51130859 1.35269531 -13.58316406 1.24054688 -14.6875 1.125 C-15.77095703 1.02058594 -16.85441406 0.91617187 -17.97070312 0.80859375 C-20.64828783 0.54909215 -23.32440686 0.27917581 -26 0 C-26 -0.33 -26 -0.66 -26 -1 C-16.9682229 -2.38950417 -8.94329718 -1.46037646 0 0 Z " fill="#26342E" transform="translate(527,259)"/>
<path d="M0 0 C2.1640625 0.99609375 2.1640625 0.99609375 4.625 2.4375 C5.44226563 2.91058594 6.25953125 3.38367188 7.1015625 3.87109375 C7.72804688 4.24363281 8.35453125 4.61617187 9 5 C7.359375 6.1484375 7.359375 6.1484375 5 7 C2.203125 6.1015625 2.203125 6.1015625 -0.75 4.625 C-1.73484375 4.14289062 -2.7196875 3.66078125 -3.734375 3.1640625 C-4.48203125 2.77992188 -5.2296875 2.39578125 -6 2 C-5.38125 1.855625 -4.7625 1.71125 -4.125 1.5625 C-1.96741678 1.06847775 -1.96741678 1.06847775 0 0 Z " fill="#049E9D" transform="translate(355,692)"/>
<path d="M0 0 C0 0.33 0 0.66 0 1 C2.97 1.495 2.97 1.495 6 2 C6 2.33 6 2.66 6 3 C3.33326258 3.02727345 0.66681131 3.04696948 -2 3.0625 C-3.11568359 3.07506836 -3.11568359 3.07506836 -4.25390625 3.08789062 C-9.26148844 3.10966272 -14.04279032 2.71541549 -19 2 C-19 1.67 -19 1.34 -19 1 C-16.95857606 0.83038614 -14.91684689 0.66444404 -12.875 0.5 C-11.16957031 0.36078125 -11.16957031 0.36078125 -9.4296875 0.21875 C-6.27402851 0.0174779 -3.16078835 -0.03842904 0 0 Z " fill="#86A1A9" transform="translate(447,745)"/>
<path d="M0 0 C4.3573226 1.47130373 7.71934134 3.83080615 11.3125 6.625 C11.86228516 7.04523438 12.41207031 7.46546875 12.97851562 7.8984375 C14.32292168 8.92720039 15.66201413 9.9629009 17 11 C16.01 11.33 15.02 11.66 14 12 C11.40625 10.41796875 11.40625 10.41796875 8.5 8.1875 C7.5409375 7.45917969 6.581875 6.73085938 5.59375 5.98046875 C4.30984375 5.00013672 4.30984375 5.00013672 3 4 C2.01 3.34 1.02 2.68 0 2 C0 1.34 0 0.68 0 0 Z " fill="#1F2B29" transform="translate(543,266)"/>
<path d="M0 0 C0.56332031 0.36480469 1.12664062 0.72960937 1.70703125 1.10546875 C-0.16796875 1.73046875 -2.04296875 2.35546875 -3.91796875 2.98046875 C-4.70171875 3.35171875 -5.48546875 3.72296875 -6.29296875 4.10546875 C-6.62296875 5.09546875 -6.95296875 6.08546875 -7.29296875 7.10546875 C-8.94296875 6.77546875 -10.59296875 6.44546875 -12.29296875 6.10546875 C-11.29296875 3.10546875 -11.29296875 3.10546875 -9.3671875 1.8671875 C-8.57957031 1.51269531 -7.79195313 1.15820312 -6.98046875 0.79296875 C-6.20058594 0.42558594 -5.42070312 0.05820312 -4.6171875 -0.3203125 C-2.29296875 -0.89453125 -2.29296875 -0.89453125 0 0 Z " fill="#036F73" transform="translate(393.29296875,569.89453125)"/>
<path d="M0 0 C0.66 0 1.32 0 2 0 C3.28406399 1.95224208 4.47941678 3.96340762 5.625 6 C6.25664062 7.11375 6.88828125 8.2275 7.5390625 9.375 C8.26222656 10.674375 8.26222656 10.674375 9 12 C8.01 12 7.02 12 6 12 C5.67 11.34 5.34 10.68 5 10 C4.01 10 3.02 10 2 10 C2 8.68 2 7.36 2 6 C1.34 5.01 0.68 4.02 0 3 C0 2.01 0 1.02 0 0 Z " fill="#0E2025" transform="translate(278,666)"/>
<path d="M0 0 C2.09797355 2.09797355 2.96787972 3.75609656 4.1875 6.4375 C4.55230469 7.21996094 4.91710937 8.00242187 5.29296875 8.80859375 C6 11 6 11 5 14 C4.67 13.67 4.34 13.34 4 13 C3.01 14.485 3.01 14.485 2 16 C1.34 10.72 0.68 5.44 0 0 Z " fill="#05B0AE" transform="translate(284,605)"/>
<path d="M0 0 C1.72433403 3.44866806 2.50996476 5.79138606 3.1875 9.5 C3.36667969 10.4384375 3.54585938 11.376875 3.73046875 12.34375 C4 15 4 15 3 19 C2.01 15.7 1.02 12.4 0 9 C-0.99 9.495 -0.99 9.495 -2 10 C-1.34 6.7 -0.68 3.4 0 0 Z " fill="#06A5A8" transform="translate(448,330)"/>
<path d="M0 0 C0.33 0.99 0.66 1.98 1 3 C-0.28965176 4.37562854 -1.62689293 5.70766393 -3 7 C-3.66 7 -4.32 7 -5 7 C-5.28875 7.598125 -5.5775 8.19625 -5.875 8.8125 C-7 11 -7 11 -9 14 C-9.99 13.67 -10.98 13.34 -12 13 C-10.18777319 11.02058257 -8.37523172 9.04145495 -6.5625 7.0625 C-6.04623047 6.49853516 -5.52996094 5.93457031 -4.99804688 5.35351562 C-1.11328125 1.11328125 -1.11328125 1.11328125 0 0 Z " fill="#1A2623" transform="translate(461,278)"/>
<path d="M0 0 C0.33 0 0.66 0 1 0 C1 6.27 1 12.54 1 19 C0.34 19 -0.32 19 -1 19 C-2.45839897 15.04294544 -1.67906093 11.30168612 -1.0625 7.25 C-0.96259766 6.55261719 -0.86269531 5.85523438 -0.75976562 5.13671875 C-0.51334127 3.42348274 -0.25759045 1.71159275 0 0 Z " fill="#031015" transform="translate(259,573)"/>
<path d="M0 0 C0.66 0 1.32 0 2 0 C1.40523781 4.75809749 -0.4906128 8.94710294 -3 13 C-3.99 13.495 -3.99 13.495 -5 14 C-4.46515599 8.65155992 -2.53309233 4.64203897 0 0 Z " fill="#031317" transform="translate(280,502)"/>
<path d="M0 0 C4.11574371 0.4748935 7.36383344 1.0210244 11 3 C10.30132812 3.13277344 9.60265625 3.26554688 8.8828125 3.40234375 C7.97273438 3.57894531 7.06265625 3.75554688 6.125 3.9375 C5.22007812 4.11152344 4.31515625 4.28554688 3.3828125 4.46484375 C1.00043683 4.89963701 1.00043683 4.89963701 -1 6 C-0.67 4.02 -0.34 2.04 0 0 Z " fill="#199F9A" transform="translate(376,578)"/>
<path d="M0 0 C0.99 0.66 1.98 1.32 3 2 C2 3 2 3 -1.5625 3.0625 C-2.696875 3.041875 -3.83125 3.02125 -5 3 C-5.33 3.66 -5.66 4.32 -6 5 C-7.32 4.67 -8.64 4.34 -10 4 C-10.33 4.66 -10.66 5.32 -11 6 C-13.97 5.505 -13.97 5.505 -17 5 C-17 4.67 -17 4.34 -17 4 C-15.85660156 3.79503906 -14.71320313 3.59007812 -13.53515625 3.37890625 C-12.04423324 3.1069769 -10.55334984 2.83483026 -9.0625 2.5625 C-8.30775391 2.42779297 -7.55300781 2.29308594 -6.77539062 2.15429688 C-3.08046826 1.75727966 -3.08046826 1.75727966 0 0 Z " fill="#729197" transform="translate(313,706)"/>
<path d="M0 0 C1.57156655 3.1431331 0.11705576 5.365464 -0.9375 8.625 C-1.31777344 9.81351563 -1.69804688 11.00203125 -2.08984375 12.2265625 C-2.39019531 13.14179687 -2.69054687 14.05703125 -3 15 C-3.33 14.01 -3.66 13.02 -4 12 C-4.28875 11.2575 -4.5775 10.515 -4.875 9.75 C-5.06700605 5.52586681 -2.61817914 3.14362686 0 0 Z " fill="#07AEAE" transform="translate(740,621)"/>
<path d="M0 0 C0.33 0 0.66 0 1 0 C1 9.24 1 18.48 1 28 C0.67 28 0.34 28 0 28 C0 18.76 0 9.52 0 0 Z " fill="#929295" transform="translate(0,22)"/>
<path d="M0 0 C0.33 0 0.66 0 1 0 C1 8.91 1 17.82 1 27 C0.67 27 0.34 27 0 27 C0 18.09 0 9.18 0 0 Z " fill="#919193" transform="translate(0,59)"/>
<path d="M0 0 C1.21386936 3.64160808 0.6674695 4.33165469 -0.9375 7.6875 C-1.31777344 8.49574219 -1.69804687 9.30398438 -2.08984375 10.13671875 C-2.39019531 10.75160156 -2.69054687 11.36648438 -3 12 C-3.33 12 -3.66 12 -4 12 C-3.28571429 3.42857143 -3.28571429 3.42857143 0 0 Z " fill="#041216" transform="translate(272,522)"/>
<path d="M0 0 C0.99 0.33 1.98 0.66 3 1 C1.11788404 4.48191452 -0.5009599 7.03178994 -4 9 C-4.99 8.67 -5.98 8.34 -7 8 C-6.4946875 7.59007812 -5.989375 7.18015625 -5.46875 6.7578125 C-4.49421875 5.94957031 -4.49421875 5.94957031 -3.5 5.125 C-2.8503125 4.59132813 -2.200625 4.05765625 -1.53125 3.5078125 C-0.77328125 2.76144531 -0.77328125 2.76144531 0 2 C0 1.34 0 0.68 0 0 Z " fill="#072024" transform="translate(351,416)"/>
<path d="M0 0 C0 0.66 0 1.32 0 2 C-1.26418246 2.69965443 -2.53665402 3.38434763 -3.8125 4.0625 C-4.52019531 4.44535156 -5.22789062 4.82820312 -5.95703125 5.22265625 C-8 6 -8 6 -11 5 C-10.34 5 -9.68 5 -9 5 C-9 4.34 -9 3.68 -9 3 C-3.375 0 -3.375 0 0 0 Z " fill="#7F9BA0" transform="translate(748,724)"/>
<path d="M0 0 C0.66 0 1.32 0 2 0 C2.22162329 1.62324086 2.42689803 3.248721 2.625 4.875 C2.74101563 5.77992188 2.85703125 6.68484375 2.9765625 7.6171875 C2.98429688 8.40351562 2.99203125 9.18984375 3 10 C2.34 10.66 1.68 11.32 1 12 C0.01751476 7.9472484 -0.08159574 4.16138263 0 0 Z " fill="#061619" transform="translate(760,554)"/>
<path d="M0 0 C2.97 0 5.94 0 9 0 C9 0.66 9 1.32 9 2 C9.99 2.33 10.98 2.66 12 3 C7.45194365 3.17835515 4.1205746 2.99785435 0 1 C0 0.67 0 0.34 0 0 Z " fill="#000D0F" transform="translate(496,608)"/>
<path d="M0 0 C0.33 0 0.66 0 1 0 C1 7.59 1 15.18 1 23 C0.67 23 0.34 23 0 23 C0 15.41 0 7.82 0 0 Z " fill="#8E8E8F" transform="translate(0,167)"/>
<path d="M0 0 C4.875 1.75 4.875 1.75 6 4 C4.68 3.67 3.36 3.34 2 3 C2.66 5.31 3.32 7.62 4 10 C1.2027092 7.93243723 0.97307727 6.85559629 0.3125 3.3125 C0.209375 2.219375 0.10625 1.12625 0 0 Z " fill="#376683" transform="translate(398,550)"/>
<path d="M0 0 C0.66 0.33 1.32 0.66 2 1 C1.814375 1.5775 1.62875 2.155 1.4375 2.75 C0.95976454 5.20692525 1.24270636 6.64397534 2 9 C1.01 8.67 0.02 8.34 -1 8 C-1.625 5.125 -1.625 5.125 -2 2 C-1.34 1.34 -0.68 0.68 0 0 Z " fill="#78959B" transform="translate(276,717)"/>
<path d="M0 0 C4.15414253 1.22736029 6.43688534 2.327664 10 5 C6.7 4.34 3.4 3.68 0 3 C0 2.01 0 1.02 0 0 Z " fill="#06BAB6" transform="translate(366,698)"/>
<path d="M0 0 C0.625 1.8125 0.625 1.8125 1 4 C0.01 5.485 0.01 5.485 -1 7 C-1.33 6.01 -1.66 5.02 -2 4 C-3.98 4.66 -5.96 5.32 -8 6 C-5.63379989 3.38472619 -3.057952 1.73559438 0 0 Z " fill="#366684" transform="translate(637,557)"/>
<path d="M0 0 C0.66 0 1.32 0 2 0 C1 3 1 3 -1.8125 4.8125 C-5 6 -5 6 -7.375 5.1875 C-7.91125 4.795625 -8.4475 4.40375 -9 4 C-8.43410156 3.79503906 -7.86820313 3.59007812 -7.28515625 3.37890625 C-6.55167969 3.10949219 -5.81820312 2.84007812 -5.0625 2.5625 C-4.33160156 2.29566406 -3.60070312 2.02882813 -2.84765625 1.75390625 C-1.01694322 1.14613052 -1.01694322 1.14613052 0 0 Z " fill="#D8AA22" transform="translate(572,264)"/>
<path d="M0 0 C4.10958767 1.45044271 7.43258745 3.51110752 11 6 C10.01 6.495 10.01 6.495 9 7 C7.31791365 6.02616054 5.65261839 5.02304948 4 4 C1.80869466 3.30420546 1.80869466 3.30420546 0 3 C0 2.01 0 1.02 0 0 Z " fill="#B6D4DB" transform="translate(315,708)"/>
<path d="M0 0 C1.1725131 0.95117134 2.33787015 1.91117009 3.5 2.875 C4.47453125 3.67550781 4.47453125 3.67550781 5.46875 4.4921875 C5.9740625 4.98976563 6.479375 5.48734375 7 6 C7 6.66 7 7.32 7 8 C4.13792848 6.71700242 1.9754912 5.469364 0 3 C0 2.01 0 1.02 0 0 Z " fill="#1B2926" transform="translate(560,278)"/>
<path d="M0 0 C0.66 0 1.32 0 2 0 C1.06545424 3.22843082 0.55323559 4.66514688 -2.375 6.4375 C-5 7 -5 7 -7.3125 6.125 C-7.869375 5.75375 -8.42625 5.3825 -9 5 C-6.69 5 -4.38 5 -2 5 C-1.34 3.35 -0.68 1.7 0 0 Z " fill="#E2B322" transform="translate(517,240)"/>
<path d="M0 0 C1 3 1 3 1 6 C1.66 6.66 2.32 7.32 3 8 C1.35 8 -0.3 8 -2 8 C-2.33 7.01 -2.66 6.02 -3 5 C-1.5625 2.3125 -1.5625 2.3125 0 0 Z " fill="#015057" transform="translate(645,568)"/>
<path d="M0 0 C3.33523252 1.38009621 5.18607951 2.84950652 7 6 C6.67 6.99 6.34 7.98 6 9 C4.99712471 7.68969568 3.99777175 6.37669473 3 5.0625 C2.443125 4.33160156 1.88625 3.60070312 1.3125 2.84765625 C0 1 0 1 0 0 Z " fill="#0C171B" transform="translate(566,286)"/>
<path d="M0 0 C0.33 0 0.66 0 1 0 C1 5.94 1 11.88 1 18 C0.67 18 0.34 18 0 18 C0 12.06 0 6.12 0 0 Z " fill="#959597" transform="translate(0,0)"/>
<path d="M0 0 C0.66 0.33 1.32 0.66 2 1 C0.38405168 3.04119788 -1.2856382 5.04072937 -3 7 C-3.66 7 -4.32 7 -5 7 C-3.75023244 3.34683329 -3.32901247 2.21934164 0 0 Z " fill="#149090" transform="translate(620,593)"/>
<path d="M0 0 C0.33 0.99 0.66 1.98 1 3 C0.34 3.66 -0.32 4.32 -1 5 C-2.98 4.34 -4.96 3.68 -7 3 C-4.38058783 1.25372522 -2.96175123 0.61277612 0 0 Z " fill="#356582" transform="translate(462,560)"/>
<path d="M0 0 C1.04449911 3.13349732 0.93423645 3.98968256 0 7 C-0.66 7 -1.32 7 -2 7 C-2.33 7.66 -2.66 8.32 -3 9 C-2.5020163 5.26512223 -2.12508244 3.18762365 0 0 Z " fill="#019B9F" transform="translate(309,507)"/>
<path d="M0 0 C1.79133978 -0.05391993 3.58313899 -0.09275571 5.375 -0.125 C6.37273438 -0.14820313 7.37046875 -0.17140625 8.3984375 -0.1953125 C11 0 11 0 13 2 C8.71 1.67 4.42 1.34 0 1 C0 0.67 0 0.34 0 0 Z " fill="#7B7D3D" transform="translate(513,256)"/>
<path d="M0 0 C2.97 0.495 2.97 0.495 6 1 C6 1.33 6 1.66 6 2 C3.69 2 1.38 2 -1 2 C-0.67 1.34 -0.34 0.68 0 0 Z " fill="#699797" transform="translate(386,747)"/>
<path d="M0 0 C1.65 0 3.3 0 5 0 C5.33 0.66 5.66 1.32 6 2 C3.03 1.505 3.03 1.505 0 1 C0 0.67 0 0.34 0 0 Z " fill="#598C8C" transform="translate(602,750)"/>
<path d="M0 0 C1.98 0 3.96 0 6 0 C5.67 0.66 5.34 1.32 5 2 C3.35 1.67 1.7 1.34 0 1 C0 0.67 0 0.34 0 0 Z " fill="#5D9090" transform="translate(418,750)"/>
<path d="M0 0 C0.33 0 0.66 0 1 0 C1 2.31 1 4.62 1 7 C0.67 7 0.34 7 0 7 C0 4.69 0 2.38 0 0 Z " fill="#919193" transform="translate(0,51)"/>
<path d="M0 0 C1.98 0 3.96 0 6 0 C6 0.33 6 0.66 6 1 C4.02 1 2.04 1 0 1 C0 0.67 0 0.34 0 0 Z " fill="#548A8C" transform="translate(434,751)"/>
<path d="M0 0 C1.98 0 3.96 0 6 0 C6 0.33 6 0.66 6 1 C4.02 1 2.04 1 0 1 C0 0.67 0 0.34 0 0 Z " fill="#7AA0A2" transform="translate(680,743)"/>
<path d="M0 0 C0.66 0 1.32 0 2 0 C1.67 0.99 1.34 1.98 1 3 C0.34 2.34 -0.32 1.68 -1 1 C-0.67 0.67 -0.34 0.34 0 0 Z " fill="#7A7C42" transform="translate(558,272)"/>
<path d="M0 0 C1.98 0 3.96 0 6 0 C6 0.33 6 0.66 6 1 C4.02 1 2.04 1 0 1 C0 0.67 0 0.34 0 0 Z " fill="#7D7C3C" transform="translate(501,256)"/>
<path d="M0 0 C1.32 0.33 2.64 0.66 4 1 C3.01 1.495 3.01 1.495 2 2 C1.34 1.34 0.68 0.68 0 0 Z " fill="#779EA2" transform="translate(327,741)"/>
<path d="M0 0 C0.66 0.99 1.32 1.98 2 3 C1.01 2.67 0.02 2.34 -1 2 C-0.67 1.34 -0.34 0.68 0 0 Z " fill="#23484D" transform="translate(277,669)"/>
<path d="M0 0 C0.99 0.495 0.99 0.495 2 1 C1.67 1.99 1.34 2.98 1 4 C0.67 2.68 0.34 1.36 0 0 Z " fill="#1E4644" transform="translate(590,320)"/>
<path d="M0 0 C0.99 0 1.98 0 3 0 C3 0.66 3 1.32 3 2 C2.01 1.67 1.02 1.34 0 1 C0 0.67 0 0.34 0 0 Z " fill="#5F6A42" transform="translate(564,280)"/>
<path d="M0 0 C4 1 4 1 4 1 Z " fill="#639494" transform="translate(401,749)"/>
<path d="M0 0 C4 1 4 1 4 1 Z " fill="#759D9F" transform="translate(340,743)"/>
<path d="M0 0 C4 1 4 1 4 1 Z " fill="#65888C" transform="translate(719,707)"/>
<path d="M0 0 C1 4 1 4 1 4 Z " fill="#10363C" transform="translate(258,618)"/>
<path d="M0 0 C0.99 0.495 0.99 0.495 2 1 C1.67 1.66 1.34 2.32 1 3 C0.67 2.01 0.34 1.02 0 0 Z " fill="#0C393D" transform="translate(741,497)"/>
<path d="M0 0 C3 1 3 1 3 1 Z " fill="#4C8686" transform="translate(588,751)"/>
<path d="M0 0 C0.99 0.495 0.99 0.495 2 1 C1.01 1.495 1.01 1.495 0 2 C0 1.34 0 0.68 0 0 Z " fill="#78A0A1" transform="translate(687,742)"/>
<path d="M0 0 C3 1 3 1 3 1 Z " fill="#789FA0" transform="translate(320,740)"/>
<path d="M0 0 C3 1 3 1 3 1 Z " fill="#7EA1A2" transform="translate(725,735)"/>
<path d="M0 0 C0.66 0 1.32 0 2 0 C1.67 0.66 1.34 1.32 1 2 C0.67 1.34 0.34 0.68 0 0 Z " fill="#22474B" transform="translate(275,667)"/>
<path d="" fill="#10393D" transform="translate(0,0)"/>
<path d="" fill="#0D353C" transform="translate(0,0)"/>
<path d="M0 0 C3 1 3 1 3 1 Z " fill="#154043" transform="translate(604,344)"/>
<path d="" fill="#5B673D" transform="translate(0,0)"/>
<path d="M0 0 C0.66 0 1.32 0 2 0 C1.67 0.66 1.34 1.32 1 2 C0.67 1.34 0.34 0.68 0 0 Z " fill="#4B6041" transform="translate(571,288)"/>
<path d="M0 0 C0.99 0.495 0.99 0.495 2 1 C1.01 1.495 1.01 1.495 0 2 C0 1.34 0 0.68 0 0 Z " fill="#D7BA2E" transform="translate(568,240)"/>
<path d="" fill="#8F8E90" transform="translate(0,0)"/>
<path d="M0 0 C2 1 2 1 2 1 Z " fill="#538789" transform="translate(593,751)"/>
<path d="M0 0 C2 1 2 1 2 1 Z " fill="#578A8B" transform="translate(429,751)"/>
<path d="M0 0 C2 1 2 1 2 1 Z " fill="#719B9B" transform="translate(646,747)"/>
<path d="M0 0 C2 1 2 1 2 1 Z " fill="#6E999A" transform="translate(641,747)"/>
<path d="M0 0 C2 1 2 1 2 1 Z " fill="#6D9A9A" transform="translate(377,747)"/>
<path d="M0 0 C2 1 2 1 2 1 Z " fill="#799EA0" transform="translate(696,741)"/>
<path d="M0 0 C2 1 2 1 2 1 Z " fill="#7A9FA1" transform="translate(296,735)"/>
<path d="" fill="#6C8C8F" transform="translate(0,0)"/>
<path d="M0 0 C2 1 2 1 2 1 Z " fill="#6E8F94" transform="translate(739,712)"/>
<path d="" fill="#1E4349" transform="translate(0,0)"/>
<path d="" fill="#143B41" transform="translate(0,0)"/>
<path d="" fill="#153B41" transform="translate(0,0)"/>
<path d="" fill="#0F3A3F" transform="translate(0,0)"/>
<path d="" fill="#0C3038" transform="translate(0,0)"/>
<path d="" fill="#0D363D" transform="translate(0,0)"/>
<path d="" fill="#0F363B" transform="translate(0,0)"/>
<path d="" fill="#0F363D" transform="translate(0,0)"/>
<path d="" fill="#0A343B" transform="translate(0,0)"/>
<path d="" fill="#0D383F" transform="translate(0,0)"/>
<path d="M0 0 C2 1 2 1 2 1 Z " fill="#0C383E" transform="translate(297,464)"/>
<path d="M0 0 C2 1 2 1 2 1 Z " fill="#0B3A3F" transform="translate(689,432)"/>
<path d="" fill="#083A41" transform="translate(0,0)"/>
<path d="" fill="#0D3B3F" transform="translate(0,0)"/>
<path d="M0 0 C2 1 2 1 2 1 Z " fill="#0D3C42" transform="translate(360,408)"/>
<path d="" fill="#0A3A3F" transform="translate(0,0)"/>
<path d="" fill="#234A43" transform="translate(0,0)"/>
<path d="" fill="#264A42" transform="translate(0,0)"/>
<path d="" fill="#304F46" transform="translate(0,0)"/>
<path d="M0 0 C2 1 2 1 2 1 Z " fill="#465E43" transform="translate(442,296)"/>
<path d="M0 0 C2 1 2 1 2 1 Z " fill="#A49636" transform="translate(454,271)"/>
<path d="" fill="#81803C" transform="translate(0,0)"/>
<path d="M0 0 C2 1 2 1 2 1 Z " fill="#84803E" transform="translate(477,264)"/>
<path d="M0 0 C2 1 2 1 2 1 Z " fill="#CEB12F" transform="translate(440,263)"/>
<path d="" fill="#7F803D" transform="translate(0,0)"/>
<path d="M0 0 C2 1 2 1 2 1 Z " fill="#D5B52F" transform="translate(508,205)"/>
<path d="" fill="#222E2B" transform="translate(0,0)"/>
<path d="" fill="#57868A" transform="translate(0,0)"/>
<path d="" fill="#558C8B" transform="translate(0,0)"/>
<path d="" fill="#4C8586" transform="translate(0,0)"/>
<path d="" fill="#518C8B" transform="translate(0,0)"/>
<path d="" fill="#518B88" transform="translate(0,0)"/>
<path d="" fill="#619293" transform="translate(0,0)"/>
<path d="" fill="#619393" transform="translate(0,0)"/>
<path d="" fill="#619093" transform="translate(0,0)"/>
<path d="" fill="#639292" transform="translate(0,0)"/>
<path d="" fill="#629292" transform="translate(0,0)"/>
<path d="" fill="#629594" transform="translate(0,0)"/>
<path d="" fill="#6B9898" transform="translate(0,0)"/>
<path d="" fill="#719C9D" transform="translate(0,0)"/>
<path d="" fill="#779EA0" transform="translate(0,0)"/>
<path d="" fill="#779EA3" transform="translate(0,0)"/>
<path d="" fill="#759FA1" transform="translate(0,0)"/>
<path d="" fill="#7BA1A2" transform="translate(0,0)"/>
<path d="" fill="#7CA0A2" transform="translate(0,0)"/>
<path d="" fill="#779FA3" transform="translate(0,0)"/>
<path d="" fill="#779E9D" transform="translate(0,0)"/>
<path d="" fill="#7FA3A4" transform="translate(0,0)"/>
<path d="" fill="#7A9A9F" transform="translate(0,0)"/>
<path d="" fill="#6E8F91" transform="translate(0,0)"/>
<path d="" fill="#749395" transform="translate(0,0)"/>
<path d="" fill="#6F8F92" transform="translate(0,0)"/>
<path d="" fill="#6A8A8E" transform="translate(0,0)"/>
<path d="" fill="#6B8B8F" transform="translate(0,0)"/>
<path d="" fill="#618188" transform="translate(0,0)"/>
<path d="" fill="#4A7578" transform="translate(0,0)"/>
<path d="" fill="#2D565C" transform="translate(0,0)"/>
<path d="" fill="#2F5256" transform="translate(0,0)"/>
<path d="" fill="#264E54" transform="translate(0,0)"/>
<path d="" fill="#285258" transform="translate(0,0)"/>
<path d="" fill="#264E53" transform="translate(0,0)"/>
<path d="" fill="#264E53" transform="translate(0,0)"/>
<path d="" fill="#244C53" transform="translate(0,0)"/>
<path d="" fill="#22484F" transform="translate(0,0)"/>
<path d="" fill="#1F434A" transform="translate(0,0)"/>
<path d="" fill="#204448" transform="translate(0,0)"/>
<path d="" fill="#194248" transform="translate(0,0)"/>
<path d="" fill="#193D43" transform="translate(0,0)"/>
<path d="" fill="#173D43" transform="translate(0,0)"/>
<path d="" fill="#183B42" transform="translate(0,0)"/>
<path d="" fill="#193B3E" transform="translate(0,0)"/>
<path d="" fill="#133A3D" transform="translate(0,0)"/>
<path d="" fill="#12373C" transform="translate(0,0)"/>
<path d="" fill="#12373B" transform="translate(0,0)"/>
<path d="" fill="#173E42" transform="translate(0,0)"/>
<path d="" fill="#113A3F" transform="translate(0,0)"/>
<path d="" fill="#0E383D" transform="translate(0,0)"/>
<path d="" fill="#123B42" transform="translate(0,0)"/>
<path d="" fill="#0D373F" transform="translate(0,0)"/>
<path d="" fill="#0E383D" transform="translate(0,0)"/>
<path d="" fill="#10373F" transform="translate(0,0)"/>
<path d="" fill="#0D343A" transform="translate(0,0)"/>
<path d="" fill="#10363B" transform="translate(0,0)"/>
<path d="" fill="#103439" transform="translate(0,0)"/>
<path d="" fill="#0C3136" transform="translate(0,0)"/>
<path d="" fill="#0B3338" transform="translate(0,0)"/>
<path d="" fill="#0A3438" transform="translate(0,0)"/>
<path d="" fill="#0C3239" transform="translate(0,0)"/>
<path d="" fill="#0F353D" transform="translate(0,0)"/>
<path d="" fill="#10383E" transform="translate(0,0)"/>
<path d="" fill="#0E373C" transform="translate(0,0)"/>
<path d="" fill="#0B3439" transform="translate(0,0)"/>
<path d="" fill="#0B363B" transform="translate(0,0)"/>
<path d="" fill="#0A343C" transform="translate(0,0)"/>
<path d="" fill="#0B3539" transform="translate(0,0)"/>
<path d="" fill="#0C3B41" transform="translate(0,0)"/>
<path d="" fill="#08343C" transform="translate(0,0)"/>
<path d="" fill="#0B3A3F" transform="translate(0,0)"/>
<path d="" fill="#093B41" transform="translate(0,0)"/>
<path d="" fill="#0B393E" transform="translate(0,0)"/>
<path d="" fill="#0E3841" transform="translate(0,0)"/>
<path d="" fill="#0D393F" transform="translate(0,0)"/>
<path d="" fill="#0E3841" transform="translate(0,0)"/>
<path d="" fill="#0C3B40" transform="translate(0,0)"/>
<path d="" fill="#093C41" transform="translate(0,0)"/>
<path d="" fill="#0B373F" transform="translate(0,0)"/>
<path d="" fill="#09393F" transform="translate(0,0)"/>
<path d="" fill="#0B373C" transform="translate(0,0)"/>
<path d="" fill="#0B393F" transform="translate(0,0)"/>
<path d="" fill="#0C373F" transform="translate(0,0)"/>
<path d="" fill="#0B3942" transform="translate(0,0)"/>
<path d="" fill="#0C3940" transform="translate(0,0)"/>
<path d="" fill="#0D3841" transform="translate(0,0)"/>
<path d="" fill="#0B3B40" transform="translate(0,0)"/>
<path d="" fill="#0A3840" transform="translate(0,0)"/>
<path d="" fill="#083A41" transform="translate(0,0)"/>
<path d="" fill="#0B383A" transform="translate(0,0)"/>
<path d="" fill="#0D3C40" transform="translate(0,0)"/>
<path d="" fill="#07383B" transform="translate(0,0)"/>
<path d="" fill="#103A41" transform="translate(0,0)"/>
<path d="" fill="#093B41" transform="translate(0,0)"/>
<path d="" fill="#0D3A3C" transform="translate(0,0)"/>
<path d="" fill="#093940" transform="translate(0,0)"/>
<path d="" fill="#0A393D" transform="translate(0,0)"/>
<path d="" fill="#0C393E" transform="translate(0,0)"/>
<path d="" fill="#0A3B3F" transform="translate(0,0)"/>
<path d="" fill="#0A3D41" transform="translate(0,0)"/>
<path d="" fill="#093B40" transform="translate(0,0)"/>
<path d="" fill="#093B40" transform="translate(0,0)"/>
<path d="" fill="#0B3941" transform="translate(0,0)"/>
<path d="" fill="#0E393D" transform="translate(0,0)"/>
<path d="" fill="#0D3E42" transform="translate(0,0)"/>
<path d="" fill="#093A3F" transform="translate(0,0)"/>
<path d="" fill="#0B3A42" transform="translate(0,0)"/>
<path d="" fill="#0F3940" transform="translate(0,0)"/>
<path d="" fill="#0C3D41" transform="translate(0,0)"/>
<path d="" fill="#0E3C3F" transform="translate(0,0)"/>
<path d="" fill="#0A3A41" transform="translate(0,0)"/>
<path d="" fill="#0B3E40" transform="translate(0,0)"/>
<path d="" fill="#0E3C41" transform="translate(0,0)"/>
<path d="" fill="#0B3C41" transform="translate(0,0)"/>
<path d="" fill="#0B3B41" transform="translate(0,0)"/>
<path d="" fill="#0B3B40" transform="translate(0,0)"/>
<path d="" fill="#0C3D43" transform="translate(0,0)"/>
<path d="" fill="#0D3E40" transform="translate(0,0)"/>
<path d="" fill="#0B3F43" transform="translate(0,0)"/>
<path d="" fill="#0B3E42" transform="translate(0,0)"/>
<path d="" fill="#0D3F43" transform="translate(0,0)"/>
<path d="" fill="#0C3F41" transform="translate(0,0)"/>
<path d="" fill="#0D3B42" transform="translate(0,0)"/>
<path d="" fill="#113D44" transform="translate(0,0)"/>
<path d="" fill="#0D3F43" transform="translate(0,0)"/>
<path d="" fill="#0E4045" transform="translate(0,0)"/>
<path d="" fill="#0A3D42" transform="translate(0,0)"/>
<path d="" fill="#123E42" transform="translate(0,0)"/>
<path d="" fill="#0D3B3F" transform="translate(0,0)"/>
<path d="" fill="#0F3A41" transform="translate(0,0)"/>
<path d="" fill="#123D43" transform="translate(0,0)"/>
<path d="" fill="#103D42" transform="translate(0,0)"/>
<path d="" fill="#144144" transform="translate(0,0)"/>
<path d="" fill="#114044" transform="translate(0,0)"/>
<path d="" fill="#134244" transform="translate(0,0)"/>
<path d="" fill="#184141" transform="translate(0,0)"/>
<path d="" fill="#184142" transform="translate(0,0)"/>
<path d="" fill="#21312B" transform="translate(0,0)"/>
<path d="" fill="#1A4142" transform="translate(0,0)"/>
<path d="" fill="#174441" transform="translate(0,0)"/>
<path d="" fill="#194445" transform="translate(0,0)"/>
<path d="" fill="#1B4344" transform="translate(0,0)"/>
<path d="" fill="#294F45" transform="translate(0,0)"/>
<path d="" fill="#315145" transform="translate(0,0)"/>
<path d="" fill="#314F42" transform="translate(0,0)"/>
<path d="" fill="#335649" transform="translate(0,0)"/>
<path d="" fill="#3C5B45" transform="translate(0,0)"/>
<path d="" fill="#3F5942" transform="translate(0,0)"/>
<path d="" fill="#415B42" transform="translate(0,0)"/>
<path d="" fill="#3C5441" transform="translate(0,0)"/>
<path d="" fill="#465B47" transform="translate(0,0)"/>
<path d="" fill="#4F6245" transform="translate(0,0)"/>
<path d="" fill="#5A693B" transform="translate(0,0)"/>
<path d="" fill="#5C6B45" transform="translate(0,0)"/>
<path d="" fill="#747A45" transform="translate(0,0)"/>
<path d="" fill="#7D7D3C" transform="translate(0,0)"/>
<path d="" fill="#7E833F" transform="translate(0,0)"/>
<path d="" fill="#9D9037" transform="translate(0,0)"/>
<path d="" fill="#938B3B" transform="translate(0,0)"/>
<path d="" fill="#AA9A37" transform="translate(0,0)"/>
<path d="" fill="#B3A038" transform="translate(0,0)"/>
<path d="" fill="#B2A033" transform="translate(0,0)"/>
<path d="" fill="#7B7D3B" transform="translate(0,0)"/>
<path d="" fill="#BAA339" transform="translate(0,0)"/>
<path d="" fill="#B79D34" transform="translate(0,0)"/>
<path d="" fill="#C6A935" transform="translate(0,0)"/>
<path d="" fill="#CCAB33" transform="translate(0,0)"/>
<path d="" fill="#7D7C3C" transform="translate(0,0)"/>
<path d="" fill="#797E3D" transform="translate(0,0)"/>
<path d="" fill="#797A3D" transform="translate(0,0)"/>
<path d="" fill="#7B7E3D" transform="translate(0,0)"/>
<path d="" fill="#7B7A38" transform="translate(0,0)"/>
<path d="" fill="#81833F" transform="translate(0,0)"/>
<path d="" fill="#82823D" transform="translate(0,0)"/>
<path d="" fill="#7B7B3D" transform="translate(0,0)"/>
<path d="" fill="#7F803C" transform="translate(0,0)"/>
<path d="" fill="#81853F" transform="translate(0,0)"/>
<path d="" fill="#D7B831" transform="translate(0,0)"/>
<path d="" fill="#AFA133" transform="translate(0,0)"/>
<path d="" fill="#B19F34" transform="translate(0,0)"/>
<path d="" fill="#B49F36" transform="translate(0,0)"/>
<path d="" fill="#C4A931" transform="translate(0,0)"/>
<path d="" fill="#C5AE30" transform="translate(0,0)"/>
<path d="" fill="#CDAD30" transform="translate(0,0)"/>
<path d="" fill="#D6B630" transform="translate(0,0)"/>
<path d="" fill="#D6B631" transform="translate(0,0)"/>
<path d="" fill="#CDB130" transform="translate(0,0)"/>
<path d="" fill="#D5B432" transform="translate(0,0)"/>
<path d="" fill="#C9AC33" transform="translate(0,0)"/>
<path d="" fill="#E2BE2D" transform="translate(0,0)"/>
<path d="" fill="#DEBB2B" transform="translate(0,0)"/>
<path d="" fill="#E2C02C" transform="translate(0,0)"/>
<path d="" fill="#373933" transform="translate(0,0)"/>
<path d="" fill="#949396" transform="translate(0,0)"/>
</svg>
