<svg xmlns="http://www.w3.org/2000/svg" width="1024" height="1024"><path fill="#10818E" d="M513 312c3.383.376 6.689 1.226 10 2l3.355.781c13.259 3.414 22.927 9.695 32.645 19.219l2.082 1.977c5.813 6.132 9.511 14.073 13.356 21.523 5.77 11.11 12.958 20.417 21.562 29.5l2.418 2.613C606.203 397.752 614.953 404.34 624 411l3.934 2.918c6.514 4.816 13.092 9.54 19.703 14.223 5.462 3.888 10.806 7.93 16.123 12.013l1.94 1.475 1.713 1.315c1.724 1.248 1.724 1.248 4.587 2.056a139 139 0 0 1 5 5c3.428 3.52 6.88 6.94 10.625 10.125C697.334 468.533 706.197 477.8 714 488l1.288 1.678c17.651 23.14 17.651 23.14 20.712 32.322a564 564 0 0 0 3.063 6.688l1.66 3.574L742 535l2-1 .113 1.723c.46 5.397 1.586 9.388 3.887 14.277.368 1.324.693 2.66 1 4l.902 3.625c6.819 28.36 8.668 60.19-7.117 86.082-3.078 4.901-6.292 9.675-9.785 14.293l2.089.38c31.78 5.853 31.78 5.853 40.911 13.62-.508 3.758-1.036 5.61-4 8-19.187 8.734-41.938 10.375-62.677 12.656l-3.944.45-3.514.38c-3.053.351-3.053.351-5.865 2.514-2.535.111-4.97.117-7.5.04-8.759-.134-17.385.383-26.108 1.132-2.445.208-4.891.397-7.337.586l-4.68.39-2.209.168c-1.73.156-3.45.41-5.166.684l-1 2-2-1c-7.362-.4-14.77.03-22.125.438l-2.225.118c-3.087.188-5.701.461-8.65 1.444-1.52.087-3.042.118-4.563.114h-2.79l-3.002-.016-3.082-.005c-3.25-.005-6.5-.018-9.75-.03q-3.304-.008-6.608-.014-8.103-.017-16.205-.049l-1 2q-17.55.034-35.1.052-8.149.007-16.297.023-7.859.016-15.717.02-3.004.003-6.007.01-4.195.01-8.39.009l-2.529.01c-5.732-.01-5.732-.01-7.96-1.124a65 65 0 0 0-4.094-.265l-2.583-.102-2.823-.098-2.94-.113q-3.138-.121-6.278-.237c-5.523-.206-11.045-.43-16.567-.654l-3.337-.135c-13.749-.565-27.478-1.35-41.208-2.255-2.257-.147-4.514-.286-6.772-.425-21.079-1.3-42.045-3.204-63.023-5.654-1.052-.12-2.104-.242-3.188-.367-59.394-6.902-59.394-6.902-69.187-16.695-.437-2.375-.437-2.375 0-5 5.544-5.39 11.344-6.696 18.684-8.156l3.31-.66 3.443-.684 3.432-.684 6.332-1.26q3.9-.775 7.799-1.556-1.404-2.595-2.812-5.187l-1.583-2.918a133 133 0 0 0-3.304-5.633C280 642 280 642 280 640l-3-1v-3a116 116 0 0 0-1.812-4.75c-4.46-12.023-5.702-23.808-5.563-36.562l.014-2.043c.148-18.35 3.727-34.259 9.361-51.645l.898-2.953C292.718 502.59 319.471 470.93 349 448q2.723-2.245 5.438-4.5c8.514-6.955 17.394-13.392 26.312-19.812 38.932-27.23 38.932-27.23 67.25-64.688v-6l2 1c1.647-1.647 2.705-3.693 3.93-5.66 10.57-16.843 23.993-28.827 43.82-33.652 4.061-.764 8.163-1.13 12.281-1.442 1.97-.041 1.97-.041 2.969-1.246"/><path fill="#003040" d="M513 312c3.383.376 6.689 1.226 10 2l3.355.781c13.259 3.414 22.927 9.695 32.645 19.219l2.082 1.977c5.813 6.132 9.511 14.073 13.356 21.523 5.77 11.11 12.958 20.417 21.562 29.5l2.418 2.613C606.203 397.752 614.953 404.34 624 411l3.934 2.918c6.514 4.816 13.092 9.54 19.703 14.223 5.462 3.888 10.806 7.93 16.123 12.013l1.94 1.475 1.713 1.315c1.724 1.248 1.724 1.248 4.587 2.056a139 139 0 0 1 5 5c3.428 3.52 6.88 6.94 10.625 10.125C697.334 468.533 706.197 477.8 714 488l1.288 1.678c17.651 23.14 17.651 23.14 20.712 32.322a564 564 0 0 0 3.063 6.688l1.66 3.574L742 535l2-1 .113 1.723c.46 5.397 1.586 9.388 3.887 14.277.368 1.324.693 2.66 1 4l.902 3.625c6.819 28.36 8.668 60.19-7.117 86.082-3.078 4.901-6.292 9.675-9.785 14.293l2.089.38c31.78 5.853 31.78 5.853 40.911 13.62-.508 3.758-1.036 5.61-4 8-19.187 8.734-41.938 10.375-62.677 12.656l-3.944.45-3.514.38c-3.053.351-3.053.351-5.865 2.514-2.535.111-4.97.117-7.5.04-8.759-.134-17.385.383-26.108 1.132-2.445.208-4.891.397-7.337.586l-4.68.39-2.209.168c-1.73.156-3.45.41-5.166.684l-1 2-2-1c-7.362-.4-14.77.03-22.125.438l-2.225.118c-3.087.188-5.701.461-8.65 1.444-1.52.087-3.042.118-4.563.114h-2.79l-3.002-.016-3.082-.005c-3.25-.005-6.5-.018-9.75-.03q-3.304-.008-6.608-.014-8.103-.017-16.205-.049l-1 2q-17.55.034-35.1.052-8.149.007-16.297.023-7.859.016-15.717.02-3.004.003-6.007.01-4.195.01-8.39.009l-2.529.01c-5.732-.01-5.732-.01-7.96-1.124a65 65 0 0 0-4.094-.265l-2.583-.102-2.823-.098-2.94-.113q-3.138-.121-6.278-.237c-5.523-.206-11.045-.43-16.567-.654l-3.337-.135c-13.749-.565-27.478-1.35-41.208-2.255-2.257-.147-4.514-.286-6.772-.425-21.079-1.3-42.045-3.204-63.023-5.654-1.052-.12-2.104-.242-3.188-.367-59.394-6.902-59.394-6.902-69.187-16.695-.437-2.375-.437-2.375 0-5 5.544-5.39 11.344-6.696 18.684-8.156l3.31-.66 3.443-.684 3.432-.684 6.332-1.26q3.9-.775 7.799-1.556-1.404-2.595-2.812-5.187l-1.583-2.918a133 133 0 0 0-3.304-5.633C280 642 280 642 280 640l-3-1v-3a116 116 0 0 0-1.812-4.75c-4.46-12.023-5.702-23.808-5.563-36.562l.014-2.043c.148-18.35 3.727-34.259 9.361-51.645l.898-2.953C292.718 502.59 319.471 470.93 349 448q2.723-2.245 5.438-4.5c8.514-6.955 17.394-13.392 26.312-19.812 38.932-27.23 38.932-27.23 67.25-64.688v-6l2 1c1.647-1.647 2.705-3.693 3.93-5.66 10.57-16.843 23.993-28.827 43.82-33.652 4.061-.764 8.163-1.13 12.281-1.442 1.97-.041 1.97-.041 2.969-1.246m-62 68a231 231 0 0 0-4.187 5.563C441.079 393.29 435.358 399.799 428 406l-2.734 2.395c-10.815 9.419-22.448 17.724-34.098 26.07-11.037 7.91-21.582 16.05-31.625 25.215a534 534 0 0 1-5.367 4.828C348.705 469.389 343.602 474.29 339 480c-.77.944-1.54 1.887-2.332 2.86-20.262 25.289-30.11 52.574-27.668 85.14 1.698 14.31 9.325 29.382 19 40l2.133 2.41c26.32 28.1 68.622 37.106 105.117 42.778l2.947.47c22.348 3.263 44.872 3.673 67.41 3.603 3.66-.012 7.32-.005 10.979.007 56.155.149 131.067-2.682 173.766-44.584L693 610l2.273-2.277c15.015-15.906 19.44-35.776 19.032-56.989-1.516-37.45-25.704-67.843-52.047-92.355-13.497-12.078-28.242-22.607-43.02-33.035-16.66-11.77-33.109-24.157-45.136-40.903L573 383h-1l-.812 3.594c-4.473 18.862-11.466 35.34-27.75 46.906-13.378 8.079-29.201 10.75-44.5 7.375-15.143-4.304-28.044-13.11-35.938-26.875-5.903-10.808-8.67-22.006-11-34z"/><path fill="#FDD224" d="m511.313 325.688 2.554.017c13.549.264 25.174 5.742 35.067 15.033C560.25 353.125 563.627 366.742 563 383c-1.128 12.131-8.155 22.962-17 31-6.768 5.224-13.882 8.45-22 11l-3 1c-15.463 1.526-29.111-.426-41.758-10.066-9.944-8.576-17.159-19.864-18.461-33.175-.497-9.828-.406-18.855 4.219-27.759l1.25-2.531c7.242-13.332 18.072-20.74 32.094-25.637 4.395-1 8.476-1.176 12.969-1.144"/><path fill="#00141C" d="M653 531c6.656 5.311 10.328 11.983 13 20 .805 10.306-.226 17.996-6.812 26.125-5.385 5.668-11.844 9.26-19.188 11.875l-3-1 2.082-1.758 2.73-2.367 2.708-2.32c2.603-2.682 3.993-5.147 5.48-8.555l-1.137 1.61c-6.05 8.35-6.05 8.35-9.863 10.39-3.078.016-5.986-.396-9-1l1-5-1.18 1.574c-6.79 8.466-15.115 12.25-25.82 13.426-11.98.988-23.963-1.589-33.57-8.977-6.42-5.446-10.751-10.584-12.43-19.023-.635-7.872-.704-14.448 4-21l1.438-2.016c19.18-24.16 64.978-30.268 89.562-11.984M447.828 532.73c7.308 5.431 14.957 12.74 16.672 21.957 1.222 9.98-.74 18.047-6.668 26.211-8.078 9.267-18.872 12.013-30.66 13.446-9.832.38-20.23-2.497-28.172-8.344-4.054-3.797-6.761-7.9-9-13q.423 2.221.875 4.438l.492 2.496L392 582l2 1c-1.654.39-3.325.709-5 1l-2.875.563c-4.976-.896-7.184-4.665-10.125-8.563 3.502 5.117 6.586 8.906 12 12-3.738 1.246-5.17.26-8.599-1.4l-2.151-1.1-2.19-1.115c-8.323-4.386-13.649-9.49-17.06-18.385-2.085-6.987-1.656-15.227 1-22 6.775-11.992 16.779-18.763 29.847-22.533 19.34-4.197 42.326 1.072 58.981 11.263"/><path fill="#7B9CA4" d="M293 659c1.465 1.348 1.465 1.348 2.938 3.063C304.963 671.393 316.895 676.1 329 680l2.032.66C366.781 691.981 405.741 694.33 443 696l2.729.128c22.44 1.03 44.873 1.072 67.334 1.06h2.88c27.345-.005 54.66-.012 81.947-2.033 2.131-.157 4.263-.303 6.395-.447 65.38-3.274 65.38-3.274 121.153-32.208 2.552-2.352 3.92-3.404 7.375-3.922 3.495.192 6.754.731 10.187 1.422l2.15.395c25.449 4.697 25.449 4.697 30.85 11.605-.135 2.704-.501 4.36-2.176 6.508-15.17 12.41-45.648 12.075-64.501 14.148l-3.944.45c-1.74.187-1.74.187-3.514.38-3.053.351-3.053.351-5.865 2.514-2.535.111-4.97.117-7.5.04-8.759-.134-17.385.383-26.108 1.132-2.445.208-4.891.397-7.337.586l-4.68.39-2.209.168c-1.73.156-3.45.41-5.166.684l-1 2-2-1c-7.362-.4-14.77.03-22.125.438l-2.225.118c-3.087.188-5.701.461-8.65 1.444-1.52.087-3.042.118-4.563.114h-2.79l-3.002-.016-3.082-.005c-3.25-.005-6.5-.018-9.75-.03q-3.304-.008-6.608-.014-8.103-.017-16.205-.049l-1 2q-17.55.034-35.1.052-8.149.007-16.297.023-7.859.016-15.717.02-3.004.003-6.007.01-4.195.01-8.39.009l-2.529.01c-5.732-.01-5.732-.01-7.96-1.124a65 65 0 0 0-4.094-.265l-2.583-.102-2.823-.098-2.94-.113q-3.138-.121-6.278-.237c-5.523-.206-11.045-.43-16.567-.654l-3.337-.135c-13.749-.565-27.478-1.35-41.208-2.255-2.257-.147-4.514-.286-6.772-.425-21.079-1.3-42.045-3.204-63.023-5.654l-3.188-.367C255.793 685.793 255.793 685.793 246 676c-.437-2.375-.437-2.375 0-5 5.544-5.39 11.344-6.696 18.684-8.156l3.31-.66 3.443-.684 3.432-.684 6.332-1.26q2.77-.55 5.53-1.144c2.528-.46 3.892-.37 6.269.588"/><path fill="#7D9DA6" d="m743 660 2.15.395c25.449 4.697 25.449 4.697 30.85 11.605-.135 2.704-.501 4.36-2.176 6.508-15.17 12.41-45.648 12.075-64.501 14.148l-3.944.45c-1.74.187-1.74.187-3.514.38-3.053.351-3.053.351-5.865 2.514-2.535.111-4.97.117-7.5.04-8.759-.134-17.385.383-26.108 1.132-2.445.208-4.891.397-7.337.586l-4.68.39-2.209.168c-1.73.156-3.45.41-5.166.684l-1 2-2-1c-7.362-.4-14.77.03-22.125.438l-2.225.118c-3.087.188-5.701.461-8.65 1.444-1.52.087-3.042.118-4.563.114h-2.79l-3.002-.016-3.082-.005c-3.25-.005-6.5-.018-9.75-.03q-3.304-.008-6.608-.014-8.103-.017-16.205-.049l-1 2q-17.55.034-35.1.052-8.149.007-16.297.023-7.859.016-15.717.02-3.004.003-6.007.01-4.195.01-8.39.009l-2.529.01c-5.732-.01-5.732-.01-7.96-1.124-1.958-.154-3.92-.25-5.883-.316l-3.535-.127-3.707-.12-3.73-.13q-4.573-.16-9.145-.307v-1l20-1v-1l2.594.007q12.347.03 24.693.045 6.341.007 12.683.023c19.762.053 39.48-.12 59.23-.852 8.933-.322 17.862-.32 26.8-.223v1c-11.636 1.176-23.319 1.538-35 2 27.704-.606 55.344-2.321 83-4l1.095-2.908C639 691 639 691 641.913 689.955l3.571-.424 1.952-.26q2.074-.276 4.153-.517c3.65-.43 7.285-.955 10.923-1.477l2.203-.31c20.507-2.973 45.948-9.076 60.722-24.467 5.56-5.123 10.545-3.912 17.563-2.5"/><path fill="#FEA90D" d="M537 338c8.49 6.19 15.039 15.942 17.598 26.21 1.825 12.654.86 24.067-6.91 34.603-6.643 7.86-12.986 11.645-22.688 15.187l-3.375 1.313c-12.68 2.404-25.212.679-36.133-6.317-7.163-5.738-13.1-13.063-15.492-21.996l-.55-1.824c-1.467-7.102-.77-15.08.55-22.176h2l.516 1.977c2.221 8.012 5.204 14.426 12.484 19.023 12.696 5.986 26.981 7.381 40.5 3.125 7.567-3.1 14.004-8.229 18.777-14.914 1.132-3.462 1.051-6.92 1.035-10.524l.05-2.224c.005-6.5-1.474-11.897-6.05-16.776C537 340 537 340 537 338"/><path fill="#15909A" d="M729 604c2.688 5.375-1.23 16.229-2.812 21.926-6.99 19.063-22.103 30.306-39.7 38.761-31.676 14.19-31.676 14.19-42.488 10.313l2.754-1.031c15.098-5.77 28.407-13.15 41.246-22.969l2.828-2.145C706.687 636.36 719.201 621.642 729 604"/><path fill="#68C2C1" d="M409 447c3.063 2.125 3.063 2.125 5 5 1.045 7.057-1.75 12.38-5.562 18.063-4.228 5.445-10.593 9.684-17.438 10.937-5.373.341-8.61.46-13-3-1.585-3.17-1.478-6.554-1-10 3.118-8.907 10.165-16.475 18.625-20.75 4.564-1.66 8.754-1.778 13.375-.25"/><path fill="#0B475B" d="M400 534c-1.728 3.73-4.015 6.7-6.562 9.902-3.94 5.75-3.742 11.084-3.688 17.848l-.023 2.883c.016 5.862.199 11.813 2.273 17.367l2 1c-1.654.39-3.325.709-5 1l-2.875.563c-5.012-.903-7.112-4.695-10.125-8.563l-2-2c-4.685-5.27-5.472-11.688-5.316-18.512.516-4.064 2.105-7.088 4.316-10.488l2-3.187c6.18-6.94 16.186-8.69 25-7.813"/><path fill="#FEFDFB" d="M504 338c3.563 1.813 3.563 1.813 6 4l1.813 1.563c2.845 3.443 2.52 7.702 2.464 11.937-.565 5.095-3.66 8.082-7.34 11.313-4.809 3.581-9.135 3.74-14.937 3.187-4.95-2.025-8.618-6.237-11-11-.59-5.679-.294-10.17 3-15 6.278-6.177 11.376-6.834 20-6"/><path fill="#15919B" d="M295 603c1.712 2.568 3.084 5.132 4.46 7.885 12.905 25.434 34.719 43.84 59.54 57.115l2.3 1.273c5.01 2.67 10.233 4.248 15.7 5.727-3.604 1.267-6.01.722-9.656-.258l-3.352-.898-3.492-.969-3.398-.898c-21.068-5.742-42.627-15.706-54.825-34.653-5.767-10.471-7.914-22.428-7.277-34.324"/><path fill="#0C475A" d="M629 535c6.896.45 13.402 2.82 18.645 7.453 1.293 1.485 1.293 1.485 3.355 4.547l1.813 2.625c2.497 7.098 2.078 15.436-.813 22.375-1.687 1.938-1.687 1.938-4 4a480 480 0 0 0-5.414 6.293C641 584 641 584 639 585a65 65 0 0 1-4.625-.437l-2.477-.31L630 584l.875-2.832c4.18-14.408 5.779-29.273-.875-43.168z"/><path fill="#FBCA28" d="M515 257c4.273 2.876 6.458 5.127 8 10 1.315 10.313-.851 19.389-7.05 27.773C514 297 514 297 512.061 298.125 510 298 510 298 507.5 296.063c-5.28-6.469-9.01-14.425-8.75-22.91.627-5.4 1.882-9.818 5.813-13.653 3.804-2.341 5.909-3.023 10.437-2.5"/><path fill="#001219" d="M543.625 588.313C546 589 546 589 547 590c.514 3.274.844 5.8-1.14 8.621-9.12 8.522-20.998 10.574-32.923 10.629l-3.318.063c-12.028.057-20.756-2.956-30.182-10.313-1.437-2-1.437-2-1.312-4.625C479 592 479 592 481 590c2.88-.362 4.44-.352 6.922 1.207l1.828 1.606c9.072 7.093 19.149 7.115 30.25 6.187 7.394-1.14 12.322-4.293 18-9 3-2 3-2 5.625-1.687"/><path fill="#8BABB5" d="m642 692-4 1v2l9 1v1c-14.384 1.084-28.773 2.09-43.173 2.936q-3.038.18-6.074.366c-25.662 1.508-51.316 1.848-77.013 1.767q-5.574-.014-11.148-.02-10.796-.016-21.592-.049v-1l2.143-.031q10.146-.15 20.29-.308 5.212-.083 10.423-.158c15.733-.229 31.437-.55 47.144-1.503l-2.049.092c-28.64 1.219-57.29 1.009-85.951.908v1q-7.788.037-15.576.055-2.642.008-5.283.02c-9.765.048-19.422.015-29.141-1.075v-1l6-1-11-1v-1c8.93-.106 17.834-.037 26.758.352 20.429.873 40.86.847 61.305.836h2.88c35.704-.007 71.186-.587 106.732-4.222 6.485-.659 12.806-1.122 19.325-.966"/><path fill="#FAC827" d="M582 287c2.478 2.71 2.928 4.59 3.563 8.188-.939 6.36-3.881 11.52-8.79 15.714-6.51 4.453-11.854 6.747-19.773 6.098-2.844-4.265-1.75-6.981-.824-11.86 1.965-7.487 5.927-13.206 11.824-18.14 4.889-2.55 9.073-2.284 14 0"/><path fill="#FBC927" d="M456 288c6.225 5.082 10.243 12.338 11.309 20.309.117 3.751-.197 5.524-2.309 8.691-6.882.983-12.368-1.588-17.988-5.32-5.013-3.929-8.191-8.49-9.426-14.793-.28-3.914.279-5.71 2.664-8.824 5.518-4.139 9.848-3.114 15.75-.063"/><path fill="#051922" d="M677 453c4.42.447 7.01 3.448 10.063 6.375l1.729 1.633A818 818 0 0 1 694 466l1.533 1.466C710.117 481.46 729.434 502.303 736 522a564 564 0 0 0 3.063 6.688l1.66 3.574L742 535l2-1 .113 1.723c.46 5.397 1.586 9.388 3.887 14.277.368 1.324.693 2.66 1 4l.902 3.625c7.58 31.527 7.159 62.022-9.472 90.61L739 650h-3l1-4h2l.816-2.625c1.154-3.29 2.56-6.26 4.121-9.375 3.928-8.382 6.706-17.65 6.063-27l-.992-1.828c-1.629-3.51-1.215-7.107-1.133-10.922l.027-2.402c.024-1.95.06-3.899.098-5.848h2c.194-5.54-.343-9.66-2-15-.982-4.326-1.813-8.669-2.43-13.062-.765-5.374-1.482-9.342-4.55-13.938-2.344-4.598-3.022-9.97-4.02-15h-2l-1.187-3.437C730.085 515.68 721.699 496.85 712 492a186 186 0 0 1-3-5c-4.93-7.143-11.012-13.193-17.125-19.312l-2.352-2.355c-3.264-3.233-6.52-6.403-10.078-9.313L677 454z"/><path fill="#0B4256" d="M570 571c5.088.424 8.72 1.623 13.203 4.063 7.38 3.85 19.227 3.127 27.098 1.078 2.526-1.019 2.526-1.019 4.691-2.168 2.339-1.133 4.435-1.638 7.008-1.973l2 1c.316 3.394.255 5.502-1.312 8.563-7.875 7.142-17.681 8.866-27.942 8.78-8.8-.807-16.78-4.806-22.746-11.343-2.152-3.228-2.2-4.284-2-8M451.313 570.313 453 571c.527 3.58.056 4.913-1.937 8-3.358 3.711-7.584 5.883-12.063 8l-2.207 1.113c-8.169 2.594-19.858 2.446-27.606-1.238-2.23-1.387-2.23-1.387-4.187-2.875l-1.926-1.457c-2.901-2.528-4.02-4.063-4.449-7.918L399 572c2.918-.854 4.463-1.223 7.316-.04l2.247 1.415c7.93 4.92 17.055 4.794 26.07 2.836 4.307-1.285 8.239-2.526 12.094-4.867C449 570 449 570 451.313 570.312"/><path fill="#61848B" d="M711 689c1.525.09 3.047.245 4.563.438l2.503.308L720 690v1l-1.88.244c-2.812.369-5.622.75-8.433 1.131l-2.958.383-2.842.39-2.619.35c-2.533.417-2.533.417-5.268 2.502-2.535.111-4.97.117-7.5.04-8.759-.134-17.385.383-26.108 1.132-2.445.208-4.891.397-7.337.586l-4.68.39-2.209.168c-1.73.156-3.45.41-5.166.684l-1 2-2-1c-7.362-.4-14.77.03-22.125.438l-2.225.118c-3.087.188-5.701.461-8.65 1.444-1.52.087-3.042.118-4.563.114h-2.79l-3.002-.016-3.082-.005c-3.25-.005-6.5-.018-9.75-.03q-3.304-.008-6.608-.014-8.103-.017-16.205-.049l-1 2q-17.55.034-35.1.052-8.149.007-16.297.023-7.859.016-15.717.02-3.004.003-6.007.01-4.195.01-8.39.009l-2.529.01c-5.732-.01-5.732-.01-7.96-1.124-1.958-.154-3.92-.25-5.883-.316l-3.535-.127-3.707-.12-3.73-.13q-4.573-.16-9.145-.307v-1l20-1v-1l2.594.007q12.347.03 24.693.045 6.341.007 12.683.023c19.762.053 39.48-.12 59.23-.852 8.933-.322 17.862-.32 26.8-.223v1c-11.637 1.176-23.319 1.528-35 2a1831 1831 0 0 0 61.502-2.684l6.49-.39c18.626-1.12 37.234-2.385 55.82-4.051l2.73-.243c16.831-.151 16.831-.151 31.458-4.632"/><path fill="#061820" d="M481 322v2a197 197 0 0 1-5 3c-1.583 1.417-1.583 1.417-3 3l-1.812 1.75c-2.332 2.398-4.48 4.904-6.625 7.469C463 341 463 341 461.069 342.815c-2.105 2.223-3.345 4.215-4.733 6.931l-1.448 2.77-1.513 2.921c-4.242 8.019-8.72 15.225-14.512 22.2-2.03 2.301-2.03 2.301-2.863 5.363-1.566 1.543-1.566 1.543-3.562 3.188-2.92 2.468-5.656 5-8.313 7.75-7.31 7.38-15.778 13.362-24.211 19.382-3.486 2.354-3.486 2.354-5.914 5.68-1.675.97-3.353 1.936-5.047 2.871-3.135 1.812-5.994 3.963-8.89 6.129l-1.937 1.435A2532 2532 0 0 0 372 434l-4.18 3.105c-12.805 8.784-12.805 8.784-23.84 19.43-1.853 2.307-3.508 3.786-5.918 5.465-2.527 1.817-4.79 3.62-6.937 5.875L329 470h-2l-.875 1.938C325 474 325 474 323 475c.58-3.208 1.47-4.847 3.773-7.137l1.734-1.735c.616-.6 1.233-1.198 1.868-1.815l1.917-1.888c5.303-5.16 10.89-9.855 16.708-14.425q2.722-2.245 5.438-4.5c8.514-6.955 17.394-13.392 26.312-19.812 38.932-27.23 38.932-27.23 67.25-64.688v-6l2 1c1.647-1.647 2.705-3.693 3.93-5.66C470.459 322 470.459 322 481 322"/><path fill="#051820" d="M537 320c9.963 1.024 17.443 8.927 24 16l2 2c4.374 6.216 7.965 12.757 11.438 19.5 5.77 11.11 12.958 20.417 21.562 29.5l2.418 2.613C606.203 397.752 614.953 404.34 624 411l3.934 2.918c6.514 4.816 13.092 9.54 19.703 14.223 5.462 3.888 10.806 7.93 16.123 12.013l1.94 1.475 1.713 1.315c1.724 1.248 1.724 1.248 4.587 2.056 2.25 2.375 2.25 2.375 4 5l-1 3-1.416-1.276c-5.17-4.6-10.535-8.842-16.084-12.974l-2.65-1.982c-5.893-4.382-11.884-8.585-17.968-12.698-11.381-7.75-22.23-16.352-32.882-25.07l-1.91-1.535c-4.552-3.752-8.297-7.962-12.09-12.465l-2.348-2.617c-6.864-7.83-11.818-16.189-16.652-25.383a1823 1823 0 0 0-3.375-6.375l-1.336-2.586c-1.276-2.324-1.276-2.324-4.289-4.039l-.937-2.375c-1.202-2.968-2.787-4.425-5.063-6.625v-2l-1.656-.754c-2.817-1.497-5.277-3.29-7.844-5.183l-2.844-2.09A1334 1334 0 0 1 537 320"/><path fill="#259199" d="m644.125 594.75 2.457-.062 2.363-.016 2.141-.028c2.508.467 3.399 1.335 4.914 3.356 0 2.938 0 2.938-1 6-5.7 5.408-10.59 5.504-18.2 5.348-4.912-.45-8.477-1.607-11.8-5.348-.812-2.625-.812-2.625 0-5 5.63-4.504 12.254-4.206 19.125-4.25"/><path fill="#26929A" d="M374.145 594.734c18.62.11 18.62.11 24.855 4.266-.262 3.84-.544 5.544-3.312 8.313-5.185 3.255-10.702 3.226-16.688 2.687-3.511-1.34-6.924-2.77-9-6-.312-3.562-.312-3.562 0-7 2-2 2-2 4.145-2.266"/><path fill="#A4CED7" d="M425 696c10.327-.123 20.61.074 30.929.498 14.325.546 28.628.632 42.962.6l7.615-.005q9.862-.006 19.726-.024 9.128-.013 18.254-.019 20.757-.015 41.514-.05v1c-35.353 1.754-70.607 2.266-106 2v1q-7.788.037-15.576.055-2.642.008-5.283.02c-9.765.048-19.422.015-29.141-1.075v-1l6-1-11-1z"/><path fill="#051821" d="M276 554h1l-.254 3.14-.308 4.11-.17 2.066c-.3 3.952-.3 3.952.295 7.84.633 2.671-.152 4.516-1 7.094l-.872 2.703L274 583h2l-.016 1.697q-.029 3.808-.046 7.615l-.026 2.67-.01 2.569-.016 2.364c.033 2.281.033 2.281 1.114 5.085a279 279 0 0 1-.738 5.746c-.634 5.454-.64 10.916.738 16.254h-3a1351 1351 0 0 1-1.437-5.125l-.81-2.883c-1.99-7.898-1.992-15.643-2.003-23.742l-.006-2.095c-.009-12.397 1.122-24.135 4.256-36.155h2z"/><path fill="#063B4F" d="M594 536c2.563 1.125 2.563 1.125 4 3 .716 4.026.15 5.735-1.875 9.313C594 551 594 551 592 552c-2.242.203-2.242.203-4.875.25l-2.617.078c-3.04-.398-4.359-1.16-6.508-3.328-.716-5.014-.716-5.014 0-8 4.913-5.042 9.235-5.649 16-5"/><path fill="#073D51" d="M418 537c3.125 1.563 3.125 1.563 5 4 0 3.486-.134 5.866-2.29 8.688-2.732 2.096-5.145 1.786-8.48 1.656-3.466-.535-5.06-1.613-7.23-4.344-.562-3.562-.562-3.562 0-7 3.074-4.144 8.302-3.734 13-3"/><path fill="#04151D" d="m319 478 1 2h-2l-.83 1.784c-1.13 2.14-2.342 3.82-3.885 5.677l-1.58 1.93q-1.634 1.974-3.273 3.945c-3.04 3.718-5.465 7.237-7.432 11.664h-2l-.836 2.168c-1.146 2.79-2.426 5.455-3.789 8.144l-1.352 2.676L292 520h-2l-.42 1.77c-.906 3.485-2.177 6.844-3.392 10.23A864 864 0 0 0 279 553h-2c2.134-26.887 21.524-55.347 40-74z"/><path fill="#060E33" d="M562 386c1.251 3.547.723 5.723-.437 9.25l-.872 2.703L560 400h-2l-.812 2.207c-1.168 2.746-2.515 5.016-4.188 7.48l-1.562 2.325c-3.116 4.31-6.524 5.35-11.438 6.988l-1 3c-2.363 1.098-2.363 1.098-5.312 2.063-3.89 1.257-3.89 1.257-7.578 2.979-3.822 1.736-7.913 1.294-12.048 1.27l-2.832-.003c-7.429-.103-14.112-1.09-21.23-3.309v-2l-2.687-.687c-3.747-1.485-5.65-3.337-8.313-6.313 4.275 1.643 8.258 3.647 12.305 5.781 10.705 4.84 24.977 5.118 36.195 1.656 13.806-5.545 23.812-13.062 30.5-26.437a155 155 0 0 0 4-11"/><path fill="#08181F" d="M276 629h2v3h2l3 8h2c.1.888.199 1.776.3 2.691 1.133 5.359 4.415 9.03 7.7 13.309l1.445 1.953c4.776 6.058 11.472 10.98 18.555 14.047 2.667.168 2.667.168 5 0l-1 3h5v2l1.938.313c4.127.926 8.068 2.304 12.062 3.687-4.468 1.415-7.744.06-12-1.5l-2.293-.833c-10.215-3.84-18.54-9.016-26.453-16.554-2.215-2.165-2.215-2.165-4.77-3.937-3.13-2.741-4.828-5.678-6.796-9.301l-1.088-1.918c-2.6-4.664-2.6-4.664-2.6-6.957l-3-1v-3q-.474-3.505-1-7"/><path fill="#6A848C" d="M588 698v1a427 427 0 0 1-24.453 1.527l-3.607.126c-15.433.502-30.872.685-46.312.88-4.037.05-8.075.106-12.112.16q-11.758.159-23.516.307v-1l-16-1v-1l2.594.007q12.347.03 24.693.045 6.341.007 12.683.023c19.762.053 39.48-.12 59.23-.852 8.933-.322 17.862-.32 26.8-.223"/><path fill="#F5F02B" d="M542 335c10.232 7.441 18.052 18.846 20.46 31.402.243 1.86.402 3.729.54 5.598h-2l-.445-2.203c-3.119-13.98-8.972-25.77-21.246-33.92-7.295-4.382-14.804-7.201-23.309-7.877l-2.89-.246c-10.751-.464-19.998 2.779-29.11 8.246l-2-1c18.8-13.015 41.06-12.202 60 0"/><path fill="#101E23" d="M537 320c9.963 1.024 17.443 8.927 24 16l2 2c5.388 7.657 9.68 15.887 13.984 24.18A136 136 0 0 0 582 371c-2.538-.362-3.688-.606-5.309-2.655l-1.129-2.134-1.273-2.356-1.289-2.48-2.562-4.79-1.243-2.34c-2.697-5.986-2.697-5.986-7.195-10.245l-.875-2.312c-1.248-2.982-2.827-4.467-5.125-6.688v-2l-1.656-.754c-2.817-1.497-5.277-3.29-7.844-5.183l-2.844-2.09A1334 1334 0 0 1 537 320"/><path fill="#92B7C0" d="M425 696c15.351-.183 30.662.384 46 1v1l-8 1 17 1v1q-7.788.037-15.576.055-2.642.008-5.283.02c-9.765.048-19.422.015-29.141-1.075v-1l6-1-11-1z"/><path fill="#F4CA12" d="m485 417 1.723.586 2.34.789 2.285.773L494 420l3.129 1.05c4.93 1.21 9.688 1.526 14.746 1.762l2.855.194c5.716.28 10.098-.232 15.4-2.44C532 420 532 420 535 421l-5.312 1.938-2.989 1.09c-10.866 3.915-24.739 3.421-35.465-.805-2.887-1.58-4.636-3.347-6.234-6.223"/><path fill="#050B3C" d="m524 326 6 1 3.125.313c3.506.838 4.388 2.128 6.875 4.687a526 526 0 0 0 5.313 4.125C556.14 344.963 562.525 357.278 565 371c.307 4.786.205 9.332-1 14h-1l-.078-3.297c-.543-15.914-4.46-29.98-15.922-41.703-6.99-5.741-14.723-9.458-23-13z"/><path fill="#0E181E" d="M481 322v2a197 197 0 0 1-5 3c-1.583 1.417-1.583 1.417-3 3l-1.812 1.75c-2.332 2.398-4.48 4.904-6.625 7.469C463 341 463 341 461.109 342.703c-2.924 3.184-4.806 6.762-6.859 10.547l-1.246 2.258Q451.494 358.25 450 361h-2l.563-1.75c.477-2.457.194-3.894-.563-6.25l2 1c1.647-1.647 2.705-3.693 3.93-5.66C470.459 322 470.459 322 481 322"/><path fill="#08171E" d="M752 606h1c1.331 15.715-5.426 31.14-14 44h-3l1-4h2l.82-2.645c1.126-3.202 2.502-6.03 4.055-9.043 3.425-7.235 4.901-14.582 6.363-22.417C751 608 751 608 752 606"/><path fill="#00080C" d="M633 566h1c-.2 7.846-2.283 13.097-7.71 18.797-3.188 2.923-5.79 5.074-10.29 5.203l-2-1c-3.56.247-3.56.247-7 1l-1 2c-2.605.08-5.207.14-7.812.188l-2.237.076c-5.5.074-5.5.074-7.963-1.776L587 589l3.55.14c12.248.34 21.237-.991 31.45-8.14h3l-4 5c7.364-5.69 9.984-11.005 12-20"/><path fill="#04222D" d="M751 582h1l1 10h2l-1 19c-4.355-4.355-6.07-6.111-6.195-12.11q.02-2.32.07-4.64l.027-2.402c.024-1.95.06-3.899.098-5.848h2z"/><path fill="#19A5AC" d="M353 665c3.297 1.426 3.297 1.426 6.75 3.313 5.6 2.973 11.082 5.195 17.25 6.687-3.694 1.327-6.207.659-9.937-.363l-3.461-.94-3.602-1.01-3.602-.974c-9.602-2.64-9.602-2.64-13.398-4.713 3.454-2.125 5.98-2.331 10-2"/><path fill="#99BEC7" d="M381 692c8.257-.22 16.364.634 24.563 1.5l4.212.434q5.113.527 10.225 1.066v1l-20 1v-1l-8-1v2h-14v-1l3.438-.437c3.37-.175 3.37-.175 4.562-1.563l-5-1z"/><path fill="#1898A0" d="m672 662 2 1-4 4 3 1c-2.906 1.257-4.796 2-8 2v2q-4.121 1.046-8.25 2.063l-2.355.603-2.286.557-2.094.523c-2.266.286-3.852-.065-6.015-.746l2.824-1.066c7.933-3.055 15.295-6.442 22.664-10.711z"/><path fill="#001F2B" d="M274 583h2l-.016 1.697q-.029 3.808-.046 7.615l-.026 2.67-.01 2.569-.016 2.364c.033 2.281.033 2.281 1.114 5.085-.937 2.688-.937 2.688-2 5l-3-2c-.372-1.984-.372-1.984-.363-4.395l.002-2.646.048-2.771-.01-2.737c.038-4.564.148-8.318 2.323-12.451"/><path fill="#1AABB3" d="M729 604c1.622 3.244.434 6.552-.187 10l-.419 2.327c-1.61 8.457-4.267 15.715-9.394 22.673-1-2-1-2-.75-3.937.75-2.063.75-2.063 2.16-3.29 2.234-2.491 2.832-5.018 3.778-8.21l1.042-3.434c.93-3.24.93-3.24.77-7.129l-1.46 2.152-1.915 2.785-1.898 2.778C719 623 719 623 717 624c1.737-3.681 3.856-7.11 6-10.562l1.078-1.749A266 266 0 0 1 729 604"/><path fill="#010F15" d="M492 438q2.719.21 5.438.438l3.058.246C503 439 503 439 504 440c2.617.13 5.195.19 7.813.188l2.312.001c6.43-.059 12.585-.832 18.875-2.189l-1 2c-12.737 4.013-26.364 4.75-39 0z"/><path fill="#061116" d="m296 661 1.434 1.137c9.3 7.553 9.3 7.553 20.566 9.863l-1 3h5v2l1.938.313c4.127.926 8.068 2.304 12.062 3.687-4.468 1.415-7.744.06-12-1.5l-2.287-.826C312.107 675.075 303.37 670.2 296 663z"/><path fill="#000C12" d="M449 584c0 2.313 0 2.313-1 5-3.247 1.969-6.474 3.29-10.262 2.57L436 591l5-2-3.812 1c-5.416 1.225-10.663 1.186-16.188 1v-1l2.527-.297c6.417-.852 11.736-1.998 17.528-4.883 2.693-1.135 5.069-1.115 7.945-.82"/><path fill="#8BABB5" d="m388 694 15 1v1l25 2v1c-12.712.12-25.316-.142-38-1l2-1v-2z"/><path fill="#87A9B3" d="m642 692-1.937.313L638 693l-1 3-6-1v2c-5.527.194-9.756-.252-15-2v-1c17.856-2.296 17.856-2.296 26-2"/><path fill="#010B0E" d="m652 571 1 2c-.777 2.164-.777 2.164-1.937 4.625l-1.153 2.477L649 582l4-1c-3.42 4.164-7.89 6.466-13 8l-3-1 2.012-1.687c5.461-4.72 9.528-8.97 12.988-15.313"/><path fill="#759199" d="M462 699h34v2c-6.048.896-11.89 1.113-18 1v-1l-16-1z"/><path fill="#010709" d="M361 571h2a74 74 0 0 1 3.125 3.75c3.552 4.218 6.824 6.123 11.875 8.25v-3l3.875 3.375 2.18 1.898A91 91 0 0 1 388 589c-9.18-1.351-18.592-6.661-24.863-13.422C362 574 362 574 361 571"/><path fill="#EDE128" d="M547 341c6.459 2.493 9.415 9.76 12.305 15.668 2.177 5.126 3.284 9.782 3.695 15.332h-2l-.445-2.203C558.29 359.65 554.952 350.017 547 343z"/><path fill="#040D12" d="m712 671 2 1c-22.164 11.83-22.164 11.83-29.367 10.594L683 682q2.904-1.007 5.813-2l3.269-1.125C695 678 695 678 698 678v-2l2.047-.586 2.703-.789 2.672-.773c2.572-.77 2.572-.77 4.781-2.016z"/><path fill="#051016" d="M751 573c2.893 2.893 2.75 6.165 3.188 10.063l.287 2.26c.224 1.887.38 3.782.525 5.677l-1 1a123 123 0 0 0-.562 5.563l-.254 3.066L753 603h-1z"/><path fill="#7999A2" d="M387 694c-2.89 2.89-5.612 2.765-9.578 3.11-2.422-.11-2.422-.11-5.047-1.985C371 693 371 693 371 692q2.154-.292 4.313-.562l2.425-.317c3.55-.19 6.184 1.287 9.262 2.879"/><path fill="#74929B" d="M613 694q2.22.173 4.438.375c.823.07 1.647.14 2.496.21L622 695l1 2c-5.849 1.019-11.51 1.118-17.437 1.063l-2.795-.014q-3.384-.018-6.768-.049v-1l17-2z"/><path fill="#77969F" d="m639 691 13 1-3 1v2c-2.525 1.262-4.312 1.099-7.125 1.063l-2.758-.028L637 696z"/><path fill="#F0C224" d="M463 300h2c1.978 4.944 2.344 8.752 2 14l-2 3c-3.625.188-3.625.188-7 0 3.75-3 3.75-3 6-3z"/><path fill="#0E163D" d="m524 326 6 1 3.125.313c3.508.838 4.502 2.018 6.875 4.687 1.965 1.712 3.983 3.35 6 5l-1 2-1.293-1.102C537.677 333.05 531.08 330.044 524 327z"/><path fill="#1DB5BD" d="M295 603a73 73 0 0 1 4.188 7.063l1.105 2.097L301 614l-1 2-2-3v10c-3.86-5.79-3.14-13.238-3-20"/><path fill="#1C2729" d="M481 322v2a197 197 0 0 1-5 3c-1.967 1.803-3.664 3.75-5.437 5.75L468 335c-2.16-.36-2.16-.36-4-1q2.904-2.44 5.813-4.875l1.658-1.395C478.322 322 478.322 322 481 322"/><path fill="#022634" d="M280 547h2c.457 5.717-.477 8.486-4 13-1.562-1.062-1.562-1.062-3-3 .313-3.687.313-3.687 1-7l1 3h2z"/><path fill="#03121A" d="m334 461 3 1a680 680 0 0 1-3.875 4l-2.18 2.25C329 470 329 470 327 470l-.875 1.938C325 474 325 474 323 475c.474-4.317 3.034-6.336 6.063-9.25l2.785-2.703z"/><path fill="#23B8BD" d="M664 671c-2.729 2.729-5.12 2.887-8.875 3.688l-3.742.824c-2.988.43-4.61.526-7.383-.512 13.633-5.925 13.633-5.925 20-4"/><path fill="#002737" d="M290 520h2c-1.645 5.25-3.488 10.091-6 15l-.562 2.25C285 539 285 539 283 541c.389-5.829 2.323-10.3 4.844-15.547 1.238-2.5 1.238-2.5 2.156-5.453"/><path fill="#031118" d="M276 554h1c-.42 5.605-.916 10.72-3 16h-1a535 535 0 0 1-.062-4.25l-.036-2.39c.094-2.267.466-4.189 1.098-6.36h2z"/><path fill="#FBE121" d="M561 372h2q.079 2.625.125 5.25l.07 2.953c-.196 2.817-.75 4.406-2.195 6.797-.756-5.235-1.206-9.773 0-15"/><path fill="#122229" d="m287 649 1.688 2.125A585 585 0 0 0 296 660l-1 2c-6.705-4.779-6.705-4.779-7.937-9.875z"/><path fill="#16A5AE" d="M357 462c0 3 0 3-2.406 5.7a293 293 0 0 1-3.094 2.988l-1.59 1.548A633 633 0 0 1 346 476l-2-1a85 85 0 0 1 13-13"/><path fill="#0C0F32" d="M479 416a109 109 0 0 1 10.063 4.5l2.535 1.281L494 423q2 1.002 4 2c-2.862 1.43-4.934.6-8 0v-2l-2.687-.687c-3.747-1.485-5.65-3.337-8.313-6.313"/><path fill="#17A6B2" d="M323 503c1 2 1 2 .363 4.46l-1.05 2.915-1.012 2.898c-1.382 2.898-2.916 4.608-5.301 6.727.62-4.233 2.105-7.523 4.063-11.312.547-1.07 1.095-2.138 1.66-3.239z"/><path fill="#08171D" d="M580 371c3.67 1.478 5.41 3.476 7.75 6.625l1.86 2.477L591 382l-2 2q-2.258-2.681-4.5-5.375l-2.531-3.023C580 373 580 373 580 371"/><path fill="#182429" d="M537 320c4.754.495 7.552 1.721 11.375 4.563l2.648 1.94L553 328l-3 1c-2.629-1.363-2.629-1.363-5.562-3.312l-2.942-1.926C539 322 539 322 537 320"/><path fill="#79969F" d="m388 694 15 1c-3.162 2.108-4.507 2.338-8.187 2.625l-2.731.227L390 698l2-1v-2z"/><path fill="#23B6BC" d="M360 670c3.911.69 7.555 1.783 11.313 3.063l3.238 1.097L377 675c-4.063 1.631-7.201.3-11.25-.937l-3.828-1.153L359 672z"/><path fill="#1AA3AD" d="M546 597c0 3 0 3-2 5.563-3.732 3.032-6.32 3.565-11 4.437 2.31-2.489 4.78-4.281 7.625-6.125 2.833-1.755 2.833-1.755 5.375-3.875"/><path fill="#01090C" d="M371 530v3l-3 1c-1.01 1.766-1.01 1.766-2 4a373 373 0 0 1-4 6l-2-1c5.966-9.595 5.966-9.595 11-13"/><path fill="#042531" d="m329 469 1 2h-2l-.687 1.813c-2.046 3.408-4.88 4.76-8.625 5.875L317 479c3.613-4.687 3.613-4.687 5-6h3c2.188-1.938 2.188-1.938 4-4"/><path fill="#17282A" d="M452 351h2c-.563 3.941-1.68 6.75-4 10h-2l.563-1.75c.477-2.457.194-3.894-.563-6.25l2 1c1.158-1.053 1.158-1.053 2-3"/><path fill="#1F2929" d="M496 316v2q-2.618 1.048-5.25 2.063l-2.953 1.16c-2.837.788-4.091.801-6.797-.223q2.903-1.259 5.813-2.5l3.269-1.406C493 316 493 316 496 316"/><path fill="#3D4431" d="M513 312c1.698.252 3.385.576 5.063.938l2.785.59L523 314v1c-4.729.994-9.093.966-13.875.563l-2.086-.159q-2.52-.194-5.039-.404v-1l2.152-.184 2.786-.253 2.777-.247c2.247-.076 2.247-.076 3.285-1.316"/><path fill="#0D1B22" d="m735 651 1 3c-4.625 4.875-4.625 4.875-8 6v-4c2.375-1.625 2.375-1.625 5-3z"/><path fill="#1798A0" d="M352 667c6.75.75 6.75.75 9 3-1.75 1.125-1.75 1.125-4 2-2.187-.687-2.187-.687-4-2z"/><path fill="#E5B928" d="m569 312 3 2c-5.364 2.682-9.01 3.315-15 3v-1l5-1v-1c3.313-1.125 3.313-1.125 7-2"/><path fill="#091419" d="M724 661h3c-1.459 3.686-3.302 5.161-6.625 7.25l-2.477 1.578L716 671l-1-2 1.715-1.242 2.222-1.633 2.215-1.617c1.959-1.388 1.959-1.388 2.848-3.508"/><path fill="#02131A" d="M378 688v2q-2.156.079-4.312.125l-2.426.07C369 690 369 690 366 688c4.084-1.532 7.795-.63 12 0"/><path fill="#14A6AF" d="m413 418 2 1c-3.086 3.263-5.935 6.022-10 8l-2-1z"/><path fill="#A1CBD3" d="m642 692-1.937.313L638 693l-1 3-1-2h-9v-1c5.05-1.036 9.874-1.103 15-1"/><path fill="#0F202E" d="M528 423v3c-3.402 2.094-6.053 2.18-10 2 2.66-3.442 5.903-3.995 10-5"/><path fill="#13A2AC" d="M437 398c0 3 0 3-1.75 4.824l-2.25 1.863-2.25 1.887L429 408l-2-1a949 949 0 0 1 3.313-3.375l1.863-1.898C434 400 434 400 437 398"/><path fill="#FCDB31" d="m506 336 2 1-1 3-11-2c4.01-2.005 5.672-2.282 10-2"/><path fill="#033B49" d="M544 656c6.625-.25 6.625-.25 10 2-1 1-1 1-3.285 1.098l-2.778-.035-2.785-.028L543 659z"/><path fill="#021118" d="m748 559 1 3h2v9c-2.495-2.495-2.36-3.673-2.625-7.125l-.227-2.758z"/><path fill="#041E2C" d="M464 335c2.25.25 2.25.25 4 1l-6 5-2-2c1.75-2.062 1.75-2.062 4-4"/><path fill="#698D94" d="M600 699c6.055-.195 6.055-.195 8 0l2 2c-3.694 1.231-6.206.644-10 0z"/><path fill="#040A0E" d="M296 661q1.939 1.434 3.875 2.875l2.18 1.617C304 667 304 667 306 669c-4.398-.507-6.87-3.083-10-6z"/><path fill="#88ABB2" d="m730 659 9 2v1h-11z"/><path fill="#012028" d="m492 438 11 1v1c-5.957 1.074-5.957 1.074-8 1z"/><path fill="#1A7687" d="m632 576 1 2a101 101 0 0 1-3 6h-3z"/><path fill="#020F16" d="M677 453c3.796.542 5.472 2.201 8 5l-1 2a858 858 0 0 1-3.5-2.937l-1.969-1.653L677 454z"/><path fill="#14858E" d="M726 612h1l-1 8-3-2c1.875-4.875 1.875-4.875 3-6"/><path fill="#628E96" d="M571 703h13v1h-13z"/><path fill="#679197" d="M600 702h7l-2 2c-2.625-.375-2.625-.375-5-1z"/><path fill="#71979D" d="M359 698h6l-3 2-3-1z"/><path fill="#868140" d="M503 312h8v1h-8z"/><path fill="#618F96" d="M450 703h6v1h-6z"/><path fill="#878242" d="M526 312h3v2l-4-1z"/><path fill="#649096" d="m427 702 4 1-2 1z"/><path fill="#6A9299" d="M615 701h5v1h-5z"/><path fill="#689399" d="M407 701h5v1h-5z"/><path fill="#699399" d="M400 701h4l-1 2z"/><path fill="#6D9399" d="m634 700 2 1-4 1z"/><path fill="#6E969C" d="M374 699h5v1h-5z"/><path fill="#779BA1" d="M311 693h5v1h-5z"/><path fill="#608E97" d="m565 703 4 1Z"/><path fill="#799CA1" d="M305 692h2v2h-2z"/><path fill="#7E9EA4" d="m748 687 4 1Z"/><path fill="#305862" d="M273 633v3Z"/><path fill="#2A4D4D" d="M582 369h2l-1 3z"/><path fill="#628F97" d="m460 703 3 1Z"/><path fill="#668F96" d="m595 702 3 1Z"/><path fill="#6F959B" d="m646 699 3 1Z"/><path fill="#789B9F" d="m711 693 3 1Z"/><path fill="#799BA0" d="m296 691 3 1Z"/><path fill="#6D8D95" d="m272 659 3 1Z"/><path fill="#113C47" d="M272 554h2l-1 2z"/><path fill="#0D3947" d="m304 490 2 1-2 1z"/><path fill="#19464F" d="m418 392 3 1Z"/><path fill="#36534B" d="m441 360 2 1-2 1z"/><path fill="#817F41" d="M472 323h2l-1 2z"/><path fill="#838043" d="m489 315 2 1-2 1z"/><path fill="#648E95" d="m598 703 2 1Z"/><path fill="#649096" d="m420 702 2 1Z"/><path fill="#679399" d="m413 702 2 1Z"/><path fill="#74989D" d="m668 697 2 1Z"/><path fill="#789DA4" d="m333 695 2 1Z"/><path fill="#769AA1" d="m328 695 2 1Z"/><path fill="#789AA0" d="m704 694 2 1Z"/><path fill="#789CA1" d="m320 694 2 1Z"/><path fill="#7B9CA1" d="m726 691 2 1Z"/><path fill="#7B9CA4" d="m272 687 2 1Z"/><path fill="#7B9BA1" d="m267 686 2 1Z"/><path fill="#739399" d="m765 664 2 1Z"/><path fill="#668A91" d="m739 658 2 1Z"/><path fill="#5F858E" d="m287 657 2 1Z"/><path fill="#355D68" d="m274 638 2 1Z"/><path fill="#0E3944" d="m731 512 2 1Z"/><path fill="#0D3D49" d="m710 481 2 1Z"/><path fill="#0E3A47" d="m313 480 2 1Z"/><path fill="#0E3F4C" d="m685 456 2 1Z"/><path fill="#0B3E4A" d="m675 448 2 1Z"/><path fill="#10434D" d="m346 448 2 1Z"/><path fill="#12424C" d="m366 432 2 1Z"/><path fill="#848143" d="m476 321 2 1Z"/><path fill="#AB993D" d="m461 319 2 1Z"/><path fill="#AF9E40" d="m564 318 2 1Z"/><path fill="#858142" d="m529 314 2 1Z"/><path fill="#878646" d="m497 313 2 1Z"/><path fill="#887F41" d="m522 312 2 1Z"/><path fill="#817C3E" d="m518 312 2 1Z"/></svg>