<svg xmlns="http://www.w3.org/2000/svg" width="1024" height="1024"><path fill="#01858E" d="m522 218 2.547.559c22.332 5.318 36.356 20.187 49.176 38.285C575 259 575 259 575.496 261.219L576 263l3 1 .277 2.973c.645 4.511 2.386 8.354 4.285 12.464l.999 2.217A806 806 0 0 0 587 287h2l.258 2.508c.903 4.25 2.559 7.57 4.617 11.367l1.206 2.241c13.247 24.098 32.572 45.974 54.267 62.802 4.027 3.162 7.86 6.548 11.708 9.924 3.488 3.025 7.077 5.619 10.944 8.158a141 141 0 0 1 5 5c1.766 2.156 1.766 2.156 3.938 2.313 3.015 1.005 3.434 2.955 5.062 5.687 2.565 2.772 5.282 5.38 8 8l5 5 1.766 1.695c8.131 7.908 14.973 16.742 21.507 25.993 1.615 2.287 1.615 2.287 3.391 3.937C727 443 727 443 728 446a405 405 0 0 0 3.186 5.34c13.89 22.83 22.22 46.366 27.353 72.541.459 2.291.459 2.291 1.461 5.119.235 2.588.423 5.156.563 7.75l.124 2.31c2.384 47.528 2.384 47.528-5.687 62.94a341 341 0 0 0-2.25 7.313C744.919 634.853 731.668 656.9 713 676l-2.57 2.758c-7.538 7.897-16.582 16.318-26.43 21.242l2.288.487q5.233 1.124 10.462 2.263l3.598.766c25.809 5.641 25.809 5.641 32.652 12.484.438 2.375.438 2.375 0 5-16.9 18.59-63.868 18.18-87 21l2 2c-14 0-14 0-16.54-.03-7.358-.054-14.57.276-21.898.905-94.865 7.279-200.203 9.801-296.437-13.937l-2.772-.707c-6.87-1.863-15.014-4.194-19.353-10.231-.062-2-.062-2 1-4 6.891-6.22 15.914-8.968 25-10l1-2c1.794-.241 3.59-.471 5.39-.648 5.278-.711 10.44-2.099 15.61-3.352l-2.055-1.434c-5.878-4.176-11.347-8.557-16.64-13.453-2.095-1.92-4.24-3.742-6.43-5.55L311 677v-2l-3-1c-5.745-6.044-10.524-12.97-15.08-19.935-.926-1.388-1.917-2.732-2.92-4.065h-2l-.77-2.55c-1.332-3.737-3.072-7.14-4.918-10.638C275.356 623.23 267 605.508 267 590l-2-1c-.379-2.605-.379-2.605-.562-6.187l-.105-2.01q-.113-2.211-.215-4.424a469 469 0 0 0-.434-7.32c-.892-14.733-.429-29.326.316-44.059h1l.364-1.826C271.158 494.455 280.626 466.988 298 443l1.402-1.937A569 569 0 0 1 310 427l2.238-2.895C318.988 415.626 326.5 407.813 334 400l1.494-1.587c1.13-1.176 2.313-2.301 3.506-3.413h2v-2c1.573-1.414 3.211-2.756 4.875-4.062 4.784-3.824 9.366-7.795 13.887-11.926a131 131 0 0 1 5.863-4.95L368 370v-2l1.802-.332c2.451-.745 3.536-1.6 5.37-3.363l1.75-1.658 1.828-1.772q1.897-1.806 3.797-3.61l1.826-1.74c1.82-1.705 3.704-3.312 5.627-4.9 12.886-11.237 31.658-29.244 35-46.625l2 1c2.145-5.279 4.198-10.594 6-16l1.402-1.84c1.826-2.468 2.932-4.91 4.16-7.723C444.442 266.515 450.397 253.604 460 243l1.91-2.23A307 307 0 0 1 467 235l2-2.25c2.763-2.417 5.777-4.044 9-5.75l2.898-1.703c8.6-4.771 16.507-6.59 26.243-7.79 6.096-.801 8.691-1.049 14.859.493"/><path fill="#003240" d="m522 218 2.547.559c22.332 5.318 36.356 20.187 49.176 38.285C575 259 575 259 575.496 261.219L576 263l3 1 .277 2.973c.645 4.511 2.386 8.354 4.285 12.464l.999 2.217A806 806 0 0 0 587 287h2l.258 2.508c.903 4.25 2.559 7.57 4.617 11.367l1.206 2.241c13.247 24.098 32.572 45.974 54.267 62.802 4.027 3.162 7.86 6.548 11.708 9.924 3.488 3.025 7.077 5.619 10.944 8.158a141 141 0 0 1 5 5c1.766 2.156 1.766 2.156 3.938 2.313 3.015 1.005 3.434 2.955 5.062 5.687 2.565 2.772 5.282 5.38 8 8l5 5 1.766 1.695c8.131 7.908 14.973 16.742 21.507 25.993 1.615 2.287 1.615 2.287 3.391 3.937C727 443 727 443 728 446a405 405 0 0 0 3.186 5.34c13.89 22.83 22.22 46.366 27.353 72.541.459 2.291.459 2.291 1.461 5.119.235 2.588.423 5.156.563 7.75l.124 2.31c2.384 47.528 2.384 47.528-5.687 62.94a341 341 0 0 0-2.25 7.313C744.919 634.853 731.668 656.9 713 676l-2.57 2.758c-7.538 7.897-16.582 16.318-26.43 21.242l2.288.487q5.233 1.124 10.462 2.263l3.598.766c25.809 5.641 25.809 5.641 32.652 12.484.438 2.375.438 2.375 0 5-16.9 18.59-63.868 18.18-87 21l2 2c-14 0-14 0-16.54-.03-7.358-.054-14.57.276-21.898.905-94.865 7.279-200.203 9.801-296.437-13.937l-2.772-.707c-6.87-1.863-15.014-4.194-19.353-10.231-.062-2-.062-2 1-4 6.891-6.22 15.914-8.968 25-10l1-2c1.794-.241 3.59-.471 5.39-.648 5.278-.711 10.44-2.099 15.61-3.352l-2.055-1.434c-5.878-4.176-11.347-8.557-16.64-13.453-2.095-1.92-4.24-3.742-6.43-5.55L311 677v-2l-3-1c-5.745-6.044-10.524-12.97-15.08-19.935-.926-1.388-1.917-2.732-2.92-4.065h-2l-.77-2.55c-1.332-3.737-3.072-7.14-4.918-10.638C275.356 623.23 267 605.508 267 590l-2-1c-.379-2.605-.379-2.605-.562-6.187l-.105-2.01q-.113-2.211-.215-4.424a469 469 0 0 0-.434-7.32c-.892-14.733-.429-29.326.316-44.059h1l.364-1.826C271.158 494.455 280.626 466.988 298 443l1.402-1.937A569 569 0 0 1 310 427l2.238-2.895C318.988 415.626 326.5 407.813 334 400l1.494-1.587c1.13-1.176 2.313-2.301 3.506-3.413h2v-2c1.573-1.414 3.211-2.756 4.875-4.062 4.784-3.824 9.366-7.795 13.887-11.926a131 131 0 0 1 5.863-4.95L368 370v-2l1.802-.332c2.451-.745 3.536-1.6 5.37-3.363l1.75-1.658 1.828-1.772q1.897-1.806 3.797-3.61l1.826-1.74c1.82-1.705 3.704-3.312 5.627-4.9 12.886-11.237 31.658-29.244 35-46.625l2 1c2.145-5.279 4.198-10.594 6-16l1.402-1.84c1.826-2.468 2.932-4.91 4.16-7.723C444.442 266.515 450.397 253.604 460 243l1.91-2.23A307 307 0 0 1 467 235l2-2.25c2.763-2.417 5.777-4.044 9-5.75l2.898-1.703c8.6-4.771 16.507-6.59 26.243-7.79 6.096-.801 8.691-1.049 14.859.493m51 73-.48 2.64c-3.39 17.303-10.623 34.574-25.239 45.368-15.665 9.727-32.114 12.525-50.191 9.293A66.4 66.4 0 0 1 488 345c-.926-.4-1.851-.802-2.805-1.215-14.542-7.106-24.81-19.164-30.238-34.281A412 412 0 0 1 450 294c-1.649 2.473-2.607 4.342-3.629 7.07-5.684 14.866-11.69 29.88-22.371 41.93l-2.047 2.371c-8.033 9.13-16.491 17.665-26.004 25.25-3.378 2.725-6.665 5.542-9.949 8.379-4.136 3.57-8.303 7.078-12.562 10.5-5.924 4.812-11.512 9.957-17.056 15.197a342 342 0 0 1-3.374 3.131C346.952 413.565 342.015 420.363 337 427l-1.327 1.749C319.833 449.784 306.797 475.154 306 502l-.062 1.992c-.842 31.234 8.317 57.558 29.746 80.617 28.459 29.371 69.857 44.363 109.191 52.141l2.815.565c21.124 3.927 42.234 5.21 63.685 5.06l3.646-.015c17.472-.085 34.73-.311 51.979-3.36l3.84-.668C605.832 632.101 641.159 621.42 670 600l2.598-1.871c11.125-8.412 22.328-19.04 29.402-31.129l2.012-3.418c15.1-26.52 17.502-56.276 9.988-85.582-10.35-35.74-36.406-67.274-65.363-89.934-3.117-2.442-6.126-4.996-9.137-7.566a550 550 0 0 0-12-9.937C613.028 358.749 600.546 346.166 591 330l-1.06-1.785c-5.644-9.66-9.579-19.714-13.248-30.263A145 145 0 0 0 574 291z"/><path fill="#FEB800" d="M542.585 237.173C553.349 245.785 559.877 255.876 564 269l1 3c1.447 17.153-1.377 33.14-12.625 46.75-9.591 10.047-22.362 16.481-36.285 17.453-15.731.234-30.285-4.55-42.09-15.203-11.023-11.68-16.79-26.553-16.348-42.64 1.669-16.122 9.343-30.148 21.832-40.4 19.155-13.978 43.551-15.26 63.101-.787"/><path fill="#B2BDBF" d="M351 706c35.479 19.363 74.977 26.67 115 29l3.838.263c12.121.8 24.219.89 36.363.867 3.332-.005 6.664 0 9.996.007 20.943.008 41.857-.434 62.678-2.824l2.282-.257A300 300 0 0 0 624 725l2.761-.727c19.455-5.236 37.15-12.608 54.239-23.273 2.904-1.452 4.744-.597 7.898.074l3.645.776 3.832.837 3.715.78c25.984 5.607 25.984 5.607 32.91 12.533.438 2.375.438 2.375 0 5-16.9 18.59-63.868 18.18-87 21l2 2c-14 0-14 0-16.54-.03-7.358-.054-14.57.276-21.898.905-94.865 7.279-200.203 9.801-296.437-13.937l-2.772-.707c-6.87-1.863-15.014-4.194-19.353-10.231-.062-2-.062-2 1-4 6.891-6.22 15.914-8.968 25-10l1-2c1.784-.245 3.573-.47 5.367-.625 2.766-.332 2.766-.332 5.89-1.312 9.652-2.715 13.598-1.446 21.743 3.937"/><path fill="#011926" d="M441 460c12.094 7.953 21.021 18.905 25.375 32.813 2.714 13.46.73 27.45-6.781 38.937L458 534l-1.406 2c-3.74 4.82-8.122 7.429-13.594 10l-1.863.973c-8.56 3.94-20.387 3.223-29.137.027-12.809-5.42-20.947-14.251-26.66-26.672-4.843-12.03-4.562-24.978.41-37.015 3.897-8.038 10.1-16.238 18.25-20.313-9.013-.636-15.395-.034-23 5-.636.4-1.271.8-1.926 1.21-7.403 5.418-12.394 15.546-13.863 24.493-1.376 14.981 1.551 28.1 10.969 40.067 3.893 4.476 7.64 8.308 12.82 11.23-4.845 1.615-8.573-.816-13-3-2.887-1.776-5.44-3.781-8-6l-2.062-1.742c-9.83-8.973-14.025-21.3-15.22-34.324-.423-13.55 3.72-25.95 12.594-36.184 21.744-22.892 52.384-18.256 77.688-3.75"/><path fill="#001925" d="M655 459c9.299 7.31 15.215 18.967 17.75 30.375 1.167 16.925-1.864 30.36-12.625 43.813-5.76 6.154-13.3 9.884-21.125 12.812l-3-1 1.941-1.18c9.169-5.93 14.89-13.785 19.059-23.82l.906-2.156c3.815-10.596 3.565-23.507-.906-33.844l-.996-2.324c-3.97-8.093-10.091-13.838-18.504-17.113-4.833-1.548-9.445-2.232-14.5-2.563l2.063 2q1.472 1.495 2.937 3l1.68 1.691c9.278 9.876 13.842 21.595 13.57 35.024-1.161 15.258-6.311 25.735-17.25 36.285-8.994 7.572-20.97 9.76-32.426 9.371-11.535-1.198-19.1-6.744-26.39-15.57-7.129-9.952-10.123-21.668-9.184-33.801 2.491-15.046 10.096-25.915 22.125-35.187C602.003 449.792 631.718 443.155 655 459"/><path fill="#021D27" d="m517.625 216.938 2.477.59L522 218c-2.904 2.904-5.98 2.335-9.875 2.438-16.24.731-29.8 5.746-42.125 16.562l-1.98 1.695c-11.14 10.273-18.263 24.162-23.088 38.313a166 166 0 0 1-10.818 24.905 462 462 0 0 0-2.27 4.311c-7.325 14.07-16.06 25.893-26.801 37.546-1.883 2.056-3.684 4.16-5.48 6.293-7.909 9.053-17.673 16.903-27.358 23.979-9.174 6.735-17.159 14.452-25.163 22.525a1204 1204 0 0 1-6.712 6.693c-9.09 9.077-17.55 18.22-24.467 29.103L314 435h-2l-1-3c-6.22 6.119-10.509 12.13-14.348 19.908-2.396 4.837-2.396 4.837-4.137 6.567-1.619 1.63-2.476 3.088-3.488 5.142l-1.037 2.09c-.52 1.073-.52 1.073-1.053 2.168l-1.064 2.145c-3.515 7.02-3.515 7.02-5.31 14.605-.563 3.375-.563 3.375-1.97 4.66-2.363 2.543-2.792 5.188-3.656 8.527-.17.66-.34 1.319-.517 1.998-1.403 5.637-2.262 11.298-2.928 17.069-.507 3.219-1.436 6.044-2.492 9.121-7.026 30.75-1.55 67.87 10.645 96.578C281 626 281 626 281 629h2l.55 1.715.762 2.222.739 2.215c.861 2.207.861 2.207 3.949 2.848l-3-9c2.957 2.957 4.307 5.252 6.188 8.938C297.735 648.427 304.396 657.897 312 667l1.672 2.082c7.616 9.194 17.597 16.126 27.328 22.918l2.328 1.668c20.492 13.915 44.147 21.503 68.103 26.766q2.452.54 4.9 1.105c11.475 2.65 23.048 4.254 34.731 5.649l2.117.256c20.158 2.419 40.284 2.79 60.571 2.806l3.66.006c17.764.007 35.214-.54 52.835-2.9 2.637-.34 5.271-.59 7.92-.829 3.846-.135 3.846-.135 5.835-2.527 2.258-.562 2.258-.562 5.125-1l3.309-.516q3.512-.478 7.039-.843C638.889 717.496 674.855 702.01 704 675v3l-1 1c4.46-.416 6.93-3.516 9.875-6.562l1.615-1.65c6.17-6.384 10.765-12.721 14.51-20.788h2l.813-1.625L733 646l1.375-2.77a322 322 0 0 1 3.168-6.14c18.235-34.954 26.55-80.61 16.387-119.445C753 514 753 514 753 510l-2-1c-.64-2.5-1.183-4.971-1.687-7.5-1.582-7.401-3.967-14.139-7.027-21.053C740 475.257 740 475.257 740 472h-2l-.77-2.012c-2.542-6.791-2.542-6.791-6.23-12.988l-3-1c-1.187-3.562-1.187-3.562-2-7l-4-1 1.434 2.402c4.703 8.185 8.282 16.601 11.504 25.473l1.179 3.203c1.672 4.724 3.054 9.113 3.512 14.117L740 497l2 1c1.501 8.966 1.183 18.37 1.188 27.438l.037 3.658c.05 31.506-12.879 56.786-33.78 79.576-2.134 2.032-3.738 3.245-6.445 4.328l2.5-2.937 1.672-1.965a142 142 0 0 1 3.656-4.04c21.911-23.47 31.005-52.92 30.27-84.626-.25-6.213-1.092-12.298-2.098-18.432l-.52-3.332C733.866 472.574 721.73 447.95 706 428l-2.234-2.867c-10.467-13.103-21.995-25.47-35.09-35.957-2.401-1.953-4.701-3.967-6.989-6.051-3.078-2.778-6.252-5.366-9.541-7.89-8.557-6.57-16.394-13.74-24.146-21.235l-1.944-1.861c-21-20.166-34.736-42.674-45.556-69.639-9.415-23.4-18.416-41.45-40.61-54.766A147 147 0 0 1 534 224c-2.334-.59-4.67-1.008-7.04-1.437L525 222l-1-2c5.943-.423 9.624.748 14.75 3.438l2.118 1.094C555.329 232.263 566.677 244.95 575 259l.496 2.219L576 263l3 1 .277 2.973c.645 4.511 2.386 8.354 4.285 12.464l.999 2.217A806 806 0 0 0 587 287h2l.258 2.508c.903 4.25 2.559 7.57 4.617 11.367l1.206 2.241c13.247 24.098 32.572 45.974 54.267 62.802 4.027 3.162 7.86 6.548 11.708 9.924 3.488 3.025 7.077 5.619 10.944 8.158a141 141 0 0 1 5 5c1.766 2.156 1.766 2.156 3.938 2.313 3.015 1.005 3.434 2.955 5.062 5.687 2.565 2.772 5.282 5.38 8 8l5 5 1.766 1.695c8.131 7.908 14.973 16.742 21.507 25.993 1.615 2.287 1.615 2.287 3.391 3.937C727 443 727 443 728 446a405 405 0 0 0 3.186 5.34c13.89 22.83 22.22 46.366 27.353 72.541.459 2.291.459 2.291 1.461 5.119.235 2.588.423 5.156.563 7.75l.124 2.31c2.384 47.528 2.384 47.528-5.687 62.94a341 341 0 0 0-2.25 7.313C744.919 634.853 731.668 656.9 713 676l-2.57 2.758C691.575 698.513 666.804 712.572 641 721l-2.465.826c-19.418 6.441-39.184 10.118-59.472 12.424l-2.163.252c-22.017 2.52-44.2 2.708-66.337 2.686l-3.405-.002C441.93 737.09 370.47 731.103 320 685l-2.785-2.39c-4.65-3.996-4.65-3.996-6.215-5.61v-2l-3-1c-5.745-6.044-10.524-12.97-15.08-19.935-.926-1.388-1.917-2.732-2.92-4.065h-2l-.77-2.55c-1.332-3.737-3.072-7.14-4.918-10.638C275.356 623.23 267 605.508 267 590l-2-1c-.379-2.605-.379-2.605-.562-6.187l-.105-2.01q-.113-2.211-.215-4.424a469 469 0 0 0-.434-7.32c-.892-14.733-.429-29.326.316-44.059h1l.364-1.826C271.158 494.455 280.626 466.988 298 443l1.402-1.937A569 569 0 0 1 310 427l2.238-2.895C318.988 415.626 326.5 407.813 334 400l1.494-1.587c1.13-1.176 2.313-2.301 3.506-3.413h2v-2c1.573-1.414 3.211-2.756 4.875-4.062 4.784-3.824 9.366-7.795 13.887-11.926a131 131 0 0 1 5.863-4.95L368 370v-2l1.802-.332c2.451-.745 3.536-1.6 5.37-3.363l1.75-1.658 1.828-1.772q1.897-1.806 3.797-3.61l1.826-1.74c1.82-1.705 3.704-3.312 5.627-4.9 12.886-11.237 31.658-29.244 35-46.625l2 1c2.145-5.279 4.198-10.594 6-16l1.402-1.84c1.826-2.468 2.932-4.91 4.16-7.723C444.442 266.515 450.397 253.604 460 243l1.91-2.23A307 307 0 0 1 467 235l2-2.25c2.763-2.417 5.777-4.044 9-5.75l2.898-1.703c8.6-4.771 16.507-6.59 26.243-7.79 8.323-1.094 8.323-1.094 10.484-.57M707 672v3l-2-1z"/><path fill="#FDF52A" d="M541 236c8.405 6.222 17.527 14.754 19.676 25.324L561 264c-2-3-2-3-2-5h-2l-1 6c-2.962-2.555-4.373-5.441-6.062-8.937l-1.536-3.153L547 250a920 920 0 0 0-2-4h-3a117 117 0 0 1-4-5l-2-1 1.61 1.977a501 501 0 0 1 4.343 5.453 107 107 0 0 0 4.547 5.32c2.902 6.287 2.567 13.505.688 20.102C542.33 283.746 532.645 289.548 522 294c-10.346 2.997-23.073 2.192-32.625-2.598C481.581 286.8 475.887 279.662 473 271c-.532-4.583-.674-8.582 1.875-12.562L477 256h2l.25-2.625c.864-3.886 2.41-6.184 4.75-9.375l2-3c-6.98 2.213-9.507 7.912-13 14l-1-3c-5.745 3.764-7.35 8.517-9 15l-.625 2.25c-.48 1.94-.48 1.94-.375 4.75l-3 1c.963-13.005 7.447-25.487 17-34.379 7.305-5.92 15.014-9.912 24-12.621l1.906-.586c13.777-2.725 27.44 1.27 39.094 8.586"/><path fill="#08121C" d="M486 531c2.997.948 5.943 2.002 8.902 3.063 13.693 4.143 30.034 3.096 43.036-2.75 3.025-1.297 4.823-1.776 8.062-1.313 2.506 2.506 2.308 4.132 2.38 7.56-.029 11.738-1.453 22.288-9.403 31.506-7.618 7.452-16.315 10.947-26.914 11.371-10.33-.343-17.533-3.922-24.903-11.082-7.724-8.423-10.387-17.522-10.535-28.793l-.042-2.117c.026-2.83.16-4.99 1.565-7.48 2.867-1.494 4.777-.75 7.852.035"/><path fill="#FDEB4C" d="m684 235 1 2 3 1 2 10 3 1a125 125 0 0 1 2 5l2 1v2a72 72 0 0 0 4.063 1.875C703 260 703 260 704 263h7c1.316 3.62 2 6.096 2 10-2.187 1.5-2.187 1.5-5 3l-2.375 2c-2.625 2-2.625 2-6.312 3.5-3.344 1.185-3.344 1.185-4.813 3.563-.742 2-.742 2 .5 3.937h-2v2h-2l-.078 1.828c-.47 6.61-.47 6.61-2.985 9.735L686 304l-6-2-2-10h-2l-1.312-3.375c-1.387-3.8-1.387-3.8-4.688-5.625v-3h-6l-1-4-3 1c-2.187-.437-2.187-.437-4-1q-.29-2.437-.562-4.875l-.317-2.742C655 266 655 266 656 264h4l1-2c2.322-.407 4.657-.744 7-1l.75-2.937L670 255c2.125-.875 2.125-.875 4-1l-2-1h2v-4l2-2c1.288-2.24 2.482-4.521 3.684-6.809 1.252-2.084 2.523-3.566 4.316-5.191"/><path fill="#FBD404" d="M470 252h2c.613 1.8.613 1.8 1 4l-1.812 3.188c-5.657 10.374-5.299 26.17-2.106 37.097 2.056 6.08 4.84 10.763 8.918 15.715v2l2.188.25c2.812.75 2.812.75 5.132 2.625 8.921 7.074 19.173 7.611 30.118 7.688l3.41.043c6.641-.08 10.748-.696 16.152-4.606l2.406-1.64c10.357-7.961 17.314-16.657 20.094-29.548l.55-2.532c1.198-6.406.503-10.733-2.152-16.745-1.435-4.051-.405-6.616 1.102-10.535 2 0 2 0 3.52 1.25 6.624 7.83 5.203 21.172 4.48 30.75-1.945 13.482-9.153 25.765-19.758 34.191-12.698 9.002-26.828 12.557-42.265 10.383C487.493 332.191 475 324.02 466 311c-5.944-10.478-10.213-23.89-8-36 2.027-1.871 2.027-1.871 4-3l-1-3 2-3 .875-3.312c1.257-4.122 3.044-7.607 6.125-10.688"/><path fill="#FDE849" d="m352 257 1 8h2v3l2 1c1.748 2.658 2.991 4.974 4 8 2.551 1.843 4.524 2.91 7.625 3.5 2.745.578 3.528 1.477 5.375 3.5h2c1.188 2.625 1.188 2.625 2 6-1.375 3.375-1.375 3.375-3 6l-2.312-.125c-2.915-.096-2.915-.096-5.688 2.125l-3.062.313L361 299c-1.276 2.314-1.276 2.314-2 5l-1.562 1.938c-1.838 2.635-1.978 4.91-2.438 8.062-1.112 2.595-2.42 4.631-4 7l-7-1c-2.24-4.799-3.056-9.829-4-15h-2v-3h-3l-1-2a78 78 0 0 0-5-2v-2h-6v-2h-2l-1 2c-1.286-7.429-1.286-7.429 0-11h4v-2h3v-2l2.688-.187c5.165-1.267 7.445-4.512 10.312-8.813 1.06-2.867 1.928-5.621 2.5-8.625.513-2.435 1.21-4.251 2.5-6.375 2.667-1.333 4.167-.671 7 0"/><path fill="#025265" d="M623 462c9.806-.643 17.559 1.608 25.25 7.875 8.812 8.46 12.812 19.449 13.125 31.5.068 14.293-5.399 25.984-15 36.5-2.39 2.139-4.858 4.138-7.375 6.125l-1.227 1.512c-7.386 6.199-22.711 4.835-31.773 4.488l-1-2 2.492-.629c12.42-3.428 22.455-9.541 28.977-20.937 6.42-13.12 7.58-27.413 2.855-41.258-3.388-8.125-7.861-14.435-14.82-19.836L623 464z"/><path fill="#04586B" d="M405 462a92 92 0 0 1-7.875 7.188c-8.4 7.335-12.972 16.73-13.996 27.796L383 499l-.16 2.078c-.367 8.86 2.077 17.127 6.16 24.922l.375 3.125c.837 3.852 2.452 4.64 5.625 6.875l5 5 2 1v3l3-1c2.191.707 2.191.707 4.563 1.813l2.378 1.082C414 548 414 548 416 550q-5.344-.463-10.687-.937l-3.053-.264-2.96-.264-2.713-.238c-2.57-.295-5.059-.753-7.587-1.297v-2l-2.23-.766c-9.735-4.338-15.43-14.971-19.77-24.234-4.735-12.791-4.105-25.396 1.219-37.852 4.374-8.82 10.918-15.788 20.164-19.539 5.454-1.27 11.06-.894 16.617-.609"/><path fill="#FED106" d="m584.125 182.938 2.195.59L588 184l1-2v2l2.297-.234c2.703.234 2.703.234 4.469 1.843l1.484 2.141 1.516 2.11c1.82 3.156 2.234 5.51 2.234 9.14l.125 2.438c-.264 5.403-3.298 7.984-7.125 11.562l-1.79 1.7C580.995 225 580.995 225 574 225l2 1v2l-3.75-.062c-2.938-.006-5.42.224-8.25 1.062h-3l-1 2v-2l-2.875-.25c-3.125-.75-3.125-.75-4.5-2.687-.802-2.646-.614-4.694-.562-7.5.116-3.527.116-3.527-1.063-6.563 1.783-3.032 2.596-3.865 6-5v-3a181 181 0 0 1 4-4v-5l2.375-.812c2.906-1.036 2.906-1.036 4.625-4.188.167-2.625.167-2.625 0-5l3-1v3l3.375-1.937c5.657-3.248 5.657-3.248 9.75-2.125M553 216l2 2v-2z"/><path fill="#FED205" d="m440.313 181.813 2.925-.043c3.953.33 5.982 1.45 8.762 4.23l3 2v4c1.433 1.27 2.876 2.534 4.398 3.695 2.237 1.823 3.888 3.998 5.602 6.305h-2l3 6h4v2h-2c1.302 4.08 1.302 4.08 3 8a101 101 0 0 1-3 6l2 2c-3.29 2.194-5.093 2.694-9 3-2.75-.75-2.75-.75-6-2a370 370 0 0 0-4.937-1.5l-2.59-.781c-1.527-.444-3.06-.865-4.602-1.25-4.672-1.17-4.672-1.17-6.871-4.469l-3-2c-1.562-1.656-2.99-3.39-4.437-5.148-1.501-1.837-1.501-1.837-3.063-3.329-2.79-2.836-3.837-4.953-3.937-8.835.262-4.677 1.24-9.17 2.437-13.688l2.152-.621 2.786-.816 2.777-.81c5.829-1.922 5.829-1.922 8.598-1.94M467 214l1 2Zm1 3 1 3Z"/><path fill="#FED206" d="M517 148v2h2l2 2c2.57.648 2.57.648 5 1l-.125 2.813c-.146 3.345-.146 3.345 2.125 6.187.195 1.938.195 1.938.125 4l-.055 2.063L528 170v10h-2l.625 1.875L527 184l-2 2a126 126 0 0 0-2.5 5.75l-1.281 3.11a122 122 0 0 0-2.274 6.382C518 204 516.871 205.79 515 208c-2.687 0-2.687 0-6-1-2.42-2.845-5-6.165-5-10h-3l-.375-2.75c-.778-4.043-1.722-6.347-4.625-9.25-1.79-5.947-2.229-11.828-2-18h2l-.562-2.812C495 161 495 161 496 158v-2.625c0-2.375 0-2.375 1-3.375q3.5-.061 7 0l1-3c4.62-3.116 6.945-3.287 12-1m-20 11 1 3Zm28 3 1 2Zm1 3 1 2Zm0 10 1 4Z"/><path fill="#04212B" d="m517.625 216.938 2.477.59L522 218c-2.904 2.904-5.98 2.335-9.875 2.438-16.24.731-29.8 5.746-42.125 16.562l-1.98 1.695c-11.14 10.273-18.263 24.162-23.088 38.313a166 166 0 0 1-10.818 24.905 462 462 0 0 0-2.27 4.311c-7.325 14.07-16.06 25.893-26.801 37.546-1.883 2.056-3.684 4.16-5.48 6.293-7.909 9.053-17.673 16.903-27.358 23.979-9.174 6.735-17.159 14.452-25.163 22.525a1204 1204 0 0 1-6.712 6.693c-9.09 9.077-17.55 18.22-24.467 29.103L314 435h-2c-.312-3.187-.312-3.187 0-7 2.375-2.687 2.375-2.687 5-5 1.295-2.166 1.295-2.166 2-4l-2-1 1.285-1.25c3.18-3.13 6.244-6.303 9.152-9.687 3.636-4.203 7.353-8.424 11.563-12.063h2v-2c1.573-1.414 3.211-2.756 4.875-4.062 4.784-3.824 9.366-7.795 13.887-11.926a131 131 0 0 1 5.863-4.95L368 370v-2l1.802-.332c2.451-.745 3.536-1.6 5.37-3.363l1.75-1.658 1.828-1.772q1.897-1.806 3.797-3.61l1.826-1.74c1.82-1.705 3.704-3.312 5.627-4.9 12.886-11.237 31.658-29.244 35-46.625l2 1c2.145-5.279 4.198-10.594 6-16l1.402-1.84c1.826-2.468 2.932-4.91 4.16-7.723C444.442 266.515 450.397 253.604 460 243l1.91-2.23A307 307 0 0 1 467 235l2-2.25c2.763-2.417 5.777-4.044 9-5.75l2.898-1.703c8.6-4.771 16.507-6.59 26.243-7.79 8.323-1.094 8.323-1.094 10.484-.57"/><path fill="#208B95" d="M287 584c2.679 2.679 3.951 5.873 5.563 9.25 3.916 8 8.406 15.408 13.437 22.75l1.163 1.709C327.161 646.915 350.337 670.252 381 688c-4.282 2.14-10.154-.623-14.528-2.067-13.987-5.28-27.236-13.1-38.472-22.933l-1.547-1.323A131 131 0 0 1 307 641l-1.828-2.352C293.728 623.236 285.25 603.488 287 584"/><path fill="#1C9DA3" d="M449 294c1.687 2.53 2.452 4.067 3.297 6.879 5.437 17.53 13.348 31.524 29.703 41.121 13.91 7.304 29.866 9.791 45.348 6.125C544.16 342.84 555.426 334.241 564 319c3.104-6.166 5.672-12.506 8-19 2.864 8.252-1.875 18.635-5.5 26.125-7.92 15.546-21.224 26.774-37.5 32.875-15.608 4.462-32.68 2.436-47-5-12.775-7.553-21.158-18.52-27-32l-1.215-2.625c-2.279-5.19-3.282-9.771-3.512-15.441L450 302l-2-1z"/><path fill="#D55A5C" d="m511.875 545.563 2.388.02c6.207.171 11.35 1.178 16.737 4.417l1.895 1.133c3.003 2.124 4.087 3.812 5.23 7.304-.161 4.592-1.062 6.136-4.125 9.563-8.523 6.764-16.132 9.072-27 8-8.216-1.89-15.655-6.903-20.312-14-.865-2.515-.735-3.563.312-6 1.566-1.816 1.566-1.816 3.563-3.562.64-.58 1.28-1.158 1.94-1.754 6.1-4.114 12.113-5.219 19.372-5.121"/><path fill="#9BE2D9" d="M409.938 389.313c2.365 1.935 3.875 3.585 4.398 6.667.143 8.103-2.44 13.238-7.899 19.145-8.003 7.613-16.848 11.379-27.796 11.203C376 426 376 426 372.812 424.125c-2.604-4.49-2.869-8.061-1.812-13.125 4.724-10.23 13.821-17.792 23.938-22.312 5.244-1.178 10.023-1.6 15 .625"/><path fill="#0C4647" d="m527 219-2 2 3.688.5c12.786 2.84 25.374 13.303 33.312 23.5l1.418 1.656C573.723 259.254 579.054 276.076 585 291c2.895 7.261 5.99 14.073 9.96 20.82L596 314l-1 2c-5.325-9.143-10.137-18.132-14-28q-1.146-2.783-2.3-5.562l-2.513-6.063-1.242-2.987-1.152-2.802-1.046-2.53C572 266 572 266 572 264l-3 1c-.806 2.106-.806 2.106-1.187 4.563l-.481 2.503L567 274l-.875-1.937c-.953-2.215-.953-2.215-3.125-3.063a76 76 0 0 1-1.687-4.875c-5.342-15.234-15.257-24.71-29.258-32.16-12.045-5.574-25.608-5.484-38.016-1.242-3.853 1.62-7.3 3.625-10.812 5.879-2.994 1.88-5.895 3.218-9.227 4.398l-2-1v-2c-6.831 5.336-11.726 11.47-16 19l-1.562 2.5c-1.5 2.457-1.5 2.457-2.438 5.125-1.018 2.417-2.035 3.678-4 5.375 1.27-10.863 8.975-20 16-28 .677-.772 1.354-1.544 2.05-2.34 14.383-15.381 31.724-19.737 51.94-20.598 3.005-.092 6.004-.086 9.01-.062"/><path fill="#238B95" d="M733 591c1.606 3.999.327 7.346-.937 11.25l-.683 2.126c-11.76 35.023-38.316 56.859-70.047 73.486-4.694 2.29-8.054 3.384-13.333 3.138v-3a95 95 0 0 1 5-4l1.824-1.898c2.412-2.33 4.91-3.993 7.739-5.79 9.024-5.92 17.067-12.858 25.027-20.125 2.336-2.12 4.713-4.184 7.097-6.25 3.44-3.046 6.488-6.246 9.415-9.785 1.656-1.878 3.368-3.582 5.168-5.32 4.062-4.034 7.43-8.46 10.793-13.082l1.85-2.523c4.226-5.84 8.004-11.693 11.087-18.227"/><path fill="#021A24" d="M524 220c5.943-.423 9.624.748 14.75 3.438l2.118 1.094C555.329 232.263 566.677 244.95 575 259l.496 2.219L576 263l3 1 .277 2.973c.645 4.511 2.386 8.354 4.285 12.464l.999 2.217A806 806 0 0 0 587 287h2l.258 2.508c.903 4.25 2.559 7.57 4.617 11.367l1.206 2.241c13.247 24.098 32.572 45.974 54.267 62.802 4.027 3.162 7.86 6.548 11.708 9.924 2.657 2.304 5.243 4.357 8.182 6.31 3.4 2.275 5.28 4.637 7.762 7.848-3 0-3 0-5-1l-1 2-2.57-2.238c-6.01-5.206-12.056-10.3-18.367-15.137-7.825-6.05-14.959-12.755-22.063-19.625l-1.944-1.861c-21-20.166-34.736-42.674-45.556-69.639-9.415-23.4-18.416-41.45-40.61-54.766A147 147 0 0 1 534 224c-2.334-.59-4.67-1.008-7.04-1.437L525 222z"/><path fill="#FEFEF6" d="M508.313 239.75c3.52 2.947 5.413 4.947 5.968 9.617.243 6.827-1.092 10.079-5.531 15.258-5.24 4.526-10.486 6.067-17.312 5.86-4.235-.842-6.755-3.215-9.438-6.485-2.623-4.219-2.692-9.164-2-14 3.289-6.456 8.124-10.205 14.887-12.523 4.972-1.122 8.917-.109 13.426 2.273"/><path fill="#377C76" d="M619 514c2.668.172 3.79.804 5.75 2.625 1.807 3.433 1.763 5.527 1.25 9.375-2.598 6.218-7.107 10.798-13 14-9.555 3.302-20.565 3.697-29.844-.664-4.546-2.817-7.978-6.236-10.593-10.899-.695-3.01-.956-5.358-.563-8.437 1.875-2.375 1.875-2.375 4-4h2l5 5c6.48 5.142 11.266 6.443 19.621 6.434 4.517-.58 7.17-2.315 10.672-5.121C615 521 615 521 617 521l-.125-2.375C617 516 617 516 619 514"/><path fill="#397E76" d="M444 514q2.514.428 5 1l1 5 2-1c1.614 3.227 1.439 6.501 1 10-2.717 6.174-8.088 9.203-14 12-10.246 2.802-21.58 1.768-31-3-4.16-2.655-6.787-5.574-9-10-.632-5-.84-8.74 2-13 3.107 1.386 5.241 3.026 7.688 5.375 6.21 5.499 12.352 8.365 20.746 8.023 5.285-.82 10.74-2.573 14.566-6.398l-2-2c.556-4.556.556-4.556 2-6"/><path fill="#FDFDF6" d="M683 240h2l.516 2.781c1.708 11.439 1.708 11.439 8.168 20.48 5.085 2.753 10.758 4.236 16.316 5.739-2.59 2.59-4.712 2.795-8.25 3.688-6.082 1.814-9.673 3.685-12.75 9.312-2.36 6.017-3.017 12.63-4 19-2.404-4.162-3.244-8.772-4.236-13.424-1.173-4.852-2.97-7.384-6.764-10.576-4.399-2.66-8.994-3.949-13.926-5.254C658 271 658 271 657 269l2.852-.7c9.585-2.33 9.585-2.33 17.148-8.3 3.462-6.154 4.546-13.144 6-20"/><path fill="#FDF8D8" d="M517 148v2h2l2 2c2.57.648 2.57.648 5 1l-.125 2.813c-.146 3.345-.146 3.345 2.125 6.187.195 1.938.195 1.938.125 4l-.055 2.063L528 170v10h-2l.625 1.875L527 184l-2 2a126 126 0 0 0-2.5 5.75l-1.281 3.11a122 122 0 0 0-2.274 6.382C518 204 516.871 205.79 515 208c-2.687 0-2.687 0-6-1-2.42-2.845-5-6.165-5-10h-3l-.375-2.75c-.778-4.043-1.722-6.347-4.625-9.25-1.79-5.947-2.229-11.828-2-18h2l-.562-2.812C495 161 495 161 496 158v-2.625c0-2.375 0-2.375 1-3.375q3.5-.061 7 0l1-3c4.62-3.116 6.945-3.287 12-1m-14 13c-3.946 8.07-2.759 18.64 0 27 2.933 7.783 2.933 7.783 7 15 1.941-.271 1.941-.271 4-1 6.688-10.241 9.454-24.953 8-37-1.106-3.558-1.106-3.558-3-6l-1.187-1.875c-5.973-3.707-11.008-1.161-14.813 3.875m-6-2 1 3Zm28 3 1 2Zm1 3 1 2Zm0 10 1 4Z"/><path fill="#0A151A" d="M727 449h3c13.865 24.036 23.096 47.6 28.523 74.834.473 2.33.473 2.33 1.477 5.166.235 2.588.423 5.156.563 7.75l.124 2.31c2.384 47.528 2.384 47.528-5.687 62.94a341 341 0 0 0-2.25 7.313C744.253 637.023 728.913 663.67 706 682c.396-4.494 3.593-6.842 6.688-9.75 6.996-6.794 12.185-13.36 16.312-22.25h2l.813-1.625L733 646l1.375-2.77a322 322 0 0 1 3.168-6.14c18.235-34.954 26.55-80.61 16.387-119.445C753 514 753 514 753 510l-2-1c-.64-2.5-1.183-4.971-1.687-7.5-1.582-7.401-3.967-14.139-7.027-21.053C740 475.257 740 475.257 740 472h-2l-.77-2.012c-2.542-6.791-2.542-6.791-6.23-12.988l-3-1z"/><path fill="#0B1518" d="m319 418 1 2-2.187 2c-2.105 2.093-3.623 4.194-5.125 6.75-1.88 3.165-3.948 5.665-6.5 8.313-4.145 4.481-6.792 9.372-9.486 14.797-2.435 4.874-2.435 4.874-4.189 6.618-1.618 1.628-2.475 3.087-3.486 5.14l-1.037 2.089-1.053 2.168-1.064 2.145c-3.515 7.02-3.515 7.02-5.31 14.605-.563 3.375-.563 3.375-1.97 4.66-2.363 2.543-2.792 5.188-3.656 8.527-.255.99-.255.99-.517 1.998-1.403 5.637-2.262 11.298-2.928 17.069-.507 3.219-1.436 6.044-2.492 9.121-7.026 30.75-1.55 67.87 10.645 96.578C281 626 281 626 281 629h2l.988 2.45 1.325 3.237 1.3 3.2c1.307 3.128 1.307 3.128 3.117 5.883L291 646l-1 2c-9.12-10.394-13.576-22.994-17.937-35.937l-1.181-3.482c-1.618-4.953-3.035-9.633-3.51-14.835L267 590l-2-1c-.379-2.605-.379-2.605-.562-6.187l-.105-2.01q-.113-2.211-.215-4.424a469 469 0 0 0-.434-7.32c-.892-14.733-.429-29.326.316-44.059h1l.364-1.826c7.15-35.442 21.09-65.568 43.173-94.243a196 196 0 0 0 3.055-4.15l1.584-2.195 1.423-2.006C316 419 316 419 319 418"/><path fill="#FEFDF6" d="M348 260h1l.297 2.344c1.214 8.454 2.5 15.31 9.265 20.969 4.715 3.27 9.882 4.523 15.438 5.687-3.726 2.001-7.507 3.081-11.562 4.219-3.555 1.139-5.733 1.861-8.051 4.886-1.75 3.653-2.671 7.274-3.575 11.207l-.537 2.245A818 818 0 0 0 349 317c-2.667-4-3.543-8.163-4.805-12.773-1.605-4.333-3.434-7.25-7.527-9.52l-2.48-.894-2.637-.965A151 151 0 0 0 322 290c2.843-1.895 4.034-2.324 7.25-2.875 5.951-1.268 10.078-3.036 14-7.937 2.97-5.814 3.665-12.802 4.75-19.188"/><path fill="#FDF9DA" d="m440.313 181.813 2.925-.043c3.953.33 5.982 1.45 8.762 4.23l3 2v4c1.433 1.27 2.876 2.534 4.398 3.695 2.237 1.823 3.888 3.998 5.602 6.305h-2l.875 2.598c3.86 11.888 3.86 11.888 3.125 17.402l-2 2-.75-2.812c-3.542-12.178-7.699-23.575-19.145-30.301-2.375-1-4.1-1.154-6.668-1.137l-2.316-.016c-2.42.143-2.42.143-5.121 2.266-1.385 4.154-1.82 7.668-1 12 5.46 10.289 15.617 14.883 26 19 2.665.814 5.268 1.433 8 2v1c-8.984.539-18.847-1.095-27-5l-1-2-3-2c-1.562-1.656-2.99-3.39-4.437-5.148-1.501-1.837-1.501-1.837-3.063-3.329-2.79-2.836-3.837-4.953-3.937-8.835.262-4.677 1.24-9.17 2.437-13.688l2.152-.621 2.786-.816 2.777-.81c5.829-1.922 5.829-1.922 8.598-1.94"/><path fill="#FDF9E6" d="M584.125 182.938c1.087.291 1.087.291 2.195.59L588 184l1-2v2l2.297-.234c2.703.234 2.703.234 4.469 1.843l1.484 2.141 1.516 2.11c1.82 3.156 2.234 5.51 2.234 9.14l.125 2.438c-.264 5.403-3.298 7.984-7.125 11.562l-1.79 1.7C580.995 225 580.995 225 574 225l2 1v2c-2.96-.087-5.916-.194-8.875-.312l-2.55-.069-2.442-.107-2.254-.08C558 227 558 227 556 224l3.523.172c4.524-.004 7.987-1.146 12.102-2.922l1.906-.766c6.032-2.503 11.03-5.565 15.282-10.547l1.769-2.035c2.893-3.881 2.954-8.235 2.418-12.902-1.743-3.236-2.472-3.824-6-5-5.962-.584-10.286.357-15 4-5.58 6.252-9.569 13.395-13 21h-2c-.632-10.19-.632-10.19 2-13.562l2-1.438v-5l2.375-.812c2.906-1.036 2.906-1.036 4.625-4.188.167-2.625.167-2.625 0-5l3-1v3l3.375-1.937c5.657-3.248 5.657-3.248 9.75-2.125"/><path fill="#081F25" d="m517.625 216.938 2.477.59L522 218c-2.904 2.904-5.98 2.335-9.875 2.438-16.24.731-29.8 5.746-42.125 16.562l-1.98 1.695c-11.14 10.273-18.263 24.162-23.088 38.313C441.7 286.471 437.717 295.191 433 304l-1.189 2.256c-5.224 9.887-10.753 19.05-17.811 27.744l-2-1c.645-3.485 2.101-6.028 4-9l-1-1 1.46-2.23 1.915-2.957 1.898-2.918c2.105-3.528 3.433-7.012 4.727-10.895l2 1c2.145-5.279 4.198-10.594 6-16l1.402-1.84c1.826-2.468 2.932-4.91 4.16-7.723C444.442 266.515 450.397 253.604 460 243l1.91-2.23A307 307 0 0 1 467 235l2-2.25c2.763-2.417 5.777-4.044 9-5.75l2.898-1.703c8.6-4.771 16.507-6.59 26.243-7.79 8.323-1.094 8.323-1.094 10.484-.57"/><path fill="#60C3C6" d="M351 485h1l-.105 3.48c-.36 16.766 1.83 32.117 13.73 44.895C379.232 546.085 396.332 547.554 414 549a1151 1151 0 0 0-4.875-2l-2.742-1.125c-2.273-.99-2.273-.99-4.383-.875v-3l-2.75-.625c-4.04-1.71-5.02-3.684-7.25-7.375l-3-2 1-4 1.652 1.977c8.112 9.4 16.776 16.301 29.348 18.023 8.11.49 14.544.236 22-3l3 1c-17.32 8.967-35.441 13.207-54.809 8.098-16.545-5.691-27.836-16.835-35.941-32.035-5.117-10.91-8.093-25.192-4.25-37.063"/><path fill="#101822" d="M544.063 532.313C546 533 546 533 547 535c.083 1.448.107 2.9.098 4.352l-.01 2.578-.025 2.695-.014 2.719q-.018 3.328-.049 6.656l-3-1-1 7-5 1-1-3.187c-2.005-4.695-5.497-6.707-10-8.813-5.652-2.225-10.94-2.403-16.953-2.656C507 546 507 546 505 544l4-1v-2l1.908-.26 8.654-1.178 3.002-.408q2.901-.395 5.801-.798a218 218 0 0 1 4.866-.606c1.598-.187 3.186-.459 4.769-.75 1.376-1.918 1.376-1.918 2-4 2-1 2-1 4.063-.687"/><path fill="#804248" d="m511.875 545.563 2.388.02c7.858.216 13.944 2.223 20.362 6.792C537 555 537 555 537.5 558.188 537 561 537 561 535 563l-1.652-1.023c-8.691-5.14-17.23-7.12-27.348-5.977-6.508 1.701-12.309 4.459-18 8-1.288-2.121-2.067-3.41-1.781-5.918.983-2.621 2.242-3.806 4.344-5.644.64-.58 1.28-1.158 1.94-1.754 6.1-4.114 12.113-5.219 19.372-5.121"/><path fill="#FDEA50" d="m352 264 3 1v3l2 1c1.748 2.658 2.991 4.974 4 8 2.551 1.843 4.524 2.91 7.625 3.5 2.745.578 3.528 1.477 5.375 3.5h2c1.188 2.625 1.188 2.625 2 6-1.375 3.375-1.375 3.375-3 6l-2.312-.125c-2.915-.096-2.915-.096-5.688 2.125l-3.062.313L361 299c-1.276 2.314-1.276 2.314-2 5l-1.562 1.938c-1.838 2.635-1.978 4.91-2.438 8.062-1.112 2.595-2.42 4.631-4 7l-7-1c-2.24-4.799-3.056-9.829-4-15h-2v-3h-3l-2-4c4.75 1.875 4.75 1.875 7 3v3l3 1 .402 2.047.536 2.703.527 2.672c.459 2.21.968 4.393 1.535 6.578l1-5 2 1c.23-1.097.461-2.194.7-3.324q.492-2.183.988-4.363l.45-2.186c1.172-5.029 2.73-7.773 6.862-11.127 3.946-1.973 7.637-3.339 12-4v-2l-2.5-1.5-2.5-1.5v-2l-2.25-.25c-3.527-.962-4.534-1.819-6.75-4.75-2.292-4.733-4-8.697-4-14"/><path fill="#53B5B9" d="M669 517c1 3 1 3-.047 5.496-9.235 15.95-20.466 26.568-38.265 32.004-17.236 3.997-34.57 1.747-49.844-7.328L579 546l2-1 3.625 1.375c6.298 2.21 12.715 2.353 19.318 2.558 1.932.063 3.862.161 5.791.262 16.678.537 34.737-3.431 47.828-14.328 4.95-5.23 8.269-11.445 11.438-17.867"/><path fill="#041A23" d="M524 220c5.943-.423 9.624.748 14.75 3.438l2.118 1.094C555.329 232.263 566.677 244.95 575 259l.496 2.219L576 263l3 1 .277 2.973c.645 4.511 2.386 8.354 4.285 12.464l.999 2.217A806 806 0 0 0 587 287h2l.242 2.488c.945 4.377 2.743 7.797 4.883 11.7l1.213 2.251A221 221 0 0 0 606 321c-1.687.813-1.687.813-4 1-10.826-8.847-15.533-24.387-20.562-37-9.64-24.15-18.635-43.518-41.547-57.266A147 147 0 0 1 534 224c-2.334-.59-4.67-1.008-7.04-1.437L525 222z"/><path fill="#7BD0CB" d="M446 367c2 1 2 1 3 3 .84 4.428.9 6.594-1.547 10.418-4.91 5.834-9.003 9.069-16.703 9.957-2.75-.375-2.75-.375-4.625-1.437-1.806-3.11-1.543-5.411-1.125-8.938 4.37-8.564 11.29-14.033 21-13"/><path fill="#DCBF39" d="m761 437 2 1v2l3 1 2 1v3l2 1 6 3v7l-2.312-.062c-2.79-.067-2.79-.067-5.688 1.062l-.25 2.188c-.913 3.421-2.332 5.251-4.75 7.812l-3 1v-7l-1.875-.875C756 459 756 459 754 457l-2.625-1.437L749 454c0-3 0-3 1.188-4.5 1.812-1.5 1.812-1.5 4.437-3.062 2.487-1.217 2.487-1.217 3.375-3.438h2z"/><path fill="#FEEE4D" d="M711 271c-3.922 4.919-7.309 8.418-13.187 10.938-2.304 1.35-2.953 2.561-3.813 5.062l1 2h-2v2h-2l-.078 1.828c-.47 6.61-.47 6.61-2.985 9.735L686 304l-6-2-2-10h-2l-1.312-3.375c-1.387-3.8-1.387-3.8-4.688-5.625v-3h-6c-.562-1.937-.562-1.937-1-4 1-1 1-1 3.375-1.187C669 275 669 275 672 277v3l1.938.813C676 282 676 282 677 285h2l2 9 2-1 2 4 .332-2.414c1.281-8.563 2.72-14.873 9.668-20.586 5.329-2.859 10.028-3.32 16-3"/><path fill="#01131D" d="M453 520h1l1 9 5-1 2-6c.688 1.664.688 1.664 1 4-5.233 11.395-13.456 17.687-24.82 22.094-10.74 3.06-22.248 1.094-31.993-3.907-3.917-2.232-6.77-4.274-9.187-8.187 4.08 1.95 7.836 4.354 11.66 6.758C411 544.234 411 544.234 414 544l1.707-.973c3.253-1.457 6.476-1.366 9.98-1.465 8.865-.41 16.216-1.816 23.313-7.562 3.493-4.215 3.667-8.725 4-14"/><path fill="#C9B13A" d="M269 419h3l1 5h5l-1 3h2a264 264 0 0 1 3 5l2 1v2h-3l-1 5h-4v2c-1.812 2.125-1.812 2.125-4 4h-3l-.75-1.875c-1.456-2.476-2.628-3.076-5.25-4.125v-2h-2v-2l-4-1 1.277-1.645 1.66-2.168 1.653-2.144c1.579-2.084 1.579-2.084 2.41-5.043l3-1v-2h2z"/><path fill="#F9FBFC" d="M420 471c2.938 1.438 2.938 1.438 5 4 .988 3.061 1.3 5.796 1 9-2.795 5.398-2.795 5.398-6 7-7.09.581-7.09.581-10.937-1.875-3.358-3.459-3.533-6.177-3.465-10.86C406 476 406 476 408.5 472.939c3.889-2.648 6.903-2.595 11.5-1.938"/><path fill="#FDF5C3" d="M517 148v2h2l2 2c2.57.648 2.57.648 5 1l-.125 2.813c-.146 3.345-.146 3.345 2.125 6.187.195 1.938.195 1.938.125 4l-.055 2.063L528 170v3c-1.312 3.125-1.312 3.125-3 6l-3 1-.113-3.07-.2-4.055-.068-2.016c-.302-5.604-1.61-9.85-5.619-13.859-2.338-.243-2.338-.243-4.937-.125l-2.653.055-2.41.07h-3c-3.113.669-3.113.669-4.187 3.063L498 162c-1.85-3.123-2.294-5.38-2-9 1-1 1-1 4.563-1.062L504 152l1-3c4.62-3.116 6.945-3.287 12-1m8 14 1 2Zm1 3 1 2Z"/><path fill="#FCE554" d="m611 225 1 2 4-1 .625 2.375c1.182 2.934 1.182 2.934 4.5 3.938L624 233v5h-2v2l-1.812.563c-3.195 2.099-3.763 4.967-5.188 8.437l-3 2-1-3h-3c-1.075-2.652-2.095-5.284-3-8h-4c-.625-2.312-.625-2.312-1-5l2-3h4l2-5h3z"/><path fill="#F7F9FA" d="M594 472c3.949 2.459 5.669 3.988 7.125 8.438-.154 4.394-1.33 6.223-4.125 9.562-3.751 2.5-5.52 2.212-9.836 1.594C585 491 585 491 582.438 488.938c-1.851-3.783-2.431-6.808-1.438-10.938 3.926-4.856 6.742-6.722 13-6"/><path fill="#F7DC51" d="M396 171h4l-1 5c4.615 1.042 4.615 1.042 9 0v12l-4 2-2 2h-4l-1 3-1-2-1.937-.375C392 192 392 192 391 190.313L390 188a373 373 0 0 0-4-6l2.313-2.25c2.643-2.574 2.643-2.574 4.375-5.062L394 173h2z"/><path fill="#DEC54C" d="M324 319a147 147 0 0 1 6.625 5.188c2.142 2.014 2.142 2.014 4.375 1.812l1 9-4 1v2h-3l-1 5c-2.437-.812-2.437-.812-5-2l-1-3h-2v-2l-5-1v-2h-3c2-4 2-4 5.375-5.75 3.738-2.026 5.08-4.25 6.625-8.25"/><path fill="#0E514D" d="M509 221v1l-2.336.367-3.039.508-3.023.492c-2.745.429-2.745.429-4.602 2.633l1 2-3.465 1.645-4.473 2.167-2.287 1.08-2.177 1.065-2.016.968c-1.917 1.069-1.917 1.069-2.582 4.075-2.937 1.25-2.937 1.25-6 2l-2-1v-2c-6.831 5.336-11.726 11.47-16 19l-1.562 2.5c-1.5 2.457-1.5 2.457-2.438 5.125-1.018 2.417-2.035 3.678-4 5.375 1.27-10.863 8.975-20 16-28 .677-.772 1.354-1.544 2.05-2.34 11.815-12.634 25.811-18.965 42.95-18.66"/><path fill="#E2C846" d="M710 319h2c2 2 2 2 3 5a90 90 0 0 0 4 2l1 2 3 2c-1.503 4.208-4.233 5.803-8 8h-2l1 4-4 2v-5h-2l-1-2-2 1c-1.625-2.687-1.625-2.687-3-6 .75-2.75.75-2.75 2-5l1-2-1-2 2.438-.875c2.695-.858 2.695-.858 3.562-3.125"/><path fill="#FDFAEA" d="M591.938 187.188c5.815 5.11 5.815 5.11 6.378 8.996.104 4.224-.205 7.093-2.316 10.816h-3l.105-2.484.082-3.266.106-3.234c-.327-3.363-.924-4.652-3.293-7.016-4.858-1.62-9.183-1.616-13.937.313-8.552 4.69-13.206 15.14-17.063 23.687h-2c-.628-10.116-.628-10.116 1.688-13.375L561 200l2.188-2.25a274 274 0 0 1 7.437-7l2.29-2.078c5.064-4.06 13.202-3.838 19.023-1.484"/><path fill="#1C5D6E" d="M444 514q2.514.428 5 1l1 5 2-1c1.613 3.226 1.443 6.502 1 10-1.532 3.531-2.722 5.417-6.27 7.035A80 80 0 0 1 440 538a418 418 0 0 1-2-3.812l-1.125-2.145C436 530 436 530 436 527c1.75-1.387 1.75-1.387 4-2.687l2.25-1.325L444 522l-2-2c.556-4.556.556-4.556 2-6"/><path fill="#001B27" d="M285 581h1l.262 2.613C289.979 615.907 304.318 643.571 330 664c-4.286 0-6.168-2.513-9.125-5.312l-1.759-1.653C309.024 647.386 299.966 635.713 294 623l-3 4q-2.006-6.435-4-12.875l-1.156-3.707-1.094-3.535-1.016-3.27C283 601 283 601 283 599h2z"/><path fill="#FCE657" d="M408 233c1.07 5.24 1.311 9.089-1 14-4 2-5.986 2.331-10.25.938-3.123-2.201-4.423-3.348-5.75-6.938.062-3.055.457-5.996 1-9 6.068-1.084 10.101-.79 16 1"/><path fill="#F9E80E" d="M557 259c2 0 2 0 3.52 1.25 6.594 7.795 5.262 21.204 4.48 30.75-1.63 9.63-1.63 9.63-5 13l-.028-2.104c-.022-16.661-.022-16.661-4.25-32.572-1.213-3.902-.157-6.593 1.278-10.324"/><path fill="#01090D" d="M546 530c2.618 2.618 2.261 4.505 2.273 8.072l-.023 2.365.023 2.354c-.013 3.91-.06 5.888-2.273 9.209l.035-3.648.028-4.727.025-2.406c.142-4.243.142-4.243-1.088-8.219-2.437.27-2.437.27-5 1l-2 3c-8.654 3.548-17.932 3.429-27.125 3.313l-3.977.01c-9.63-.055-9.63-.055-11.898-2.323-2.868-2.102-2.868-2.102-6-3v-2l2.902.656c15.608 3.341 31.111 4.368 46.036-2.343 3.025-1.297 4.823-1.776 8.062-1.313"/><path fill="#034958" d="m350 697 10 4v-2c5.702 1.702 10.939 4.235 16.313 6.75 12.885 5.94 25.886 10.852 39.687 14.25v1c-8.239-.413-15.735-1.676-23.625-4.062l-3.138-.934C379.78 713.1 370.87 709.355 362 705l-1.925-.937A483 483 0 0 1 350 699z"/><path fill="#26AFAE" d="M477 552c2.247 2.808 3.785 5.536 5.25 8.813 4.406 8.89 10.633 13.491 19.75 17.187 8.376 2.652 18.068 1.512 26-2 3.14-1.828 6.074-3.852 9-6l3-2c-1.806 4.555-4.84 6.008-8.906 8.438-2.207 1.402-2.207 1.402-3.125 3.625-1.268 2.534-2.367 2.886-4.969 3.937-3.405.463-6.817.416-10.25.438-.917.032-1.833.065-2.777.1-6.388.05-11.195-1.08-15.973-5.538l-1-3c-1.666-1.573-1.666-1.573-3.687-3.125-5.746-4.869-9.843-10.74-12.313-17.875z"/><path fill="#C1C9CB" d="M349 736c12.576.724 25.076 1.968 37.603 3.27 14.774 1.53 29.461 2.927 44.334 2.793l2.975-.014q3.544-.018 7.088-.049v2h14v1c-35.767.584-70.578-2.216-106-7z"/><path fill="#5FC2C1" d="M361 428c2 2 2 2 2.375 5.313-.438 4.31-1.304 5.7-4.375 8.687-3.712 2.833-6.347 3.517-11 3-2-2-2-2-2.5-4.687.698-4.623 3.055-7.247 6.5-10.313 3.155-1.837 5.329-2.386 9-2"/><path fill="#001F2C" d="m410 334 2 2c-.568.63-1.137 1.258-1.723 1.906l-2.34 2.594-2.507 2.777a328 328 0 0 0-5.868 6.786C388.794 362.392 374.975 372.12 362 382c0-3 0-3 2-6h3l2-4h2v-2c3.462-3 3.462-3 6-3v-2a523 523 0 0 1 5-4l1.625-2.187C385 357 385 357 388 356l2-3 2.438-1.375c2.986-1.894 3.826-3.586 5.562-6.625 3.7-4.009 7.826-7.5 12-11"/><path fill="#5FBDBE" d="M668 547c1 1 1 1 1.313 3.75-.391 4.064-1.408 5.422-4.313 8.25-4.132 2.605-7.13 3.443-12 3l-2-1c-.429-4.373-.551-6.31 2.25-9.812 5.193-4.132 8.177-4.511 14.75-4.188"/><path fill="#5DBCBD" d="M364 548c3.143 1.746 5.469 3.469 8 6 .25 3 .25 3 0 6-2.36 2.36-3.02 2.344-6.25 2.438-3.537-.063-5.509-.558-8.25-2.813-3.585-3.765-3.61-5.525-3.5-10.625 3.21-1.605 6.517-1.485 10-1"/><path fill="#0CA6B2" d="M643 496h1v12l6 1-1.875.563c-3.185 2.154-3.246 4.795-4.125 8.437-.625 1.354-1.272 2.7-2 4h-2l.188 2.688c-.221 3.898-.755 5.271-3.188 8.312-1.935 1.529-3.925 2.954-5.937 4.379-2.675 2.102-4.67 4.518-6.739 7.203C623 546 623 546 620 547l5 1c-3.742 2.45-7.442 2.23-11.75 2.125l-2.113-.027c-1.713-.024-3.425-.06-5.137-.098l-1-2 2.492-.629c12.42-3.428 22.455-9.541 28.977-20.937 4.76-9.728 5.746-19.758 6.531-30.434"/><path fill="#F7DE55" d="m626 172 3 2v2h3l.586 1.68.789 2.195.773 2.18c.79 2.127.79 2.127 2.852 3.945h-4l-1 3c-2.615 1.239-5.255 2.085-8 3-1.206-2.332-2.165-4.496-3-7-2-1.209-2-1.209-4-2l1-2h2v-4l1.875-.812c2.425-1.144 2.425-1.144 4.125-4.188m1 2 1 2Z"/><path fill="#000509" d="m373 472 2 1-1.207 1.906c-7.758 12.533-10.917 24.477-7.668 39.156C369.663 526.627 377.452 538.487 389 545c-4.842 1.614-8.578-.812-13-3-5.31-3.332-9.692-7.477-14-12l1-3c2.784 1.392 3.756 3.612 5.375 6.188L370 535h4l-1.172-1.836c-8.496-13.669-12.31-27.588-9.144-43.629 2.04-6.58 5.167-12.059 9.316-17.535"/><path fill="#0B2840" d="M512 222v2h4v2l3.75.188c12.964 1.503 24.62 9.289 33.25 18.812l-1 2-1.145-1.285c-10.688-11.39-24.079-17.59-39.605-18.09-10.684.184-19.517 3.348-28.324 9.3L481 238l-2-1c8.48-5.942 8.48-5.942 12.938-7.625 3.435-1.542 3.6-2.139 5.062-5.375 4.552-2.845 9.827-2.18 15-2"/><path fill="#F2DB55" d="m657 289 1.813.563c2.351.658 2.351.658 5.187-.563l1 7 3 1-1 5h-2v2c-1.375 1.5-1.375 1.5-3 3l-2 2-1-4-5-1v-3l-2-1c1.45-3.791 3.152-7.387 5-11"/><path fill="#0B181B" d="m417 322 1 2h-2c-2.254 5.328-2.254 5.328-3 11l-1.773.32c-2.54.775-3.873 1.803-5.852 3.555l-1.79 1.555c-1.806 1.683-1.806 1.683-3.585 4.57h-2l-.812 2.313c-1.152 2.605-1.993 3.93-4.188 5.687l-3 1-2 3-1.812.813c-2.286 1.24-3.218 2.302-4.813 4.312L379 365h-2v2c-3.462 3-3.462 3-6 3v2c-2.446 2.883-4.214 4.46-8 5 3.33-7.173 3.33-7.173 6.903-8.943 2.135-1.076 3.544-2.209 5.269-3.85l1.75-1.648 1.828-1.747a3248 3248 0 0 1 3.797-3.582l1.826-1.72c1.825-1.694 3.71-3.297 5.627-4.885 8.803-7.605 16.937-16.687 23.766-26.086C415 323 415 323 417 322"/><path fill="#2B3121" d="M524 220c5.943-.423 9.624.748 14.75 3.438l2.118 1.094C555.329 232.263 566.677 244.95 575 259l.496 2.219L576 263l3 1-1 4h-3l-.775-1.478C564.37 247.881 553.569 233.417 534 224c-3-.89-5.915-1.444-9-2z"/><path fill="#FEFBE1" d="M425 205c3.183 0 4.347.357 7 2a70 70 0 0 1 2.688 3.625c3.617 4.31 7.738 6.419 12.75 8.75l2.168 1.01c4.722 2.098 9.353 3.49 14.394 4.615v1c-8.984.539-18.847-1.095-27-5l-1-2-3-2a76 76 0 0 1-3-3.375l-1.57-1.871A121 121 0 0 1 424 206z"/><path fill="#F3DA52" d="m424 256 .313 1.813c.785 2.5 1.656 3.562 3.687 5.187h2l-1 3-5 2-1 3-7-1v-2h-5c0-4 0-4 2-6.125l2-1.875v-2c3.135-1.858 5.375-2.201 9-2"/><path fill="#FDE849" d="M584.125 182.938c1.087.291 1.087.291 2.195.59L588 184l1-2v2l2.297-.234c2.703.234 2.703.234 4.469 1.843l1.484 2.141 1.516 2.11c1.82 3.156 2.234 5.51 2.234 9.14l.125 2.438c-.136 2.778-.57 4.27-2.125 6.562l-3 1 .5-2.437c1.28-7.394 1.28-7.394-.512-14.438-2.138-2.671-3.724-4.037-6.988-5.125-5.958-.579-11.275-.746-16.379 2.645-2.533 2.118-4.765 4.488-6.945 6.964C564 198 564 198 560 198l1-3q2.491-1.021 5-2c2.152-3.228 2.2-4.284 2-8l3-1v3l3.375-1.937c5.657-3.248 5.657-3.248 9.75-2.125"/><path fill="#262C1F" d="m517.625 216.938 2.477.59L522 218c-2.904 2.904-5.98 2.335-9.875 2.438-16.405.739-29.546 5.893-42.125 16.562l-1.887 1.555A434 434 0 0 0 464 242v-4a112 112 0 0 1 6-5l1-2c2.301-1.445 4.607-2.719 7-4l2.91-1.71c8.596-4.767 16.501-6.585 26.23-7.782 8.324-1.095 8.324-1.095 10.485-.57"/><path fill="#FEE846" d="m537 184 2.375.563c2.596.697 2.596.697 4.625-.563l-.098 6.055c-.028 2.027-.028 2.027 1.098 3.945-1.3 3.062-2.026 4.599-5.125 5.875-4.32.188-6.659-2.196-9.875-4.875.593-3.392 1.767-5.21 4.063-7.75l1.66-1.86z"/><path fill="#FDED54" d="M666.375 274.813C669 275 669 275 672 277v3l1.938.813C676 282 676 282 677 285h2l2 9 2-1 .875 1.813c1.172 2.38 1.172 2.38 3.125 5.187h3l-4 4-6-2-2-10h-2l-1.312-3.375c-1.387-3.8-1.387-3.8-4.688-5.625v-3h-6c-.562-1.937-.562-1.937-1-4 1-1 1-1 3.375-1.187"/><path fill="#034D5D" d="m635 710-2.555 1.059-3.32 1.379-3.305 1.37A83 83 0 0 0 621 716l2.16-.402c5.27-.972 10.528-1.89 15.84-2.598-2.392 2.392-3.84 2.642-7.102 3.438l-3.153.77-3.37.792-3.42.811c-10.58 2.445-21.054 4.354-31.955 4.189 3.357-2.238 5.82-2.752 9.75-3.625 8.44-1.952 16.503-4.81 24.618-7.82l2.87-1.043 2.564-.955C632 709 632 709 635 710"/><path fill="#004554" d="m424 319 1 3c-1.766 2.523-1.766 2.523-4.25 5.375-3.322 3.802-3.322 3.802-6.102 7.992-2.445 3.906-5.598 7.06-8.773 10.383l-2.052 2.16q-2.011 2.114-4.03 4.218a642 642 0 0 0-4.324 4.567c-5.041 5.248-10.566 9.582-16.371 13.934-3.328 2.547-6.442 5.245-9.512 8.094C368 380 368 380 365 381c1.543-4.336 4.885-6.483 8.438-9.125a216 216 0 0 0 16.109-13.61c2.149-1.984 4.342-3.881 6.578-5.765 10.988-9.661 19.252-21.78 27.875-33.5"/><path fill="#FEFAD4" d="m488 184 .375 2.438L489 189l2 1v2h-3l-1 7-7 1-.875-2.437c-.858-2.696-.858-2.696-3.125-3.563.601-5.411.601-5.411 2.313-7.937C480 185 480 185 482.125 185.375L484 186l1-1c2-1 2-1 3-1"/><path fill="#F1D64D" d="M324 319a147 147 0 0 1 6.625 5.188c2.142 2.014 2.142 2.014 4.375 1.812v2h-3v5c-2.75 1.625-2.75 1.625-6 3-2.25-.75-2.25-.75-4-2l-2-1c-.5-6.118.751-9.025 4-14"/><path fill="#00070C" d="M623 460c11.162.04 20.154 3.088 28.438 10.75 7.842 8.591 12.304 21.033 11.855 32.691-1.834 16.014-1.834 16.014-6.293 22.559l-2-1 1.094-2.719c4.79-12.59 6.422-25.53.906-38.281l-.996-2.324c-3.97-8.093-10.091-13.838-18.504-17.113-4.833-1.548-9.445-2.232-14.5-2.563z"/><path fill="#CFB433" d="M269 419h3l1 5h5l-1 3h2a264 264 0 0 1 3 5l2 1v2h-3l-1 5-4-1 4-5-2.812-1.812c-4.733-3.249-4.733-3.249-6.188-5.188v-4h-2v3l-1.875.688c-2.874 1.775-3.327 3.047-4.125 6.312.305 3.725.305 3.725 1 7l-1-2h-2v-2l-4-1 1.277-1.645 1.66-2.168 1.653-2.144c1.579-2.084 1.579-2.084 2.41-5.043l3-1v-2h2z"/><path fill="#0C181B" d="M630 351c3.331.576 4.81 1.51 7.063 4 3.682 3.847 7.68 7.127 11.828 10.46 4.144 3.353 8.154 6.865 12.162 10.379 2.657 2.305 5.245 4.36 8.185 6.313 3.4 2.275 5.28 4.637 7.762 7.848-3 0-3 0-5-1l-1 2c-3-3.75-3-3.75-3-6-1.41-1.505-1.41-1.505-3.312-3.062-.73-.62-1.46-1.24-2.211-1.88L660 378c-.88-.73-1.758-1.462-2.664-2.215-5.161-4.252-10.38-8.394-15.754-12.375L640 362v-2l-1.75-.75c-2.58-1.433-4.311-3.034-6.25-5.25v-2z"/><path fill="#FDE742" d="m440.313 181.813 2.925-.043c3.953.33 5.982 1.45 8.762 4.23l3 2-3 3-1.906-1.094c-5.69-3.084-9.614-4.878-16.094-3.906-3.752 2.015-5.636 3.455-8 7-.46 2.968-.46 2.968-.625 6.188l-.227 3.292L425 205l-3-1c-.202-6.36.372-11.852 2-18l2.152-.621 2.786-.816 2.777-.81c5.829-1.922 5.829-1.922 8.598-1.94"/><path fill="#02232F" d="m453 728 34 2v1l-9 1 1 2-29 1 3-5z"/><path fill="#035462" d="m652 673 2 2-6 4 3 1v2c-9.1 3.197-17.205 5.934-27 5 2.104-2.104 3.658-2.87 6.36-4.059l2.632-1.17 2.758-1.208c8.201-3.62 8.201-3.62 16.25-7.563"/><path fill="#01131B" d="m562.875 728.938 2.086.013q2.52.02 5.039.049v3l2.238-.219c6.945-.635 13.79-.905 20.762-.781v1c-10.465 1.647-20.955 3.281-31.562 3.5l-2.069.092c-3.929.004-5.296-.53-8.334-3.123L549 730c4.655-.92 9.147-1.122 13.875-1.062"/><path fill="#012939" d="M616.23 540.914 618 542c-2.56 2.011-5.046 3.628-8 5v1c-4.283 1.056-8.43 1.117-12.812 1.063l-2.1-.014q-2.544-.02-5.088-.049v-4l-2-2 3.402.105c9.62.38 9.62.38 18.91-1.73C614 540 614 540 616.23 540.915"/><path fill="#FEEE50" d="m352 264 3 1v3l2 1c1.748 2.658 2.991 4.974 4 8 2.551 1.843 4.524 2.91 7.625 3.5 2.745.578 3.528 1.477 5.375 3.5h2v3l-3.812.125-2.145.07C368 287 368 287 365 285v-2l-2.25-.25c-3.527-.962-4.534-1.819-6.75-4.75-2.292-4.733-4-8.697-4-14"/><path fill="#0E133C" d="m464 307 1.625 2.063c2.323 2.873 4.739 5.635 7.203 8.386C474 319 474 319 474 321l1.754.824c2.235 1.17 4.146 2.506 6.183 3.988 11.864 8.014 26.256 11.273 40.364 8.551 1.99-.508 3.972-1.041 5.945-1.61 2.902-.794 5.781-1.302 8.754-1.753-4.204 4.953-10.927 5.66-17.128 6.177-16.403.847-32.011-2.048-44.872-13.177v-2l-3-1c-2.043-2.145-2.043-2.145-4.187-4.812l-2.168-2.645C464 311 464 311 464 307"/><path fill="#75D7DA" d="M669 517c1 3 1 3-.047 5.496-8.77 15.146-19.543 25.986-36.453 31.504-3.551.92-6.816 1.29-10.5 1v-1l3-.734c7.11-1.789 13.585-3.6 20-7.266l-8 1c2.255-2.255 4.586-3.251 7.46-4.562 12.47-5.763 18.463-13.123 24.54-25.438"/><path fill="#19596A" d="M619 514c2.668.172 3.79.804 5.75 2.625 1.737 3.3 1.65 5.701 1.25 9.375-1.062 2-1.062 2-3 3-3.687-.312-3.687-.312-7-1l-1-7h2l-.125-2.375C617 516 617 516 619 514"/><path fill="#DCC952" d="M384 305h7l2 5 2-1v3h-3v6l-8 2c-1.975-4.762-2.064-7.968-1-13z"/><path fill="#FDE652" d="m418 219 2 2 5-2c2.985 4.105 3.295 6.977 3 12l-2 1a102 102 0 0 0-3 3l-1.25-1.937c-1.972-2.325-2.862-2.496-5.75-3.063q.212-2.188.438-4.375c.08-.812.162-1.624.246-2.46C417 221 417 221 418 219m7 3 1 2Z"/><path fill="#075056" d="M563 248c3.927 3.582 6.446 7.128 8.75 11.938l1.011 2.063c4.543 9.463 8.355 19.253 12.239 28.999 2.895 7.261 5.99 14.073 9.96 20.82L596 314l-1 2a1262 1262 0 0 1-4.187-7.25l-1.174-2.008c-3.442-6.03-6.056-12.305-8.639-18.742-7.085-17.718-7.085-17.718-15.723-34.707C564 251 564 251 563 248"/><path fill="#F9E053" d="M624 233v5h-2v2l-1.812.563c-3.195 2.099-3.763 4.967-5.188 8.437l-3 2-1-3h-3l-.937-2.375c-.992-2.548-.992-2.548-2.063-4.625l4 1v2h2v-2l2.438-1.812c2.915-2.49 3.067-3.526 3.562-7.188 2.667-1.333 4.167-.671 7 0"/><path fill="#FBF0A5" d="M557 207c.981 3.053.981 4.947 0 8h2l-.219 1.898-.281 2.477-.281 2.46c-.253 2.134-.253 2.134-.219 4.165l10 2c-4 1-4 1-7 1l-1 2v-2l-2.875-.25c-3.125-.75-3.125-.75-4.5-2.687-.802-2.646-.614-4.694-.562-7.5.116-3.527.116-3.527-1.063-6.563 1.783-3.032 2.596-3.865 6-5m-4 9 2 2v-2z"/><path fill="#D8C247" d="m590 243 2 10c-7.168 1.336-7.168 1.336-10.937-.187C579 251 579 251 577.938 249.063c.062-2.063.062-2.063 1.875-4.25 3.776-3.13 5.45-2.74 10.187-1.813"/><path fill="#C3CACC" d="M604 743v1c-.94.09-.94.09-1.898.184l-2.477.254c-.812.08-1.624.162-2.46.246-2.208.207-2.208.207-4.165 1.316a79 79 0 0 1-4.725.114h-2.972l-3.217-.016-3.287-.005c-3.475-.005-6.95-.018-10.424-.03q-3.528-.008-7.055-.014-8.66-.017-17.32-.049v-1c8.114-.96 16.212-1.31 24.375-1.562l3.977-.13A772 772 0 0 1 604 743"/><path fill="#1A201A" d="M462 241h2c-1.476 3.29-3.435 6.166-5.479 9.127-4.613 6.692-8.516 13.286-11.521 20.873l-1.125 2.805L445 276l-3-1c.611-4.94 2.751-8.86 5.063-13.187l1.209-2.278c3.751-6.888 8.173-12.98 13.728-18.535"/><path fill="#FCE54E" d="m470 167 6 2 .375 2.375c.416 2.766.416 2.766 2.625 4.625-4.478 1.433-8.24 2.443-13 2-2-2-2-2-2.195-3.945L464 168l6 1z"/><path fill="#061016" d="M265 538h1l.076 2.32c.117 3.518.24 7.037.361 10.555l.12 3.648c.216 6.124.567 12.176 1.236 18.266.308 3.293.302 6.528.27 9.836l-.028 3.664L268 589c-8.41-12.616-5.66-36.69-3-51"/><path fill="#EACF4A" d="M710 319h2c1.104 2.577 1.986 4.924 2.5 7.688.32 2.494.32 2.494 2.5 4.312l-6 5-1.25-1.937c-1.928-2.273-2.864-2.665-5.75-3.063l.563-2.437L705 326l-1-1v-2l2.438-.875c2.695-.858 2.695-.858 3.562-3.125"/><path fill="#FAE051" d="m628 202 1.875 2.438c1.867 2.6 1.867 2.6 4.125 3.562-.343 3.09-1.26 4.324-3.25 6.813-2.75 2.187-2.75 2.187-5.562 2L623 216l-.437-1.812c-.45-1.75-.992-3.475-1.563-5.188l3-1v-3l4-1z"/><path fill="#0E143C" d="M564 268c1.951.863 1.951.863 4 2 1.392 3.937.936 7.706.563 11.813l-.31 3.519L568 288h-2l.063 1.844c-.248 10.532-5.448 21.022-12.063 29.156l-3-1 2.125-2.25c9.123-10.994 11.227-23.004 11-36.812l-.027-3.202q-.036-3.868-.098-7.736"/><path fill="#2A767D" d="m614 522 2 1v5h8c-1.303 3.909-2.708 6.46-6 9-2.687.313-2.687.313-5 0-1.939-1.939-1.732-5.079-2.012-7.7.016-3.115 1.082-4.907 3.012-7.3"/><path fill="#F8DF51" d="m320 302 1 2 2.938-.562L327 303c1 1 1 1 1.063 3.563L328 309l-2.437.938c-2.454.825-2.454.825-3.563 2.062-3.948.263-6.604.09-10-2v-5l2.875-.937c2.986-.937 2.986-.937 5.125-2.063"/><path fill="#0A161C" d="M271 508h1c.292 4.381-.133 7.843-1.375 12.063-1.925 6.549-2.786 13.176-3.625 19.937h-1l-2 12c-.893-3.573-1.059-5.822-.879-9.422l.147-3.105.17-3.223.158-3.27q.195-3.99.404-7.98h1l2-11 2 2z"/><path fill="#FCF9E0" d="m270 424 1.688 2.188c2.291 2.787 4.727 5.298 7.312 7.812l-2.312 1.125c-3.208 2.238-4.186 4.317-5.688 7.875l-2-3a659 659 0 0 0-2.625-3.687l-1.352-1.887L264 433l2.438-2.25c2.332-2.503 3.197-3.468 3.562-6.75"/><path fill="#021823" d="M340 396c0 3 0 3-2 6l-.836 2.883c-1.35 3.615-2.998 5.36-5.789 7.992l-2.477 2.367L327 417c0-3 0-3 1-4l-3-1-.875 1.938C323 416 323 416 321 417c.578-3.902 2.355-6.135 5-9l2.34-1.36c2.937-1.81 5.072-3.855 7.473-6.327l2.394-2.45z"/><path fill="#FDEC18" d="M346 261h1c.375 7.883-.553 14.12-4.812 20.875-3.546 3.445-6.605 5.037-11.563 5.313L328 287v-2l2.082-.918c6.871-3.021 6.871-3.021 10.918-9.082l1-3h2c.09-.94.09-.94.184-1.898l.253-2.477.247-2.46C345 263 345 263 346 261"/><path fill="#F6E472" d="M392 271c3.688.875 3.688.875 7 2 .934 3.01 1.044 3.867 0 7-2.902 1.313-5.824 1.867-9 2-2.562-1.562-2.562-1.562-4-4-.25-2.75-.25-2.75 0-5h3z"/><path fill="#FDF9EA" d="m436.625 186.438 2.477.308L441 187v1l-3.312.875c-3.728.944-3.728.944-6.688 3.125-1.005 3.015-1.103 5.042-1.062 8.188l.027 2.73L430 205l-4 2c-2.1-4.199-1.547-9.44-1-14 2.645-5.28 5.893-7.3 11.625-6.562"/><path fill="#0C171D" d="M733 649c-1.822 12.012-17.753 24.992-26 33l-1-3 2.633-2.562c10.667-10.39 10.667-10.39 18.617-22.875C729.491 649 729.491 649 733 649"/><path fill="#20B1B5" d="M572 300c2.54 6.999-1.217 16.48-3.687 23.188-1.598 3.37-3.09 4.54-6.563 5.875L558 330c1.507-3.1 3.158-6.11 4.818-9.129 3.705-6.78 6.845-13.477 9.182-20.871"/><path fill="#1F9BA7" d="M733 591c1.638 4.033.28 7.441-1 11.375l-.67 2.113c-2.392 7.214-5.713 13.84-9.33 20.512l-1-2c.777-1.988.777-1.988 1.938-4.312 2.156-4.64 2.156-4.64 2.062-9.688l-2-2 1.426-1.977c3.238-4.546 6.292-8.922 8.574-14.023"/><path fill="#944A51" d="M504 547c-2.666 1.777-5.028 2.875-8 4l.625 2.25c.375 2.75.375 2.75-.125 4.813-2.302 2.973-5.176 4.213-8.5 5.937-1.283-2.114-2.062-3.414-1.797-5.914 1.027-2.688 2.418-3.865 4.61-5.711l2.082-1.79c3.792-2.856 6.333-3.85 11.105-3.585"/><path fill="#00111B" d="M397 536c4.08 1.95 7.836 4.354 11.66 6.758C411 544.234 411 544.234 414 544l1.766-1.023c3.142-1.374 5.598-.94 8.984-.602l3.547.336L431 543l-4 3 3 1v2c-11.184.355-19.56-1.712-29-8-2.687-2.875-2.687-2.875-4-5"/><path fill="#FDEF1D" d="M373 291c-3.445 2.296-5.938 2.54-10 3l-1 3-2.812 2c-4.51 3.547-5.521 8.726-7.188 14a273 273 0 0 1-2 5c-1.322-3.966-.345-6.946.625-10.875l.465-2.145c1.206-4.946 2.87-7.656 6.91-10.98 5.287-2.893 9.136-3.309 15-3"/><path fill="#C6B145" d="m761 437 2 1v2l3 1 2 1v3l2 1 6 3v7h-6l.625-1.812c.682-2.473.682-2.473-1.625-5.188l-3-1v-2l-3 1v-3l-3-1z"/><path fill="#031319" d="M362 527c3.71 1.236 4.326 2.91 6.313 6.125 2.112 2.347 3.607 2.542 6.687 2.875l1-2 1.828 1.863 2.422 2.45 2.39 2.425A55 55 0 0 0 389 546c-10.918-1.761-20.206-7.1-27-16z"/><path fill="#D4E1E3" d="M603 731c-3.006 1.686-5.577 2.394-8.984 2.852l-2.832.39-2.934.383-2.98.406q-3.634.494-7.27.969v1c-9.822 1.093-19.193.818-29 0v-1l21.658-2.216 7.932-.811 2.444-.25c4.664-.478 9.324-.985 13.98-1.532 2.667-.256 5.31-.26 7.986-.191"/><path fill="#0C7B8F" d="M659 508h1c-.8 12.605-6.561 23.53-16 32a524 524 0 0 1-5 4l-1.562 1.75C636 547 636 547 632 547v-3c3.088-1.765 4.233-2 8-2v-3c3-2 3-2 6-2v-3l2-2c3.115-3.504 4.739-6.48 6-11h2z"/><path fill="#FD9200" d="M478 310c2.878 1.328 5.134 2.85 7.563 4.875 12.487 9.32 28.576 9.068 43.437 7.125-4.631 4.631-12.585 3.358-18.715 3.39-10.913-.16-20.975-3.003-29.285-10.39-1.937-2.812-1.937-2.812-3-5"/><path fill="#0D2328" d="M422 312h3c1 2 1 2 .383 4.664-1.673 4.036-3.91 7.225-6.508 10.711l-1.418 1.941A808 808 0 0 1 414 334l-2-1c.645-3.485 2.101-6.028 4-9l-1-1a505 505 0 0 1 3.313-5.5l1.863-3.094z"/><path fill="#FEF114" d="M323 291c7.016.158 12.697 1.126 18 6 3.711 4.65 4.871 8.656 5.75 14.375l.379 2.23c.303 1.797.589 3.596.871 5.395h-2c-1.944-3.384-2.593-6.62-3.312-10.437-1.566-6.914-1.566-6.914-6.688-11.563-4.274-1.854-8.596-3.485-13-5z"/><path fill="#FCEA16" d="M685 240c1.866 2.8 2.572 4.631 3.438 7.813 2.222 7.65 2.222 7.65 7.437 13.5 2.842 1.534 4.945 2.313 8.125 2.687v2l5 1c-5.042 1.712-9.215-.148-14-2-4.818-2.618-6.382-6.213-8.219-11.184-1.263-4.554-1.602-9.107-1.781-13.816"/><path fill="#012232" d="M400 533c3.406.973 5.994 1.996 8.938 4 3.027 2.197 3.027 2.197 6.875 3.063L419 541l1 3h-5l-1 2a322 322 0 0 1-5.937-2.687l-3.34-1.512C402 540 402 540 401.183 537.418L401 535z"/><path fill="#FCEB11" d="M350 262c1.71 3.309 3.182 6.692 4.625 10.125l1.352 3.195C357 278 357 278 357 280c2.652 1.075 5.284 2.095 8 3v2l6 2v1c-5.553.854-8.604-1.24-12.95-4.352-3.994-3.21-6.725-6.68-8.05-11.648-.154-3.34-.117-6.659 0-10"/><path fill="#FBF9E2" d="M761 444h2l1.25 2.875c1.754 3.132 2.459 3.99 5.75 5.125l-3 2q-1.53 1.47-3 3l-3 3-1.375-2.937c-1.283-3.134-1.283-3.134-3.625-4.063v-2l3-3c1.176-2.1 1.176-2.1 2-4"/><path fill="#FBE342" d="m464 206 1.875 1c2.035 1.142 2.035 1.142 4.125 1v2h-2c1.302 4.08 1.302 4.08 3 8a101 101 0 0 1-3 6l2 2c-3.29 2.194-5.093 2.694-9 3-2.937-.812-2.937-.812-6-2q-1.932-.582-3.875-1.125L448 225c3.672-1.224 6.09-.665 9.844-.059 2.458.275 2.458.275 5.156-1.941l3-1c1.114-5.769 1.114-5.769-1-11a88 88 0 0 1-1-5m4 11 1 3Z"/><path fill="#5BD8D9" d="M351 485h1l-.105 3.48c-.33 15.368 1.11 30.425 11.718 42.493A172 172 0 0 0 371 538c-3.712 0-5.01-.835-8-3-10.786-13.462-14.304-29.086-13-46 .523-2.484.523-2.484 1-4"/><path fill="#081115" d="M750 496h2c3.6 12.1 5.822 23.361 6 36h-2q-.47-3.25-.937-6.5l-.56-3.855c-.389-2.82-.718-5.627-1.003-8.457L753 510l-2-1c-.414-2.941-.414-2.941-.625-6.562l-.227-3.63z"/><path fill="#042633" d="m440 542 1 3-6 3v1h-5v-2h-11c2.262-2.94 3.693-4.672 7.348-5.59 4.712-.519 9.004-.51 13.652.59"/><path fill="#FEF11F" d="M657 271c8.45 1.18 16.495 2.305 21.938 9.438 3.223 5.094 3.179 9.61 3.062 15.562-2.398-2.398-2.343-3.333-2.625-6.625l-.227-2.477L679 285h-2c-2.625-2.312-2.625-2.312-5-5v-3l-2.012-.586c-8.77-2.586-8.77-2.586-12.988-4.414z"/><path fill="#FCEA11" d="M680 240h3c-2.05 17.693-2.05 17.693-8.875 23.875-5.037 3.425-9.066 4.414-15.125 4.125 3.578-2.385 6.29-4.145 10.438-5.187 3.483-1.165 4.497-1.738 7-4.625 2.646-5.583 2.922-12.12 3.562-18.188"/><path fill="#054D57" d="M447 272c1 3 1 3 .16 4.935L446 279a158 158 0 0 0-1.55 4.047l-.87 2.312a762 762 0 0 0-1.75 4.735c-1.786 4.72-3.887 8.862-6.65 13.084-2.158 3.333-3.915 6.887-5.75 10.404-1.298 2.195-2.537 3.732-4.43 5.418 1.483-5.187 3.852-9.394 6.563-14 5.55-9.657 9.666-19.772 13.656-30.153C446 273 446 273 447 272"/><path fill="#0B3D45" d="M472 238v2l6-1c-4.366 5.476-7.634 9.393-14.812 10.688L460 250c8.738-12 8.738-12 12-12"/><path fill="#FDD808" d="m488 241-1.207 1.25c-3.507 3.822-5.486 7.058-7.078 11.977-1.002 2.485-2.837 3.895-4.715 5.773-1.278 3.635-1.278 3.635-2 7-2-3-2-3-1.781-4.875 1.244-3.385 2.952-6.498 4.625-9.687 1.033-2.178 1.616-4.106 2.156-6.438 2.165-3.68 5.62-7.19 10-5"/><path fill="#0B6362" d="m475 232 2 1-1.906 1.617C467.475 241.25 461.098 248.253 456 257l-1.562 2.5c-1.5 2.457-1.5 2.457-2.438 5.125-1.018 2.417-2.035 3.678-4 5.375 1.695-14.5 14.631-27.556 25-37z"/><path fill="#FEF7B4" d="m460 197 5 5h-2l.875 2.598c3.86 11.888 3.86 11.888 3.125 17.402l-2 2-.812-2.937c-.6-2.147-1.25-4.23-2.024-6.32-1.775-4.805-2.234-7.632-1.164-12.743-.823-2.32-.823-2.32-2-4z"/><path fill="#BEC6C8" d="M676 736c-3.698 2.466-7.198 2.952-11.5 3.625l-2.515.4c-9 1.308-17.915 1.25-26.985.975v-1q7.07-.862 14.142-1.709 2.402-.289 4.804-.582 3.465-.422 6.933-.834l2.144-.265c4.369-.515 8.589-.69 12.977-.61"/><path fill="#FEFAEC" d="M398 235c6.577.577 6.577.577 8 2 .188 2.438.188 2.438 0 5-2 2-2 2-5 2.25-3-.25-3-.25-5-2.25-.25-2.5-.25-2.5 0-5z"/><path fill="#FDFBEA" d="m610 230 4 2v2l4 1c-1.88 3.571-3.17 5.547-7 7l-4-3c.557-3.344 1.352-6.033 3-9"/><path fill="#FEF14D" d="M496 159c2.02 3.03 2.262 3.774 2.379 7.203l.103 2.473.08 2.574c.206 5.657.524 11.16 1.438 16.75l-3-1c-2.51-6.458-3.397-13.122-3-20h2l-.562-2.875C495 161 495 161 496 159"/><path fill="#082C38" d="M486 734c2.215-.36 2.215-.36 5-.34h3.155l3.415.047 3.49.013c3.688.017 7.376.054 11.065.092q3.744.024 7.488.042 9.194.05 18.387.146v1h-34v2h-20z"/><path fill="#F5D94C" d="m628 174 1 2h3l.586 1.68.789 2.195.773 2.18c.79 2.127.79 2.127 2.852 3.945h-4l-1 3c-2.615 1.239-5.255 2.085-8 3l2-6h3l1-6h-3z"/><path fill="#FEEB52" d="m537 184 4 2c.098 6.152.098 6.152 0 8l-1 1c-2.69-.176-5.329-.618-8-1l-1-3c1.215-1.824 1.215-1.824 2.938-3.687l1.714-1.887z"/><path fill="#FCEC0E" d="M711 271c-3.066 1.645-6.125 2.703-9.437 3.75-4.775 1.755-8.347 3.48-10.563 8.25-1.24 3.959-2.19 7.933-3 12h-1c-.414-7.76.138-12.484 5.188-18.687 5.844-4.806 11.399-5.71 18.812-5.313"/><path fill="#FBE453" d="M560 176h8c.44 5.285.44 5.285 0 8-2.5 2.5-2.5 2.5-5 4v-3l-4-1c-.125-5.75-.125-5.75 1-8"/><path fill="#066D74" d="m445 546 1 2h-2l-1 3-2.5.313c-2.707.531-4.792 1.124-7.312 2.125-8.074 3.134-15.631 3.843-24.25 3.687l-2.913-.027A897 897 0 0 1 399 557v-1l3.191-.113c15.397-.653 28.824-3.228 42.809-9.887"/><path fill="#60D1D5" d="m579 545 1.844.621c8.367 2.572 16.472 3.063 25.156 3.379-2.139 2.139-3.133 2.427-6 3l2 2c-8.877-.153-15.377-3.847-23-8z"/><path fill="#293023" d="M524 220c6.028-.464 9.772.884 15.063 3.688l2.064 1.029c4.47 2.297 8.12 4.94 11.873 8.283l-2 2-1.941-1.39c-10.29-7.388-10.29-7.388-22.239-11.118L525 222z"/><path fill="#FDF7B9" d="M504 188c.315.808.63 1.616.953 2.45l1.297 3.238 1.266 3.199c1.493 3.132 3.216 5.501 5.484 8.113-2.25.375-2.25.375-5 0-4-4.973-4-4.973-4-8h-3l-1-8c2-1 2-1 4-1"/><path fill="#C2AB47" d="M269 419h3l1 5-2 1v-2h-2v3l-1.875.688c-2.874 1.775-3.327 3.047-4.125 6.312.305 3.725.305 3.725 1 7l-1-2h-2v-2l-4-1 1.277-1.645 1.66-2.168 1.653-2.144c1.579-2.084 1.579-2.084 2.41-5.043l3-1v-2h2z"/><path fill="#0F1F21" d="M575 268c1.866.248 1.866.248 4 1 1.188 1.766 1.188 1.766 2.14 4.035l1.055 2.451 1.055 2.577 1.102 2.587A553 553 0 0 1 587 287h2l-1 3c-2.905-1.002-3.885-1.8-5.437-4.5L581 282a1375 1375 0 0 0-2.625-5.125c-1.516-2.949-2.7-5.623-3.375-8.875"/><path fill="#F4EA03" d="M460 291c2.485 2.597 3.228 4.742 3.813 8.188 1.974 9.744 9.597 16.798 16.187 23.812l-1 2c-8.968-6.835-16.336-16.43-18.523-27.695-.243-2.094-.373-4.2-.477-6.305"/><path fill="#20A6A5" d="M539 568v3c-1.68 1.535-1.68 1.535-3.875 3.063-3.027 2.131-5.484 4.208-7.937 7-2.451 2.17-3.981 2.58-7.188 2.937v-2l-3-1 1-2c1.969-.64 1.969-.64 4.5-1.25 6.407-1.795 11.792-5.042 16.5-9.75"/><path fill="#FEA600" d="M467 282h1l.516 3.035c1.253 6.997 2.519 12.949 6.484 18.965v3h2v2l2 1c1.125 2.063 1.125 2.063 2 4h-3a60 60 0 0 1-4-6l-2.062-3.375c-4.252-7.696-5.377-13.786-4.938-22.625"/><path fill="#FDF9DD" d="m396 176 1 3q2.491 1.021 5 2l2 3c-3.44 2.294-4.723 3-9 3l-2-1c-.366-4.273.592-6.488 3-10"/><path fill="#0D1718" d="M696 409c8.22 3.727 15.13 12.647 20 20l-1 3-1.898-2.152-2.477-2.786-2.46-2.777c-1.952-2.321-1.952-2.321-4.165-3.285l-1.312-2.25c-1.64-2.91-1.64-2.91-4.375-5.437L696 411z"/><path fill="#FEEB4C" d="m488 184 .375 2.438L489 189l2 1v2h-3l-1 2v-4h-8v4h-3c.601-5.411.601-5.411 2.313-7.937C480 185 480 185 482.125 185.375L484 186l1-1c2-1 2-1 3-1"/><path fill="#BEC7C9" d="M304 726c7.245 1.167 14.327 2.763 21.428 4.59 3.51.903 7.01 1.743 10.572 2.41v1c-7.203.322-13.538-.494-20.5-2.312l-2.703-.647-2.578-.654-2.315-.587C306 729 306 729 304 726"/><path fill="#E1CB4F" d="m332 328 4 1v7h-4v2l-8 2-1-5 2.813-.437c3.194-.484 3.194-.484 6.187-1.563z"/><path fill="#076674" d="M364 678q3.41 1.898 6.813 3.813l1.947 1.08c3.145 1.776 5.77 3.48 8.24 6.107q-4.19-.925-8.375-1.875l-2.406-.527-2.305-.528-2.126-.476C364 685 364 685 362 683l3-1z"/><path fill="#D5B934" d="M764 446h2v2l1.875.25c2.125.75 2.125.75 3.5 2.563.625 2.187.625 2.187-.25 4.437L770 457h-2v2c-3 2-3 2-5.187 1.625L761 460c4-6.571 4-6.571 8-8l-2.5-1.312L764 449z"/><path fill="#000E11" d="m403 448 1 2c-3.069 1.023-4.873 1.013-8.062.875-5.775-.069-10.543 1.182-15.938 3.125l-3 1c1-3 1-3 3.266-4.168 7.763-2.652 14.557-3.307 22.734-2.832"/><path fill="#084648" d="M523 219v3l2 2c-1.415.197-2.832.382-4.25.563l-2.39.316c-2.365.121-4.111-.183-6.36-.879v-2l-9-1v-1q4.156-.251 8.313-.5l2.38-.145 2.295-.136 2.11-.127c1.633-.079 3.268-.092 4.902-.092"/><path fill="#13BBC5" d="m389 528 2.063 2.063 1.414 1.386C394 533 394 533 395.398 534.645c4.652 5.23 10.253 7.966 16.493 10.875C415 547 415 547 418 549c-5.297-.54-9.215-1.842-14-4h-2v-3l-2.75-.625c-4.04-1.71-5.02-3.684-7.25-7.375l-3-2z"/><path fill="#155248" d="m523 219 4 1-2 1 7 3-3 3 2 2a676 676 0 0 1-5.25-.875l-2.953-.492c-2.57-.582-4.518-1.341-6.797-2.633l6-1-4-2h5z"/><path fill="#B9C3C5" d="M349 736c8.352.523 16.68 1.08 25 2v1l6 1v1c-10.45-.48-20.664-1.313-31-3z"/><path fill="#FDFAE3" d="M658 294c2.625.375 2.625.375 5 1 .75 2.188.75 2.188 1 5-1.937 2.813-1.937 2.813-4 5-3.898-3.29-3.898-3.29-4.375-6.625C656 296 656 296 658 294"/><path fill="#A2B2B5" d="M536 736c2.477-.328 2.477-.328 5.625-.25l3.488.078c6.636.294 13.262.696 19.887 1.172v1c-3.79.886-7.287 1.117-11.176 1.098l-3.506-.01-3.63-.025-3.69-.014q-4.5-.018-8.998-.049z"/><path fill="#FCFADC" d="M443 219c7.328.792 14.495 3.595 21 7-7.35.432-13.902-1.182-21-3z"/><path fill="#000C0F" d="M615 452c-2.372 2.372-3.772 2.595-7 3.375-5.553 1.436-10.723 3.4-16 5.625q-2.499 1.005-5 2c1-3 1-3 3.66-4.535 15.397-6.912 15.397-6.912 24.34-6.465"/><path fill="#E6CC48" d="M423 260c1.938.375 1.938.375 4 1l1 2h2l-1 3-5 2-1 3-7-1 1-3 6-1z"/><path fill="#116375" d="M405 487c1.5 1.188 1.5 1.188 3 3 .25 2.625.25 2.625 0 5-1 1-1 1-3.437 1.188C402 496 402 496 400 494c.125-2.5.125-2.5 1-5 2.063-1.312 2.063-1.312 4-2"/><path fill="#192928" d="m349 386 2 1-1.312 1.188c-1.817 1.791-1.817 1.791-3 4.312C345 395 345 395 342.23 396.332c-3.584 1.85-5.818 3.956-8.605 6.856l-2.648 2.73L329 408l-2-1q2.928-3.008 5.875-6l1.684-1.734c1.442-1.46 2.938-2.867 4.441-4.266h2v-2c1.75-1.727 1.75-1.727 4-3.625l2.25-1.914z"/><path fill="#FDF9EB" d="M324 327c3.366 1.443 5.51 3.333 8 6-2.75 1.625-2.75 1.625-6 3-2.25-.75-2.25-.75-4-2l-2-1c0-2 0-2 2-4.125z"/><path fill="#4BADB1" d="m413 549 2 2 3 1v2h-15l-1-2 1-2c3.342-.928 6.541-1.28 10-1"/><path fill="#1A7D8F" d="M437 484c4.706.706 4.706.706 6 2 .125 2.5.125 2.5 0 5-1 1-1 1-3.437 1.188C437 492 437 492 435 490c.556-4.556.556-4.556 2-6"/><path fill="#1C889D" d="M614 482c3.536.536 3.536.536 5 2 .188 2.438.188 2.438 0 5l-2 2c-2.625-.375-2.625-.375-5-1-.125-2.875-.125-2.875 0-6z"/><path fill="#2DBBBC" d="M449 294c1.693 2.54 2.49 4.158 3.367 6.984l.746 2.336q.755 2.406 1.5 4.813c1.24 3.867 2.543 7.333 4.645 10.82L461 322l-1 2a1088 1088 0 0 1-3.695-5.922c-.96-1.53-1.965-3.03-2.993-4.515-1.615-3.155-2.18-6.196-2.785-9.672L450 302l-2-1z"/><path fill="#BAC4C6" d="m300 713-4 4c-.148 2.517-.148 2.517 1 5 2.967 1.86 2.967 1.86 6 3v1c-2.062.375-2.062.375-5 0-2.536-1.792-4.772-3.842-7-6 1.253-5.614 3.058-7.482 9-7"/><path fill="#040E10" d="M670 509h1c-.395 10.473-6.02 18.522-13 26l-2-1 1.355-1.582c5.91-7.194 9.233-14.835 12.645-23.418"/><path fill="#0B7A8F" d="M643 496h1v12l6 1-1.875.563c-3.166 2.141-3.19 4.825-4.125 8.437-1.625 2.438-1.625 2.438-3 4-.109-5.923.292-11.623 1-17.5.095-.822.19-1.645.29-2.492q.349-3.005.71-6.008"/><path fill="#07222B" d="m672 389 3.25.938c2.579.73 5.145 1.437 7.75 2.062l-1 3v-2l-2 1 3 4-2 2a478 478 0 0 1-4.5-3.812l-2.531-2.145C672 392 672 392 672 389"/><path fill="#002331" d="m347 391 2 1-2 1zm-1 2 2 1c-1.477 3.452-3.438 5.65-6.125 8.25l-2.195 2.14L338 406c-.602-1.809-.602-1.809-1-4 2.28-4.298 4.523-6.997 9-9"/><path fill="#FCF8DC" d="M711 326h2a105 105 0 0 1 4 5l-6 5-1.312-1.875c-1.685-2.345-1.685-2.345-4.688-4.125 3-2 3-2 6-2z"/><path fill="#0E1A1D" d="M450 259c1.353 4.06.152 5.771-1.437 9.688l-1.434 3.574L446 275h-3c-1-3-1-3 .145-5.883l1.668-3.242 1.644-3.258C448 260 448 260 450 259"/><path fill="#FDF6BD" d="M441 216a70 70 0 0 1 4 3h-2l-1 4c-4.875-1.75-4.875-1.75-6-4l-3-2v-2c3.693-1.23 4.582-.667 8 1"/><path fill="#FBDE30" d="M514.375 146.813 517 148v2h2l-1 3-3-1c-3.684-.132-6.49-.17-10 1v-4c5.17-3.2 5.17-3.2 9.375-2.187"/><path fill="#0A2934" d="m336 691 9 5-2 4c-3.694 0-5.778-1.282-9-3z"/><path fill="#4EB0B6" d="M646 546a318 318 0 0 1-5.687 3.125l-3.2 1.758C634 552 634 552 631.105 551.18L629 550l1-3q3.154-.543 6.313-1.062l3.55-.598C643 545 643 545 646 546"/><path fill="#FAE45D" d="m657 289 1.813.563c2.351.658 2.351.658 5.187-.563 1.327 3.981 1.07 7.85 1 12h-3l1-5c-3.583-1.002-3.583-1.002-7 0-1-3-1-3-.062-5.187z"/><path fill="#DBC135" d="m269 423 2 1c-3 7.571-3 7.571-6 10l2 1.875c2 2.125 2 2.125 2 4.125-2 0-2 0-3.36-1.355-1.398-1.843-2.625-3.563-3.64-5.645.668-3.341 1.605-4.605 4-7h3z"/><path fill="#FDF8D2" d="m561 200 1 3 2 2-5 10h-2c-.63-10.153-.63-10.153 2-13.687z"/><path fill="#EACE4A" d="M396 171h4l-1 5-1-2h-2l-.375 1.938L395 178l-2 1-1.437 2.563L390 184h-3c0-3 0-3 2.375-5.5L392 176l2-3h2z"/><path fill="#062631" d="M542 730c6.625-.25 6.625-.25 10 2 2.509.456 2.509.456 5.188.625l2.73.227L562 733l-1 3c-5.497.193-9.82-.097-15-2l-1-2z"/><path fill="#022330" d="m369 713 3.313.563c3.623.695 3.623.695 6.687-.563h4c1.063 1.875 1.063 1.875 2 4l-1 2-10-1v-2l-5-2z"/><path fill="#081419" d="m401 340 2 1c-1.375 2-1.375 2-3 4h-2l-.812 2.313c-1.152 2.605-1.993 3.93-4.188 5.687l-3 1-2 3-2-1c4.87-5.476 9.75-10.885 15-16"/><path fill="#FDF3A1" d="m567 223 1 2 2.875-.062C574 225 574 225 576 226v2c-2.96-.087-5.916-.194-8.875-.312l-2.55-.069-2.442-.107-2.254-.08C558 227 558 227 556 224l5.957.098c2.246-.015 2.246-.015 5.043-1.098"/><path fill="#07E1F1" d="M444 514c2.625.375 2.625.375 5 1 .625 1.875.625 1.875 1 4-2 2-2 2-4.625 2.125L443 521c-.625-2.375-.625-2.375-1-5z"/><path fill="#197A8D" d="M577 488c4.875.875 4.875.875 6 2 .04 1.666.043 3.334 0 5-1.812.688-1.812.688-4 1-1.812-1.125-1.812-1.125-3-3 .313-2.687.313-2.687 1-5"/><path fill="#FEF50F" d="M480 263c2.54 1.13 4.133 2.133 6.125 4.125 5.074 3.31 10.703 2.175 16.5 1.375L505 268c-1.682 2.033-2.68 2.918-5.27 3.582-5.04.457-9.092.79-13.73-1.582-2.483-2.207-4.51-4.02-6-7"/><path fill="#020B0D" d="m647 537 2 2 5-2c-2.91 3.212-5.618 5.036-9.562 6.813l-2.88 1.332C639 546 639 546 636 545z"/><path fill="#0DABAF" d="M546 529v1l-1.871.55-2.567.763c-.912.27-1.825.54-2.765.82-2.526.783-4.998 1.654-7.485 2.554-3.947 1.349-7.162 1.578-11.312 1.313v-1l8-1v-2a688 688 0 0 1 5.625-1.5l3.164-.844c3.168-.647 5.988-.772 9.211-.656"/><path fill="#065866" d="M616 719c-3.718 2.293-7.624 2.65-11.875 3.125l-2.105.262c-4.028.478-7.966.702-12.02.613 7.812-5.208 17.006-4.21 26-4"/><path fill="#458F7C" d="m611 524 2 1c-2.522 3.783-3.602 3.997-8 5-10.375.736-10.375.736-15-2 4.269-1.423 8.309-.917 12.773-.742 3.573-.286 5.267-1.344 8.227-3.258"/><path fill="#155063" d="m576 516 2 1-4 11 4 2-1 2c-3-1-3-1-4.187-3.187-.924-3.196-1.235-5.506-.813-8.813 2-2.375 2-2.375 4-4"/><path fill="#0C273B" d="M564 268c1.938.688 1.938.688 4 2 1.392 3.937.936 7.706.563 11.813l-.31 3.519L568 288c-1.842-1.567-2.888-2.506-3.432-4.901l-.08-2.11-.107-2.296-.068-2.38-.104-2.417c-.082-1.965-.147-3.93-.209-5.896"/><path fill="#FCED7C" d="M516 198h2c.75 2.188.75 2.188 1 5-1.937 2.813-1.937 2.813-4 5l-6-1v-2a349 349 0 0 1 5-4z"/><path fill="#FBE13F" d="M500.563 151.938 504 152l-5 10c-2.056-2.313-2.959-3.56-3.25-6.687.408-3.776.826-3.306 4.813-3.375"/><path fill="#F4EE1E" d="m465 255 2 1-.875 1.563c-1.416 3.068-2.251 6.176-3.125 9.437l-.625 2.25c-.48 1.94-.48 1.94-.375 4.75l-3 1c.54-7.301 2.732-13.465 6-20"/><path fill="#000507" d="m583 463 3 1-1.758 1.355c-8.952 6.49-8.952 6.49-16.242 14.645l-2-1c11.172-13.086 11.172-13.086 17-16"/><path fill="#B8A03E" d="m756 456 2 1v2c4.98.754 4.98.754 10 1a279 279 0 0 1-2.312 3.438l-1.301 1.933C763 467 763 467 760 468v-7l-4-2z"/><path fill="#FEF146" d="M328 294c5.285.387 9.3 2.219 13 6 .7 2.168.7 2.168 1 4h-2v-3c-5.478-1.583-5.478-1.583-11-3z"/><path fill="#FED80D" d="m536 240 3 1v2l3 1v2h3c2.603 3.374 3.363 5.77 3 10-3.267-3.034-5.534-6.302-8-10l-2.25-2.25L536 242z"/><path fill="#F4DD60" d="m376 241 3 1 1 3c1.5 1.667 1.5 1.667 3 3l-4 2v2l-5-1-1-3c1.207.03 1.207.03 2.438.063 2.496.233 2.496.233 3.562-1.063h-3z"/><path fill="#0A7D84" d="M551 534q.039 3.375.063 6.75l.035 3.797c-.078 2.738-.27 4.872-1.098 7.453h-3l1-17c2-1 2-1 3-1"/><path fill="#07828D" d="m624 547 1 2c-3.867 1.266-7.732 1.112-11.75 1.063l-2.113-.014q-2.57-.02-5.137-.049l-1-2c.94-.09.94-.09 1.898-.184l2.477-.254c.812-.08 1.624-.162 2.46-.246 7.608-1.112 7.608-1.112 12.165-.316"/><path fill="#01121C" d="M539 535c-1 2-1 2-3.547 2.852l-3.203.773-3.172.79c-2.79.53-5.249.7-8.078.585l1-4 3 1c1.975-.273 1.975-.273 4-.875l2.063-.555c5.123-1.508 5.123-1.508 7.937-.57"/><path fill="#01090C" d="M448 467c6.124 2.625 11.26 9.006 14 15l-1 3-1.375-2.437c-1.372-2.652-1.372-2.652-3.625-3.563l-3-5a136 136 0 0 0-2.687-3.25C448 468 448 468 448 467"/><path fill="#F4DA49" d="M352 257c.688 3.313.688 3.313 1 7-1.375 1.938-1.375 1.938-3 3h-1l-1-7h-4l1-3c2.667-1.333 4.167-.671 7 0"/><path fill="#011620" d="M732 589h1c.516 4.755-1.019 7.133-3.687 11l-2.075 3.063c-2.218 2.91-4.591 5.415-7.238 7.937 1.631-4.468 3.926-7.959 6.66-11.816 1.293-2.108 1.897-3.77 2.34-6.184h2z"/><path fill="#122328" d="M760 546h1c.123 9.74-.162 19.29-1 29h-1c-1.517-19.968-1.517-19.968 1-29"/><path fill="#00131C" d="M593 545q3.187-.118 6.375-.187l3.586-.106L606 545l2 3c-3.285 1.095-5.737 1.1-9.187 1.063l-3.293-.028L593 549z"/><path fill="#FDF7D3" d="m515 151-1.937.938c-2 .897-2 .897-3.063 2.062l4 2c-7.625 1-7.625 1-11 1l-2 1c1.01-2.665 1.94-3.952 4.188-5.75 3.436-1.527 6.091-1.469 9.812-1.25"/><path fill="#04D2E6" d="M619 514c2.063.188 2.063.188 4 1l1 3-2 3c-2.625.188-2.625.188-5 0-.125-2.375-.125-2.375 0-5z"/><path fill="#B39D3E" d="m756 446 1 4-4 2 2 1-1 4c-2.5-1.312-2.5-1.312-5-3 0-3 0-3 1.25-4.562 1.824-1.5 3.6-2.475 5.75-3.438"/><path fill="#FEEA0F" d="m506 235 1 2 3 1c1.188 2.563 1.188 2.563 2 5l-1.836-1.094c-6.29-3.483-11.008-4.591-18.164-3.906 2.68-2.68 4.392-2.387 8.125-2.625l3.32-.227z"/><path fill="#FDF6D7" d="m592 206 4 1c-.414 4.833-2.464 6.827-6 10-2-1-2-1-2.937-2.687-.104-3.819 2.401-5.592 4.937-8.313m0 2-2 4 4-1-1-3z"/><path fill="#001C2A" d="M271 508h1c.428 6.415-1.143 11.886-3 18-1.52-1.207-1.52-1.207-3-3-.074-2.262-.074-2.262.313-4.687l.363-2.45L267 514l2 2z"/><path fill="#F3D82A" d="M553 223h3l2 3c2.416.798 2.416.798 5.125 1.188l2.758.48L568 228c-2.49.687-4.379 1-7 1l-1 2v-2l-2.875-.25c-3.125-.75-3.125-.75-4.5-2.812L552 224z"/><path fill="#FEEA3B" d="M496 159c2.387 3.58 2.12 4.702 1.688 8.875l-.301 3.117A95 95 0 0 1 496 179c-2.6-3.9-2.15-7.474-2-12h2l-.562-2.875C495 161 495 161 496 159"/><path fill="#035160" d="m635 681 3 2c-1.145 1.984-1.145 1.984-3 4-2.7.39-2.7.39-5.687.25l-3.012-.11L624 687c2.09-2.09 3.775-3.008 6.438-4.25l2.37-1.14z"/><path fill="#56A383" d="M441 539c-3.081 3.081-6.073 2.973-10.332 3.098l-3.48-.035-3.52-.028L421 542c5.903-3.935 13.136-3.124 20-3"/><path fill="#B8A242" d="M772 448c2.063.438 2.063.438 4 1v7h-6c.875-6.875.875-6.875 2-8"/><path fill="#C7BA52" d="m391 308 2 2 2-1v3h-3v6l-8 2v-3c4.222-3 4.222-3 7-3z"/><path fill="#0D4342" d="M459 262c1.157 3.472.495 5.16-.453 8.594-1.001 4.405-1.233 8.908-1.547 13.406h-1a819 819 0 0 1-.187-9.875l-.077-2.84-.029-2.715-.048-2.507L456 264z"/><path fill="#FEF9E0" d="M625 177c2 1.75 2 1.75 4 4v4h-5l-2-4z"/><path fill="#FDED2E" d="M344 303c1.932 3.345 2.546 6.448 3.125 10.25l.508 3.266L348 319h-2c-1.813-3.2-2.522-6.133-3.125-9.75l-.508-2.984L342 304z"/><path fill="#FDE947" d="M557 207c1.033 2.788 1.045 3.868.063 6.75L556 216c-1.937-.312-1.937-.312-4-1l-1-3c1.783-3.032 2.596-3.865 6-5"/><path fill="#112430" d="m403 478 3 1c.66 1.742.66 1.742 1.063 3.875.602 3.11 1.096 4.364 2.937 7.125l-2 4-3-9h-2z"/><path fill="#00090C" d="M636.27 451.137c4.977 1.078 9.272 2.282 13.73 4.863v2l-1.617-.586c-5.726-2.001-11.414-3.355-17.383-4.414 3-2 3-2 5.27-1.863"/><path fill="#5B5C2D" d="m517.625 216.938 2.477.59L522 218c-2 2-2 2-3.88 2.135l-2.253-.158-2.441-.157-2.551-.195-2.574-.172c-2.101-.142-4.201-.296-6.301-.453v-1c.94-.09.94-.09 1.898-.184l2.477-.254c.812-.08 1.624-.162 2.46-.246 6.461-.944 6.461-.944 8.79-.379"/><path fill="#FEEB4A" d="M480.848 193.902 487 194v5l-7 1-2-5c1-1 1-1 2.848-1.098"/><path fill="#010509" d="M758 536h1c1.746 6.103 2.637 11.756 1 18l-2 2z"/><path fill="#0FABB0" d="M488 528v3l11 3v1c-5.653-.496-9.78-1.636-15-4-2.779-.691-2.779-.691-5-1v-1c3.153-.7 5.727-1 9-1"/><path fill="#001E2B" d="m418 323 2 3-6 8-2-1c.646-3.489 2.019-6.068 4-9z"/><path fill="#25352D" d="m427 303 4 2c-3.446 5.785-3.446 5.785-6.25 6.875L423 312l1-8 3 1z"/><path fill="#EFD752" d="M395 272c2.063.438 2.063.438 4 1 .934 3.01 1.044 3.867 0 7h-4a177 177 0 0 1-1-7z"/><path fill="#0A6A77" d="m652 673 2 2c-2.432 1.2-4.87 2.385-7.312 3.563l-2.092 1.037c-5.256 2.513-5.256 2.513-8.596 1.4z"/><path fill="#031724" d="M506 577h14l-2 3c-2.82.293-2.82.293-6.125.188l-3.32-.083L506 580z"/><path fill="#000B0E" d="M665 473c4.003 4.003 5.877 7.742 6.188 13.438L671 489c-2-3-2-3-2-6h-2z"/><path fill="#A6E6DE" d="m384 395 2 1c-1.408 3.215-3.103 5.322-5.625 7.75l-1.914 1.86L377 407c0-4.61 2.675-7.58 5.75-10.875z"/><path fill="#00151D" d="m449 728 6 1-2 1v2l3 2h-9l2-2z"/><path fill="#00090B" d="M651 458c4.285 1.366 6.431 3.207 9.313 6.625l2.113 2.477L664 469l-1 3-2.062-3.125c-2.464-3.483-5.259-6.06-8.583-8.71-.447-.385-.894-.77-1.355-1.165z"/><path fill="#182624" d="m386 354 2 1a416 416 0 0 1-4.187 4.938l-2.356 2.777c-2.61 2.427-3.964 2.993-7.457 3.285z"/><path fill="#ECD34A" d="M312 305h5l.375 1.938L318 309l2 1v2c-2.763-.523-5.326-1.109-8-2z"/><path fill="#333623" d="M432 289h3c1 3 1 3 .11 5.445l-1.36 2.68-1.328 2.695C431 302 431 302 428 303l.875-2.125c2.344-5.773 2.344-5.773 3.125-11.875"/><path fill="#1F2822" d="M588 291c3.05 3.66 7 9.079 7 14-3-1-3-1-4.168-2.672-3.385-6.9-3.385-6.9-2.832-11.328"/><path fill="#FDEA46" d="M686 289h1l1 5 3-3c-.479 5.268-.963 5.963-5 10z"/><path fill="#F0D854" d="M416 261q.57 2.988 1 6c-1 1-1 1-3.562 1.063L411 268c0-4 0-4 1.375-5.75C414 261 414 261 416 261"/><path fill="#FEC00D" d="M462 213c1.995 3.99 2.287 5.69 2 10-1 1-1 1-4.375 1.25C456 224 456 224 454.063 222.5L453 221l8 1z"/><path fill="#FEFBD9" d="M537 189c2.063.438 2.063.438 4 1l-1 5h-5c.875-4.875.875-4.875 2-6"/><path fill="#FBDF3A" d="m519 152 7 1v6l-3 1c-4-5.75-4-5.75-4-8"/><path fill="#172329" d="M303 667c3.507.565 5.027 1.687 7.313 4.375l1.613 1.836L313 675l-1 3-1-3-3-1c-1.387-1.629-1.387-1.629-2.687-3.562l-1.325-1.942z"/><path fill="#0C1B23" d="M268 585c2.03 3.315 2.127 5.432 1.625 9.25l-.336 2.703L269 599h-1l-.148-1.934-.227-2.504c-.07-.823-.14-1.647-.21-2.496L267 590l-2-1c2-3 2-3 3-4"/><path fill="#36A19A" d="M510 581c6.625-.125 6.625-.125 10 1v2a609 609 0 0 1-6.312.125l-3.551.07C507 584 507 584 504 582h6z"/><path fill="#0E838A" d="m661 533 2 3-7 6-1-2z"/><path fill="#01080A" d="M362 527c3 1 3 1 5 4 2.233 2.953 3.897 4.931 7 7l-1 2a2696 2696 0 0 1-3.812-3.312l-2.145-1.864L365 533l-1.762-1.543C362 530 362 530 362 527"/><path fill="#29B2B6" d="M565 318c1.474 2.949.684 5.048-.121 8.156C564 328 564 328 560.875 329.5L558 330c1.383-2.869 2.921-5.56 4.625-8.25l1.352-2.14z"/><path fill="#F7DD53" d="m633 208 1 3c-1.911 3.087-3.17 4.704-6.625 5.938L625 217l-2-2c2-2 2-2 4.438-2.375 3.168-.773 3.895-1.906 5.562-4.625"/><path fill="#EED245" d="m628 174 1 2h3l2 7-2 1v-3l-5-1z"/><path fill="#087F89" d="M405 545q2.19.676 4.375 1.375l2.46.773C414 548 414 548 416 550l-15-1 4-2z"/><path fill="#62C3C6" d="M364 535c4.71 2.072 9.687 4.888 12.438 9.313L377 546c-4.01-1.342-6.387-3.027-9.312-6.062l-2.114-2.16C364 536 364 536 364 535"/><path fill="#0A6C83" d="M659 508h1c-.433 6.82-1.908 11.916-5 18h-2l1-5h2z"/><path fill="#00465B" d="M377 470c2.063.438 2.063.438 4 1l-9 9-2-1q1.467-1.97 2.938-3.937l1.652-2.215C376 471 376 471 377 470"/><path fill="#FCEE10" d="M657 271c6.156.931 11.608 1.794 17 5v2l-2.105-.867c-3.041-1.19-6.106-2.236-9.207-3.258l-3.239-1.07L657 272z"/><path fill="#F4E790" d="M581 246h6c.563 1.938.563 1.938 1 4-1 1-1 1-3.562 1.063L582 251z"/><path fill="#BAC3C5" d="M682 700c3.793 1.002 6.715 1.81 10 4h-14z"/><path fill="#065B69" d="m646 678 2 1 3 1v2c-4.43 2.092-4.43 2.092-7.312 1.625L642 683z"/><path fill="#1A2421" d="M410 329c1 3 1 3 .375 4.938-1.784 2.675-3.696 4.298-6.375 6.062l-3-1 1.46-1.426c.633-.622 1.264-1.245 1.915-1.887l1.898-1.863c1.908-1.912 1.908-1.912 3.727-4.824"/><path fill="#121938" d="M537 332c-9.537 4.139-9.537 4.139-14.187 4.063L519 336v-1l2.555-.621 3.32-.817 3.305-.808c5.993-1.602 5.993-1.602 8.82-.754"/><path fill="#F8F4C7" d="M385 309c2.063.438 2.063.438 4 1l1 4-5 1a88 88 0 0 1-1-5z"/><path fill="#011720" d="m452 300 3 1 .313 3.438c.578 4.756 2.038 9.081 3.687 13.562-2.887-2.457-3.932-4.893-5.187-8.437l-1.043-2.872C452 304 452 304 452 300"/><path fill="#0C1F22" d="M437 284c2.063.438 2.063.438 4 1 0 3 0 3-1.312 4.688C438 291 438 291 435 291c.875-5.875.875-5.875 2-7"/><path fill="#094F54" d="m453 257 2 2-1.375 2.25c-1.599 2.62-1.599 2.62-2.687 4.938C450 268 450 268 448 270c.515-5.281 2.255-8.572 5-13"/><path fill="#212820" d="m454 250 3 2a259 259 0 0 1-2.312 4l-1.301 2.25L452 260h-3c1.335-3.594 2.96-6.755 5-10"/><path fill="#08A4A8" d="m579.75 633.938 2.984.027L585 634c-3.285 2.19-4.831 2.353-8.687 2.625l-3.012.227L571 637l-1-2c3.31-1.001 6.3-1.104 9.75-1.062"/><path fill="#081320" d="M530.2 571.922 532 573c-1.264.7-2.537 1.384-3.812 2.063l-2.145 1.16C524 577 524 577 521 576c1.756-3.512 5.474-5.64 9.2-4.078"/><path fill="#4AAAB0" d="m596 551 15 1c-2.9 1.934-3.897 2.301-7.187 2.625L600 555v-2z"/><path fill="#000C11" d="M359 475c-.644 3.012-1.65 5.517-3.062 8.25l-1.098 2.14L354 487h-1c1-12 1-12 6-12"/><path fill="#02A3A9" d="M317 461c1 2 1 2 .125 4.813L316 469c-.361 1.66-.705 3.326-1 5h-2l-1 2c.481-5.774 2.185-9.959 5-15"/><path fill="#FDF9D1" d="M317 305h6l-2 5-4-1z"/><path fill="#0AA8AD" d="M573 291c2 1 2 1 2.887 3.18l.8 2.695.825 2.68C578 302 578 302 577 305l-3-6h-1z"/><path fill="#FEEF25" d="m337 281 1 2-2 1 1 2-9 1v-2z"/><path fill="#ECD450" d="m585 242 5 1 1 6-3 1-1-4h-2z"/><path fill="#C2CACB" d="M694 733c-2.506 2.506-4.186 2.97-7.7 3.098l-2.987-.035-3.012-.028L678 736v-1c5.38-1.19 10.453-2.292 16-2"/><path fill="#0D1519" d="M292 650c2.929 2.824 5.584 5.722 8 9v2c-4.21-1.504-5.832-4.207-8-8z"/><path fill="#128A8B" d="M533 576c-.332 3.1-1.055 4.055-3.312 6.313C527 584 527 584 524.688 583.75L523 583l2.438-1.312c2.84-1.493 2.84-1.493 3.562-4.688 2-1 2-1 4-1"/><path fill="#0C8D9A" d="m641 540 2 1-2.937 1.875c-3.091 1.782-3.091 1.782-4.063 4.125h-4v-3a419 419 0 0 1 4.375-2.062l2.46-1.16z"/><path fill="#0FA4B1" d="M389 528c3.596 3.494 6.835 7.111 10 11l-3 1-1.812-2.875c-2.004-3.265-2.004-3.265-5.188-5.125z"/><path fill="#0E2428" d="M627 346c3.394 3.126 5.606 5.565 7 10-2.861-1.282-5.114-2.453-7-5-.187-2.687-.187-2.687 0-5"/><path fill="#FDFAE3" d="M417 263h6v4h-6z"/><path fill="#FEF396" d="M562 180h6v4c-3.75 1.125-3.75 1.125-6 0z"/><path fill="#0A707D" d="m364 678 8 5c-2.621 0-4.51-.313-7-1zm-1 4 5 2c-1.875.625-1.875.625-4 1l-2-2z"/><path fill="#141E23" d="m721 663 3 1-8 9-1-3c1.215-1.824 1.215-1.824 2.938-3.687l1.714-1.887z"/><path fill="#0A1A21" d="M279 629h4l2 8h-3c-3-5.75-3-5.75-3-8"/><path fill="#020509" d="M265 538h1v17l-2 1c-1.26-3.78-.64-6.844-.062-10.687l.302-2.127A896 896 0 0 1 265 538"/><path fill="#46ACB1" d="m630 547 7 1v3c-2.312.688-2.312.688-5 1-1.812-1.437-1.812-1.437-3-3z"/><path fill="#040E10" d="M354 512c2.645 1.322 2.978 2.645 4.188 5.313l1.105 2.363c.785 2.58.606 3.82-.293 6.324a486 486 0 0 1-2.5-4.75l-1.406-2.672C354 516 354 516 354 512"/><path fill="#FEC100" d="M510 325h11v3c-5.957.293-5.957.293-8 0z"/><path fill="#10979B" d="M447 299h3l1 7-2 1v-2l-3 1z"/><path fill="#FDEF1C" d="m670 264 1 2c-4.177 1.591-7.532 2.213-12 2 6.375-4.25 6.375-4.25 11-4"/><path fill="#FEE74B" d="M426 222c2 2 2 2 2.125 5.625L428 231l-7-1 4-1z"/><path fill="#9EAEB1" d="M637 741c5.437-.518 5.437-.518 8 0l3 3h-13z"/><path fill="#0D1C20" d="m753 595 3 1c.813 1.938.813 1.938 1 4l-2 2a89 89 0 0 0-2 4c-.841-4.018-1.054-7.018 0-11"/><path fill="#12898A" d="M487 572c3.362 1.44 5.592 3.248 8 6v2a56.5 56.5 0 0 1-7-4c-.687-2.125-.687-2.125-1-4"/><path fill="#061F2F" d="M597 489h3c-.947 2.368-1.653 3.752-3.75 5.25-2.828.943-5.29.885-8.25.75v-1l2.813-.812c3.051-1.137 4.037-1.936 6.187-4.188"/><path fill="#001925" d="M407 339v3c-5.233 5-5.233 5-9 5v-2c2.774-2.363 5.859-4.167 9-6"/><path fill="#283328" d="M582 280h2l3 7h2l-1 3c-2.866-1.051-3.83-1.669-5.25-4.437C582 283 582 283 582 280"/><path fill="#EAD452" d="M417 267h7l-1 4-7-1z"/><path fill="#FDFBE5" d="M348 260h1l1 11-4 1z"/><path fill="#E1C949" d="m584 242 1 4h-4l1 4-4-2c1.049-2.622 1.65-3.794 4.125-5.25z"/><path fill="#FDF3A7" d="M425 205c3.129 0 4.374.425 7 2l1 2-4-1-1 3-4-5z"/><path fill="#FCFAE8" d="m457 197 5 5-2 4c-2.097-2.36-2.97-3.546-3.187-6.75z"/><path fill="#FEF9D5" d="m468 171 5 1v4h-5z"/><path fill="#CAD5D6" d="m340 700 11 6c-3.673 1.224-4.575.541-8-1l-3-1z"/><path fill="#185E73" d="m401 515 2 1-.937 1.625C400.822 520.398 400.409 523 400 526h2l-1 2h-2a351 351 0 0 1-.125-4.812l-.07-2.708C399 518 399 518 401 515"/><path fill="#146B7C" d="m613 484 5 1-1 4h-4z"/><path fill="#D5B733" d="M758 443h3c-.547 3.375-1.055 5.082-3 8l-3-1h2z"/><path fill="#D4BC4C" d="M707 336c1.813.188 1.813.188 4 1 1.75 2.563 1.75 2.563 3 5l-4 2v-5h-2z"/><path fill="#142121" d="M595 305c2.4 2.88 4.473 5.564 6 9-3 0-3 0-4.687-1.125-1.848-2.64-1.522-4.733-1.313-7.875"/><path fill="#4A4C2C" d="m575 259 .313 1.938L576 263l3 1-1 4h-3c-1.125-2.25-1.125-2.25-2-5 .875-2.312.875-2.312 2-4"/><path fill="#E5CA43" d="m442 243 3 1v2l2 1h-3l-1 3-3-3z"/><path fill="#2C2F21" d="M561 243c3.356 1.389 5.073 2.917 7 6v2c-3.356-1.389-5.073-2.917-7-6z"/><path fill="#FDE741" d="M679 241h1l-1 13h-1v-6l-2-1z"/><path fill="#404325" d="M486 225c-3.61 3.291-6.126 4.547-11 5 6.17-6.61 6.17-6.61 11-5"/><path fill="#FEF9E2" d="M465 215h2c.125 3.375.125 3.375 0 7l-2 2c-1-1-1-1-1.125-4.5C464 216 464 216 465 215"/><path fill="#BFC7C9" d="M708 730v2c-3.981 1.327-7.85 1.07-12 1 4.139-2.76 7.072-3.137 12-3"/><path fill="#020D12" d="M609 726h10c-3.162 2.108-4.507 2.338-8.187 2.625l-2.731.227L606 729l3-1z"/><path fill="#055260" d="M391 715c4.548-.178 7.88.002 12 2v1c-1.626-.114-3.25-.242-4.875-.375-.905-.07-1.81-.14-2.742-.21C393 717 393 717 391 715"/><path fill="#191F1C" d="m306 432 1 4c-1.937 2.75-1.937 2.75-4 5l-3-1z"/><path fill="#B5A142" d="m280 432 4 1v2h-3l-1 5-4-1 2-2.937c2.091-2.593 2.091-2.593 2-4.063"/><path fill="#FEEE25" d="m360 282 5 1v2l6 2v1c-2.875.125-2.875.125-6 0-1.894-1.894-3.42-3.845-5-6"/><path fill="#FEF59C" d="M522 189c1 3 1 3 .223 5.043l-1.16 2.144-1.153 2.168L519 200l-1-2-2-1h3l.375-3.437L520 190z"/><path fill="#4BA9AE" d="M375 543q2.19.676 4.375 1.375l2.46.773C384 546 384 546 386 548c-3 1-3 1-5.043.04l-2.144-1.415-2.168-1.398L375 544z"/><path fill="#116476" d="m576 489 5 1 1 4h-4z"/><path fill="#B8A548" d="M269 419h3l1 5-2 1v-2l-3 1-1-3h2z"/><path fill="#F6E14E" d="m353 311 2 1c-1.059 3.403-2.009 6.014-4 9h-2q.714-2.22 1.438-4.437l.808-2.497C352 312 352 312 353 311"/><path fill="#F8E251" d="M713 269v4c-2.5 1.75-2.5 1.75-5 3v-6c2-1 2-1 5-1"/><path fill="#FEF93A" d="M516 248h1c.592 3.013 1.058 5.924 1 9-1.937 2.563-1.937 2.563-4 4l-1-4 2-1c.465-1.895.465-1.895.625-4.062z"/><path fill="#F5EE22" d="m533 232 8 4-2 1-1 2c-2.5-1.812-2.5-1.812-5-4z"/><path fill="#FDF4AF" d="m580 219 4 2c-5.176 3.223-5.176 3.223-7 4l-3-1v-2l3-1 2 1z"/><path fill="#FDFADC" d="m626 207 4 1-1 4-4-1z"/><path fill="#042732" d="m652 710 3 1v4c-3.01.934-3.867 1.044-7 0l4-1v-2l-2-1z"/><path fill="#000305" d="M480 530c5.75.875 5.75.875 8 2l-1 2-3.375-.562c-3.45-.755-3.45-.755-5.625.562z"/><path fill="#0E303E" d="M422 526h10c-3.006 3.006-5.824 2.596-10 3z"/><path fill="#060A0C" d="M270 507h1a340 340 0 0 1-.375 4.313c-.07.8-.14 1.6-.21 2.425C270 516 270 516 268 519v-9h2z"/><path fill="#02495C" d="M623 462h9c-1.687 1.563-1.687 1.563-4 3-2.75-.312-2.75-.312-5-1z"/><path fill="#131E1F" d="m293 451 2 4-3 3-3-1z"/><path fill="#001D2A" d="M613 335c3.688 1.23 4.724 2.939 7 6l-1 2-1.875-1.437c-2.032-1.587-2.032-1.587-4.125-2.563z"/><path fill="#EBD45D" d="M710 319h2c1.063 2.375 1.063 2.375 2 5l-1 2h-2l-1 2z"/><path fill="#FECC07" d="m536 240 3 1v2l3 1c1.188 2.563 1.188 2.563 2 5a367 367 0 0 1-3.437-2.812l-1.934-1.583C537 243 537 243 536 240"/><path fill="#FEFAD8" d="m422 223 3 1v4l-5-1z"/><path fill="#FDF28A" d="M445 219h-2l-1 4-5-2c2.98-2.98 4.076-3.177 8-2"/><path fill="#FEED57" d="m568 191 2 1a312 312 0 0 1-3.312 3l-1.864 1.688C563 198 563 198 560 198l1-3a89 89 0 0 1 5-2z"/><path fill="#0F1B20" d="m745 621 3 1c-1.75 5.75-1.75 5.75-4 8-.125-6.75-.125-6.75 1-9"/><path fill="#0E788D" d="M372 527c1.875.563 1.875.563 4 2 1.25 3.625 1.25 3.625 2 7-5.571-5.143-5.571-5.143-6-9"/><path fill="#E1C533" d="m767 453 2 1-1.937 2.375c-2.044 2.42-2.044 2.42-3.063 4.625l-3-1c3.75-5.875 3.75-5.875 6-7"/><path fill="#7AD4D2" d="M347 442h10c-3 3-3 3-6.187 3.188L348 445z"/><path fill="#E3C941" d="m279 433 2 1c-4.395 4.004-4.395 4.004-6 5l-3-1c2.363-2.526 3.665-3.888 7-5"/><path fill="#060C0F" d="M688 401c2.867 1.285 4.976 2.571 7 5v2c-2.867-1.285-4.976-2.571-7-5z"/><path fill="#D2BD50" d="m322 338 3 1c2.143-.39 2.143-.39 4-1l-1 5c-2.437-.812-2.437-.812-5-2z"/><path fill="#13949A" d="M570 310h1c-.75 7.75-.75 7.75-3 10-1.392-4.176.177-6.135 2-10"/><path fill="#FDF313" d="M513 259c0 3 0 3-2.312 5.688C508 267 508 267 505 267l1.875-.75c2.514-1.479 2.978-2.63 4.125-5.25z"/><path fill="#FBE540" d="m349 259 4 2-1 5-3 1z"/><path fill="#F9E454" d="M348 259v7l-2-3-4 1c2.258-5 2.258-5 6-5"/><path fill="#F5DA4D" d="m684 235 1 2 3 1v2h-7c0-2 0-2 1.5-3.625z"/><path fill="#FEF597" d="M594 210c0 3 0 3-2 5.188L590 217l-2-1c1.049-2.622 1.65-3.794 4.125-5.25z"/><path fill="#F8DA3D" d="m511 146 6 2v2h2l-1 2-8-3z"/><path fill="#9CAEB3" d="m661 716-1.937.875c-2.215.953-2.215.953-3.063 3.125l-4-2v-2c5.625-1.125 5.625-1.125 9 0"/><path fill="#0F2127" d="M267 514h1c.982 4.053 1.082 7.839 1 12-1.52-1.207-1.52-1.207-3-3-.074-2.262-.074-2.262.313-4.687l.363-2.45z"/><path fill="#03C2DC" d="M444 514h2v2h2l-1 4h-3z"/><path fill="#BDAA46" d="M273 424h5l-1 3h2l1 4c-3-1-3-1-4.062-2.937L275 426z"/><path fill="#0D1415" d="M679 393c3.337 1.173 5.774 2.189 8 5v2c-3.795-1.491-5.61-3.757-8-7"/><path fill="#141F1E" d="M616 336c3.367 1.393 4.986 2.979 7 6-3 0-3 0-5.187-1.875C616 338 616 338 616 336"/><path fill="#2CCDCD" d="M449 294c2.566 3.85 2.551 6.435 3 11-2.062-1.562-2.062-1.562-4-4 .25-3.75.25-3.75 1-7"/><path fill="#F9E240" d="m686 240 3 1 1 7c-3-2-3-2-3.687-5.125z"/><path fill="#050B0F" d="M752 603h1c.37 5.538.37 5.538-1.5 7.875L750 612c.875-6.75.875-6.75 2-9"/><path fill="#060B15" d="m535 566 1 3-2 2-2-1v2l-3-1z"/><path fill="#C2AA3E" d="m756 446 1 4-5 2v-4z"/><path fill="#071317" d="m319 418 1 2c-1.375 2-1.375 2-3 4h-2l1-5z"/><path fill="#10252A" d="m623 342 4 4-4 3-2-5h2z"/><path fill="#EBD662" d="M323 335h6v2h-2v2l-3 1z"/><path fill="#FDF8CC" d="m324 327 3 1c-1.58 2.155-3.106 4.106-5 6l-2-1c0-2 0-2 2-4.125z"/><path fill="#02131C" d="m600 320 7 2-1 3c-3 0-3 0-4.687-1.375C600 322 600 322 600 320"/><path fill="#001F2C" d="M587 294c2.154 2.622 3.4 4.644 4 8l-2 1-3-8z"/><path fill="#FADC3B" d="m478 212 1 4h-5v-3c2-1 2-1 4-1"/><path fill="#C7B85C" d="m623 281 1 4-4-2z"/><path fill="#F1D857" d="m658 232 3 2v2h-3z"/><path fill="#697847" d="M420 312v3l-4 1z"/><path fill="#EBD14B" d="m434 245 4 1-4 1z"/><path fill="#DAC233" d="m520 216 6 1-3 1z"/><path fill="#9DACAE" d="M648 742h6v1h-6z"/><path fill="#949145" d="M432 281h2l-1 4z"/><path fill="#CBB63B" d="m458 242 2 1-4 2z"/><path fill="#F4D956" d="M668 236h3v2h-3z"/><path fill="#E4C734" d="m471 226 3 1-1 2h-2z"/><path fill="#FBE14C" d="M477 168h3v2l-3 1z"/><path fill="#97ABAC" d="M497 749h5v1h-5z"/><path fill="#16343B" d="M759 584h1v5h-1z"/><path fill="#5A6346" d="m296 440 2 3-2 1z"/><path fill="#D4BC3F" d="m572 241 2 4h-2z"/><path fill="#E8CE52" d="M643 210h2l1 3h-2z"/><path fill="#FFE84A" d="m566 190 2 1-3 2z"/><path fill="#9AACAD" d="m481 749 4 1Z"/><path fill="#9DADAF" d="M371 742h3l-1 2z"/><path fill="#1B353A" d="m264 601 2 1-2 2z"/><path fill="#17343A" d="M265 595h2l-1 3z"/><path fill="#1F3839" d="m759 520 1 4Z"/><path fill="#4A5742" d="m281 464 4 1Z"/><path fill="#C0AF3E" d="m451 248 4 1Z"/><path fill="#DCC24C" d="M351 236v3Z"/><path fill="#F7D841" d="M527 154v3Z"/><path fill="#99ABAB" d="m506 749 3 1Z"/><path fill="#9AACAE" d="m467 748 3 1Z"/><path fill="#9CAEAF" d="m434 747 3 1Z"/><path fill="#A0B0B2" d="m376 742 2 1-2 1z"/><path fill="#9EAFB1" d="m368 741 3 1Z"/><path fill="#A0AFB0" d="m356 740 3 1Z"/><path fill="#405C4D" d="m353 376 2 1-2 1z"/><path fill="#D0BB53" d="m706 339 2 1-2 1z"/><path fill="#E7D057" d="m697 314 2 2h-2z"/><path fill="#E7D055" d="M697 312h2l-1 2z"/><path fill="#F0D755" d="m691 306 2 2h-2z"/><path fill="#EFD658" d="m616 251 3 1Z"/><path fill="#D0B93A" d="m566 239 1 2-2-1z"/><path fill="#D2BA37" d="m456 240 3 1Z"/><path fill="#EED24B" d="M686 235h2l-1 2z"/><path fill="#DBC039" d="m464 235 2 1-2 1z"/><path fill="#DEC336" d="m557 232 2 1-2 1z"/><path fill="#DEC535" d="m478 224 2 1-2 1z"/><path fill="#E0C535" d="m488 219 1 2-2-1z"/><path fill="#FFE94A" d="m597 210 1 2-2-1z"/><path fill="#FFE940" d="m424 208 2 2h-2z"/><path fill="#FDDF33" d="m504 204 2 1-2 1z"/><path fill="#FEE437" d="m504 201 2 2h-2z"/><path fill="#FDE34C" d="m477 172 3 1Z"/><path fill="#99AAAC" d="m556 748 2 1Z"/><path fill="#99ABAC" d="m460 748 2 1Z"/><path fill="#9DADAF" d="m439 747 2 1Z"/><path fill="#9FB0B3" d="m387 743 2 1Z"/><path fill="#9FAEB1" d="m381 743 2 1Z"/><path fill="#9DAEB0" d="m656 741 2 1Z"/><path fill="#9EAEB0" d="m362 741 2 1Z"/><path fill="#A1AEB0" d="m319 733 2 1Z"/><path fill="#A1AEAF" d="m313 732 2 1Z"/><path fill="#96A3A5" d="m296 727 2 1Z"/><path fill="#95A2A5" d="m314 704 2 1Z"/><path fill="#627F85" d="m328 695 2 1Z"/><path fill="#465442" d="m282 466 2 1Z"/><path fill="#455646" d="m312 418 2 1Z"/><path fill="#3F5949" d="m669 376 2 1Z"/><path fill="#46624E" d="m360 369 2 1Z"/><path fill="#38584F" d="m653 368 2 1Z"/><path fill="#38594E" d="m644 360 2 1Z"/><path fill="#3C5D4F" d="m635 352 2 1Z"/><path fill="#48604D" d="m613 328 2 1Z"/><path fill="#F6DB54" d="m326 311 2 1Z"/><path fill="#F2D852" d="m699 299 2 1Z"/><path fill="#FDE656" d="m374 282 2 1Z"/><path fill="#F3DC5A" d="m384 278 2 1Z"/><path fill="#8B8944" d="m581 271 2 1Z"/><path fill="#D2BD4E" d="m588 254 2 1Z"/><path fill="#F5D952" d="m380 252 2 1Z"/><path fill="#C9B33D" d="m448 248 2 1Z"/><path fill="#D8C03C" d="m553 232 2 1Z"/><path fill="#E9CE36" d="m475 224 2 1Z"/><path fill="#DEC235" d="m536 221 2 1Z"/><path fill="#FFEA44" d="m434 219 2 1Z"/><path fill="#DEC12F" d="m528 218 2 1Z"/><path fill="#D2BF31" d="m506 216 2 1Z"/><path fill="#FFEB42" d="m431 216 2 1Z"/><path fill="#FFEA45" d="m424 211 2 1Z"/><path fill="#FDE442" d="m534 199 2 1Z"/><path fill="#F8DC55" d="m618 197 2 1Z"/></svg>