<svg xmlns="http://www.w3.org/2000/svg" width="1024" height="1024"><path fill="#097C87" d="M550 223.102c15.611 12.272 24.846 27.69 32 45.898h2l.195 3.71c.714 6.403 3.207 12.016 5.68 17.915l1.355 3.313A922 922 0 0 0 598 310h2l1 3.75c2.191 6.503 6 11.732 10 17.25l2.16 3.07c6.172 8.463 13.462 15.843 20.84 23.243l1.571 1.582q2.238 2.243 4.491 4.468l2.66 2.634c2.194 2.191 2.194 2.191 5.278 3.003q1.654 2.066 3.3 4.137c2.926 3.207 6.382 5.773 9.77 8.472 3.791 3.094 7.363 6.396 10.934 9.739 1.82 1.865 1.82 1.865 3.996 1.652 1.445 1.504 1.445 1.504 3.125 3.563 2.996 3.527 6.15 6.51 9.676 9.496 4.268 3.768 8.212 7.88 12.199 11.941l2-2c2 5.75 2 5.75 2 8h2c1.396 1.528 2.716 3.127 4 4.75l2.434 3.05 1.276 1.605c2.066 2.555 4.218 5.035 6.352 7.533 4.25 5.057 7.843 10.263 11.344 15.859L734 459h2l.34 1.703c.75 2.612 1.872 4.692 3.222 7.047l1.38 2.422L742 472h2l.34 2.168c.705 3.023 1.793 5.395 3.222 8.144.456.884.91 1.767 1.38 2.676L750 487h2l.25 2.875c.588 4.29 2.207 8.031 3.91 11.988C757 504 757 504 757 506l2 1c15.271 45.813 9.863 94.412-11.062 137.258-5.03 10.027-11.069 18.898-17.938 27.742l-1.973 2.617C723.983 679.942 719.8 685.334 715 690h-2l-.703 1.71c-6.345 11.2-21.802 19.336-32.297 26.29h7v1l11 1v2l1.8.148c13.227 1.193 13.227 1.193 19.2 2.852l1 2 2.563.313c4.408.881 8.055 2.693 11.437 5.687.836 2.016.836 2.016 1 4-6.287 9.081-22.64 12.823-33 15q-2.843.358-5.684.708c-4.066.512-8.122 1.092-12.18 1.667l-2.768.392-5.751.817q-2.943.418-5.886.832-4.266.6-8.532 1.209l-2.66.373-2.47.354c-.715.1-1.43.202-2.168.307-2.114.332-2.114.332-4.901 1.341-2.9.19-5.785.33-8.687.438-10.611.444-21.205 1.1-31.8 1.814-20.633 1.344-41.253 1.909-61.927 1.916l-6.82.01q-7.106.009-14.213.007-7.119 0-14.238.02c-31.827.092-63.53-.534-95.315-2.205l-1 2-1-2c-2.766-.472-2.766-.472-6.125-.633l-3.832-.254-2.014-.118c-1.993-.118-3.986-.25-5.978-.382-5.482-.349-10.932-.664-16.426-.605C376 760 376 760 375 759a86 86 0 0 0-4.562-.562l-2.504-.254L366 758l-1 2h-2v-2c-.693-.105-1.387-.21-2.101-.32q-4.887-.745-9.774-1.492l-3.567-.544c-5.403-.83-10.802-1.67-16.187-2.613l-2.49-.434q-2.27-.4-4.535-.82c-3.265-.577-5.143-.845-8.346.223v-3l-3.52-.332c-4.335-.547-8.124-1.736-12.168-3.356l-1.931-.7C293.4 742.642 290.9 740.363 288 736c1.419-4.256 3.667-5.251 7.477-7.445 12.536-5.532 26.98-7.272 40.523-8.555l1-3v3l3-2-3.219-2.16c-13.895-9.4-13.895-9.4-19.203-14.695-1.793-1.536-1.793-1.536-5.578-1.145l-.312-1.809c-.804-2.56-1.713-3.466-3.688-5.254-7.843-7.554-13.874-15.935-19.176-25.382-1.546-2.7-1.546-2.7-3.98-3.258L283 664c-1.404-3.104-1.985-5.87-2.375-9.25-.702-4.213-2.104-7.707-3.785-11.613C276 641 276 641 276 639h-3c-1-7-1-7-1.437-10.437-.908-7.41-.908-7.41-4.563-13.563l1-1-2-1 .555-2.922c.646-4.539.141-8.804-.43-13.328l-.277-2.43c-.39-3.285-.797-6.167-1.848-9.32a120 120 0 0 1-.098-5.762l.01-3.388.026-3.538.013-3.572q.018-4.37.049-8.74h1l.288-2.07c4.545-32.206 12.982-60.69 27.737-89.773 1.112-2.066 1.112-2.066.975-4.157l1.262-1.223c2.376-2.43 3.877-5.284 5.55-8.214 4.42-7.581 9.39-14.723 14.49-21.86l1.757-2.465 1.572-2.186c1.406-2.01 1.406-2.01 2.411-4.17 1.44-2.829 3.693-4.675 5.958-6.882 1.961-2.17 3.856-4.396 5.75-6.625l1.58-1.85a592 592 0 0 0 11.635-14.123c2.22-2.621 4.579-5 7.035-7.402 9.823-9.627 9.823-9.627 19.04-19.824 2.816-3.126 5.835-6.038 8.835-8.988 9.73-9.571 9.73-9.571 17.55-20.684C400 335 400 335 402.368 332.656c3.101-3.128 5.373-6.472 7.758-10.156l1.3-1.973A253 253 0 0 0 418 310l-2-2c.375-2.125.375-2.125 1-4l4 1a1482 1482 0 0 0 4.313-7.937l1.224-2.229c4.966-8.984 4.966-8.984 6.15-18.897L432 274l4 2 .34-1.59c2.183-8.575 6.49-15.993 10.768-23.668 1.029-1.902 1.029-1.902 1.892-4.742 24.752-33.078 64.697-48.33 101-22.898M434 277l1 2ZM273 632l1 3Zm1 4 1 2Z"/><path fill="#02313C" d="M550 223.102c15.611 12.272 24.846 27.69 32 45.898h2l.195 3.71c.714 6.403 3.207 12.016 5.68 17.915l1.355 3.313A922 922 0 0 0 598 310h2l1 3.75c2.191 6.503 6 11.732 10 17.25l2.16 3.07c6.172 8.463 13.462 15.843 20.84 23.243l1.571 1.582q2.238 2.243 4.491 4.468l2.66 2.634c2.194 2.191 2.194 2.191 5.278 3.003q1.654 2.066 3.3 4.137c2.926 3.207 6.382 5.773 9.77 8.472 3.791 3.094 7.363 6.396 10.934 9.739 1.82 1.865 1.82 1.865 3.996 1.652 1.445 1.504 1.445 1.504 3.125 3.563 2.996 3.527 6.15 6.51 9.676 9.496 4.268 3.768 8.212 7.88 12.199 11.941l2-2c2 5.75 2 5.75 2 8h2c1.396 1.528 2.716 3.127 4 4.75l2.434 3.05 1.276 1.605c2.066 2.555 4.218 5.035 6.352 7.533 4.25 5.057 7.843 10.263 11.344 15.859L734 459h2l.34 1.703c.75 2.612 1.872 4.692 3.222 7.047l1.38 2.422L742 472h2l.34 2.168c.705 3.023 1.793 5.395 3.222 8.144.456.884.91 1.767 1.38 2.676L750 487h2l.25 2.875c.588 4.29 2.207 8.031 3.91 11.988C757 504 757 504 757 506l2 1c15.271 45.813 9.863 94.412-11.062 137.258-5.03 10.027-11.069 18.898-17.938 27.742l-1.973 2.617C723.983 679.942 719.8 685.334 715 690h-2l-.703 1.71c-6.345 11.2-21.802 19.336-32.297 26.29h7v1l11 1v2l1.8.148c13.227 1.193 13.227 1.193 19.2 2.852l1 2 2.563.313c4.408.881 8.055 2.693 11.437 5.687.836 2.016.836 2.016 1 4-6.287 9.081-22.64 12.823-33 15q-2.843.358-5.684.708c-4.066.512-8.122 1.092-12.18 1.667l-2.768.392-5.751.817q-2.943.418-5.886.832-4.266.6-8.532 1.209l-2.66.373-2.47.354c-.715.1-1.43.202-2.168.307-2.114.332-2.114.332-4.901 1.341-2.9.19-5.785.33-8.687.438-10.611.444-21.205 1.1-31.8 1.814-20.633 1.344-41.253 1.909-61.927 1.916l-6.82.01q-7.106.009-14.213.007-7.119 0-14.238.02c-31.827.092-63.53-.534-95.315-2.205l-1 2-1-2c-2.766-.472-2.766-.472-6.125-.633l-3.832-.254-2.014-.118c-1.993-.118-3.986-.25-5.978-.382-5.482-.349-10.932-.664-16.426-.605C376 760 376 760 375 759a86 86 0 0 0-4.562-.562l-2.504-.254L366 758l-1 2h-2v-2c-.693-.105-1.387-.21-2.101-.32q-4.887-.745-9.774-1.492l-3.567-.544c-5.403-.83-10.802-1.67-16.187-2.613l-2.49-.434q-2.27-.4-4.535-.82c-3.265-.577-5.143-.845-8.346.223v-3l-3.52-.332c-4.335-.547-8.124-1.736-12.168-3.356l-1.931-.7C293.4 742.642 290.9 740.363 288 736c1.419-4.256 3.667-5.251 7.477-7.445 12.536-5.532 26.98-7.272 40.523-8.555l1-3v3l3-2-3.219-2.16c-13.895-9.4-13.895-9.4-19.203-14.695-1.793-1.536-1.793-1.536-5.578-1.145l-.312-1.809c-.804-2.56-1.713-3.466-3.688-5.254-7.843-7.554-13.874-15.935-19.176-25.382-1.546-2.7-1.546-2.7-3.98-3.258L283 664c-1.404-3.104-1.985-5.87-2.375-9.25-.702-4.213-2.104-7.707-3.785-11.613C276 641 276 641 276 639h-3c-1-7-1-7-1.437-10.437-.908-7.41-.908-7.41-4.563-13.563l1-1-2-1 .555-2.922c.646-4.539.141-8.804-.43-13.328l-.277-2.43c-.39-3.285-.797-6.167-1.848-9.32a120 120 0 0 1-.098-5.762l.01-3.388.026-3.538.013-3.572q.018-4.37.049-8.74h1l.288-2.07c4.545-32.206 12.982-60.69 27.737-89.773 1.112-2.066 1.112-2.066.975-4.157l1.262-1.223c2.376-2.43 3.877-5.284 5.55-8.214 4.42-7.581 9.39-14.723 14.49-21.86l1.757-2.465 1.572-2.186c1.406-2.01 1.406-2.01 2.411-4.17 1.44-2.829 3.693-4.675 5.958-6.882 1.961-2.17 3.856-4.396 5.75-6.625l1.58-1.85a592 592 0 0 0 11.635-14.123c2.22-2.621 4.579-5 7.035-7.402 9.823-9.627 9.823-9.627 19.04-19.824 2.816-3.126 5.835-6.038 8.835-8.988 9.73-9.571 9.73-9.571 17.55-20.684C400 335 400 335 402.368 332.656c3.101-3.128 5.373-6.472 7.758-10.156l1.3-1.973A253 253 0 0 0 418 310l-2-2c.375-2.125.375-2.125 1-4l4 1a1482 1482 0 0 0 4.313-7.937l1.224-2.229c4.966-8.984 4.966-8.984 6.15-18.897L432 274l4 2 .34-1.59c2.183-8.575 6.49-15.993 10.768-23.668 1.029-1.902 1.029-1.902 1.892-4.742 24.752-33.078 64.697-48.33 101-22.898M434 277l1 2Zm136 1-.262 2.5c-2.312 19.005-8.48 37.601-23.203 50.691C531.69 342.68 515.357 345.593 497 344c-12.873-2.131-25.945-8.521-34-19-8.992-13.658-12.544-26.832-14-43-2.387.91-2.387.91-3.227 4.254a1096 1096 0 0 0-1.398 4.308C441.351 299.497 437.45 307.7 433 316l-1.075 2.044c-5.137 9.739-10.89 18.491-17.925 26.956l-1.37 1.662c-12.187 14.71-25.473 28.379-39.134 41.717-5.204 5.132-9.955 10.448-14.522 16.154a169 169 0 0 1-4.802 5.752C342.663 423.483 332.542 437.713 324 453l-1.238 2.19c-18.18 32.403-28.99 72.994-19.528 109.944.554 1.968 1.15 3.917 1.766 5.866l1.098 3.668C310.638 588.536 317.74 600.756 327 612l2.3 2.8c30.6 35.407 80.782 48.56 125.7 52.2 8.373.425 16.747.434 25.128.391 3.672-.016 7.343 0 11.015.02 22.191.02 44.195-1.874 65.982-6.161l1.985-.384C612.51 650.51 673.887 629.281 707 583c16.038-23.938 24.44-50.267 18.871-79.143A150 150 0 0 0 723 493l-.601-1.988C712.829 460.67 692.854 433.671 671 411l-1.619-1.685c-6.279-6.503-12.674-12.58-19.768-18.206-3.443-2.78-6.682-5.758-9.948-8.743-2.537-2.252-5.137-4.374-7.79-6.487C616.881 363.65 602.909 349.689 593 333l-2.332-3.73C581.126 313.583 574.723 295.938 571 278zM273 632l1 3Zm1 4 1 2Z"/><path fill="#FDE139" d="M539 229.375c12.459 8.588 21.781 22.045 24.684 37.055 1.93 15.676-1.189 30.533-10.723 43.3-9.391 10.968-21.452 18.7-35.961 20.27-16.955 1.001-31.002-2.001-44.25-13.187-9.821-9.307-15.944-21.72-17.023-35.239-.469-17.914 5.104-32.225 17.523-45.387 18.512-17.704 44.008-19.97 65.75-6.812"/><path fill="#011821" d="M654 463c9.67 10.023 13.38 21.209 13.3 34.93-.338 13.087-5.312 24.07-14.816 33.113-5.728 4.513-13.224 9.681-20.484 10.957l3.418-3.32c2.317-2.46 4.433-5.072 6.582-7.68q-3.433-2.008-6.875-4l-1.973-1.156c-3.356-2.12-3.356-2.12-7.152-2.844-1.31 1.79-1.31 1.79-2.625 4.063-5.944 9.175-14.458 15.29-25.184 17.62-11.14 1.61-20.922-.364-30.093-6.964-7.856-6.437-12.912-14.757-15.098-24.719-.995-14.215.433-25.606 9.945-36.914C584.365 454.34 628.383 442.66 654 463"/><path fill="#BFCACB" d="m336 717 1 3 2.598-1.207c4.549-1.06 5.904.104 9.84 2.52 20.017 11.564 42.83 17.923 65.375 22.375l2.901.577c18.314 3.424 36.954 5.256 55.536 6.423l2.994.191c21.285 1.309 42.564 1.39 63.881 1.371l2.44-.001c41.422.002 41.422.002 82.747-2.499l2.093-.188C659.7 747.402 659.7 747.402 688 734c.045-2.379.045-2.379-1-5-4.397-2.99-9.088-4.995-14-7 2.45-2.684 4.282-3.918 8.043-4.098l2.144.035L687 718v1l11 1v2l1.8.148c13.227 1.193 13.227 1.193 19.2 2.852l1 2 2.563.313c4.408.881 8.055 2.693 11.437 5.687.836 2.016.836 2.016 1 4-6.287 9.081-22.64 12.823-33 15q-2.843.358-5.684.708c-4.066.512-8.122 1.092-12.18 1.667l-2.768.392-5.751.817q-2.943.418-5.886.832-4.266.6-8.532 1.209l-2.66.373-2.47.354c-.715.1-1.43.202-2.168.307-2.114.332-2.114.332-4.901 1.341-2.9.19-5.785.33-8.687.438-10.611.444-21.205 1.1-31.8 1.814-20.633 1.344-41.253 1.909-61.927 1.916l-6.82.01q-7.106.009-14.213.007-7.119 0-14.238.02c-31.827.092-63.53-.534-95.315-2.205l-1 2-1-2c-2.766-.472-2.766-.472-6.125-.633l-3.832-.254-2.014-.118c-1.993-.118-3.986-.25-5.978-.382-5.482-.349-10.932-.664-16.426-.605C376 760 376 760 375 759a86 86 0 0 0-4.562-.562l-2.504-.254L366 758l-1 2h-2v-2c-.693-.105-1.387-.21-2.101-.32q-4.887-.745-9.774-1.492l-3.567-.544c-5.403-.83-10.802-1.67-16.187-2.613l-2.49-.434q-2.27-.4-4.535-.82c-3.265-.577-5.143-.845-8.346.223v-3l-3.52-.332c-4.335-.547-8.124-1.736-12.168-3.356l-1.931-.7C293.4 742.642 290.9 740.363 288 736c1.419-4.256 3.667-5.251 7.477-7.445 12.536-5.532 26.98-7.272 40.523-8.555z"/><path fill="#011721" d="m398.938 478.563 2.198.008c18.5.104 40.874 1.68 54.864 15.429 8.305 9.533 11.746 19.965 11.316 32.547-1.051 11.478-4.491 21.776-13.566 29.328-9.356 6.712-19.396 9.05-30.75 8.125-11.812-2.304-22.124-7.94-29-18-5.638-9.04-8.397-17.193-8.375-27.812l.003-2.376c.168-8.313 2.144-15.251 7.372-21.812-7.297-.995-12.914 2.183-19 6-2.55 2.083-4.294 4.192-6 7l-1.242 2.035c-4.781 9.611-4.203 22.452-1.133 32.527 4.498 11.362 12.243 20.592 23.512 25.696A95 95 0 0 0 397 570c-3.985 1.556-7.522.465-11.5-.562l-2.149-.554c-11.724-3.196-22.89-8.57-29.39-19.228-4.741-8.876-7.353-16.988-7.274-27.031l.015-2.252c.125-5.858.92-10.972 3.298-16.373l.996-2.285c4.978-10.043 12.822-16.806 23.253-20.515 8.188-2.524 16.2-2.712 24.688-2.637"/><path fill="#FDB728" d="m683 213 2-1 1 3 3 1c1.316 1.559 1.316 1.559 2.563 3.438 1.403 2.094 2.643 3.768 4.437 5.562 3.428 9.545 4.113 17.883-.125 27.188-5.642 10.27-14.658 15.443-25.062 20.187-4.55 2.19-7.035 4.938-10.172 8.816-2.683 2.958-4.762 3.788-8.641 4.809-4.351.033-8.26-.723-12-3-2.144-2.43-3.323-4.83-4-8 .89-4.997 2.81-8.84 6.438-12.375L645 261l2.625-2.187C650 257 650 257 653 256a307 307 0 0 0 7-3.312l1.906-.897c3.587-1.759 6.212-3.203 8.094-6.791.856-4.744.684-8.784-1.687-13-4.81-4.16-9.645-4.453-15.793-4.305-2.627.135-2.627.135-4.895 1.805-1.86 2.86-3.677 5.738-5.379 8.695C641 240 641 240 638 242h-3l-1 2c-4.417-1.161-8.061-2.155-11.5-5.25-2.65-4.859-2.962-8.912-1.5-14.187 2.702-7.112 7.237-11.912 13.938-15.438 16.5-7.358 32.364-4.276 48.062 3.875"/><path fill="#FEA71F" d="M548 250c2.898 2.459 3.898 4.876 5.125 8.438l1.008 2.87c3.714 11.529 2.602 24.786-2.574 35.743-6.753 11.328-16.552 18.78-29.125 22.762-14.37 3.321-26.998.838-39.434-6.813-10.973-8.761-16.197-19.2-18-33-.46-7.083.064-13.978 1-21h2l.445 1.871c2.668 10.073 7.781 18.27 16.555 24.129 12.023 5.965 24.534 8.194 37.758 5.129 10.72-3.865 18.945-9.895 24.242-20.129 1.21-4.067 1.11-8.043 1.063-12.25l-.014-2.258q-.02-2.745-.049-5.492"/><path fill="#0B848D" d="M287 597c1.69 3.057 2.77 6.218 3.85 9.532 13.065 39.555 42.947 67.109 79.356 85.588 14.845 7.363 30.563 12.59 46.215 17.94 4.56 1.564 9.071 3.232 13.579 4.94v1c-35.403 3.82-67.799-6.422-95.906-28.258A451 451 0 0 1 326 681l-2.148-1.738c-5.76-4.769-10.306-10.349-14.852-16.262l-1.844-2.367C293.626 642.368 286.287 619.683 287 597"/><path fill="#1C5464" d="m394 493-1.277 2.484-1.66 3.266-1.653 3.234c-4.035 8.629-3.789 21.224-1.348 30.391 3.57 9.657 8.735 17.427 16.938 23.625a163 163 0 0 1 6 5v2c6.17 1.936 11.59 2.12 18.047 1.875 2.94.124 4.484.591 6.953 2.125l-2 2c-2.625-.375-2.625-.375-5-1v2c-3.985 1.993-8.984 1.444-13.375 1.625l-3.195.156-3.078.133-2.818.124c-2.367-.036-4.278-.354-6.534-1.038v-2l-7-1v-2l-3-.125c-5.01-.7-8.226-3.714-12-6.875l-2.75-2.125c-4.349-3.624-6.828-6.552-8.937-11.875l-1.262-3.125c-3.518-9.626-3.7-21.861-.113-31.5 3.964-8.063 10.568-13.444 18.843-16.766 3.515-.965 6.594-.873 10.219-.609"/><path fill="#6CC8C8" d="M408 389c3.522 2.192 5.53 4.145 7 8 .986 9.408.995 18.207-5 26-5.854 6.488-11.44 10.392-20.145 11.344-5.213.238-9.609.411-14.043-2.594-3.819-3.735-4.586-5.113-5.312-10.375.271-8.595 7.03-15.564 12.922-21.195 7.367-6.229 14.576-12.042 24.578-11.18"/><path fill="#194050" d="M613 468c12.083-.47 21.43-.002 30.957 7.973 6.537 6.486 10.244 13.742 10.373 23.04-.103 12.901-2.144 21.648-10.33 31.987-4.14-1.544-7.936-3.51-11.812-5.625l-1.811-.984q-2.19-1.193-4.377-2.391l.438-1.59c3.335-13.921 2.91-28.043-4.25-40.597-2.712-4.303-5.762-8.06-9.188-11.813"/><path fill="#0B868E" d="M747 577c-.774 24.411-9.108 46.24-25 65l-2.207 2.648C702.509 664.585 678.743 676.415 653 681c1.422-2.845 3.247-3.18 6.125-4.5 39.036-19.148 67.67-55.558 82.648-95.684 1.374-3.154 1.815-3.816 5.227-3.816"/><path fill="#FEFCE9" d="M503.25 235.063c4.055 2.857 7.516 6.469 9.75 10.937.374 5.605.209 9.187-3 14-4.528 4.33-8.093 6.67-14.312 7.375-4.59-.467-7.929-1.703-11.688-4.375-4.17-5.238-5.547-9.323-5-16 3.914-11.4 12.824-15.673 24.25-11.937"/><path fill="#FDBA29" d="m515 158 2.813.438c2.677 1.912 2.775 2.791 3.5 5.937 1.524 10.065 2.014 21.01-3.313 30L516 197l-2 3c-6.024-1.123-8.978-2.063-13-7-.905-2.631-1.5-4.8-1.937-7.5l-.366-2.118c-1.131-7.557-1.29-15.737 3.28-22.16 4.211-4.626 6.954-4.5 13.023-3.222"/><path fill="#02151D" d="M541 548c2.5 1.563 2.5 1.563 4 4 .639 5.017-.033 7.92-3 12l-1.95-.5c-8.135-1.486-12.274.88-18.968 5.422-8.748 5.898-17.586 7.976-28.082 7.078-4.695-1.047-8.905-2.121-12-6-.312-3.062-.312-3.062 0-6 2-2 2-2 4.75-2.312 3.25.312 3.25.312 5.938 1.812 6.303 2.855 12.926 2.285 19.375 0 6.448-2.876 11.523-7.577 16.84-12.129 4.59-3.654 7.446-4.205 13.097-3.371"/><path fill="#FDBB29" d="M444 187c3.188 1.875 3.188 1.875 6 4 3.225 1.243 3.225 1.243 6 2l.25 2c.685 2.739 1.521 4.505 2.875 6.938 1.43 2.787 1.874 4.027 1.938 7.25-1.418 3.75-2.769 5.499-6.063 7.812-8.661 0-13.75-4.267-19.969-9.957-3.05-3.068-4.932-5.632-5.113-10.05.222-3.246.911-5.709 2.582-8.493 3.78-2.268 7.205-2.264 11.5-1.5"/><path fill="#FCBA29" d="M586 187c3.199 2.575 3.855 4.245 4.625 8.25-1.277 7.66-6.271 12.975-12.305 17.559L577 214v2c-4.465 1.116-8.425 1.363-13 1-2.23-1.598-2.23-1.598-4-4-.39-3.234-.39-3.234-.25-6.75l.11-3.547L560 200l2 2 1.504-2.012C575.428 184.49 575.428 184.49 586 187"/><path fill="#41A9B1" d="M626 522c4.462 1.31 7.996 3.07 11.875 5.625l2.93 1.914L643 531c-9.118 11.69-20.431 16.04-35 18-13.466.834-25.404-.45-37-8l2-1c1.697.705 3.395 1.414 5.05 2.21 10.105 4.091 21.246 1.85 30.95-2.21 7.363-4.175 12.971-10.614 17-18"/><path fill="#085E68" d="m356 685 2.832 1.469c19.33 9.916 39.434 17.237 59.908 24.381A458 458 0 0 1 430 715v1c-6.961.751-13.878 1.107-20.875 1.125l-2.16.014c-10.857-.03-10.857-.03-13.965-3.139l-3.11-1.277c-4.465-1.846-8.226-4.48-12.14-7.285l-2.242-1.592c-5.527-3.986-10.585-8.274-15.504-12.983-1.869-1.913-1.869-1.913-4.004-2.863z"/><path fill="#1B4354" d="M456 537c-.422 5.623-2.43 9.725-6 14-7.556 6.289-15.871 7.545-25.492 7.371-8.465-.895-13.944-5.157-19.426-11.406C404 545 404 545 404.324 542.754L405 541l4.813 1.438 2.707.808c1.835.558 3.66 1.147 5.48 1.754 11.544.808 20.786-.253 30.938-6.25C452 537 452 537 456 537"/><path fill="#FDB629" d="M640.75 293.688c4.654.052 8.459 1.651 12.25 4.312 2.201 3.302 2.769 5.068 3 9-1.39 3.545-2.822 6.808-6 9-4.296 1.488-8.438 2.285-13 2v-2l-2.812-.75c-3.52-1.38-4.618-1.847-6.188-5.25-.659-3.843-.858-7.36.984-10.883 1.674-2.138 3.369-3.805 5.828-4.992a229 229 0 0 0 5.938-.437"/><path fill="#000D16" d="M640 718c-3.822 9.495-19.861 14.254-28.742 18.227-19.787 7.878-44.22 8.132-65.258 7.773v-1c.86-.15 1.719-.3 2.604-.456 29-5.122 57.9-12.006 85.068-23.693C636 718 636 718 640 718"/><path fill="#096A74" d="m710 676 2 1c-14.146 14.885-29.017 27.054-47 37l-3.488 1.934a117.5 117.5 0 0 1-19.2 8.066l-2.072.667c-3.31.995-4.884 1.452-8.24.333 8.837-6.738 17.702-12.103 27.713-16.89 12.233-5.937 24.243-12.145 35.287-20.11l3.023-2.129c4.306-3.068 8.315-6.04 11.977-9.871"/><path fill="#1C4456" d="M617 518c-.436 5.448-1.515 8.761-5 13-6.581 5.485-15.01 7.654-23.488 7.348-7.756-1.074-14.184-4.672-19.512-10.348-2-3-2-3-2-6 3.28 1.04 6.408 2.179 9.563 3.563 9.338 3.905 19.116 3.223 28.437-.563 2.8-1.726 5.403-3.564 8.004-5.574C615 518 615 518 617 518"/><path fill="#F99F1B" d="m683 213 2-1 1 3 3 1c1.316 1.559 1.316 1.559 2.563 3.438 1.403 2.094 2.643 3.768 4.437 5.562 3.428 9.545 4.113 17.883-.125 27.188-3.467 6.373-8.282 11.61-14.875 14.812h-2c1.208-3.625 2.117-3.914 5.313-5.812 6.089-3.915 8.707-8.282 10.687-15.188.687-7.27.657-13.6-3-20l-1.625-3.062c-6.872-8.5-17.744-12.771-28.375-13.938-12.794-.881-22.626-.962-32.937 7.375-4.359 5.547-5.4 10.52-5.56 17.39.318 2.369.318 2.369 2.247 4 3.697 2.029 7.153 2.04 11.25 1.235 2.981-2.23 2.981-2.23 5-5l2-2c-.309 3.602-.994 4.993-3.375 7.813C638 242 638 242 635 242l-1 2c-4.417-1.161-8.061-2.155-11.5-5.25-2.65-4.859-2.962-8.912-1.5-14.187 2.702-7.112 7.237-11.912 13.938-15.438 16.5-7.358 32.364-4.276 48.062 3.875"/><path fill="#1D4457" d="M413.25 494.688c3.519.064 5.65.271 8.938 1.625 2.898 4.298 2.65 8.67 1.812 13.687-2.186 3.166-3.369 3.79-7 5-5.011.371-7.991.118-12-3-2.586-2.497-2.975-3.828-3.5-7.437.623-4.439 2.113-5.754 5.5-8.563 1.717-1.717 3.909-1.253 6.25-1.312"/><path fill="#6BBFC3" d="M583 479c2.938 1.5 2.938 1.5 5 4 .518 3.262.78 4.932 0 8-2.176 2.691-3.91 4.455-7 6-4.024.38-6.322.383-9.875-1.625-2.607-2.913-3.125-4.479-3.125-8.375 2.86-6.831 7.84-8.895 15-8"/><path fill="#0A161C" d="M502 750c2.99.123 5.957.186 8.948.205l2.808.03q4.61.047 9.22.081l6.382.063q8.409.083 16.818.153 8.576.077 17.152.161 16.836.162 33.672.307v1c-17.43 1.208-34.87 1.188-52.332 1.185q-5.016 0-10.033.02c-21.306.087-42.396-.413-63.635-2.205v-1q6.14-.251 12.28-.482 2.09-.08 4.179-.166 3-.122 6.002-.23l3.65-.144C500 749 500 749 502 750"/><path fill="#379CA2" d="M464 540c1 3 1 3 .32 4.91-5.656 10.185-12.799 17.95-23.32 23.09l-2.34 1.25c-9.282 4.223-19.696 3.11-29.66 2.75v-1l20-1v-2h6c-3.58-2.386-5.085-2.184-9.312-2.062-4.392.117-8.372-.096-12.688-.938v-2h-2v-2l-3-1c2-1 2-1 4.617-.223l3.258 1.16c11.248 3.572 21.138 2.867 31.758-2.19C455.789 554.277 460.21 548.418 464 540"/><path fill="#F49E1D" d="m515 158 2.813.438c2.677 1.912 2.775 2.791 3.5 5.937 1.524 10.065 2.014 21.01-3.313 30L516 197l-2 3c-6.024-1.123-8.978-2.063-13-7-.905-2.631-1.5-4.8-1.937-7.5l-.366-2.118c-1.131-7.557-1.29-15.737 3.28-22.16 4.211-4.626 6.954-4.5 13.023-3.222m-11.562 3.688c-4.347 6.992-3.358 19.26-1.688 27.062 1.336 3.474 2.121 5.22 5.25 7.25 3.457.917 3.457.917 7 0 4.691-4.295 5.854-9.12 6.168-15.305.123-9.053.123-9.053-2.168-17.695-2.891-2.891-5.612-2.771-9.582-3.098-2.592-.103-2.592-.103-4.98 1.786"/><path fill="#010C11" d="m403 541 .809 1.75c3.262 6.162 7.983 11.12 14.546 13.625 10.831 2.56 20.965.518 30.454-5.012L451 550l-2 4h-2v2l2 1c-3.609 4.757-8.363 5.933-14 7-7.58.73-13.987-.025-21-3 3-1 3-1 7-1l-2.16-1.031c-6.353-3.215-12.241-6.594-15.84-12.969-.176-2.746-.176-2.746 0-5"/><path fill="#0C7C85" d="m710 676 2 1c-14.164 14.904-29.024 26.992-47 37l-3.242 1.809C659 717 659 717 656 716q4.153-2.223 8.313-4.437l2.38-1.276 2.295-1.22 2.11-1.127C673 707 673 707 676 706l-1-2-2.75.938c-2.416.79-4.778 1.491-7.25 2.062 2.086-2.252 4.063-3.734 6.773-5.164l2.231-1.198 2.371-1.263c7.947-4.321 15.33-9.027 22.625-14.375.815-.59 1.63-1.18 2.469-1.79 3.06-2.25 5.889-4.471 8.531-7.21"/><path fill="#0D242B" d="m401 336 2 1c-5.89 7.024-11.815 13.99-17.992 20.766-1.87 2.08-3.662 4.205-5.445 6.359L377 367h-2l-.716 1.706c-1.582 2.827-3.513 4.73-5.827 6.997l-2.756 2.723q-1.443 1.413-2.889 2.824c-6.178 6.063-12.245 12.115-17.812 18.75l-1.528 1.815A778 778 0 0 0 340 406l-1-3c1.695-2.523 1.695-2.523 4.125-5.375l2.383-2.836c2.414-2.701 4.906-5.253 7.492-7.789 9.823-9.627 9.823-9.627 19.04-19.824 2.816-3.126 5.835-6.039 8.835-8.988 5.128-5.053 9.822-10.205 14.258-15.883 1.831-2.26 3.774-4.287 5.867-6.305"/><path fill="#EDA322" d="M444 187c3.188 1.875 3.188 1.875 6 4 3.225 1.243 3.225 1.243 6 2l.25 2c.685 2.739 1.521 4.505 2.875 6.938 1.43 2.787 1.874 4.027 1.938 7.25-1.418 3.75-2.769 5.499-6.063 7.812-8.661 0-13.75-4.267-19.969-9.957-3.05-3.068-4.932-5.632-5.113-10.05.222-3.246.911-5.709 2.582-8.493 3.78-2.268 7.205-2.264 11.5-1.5m-7 1v2h-3c-2.43 3.644-2.162 5.712-2 10h2l.75 2.188c2.234 5.026 5.168 8.602 10.25 10.812 6.82 1.443 6.82 1.443 13-1 .876-3.415.709-6.562 0-10-1.917-3.158-4.278-5.524-7-8l-2.375-2.375c-3.666-2.27-7.407-2.927-11.625-3.625"/><path fill="#F39D1F" d="M640.75 293.688c4.654.052 8.459 1.651 12.25 4.312 2.201 3.302 2.769 5.068 3 9-1.39 3.545-2.822 6.808-6 9-4.296 1.488-8.438 2.285-13 2v-2l-2.812-.75c-3.52-1.38-4.618-1.847-6.188-5.25-.659-3.843-.858-7.36.984-10.883 1.674-2.138 3.369-3.805 5.828-4.992a229 229 0 0 0 5.938-.437M632 299c-.25 2.584-.25 2.584 0 5h-2c.164 4.276.358 6.358 3.438 9.438 4.674 2.05 8.534 2.376 13.562 1.562 3.852-2.006 4.764-3.459 6.5-7.437.793-3.506.793-3.506-.625-6.375-2.677-3.123-4.673-4.078-8.785-4.454l-3.153.016-3.16-.016c-2.988.065-2.988.065-5.777 2.266"/><path fill="#010D13" d="M617 518h1c.745 5.958-1.52 9.425-5 14a139 139 0 0 1-5 5l-1 2a2768 2768 0 0 0 4.25-2.812l2.39-1.583A143 143 0 0 0 620 530c-2.306 6.227-8.382 9.585-14.11 12.273-2.48.954-4.273 1.25-6.89.727l-1.277-1.496c-2.434-2.125-4.283-1.907-7.473-2.004-5.14-.293-8.709-1.126-13.25-3.5 3-1 3-1 5.563-.062 8.847 2.734 17.143.84 25.437-2.938 5.057-4.025 8.081-8.57 9-15"/><path fill="#F99919" d="M646 260c2.063.438 2.063.438 4 1l-1.969 1.398c-5.029 3.786-5.029 3.786-7.734 9.254-.112 4.849-.112 4.849 1.976 9.086 3.198 2.337 6.862 2.371 10.727 2.262 4.25-1.7 6.225-4.46 9-8h2l1-3c2.66-1.994 5.612-4 9-4-1.202 3.606-2.082 3.908-5.25 5.813-2.982 1.89-5.27 3.535-7.375 6.375-2.913 3.45-5.048 4.565-9.375 5.812-4.348.049-8.266-.726-12-3-2.144-2.43-3.323-4.83-4-8 .92-5.167 2.902-8.954 6.688-12.562L645 261z"/><path fill="#182E30" d="M449 248c1 3 1 3-.336 5.766a481 481 0 0 1-2.039 3.484c-3.638 6.44-6.366 13.01-8.937 19.938-4.2 11.221-9.612 21.503-15.688 31.812-.794-2.295-1.16-3.547-.335-5.872l1.1-1.921 1.2-2.162 1.285-2.233c5.894-9.846 5.894-9.846 7.438-20.875L432 274l4 2 .34-1.59c2.09-8.21 6.55-20.3 12.66-26.41m-15 29 1 2Z"/><path fill="#76D1D1" d="M421.77 368.313 424 369c.313 2.688.313 2.688 0 6-2.461 2.927-4.821 4.88-8 7-2.687.125-2.687.125-5 0-.5-3.062-.5-3.062 0-7 2.885-3.7 5.842-7.243 10.77-6.687"/><path fill="#FAAF25" d="M664 224c3.125 2.375 3.125 2.375 5 5l3 2c1.967 5.316 1.896 11.91-.312 17.063C670 250 670 250 667 251l3-6c.518-4.8.712-8.734-1.687-13-4.808-4.158-9.515-4.36-15.641-4.27-3.38.341-5.835 1.43-8.672 3.27 3.23-8.517 12.244-8.097 20-7"/><path fill="#010C10" d="M653 513c.921 2.527 1.114 3.683.188 6.254L652 521.562c-1.205 2.249-1.205 2.249-2 4.438l1 3 7-6c-4.668 9.337-14.617 15.029-24 19l-2-1 2.379-2.02C642.945 531.534 649.597 524.1 653 513"/><path fill="#0A2128" d="M326 420c0 3.261-.318 4.276-2 7l-2.105 1.906c-4.323 4.252-7.294 9.628-10.52 14.719a2231 2231 0 0 1-3.977 6.227l-1.76 2.775c-1.415 2.05-2.807 3.698-4.638 5.373.296-6.313 3.635-10.358 7.188-15.312q1.71-2.431 3.417-4.864l1.701-2.405c4.68-6.506 4.68-6.506 8.694-13.419 2.063-1.125 2.063-1.125 4-2"/><path fill="#4EC1C7" d="m571 540 1.793.621 2.394.817 2.356.808c9.878 3.03 19.505 1.91 29.457-.246-1.392 2.784-3.156 2.979-6 4v1l5 1v1c-12.851.64-23.96-.811-35-8z"/><path fill="#F6A21A" d="M504 159h2l-.875 1.688L504 163l-1.059 2.156c-1.187 3.586-1.198 6.926-1.128 10.656l.019 2.147c.07 4.756.387 9.353 1.168 14.041l3 1 1 2c2.322.407 4.657.744 7 1v1c-1.603.108-3.207.186-4.812.25l-2.708.14c-2.48-.39-2.48-.39-4.19-1.94-4.542-8.628-4.777-19.3-3.224-28.68 1.099-3.259 2.571-5.289 4.934-7.77"/><path fill="#0A2229" d="M737 467c3.442 1.147 4.08 2.033 6 5l1 3a389 389 0 0 0 3.063 6.188l1.66 3.292L750 487h2l.25 2.875c.574 4.216 2.177 7.834 3.91 11.695.907 2.625.992 4.673.84 7.43-2-1-2-1-3.008-3.598l-1.117-3.464c-3.72-11.015-9.187-21.326-15.062-31.336C737 469 737 469 737 467"/><path fill="#0E242A" d="M655 379c3.182.59 4.95 1.533 7.348 3.688l1.834 1.617 1.88 1.695a738 738 0 0 0 3.723 3.313c.546.49 1.09.982 1.653 1.488 1.669 1.416 1.669 1.416 4.562 2.199 1.578 1.637 1.578 1.637 3.25 3.688 3.294 3.898 6.8 7.087 10.75 10.312l-1 3-2.676-2.527c-6.424-6.036-12.894-11.88-19.77-17.399-3.963-3.218-7.884-6.521-11.554-10.074z"/><path fill="#0F262D" d="M269 613c3.868 2.579 4.019 5.088 4.938 9.375 1.431 6.258 3.188 12.24 5.425 18.27C280 643 280 643 279 646c-3-4.75-3-4.75-3-7h-3c-1-7-1-7-1.437-10.437-.908-7.41-.908-7.41-4.563-13.563h2zm4 19 1 3Zm1 4 1 2Z"/><path fill="#B2C0C1" d="M333 752c11.659.722 23.221 2.154 34.813 3.563l5.892.708q7.147.86 14.295 1.729v1q-2.968.29-5.937.563l-3.34.316L376 760l-1-1a86 86 0 0 0-4.562-.562l-2.504-.254L366 758l-1 2h-2v-2l-30-5z"/><path fill="#0D8E98" d="m710 676 2 1a4239 4239 0 0 1-7.75 7.813c-.73.737-1.46 1.475-2.21 2.236l-2.15 2.158-1.967 1.984c-1.88 1.77-3.828 3.303-5.923 4.809l-2-1-3 1c-1.331.342-2.664.678-4 1 2.824-3.021 5.654-5.176 9.188-7.312 6.391-3.98 12.569-8.248 17.812-13.688"/><path fill="#0A1F26" d="M712 433c7.947 3.07 17.246 16.519 21 24-.432 2.135-.432 2.135-1 4l-.975-1.402c-5.682-8.157-11.34-16.26-17.697-23.91C712 434 712 434 712 433"/><path fill="#15292B" d="M585 284h2c1.447 3.288 2.88 6.58 4.313 9.875l1.224 2.781A136 136 0 0 1 599 315c-2.276-2.087-3.648-3.967-4.937-6.766l-1.024-2.199L592 303.75l-1.04-2.238c-1-2.165-1.98-4.338-2.96-6.512l-.918-1.967c-1.517-3.338-2.082-5.28-2.082-9.033"/><path fill="#4AC2C7" d="M464 540c1 3 1 3 .32 4.91-3.57 6.428-8.569 14.714-15.32 18.09-2.672.134-5.323.043-8 0 2.831-2.225 5.716-3.97 8.875-5.687 7.068-4.195 10.786-9.893 14.125-17.313"/><path fill="#010D10" d="m371 554 2.938 2.625c7.105 6.05 14.26 10.251 23.062 13.375-4.322 1.328-7.791.357-12.062-.75l-2.182-.516c-6.466-1.632-6.466-1.632-8.756-4.734l6 1-1.969-1.898-2.531-2.477-2.531-2.46C371 556 371 556 371 554"/><path fill="#09131A" d="M280 647c3.464 3.204 5.18 6.88 7.25 11.063l1.14 2.22c.937 1.874 1.781 3.793 2.61 5.717l-1 2-1.25-1.437c-1.623-1.736-1.623-1.736-3.812-1.875C283 664 283 664 281.813 661.625c-1.087-4.847-1.478-9.676-1.813-14.625"/><path fill="#41BAC2" d="m408 559 2.266.621 2.984.817 2.953.808L419 562l1.918.541c2.137.471 4.007.573 6.191.557l2.286-.01 2.355-.025 2.402-.014q2.925-.02 5.848-.049c-2.954 1.97-3.696 2.27-7.02 2.45l-2.35.13-2.442.107-2.409.143c-4.421.223-8.418.104-12.779-.83v-2h-2v-2l-3-1z"/><path fill="#389DA4" d="m610 541 1 4h3v3c-5.021.78-8.977 1.13-14 0v-3z"/><path fill="#0A2028" d="m299 460 1 2c-.988 2.247-.988 2.247-2.527 5.008l-1.65 2.988-1.76 3.129-1.749 3.152A1634 1634 0 0 1 288 484c-1.46-4.496.15-7.365 2.125-11.437l.898-1.987c2.072-4.375 4.375-7.342 7.977-10.576"/><path fill="#0A171D" d="M372 731c5.75-.125 5.75-.125 8 1v2l3.563.75c6.87 1.52 13.648 3.407 20.437 5.25v1c-7.465-.406-14.015-1.996-21.062-4.437l-2.874-.948c-6.932-2.35-6.932-2.35-8.064-4.615"/><path fill="#E69D26" d="M584 206c-1.559 3.826-3.954 6.251-7 9l-3 1-2 1c-7.467.356-7.467.356-11-2v-2c2.394.466 4.766.938 7.125 1.563 2.041.55 2.041.55 4.875.437v-2h3v-2h2v-2c3.462-3 3.462-3 6-3"/><path fill="#F09F21" d="m574 189 3 1-1.645 1.426-2.168 1.887-2.144 1.863c-3.856 3.326-3.856 3.326-6.043 7.824h-2l-2 10h-1v-13l2 2 1.61-2.082 2.14-2.73 2.11-2.708c1.944-2.253 3.567-3.99 6.14-5.48"/><path fill="#021B24" d="M439 556c2.729.033 5.297.564 8 1-1 2-1 2-4.625 3.625-6.621 2.136-13.506 1.62-20.375 1.375v-1l3.21-.586 4.165-.789 2.117-.383c4.18-.743 4.18-.743 7.508-3.242"/><path fill="#0D969F" d="M287 597c1.734 3.257 2.99 6.575 4.188 10.063l1.105 3.16C293 613 293 613 292 616l-1-2-1 5c-3.909-6.775-3.11-14.435-3-22"/><path fill="#01090B" d="m359 491 3 1-1.39 1.215c-7.288 6.752-9.88 14.161-11.61 23.785h-1c-.828-5.917.6-9.974 3.25-15.25l.908-1.825c1.858-3.54 3.863-6.262 6.842-8.925"/><path fill="#0B2026" d="m401 336 2 1-2.23 2.633-4.42 5.219A1622 1622 0 0 0 387 356l-1-3 1.828-1.977c5.146-5.521 5.146-5.521 9.61-11.586C399 337 399 337 401 336"/><path fill="#FE9516" d="M548 250c2.63 2.486 3.947 4.49 5 8l-1 3-.867 2.813-1.008 3.187-.992 3.188c-1.078 2.676-1.936 4.005-4.133 5.812l.656-1.625c2.889-8.131 2.629-15.875 2.344-24.375"/><path fill="#B2BFBF" d="M405 760c12.037-.151 23.984.31 36 1l-1 2-24-1-1 2-1-2c-2.126-.467-2.126-.467-4.562-.625l-2.504-.227L405 761z"/><path fill="#208996" d="m373 554 1.25 1.137c8.342 7.474 8.342 7.474 18.75 10.863v2l7 1-1 2c-10.322-2.504-18.994-6.888-26-15z"/><path fill="#AFBDBE" d="M664 756c-3.02 2.013-4.046 2.292-7.5 2.563-2.779.226-4.823.545-7.5 1.437a87 87 0 0 1-4.887.098l-2.842-.01-2.958-.025-2.995-.014q-3.66-.018-7.318-.049v-1q6.243-.646 12.488-1.282 2.121-.216 4.242-.436 3.06-.317 6.122-.626l3.713-.38c3.164-.254 6.262-.327 9.435-.276"/><path fill="#081A1F" d="m405 741 9 1 2.285.254 11.777 1.308L432 744l-1 2c-8.211.432-16.076-.865-24-3z"/><path fill="#0D2228" d="M417 314c0 7.247-7.306 14.737-12 20l-1-3a87 87 0 0 1 4.75-7l1.383-1.906c2.135-2.913 4.264-5.58 6.867-8.094"/><path fill="#0F1F23" d="M431 287h2c-1.588 4.155-3.463 8.143-5.437 12.125l-.909 1.879c-1.545 3.117-2.965 5.743-5.654 7.996.49-5.651 2.742-9.597 5.563-14.375l1.287-2.23c1.042-1.803 2.095-3.6 3.15-5.395"/><path fill="#0C9DA6" d="M570 278c2.312 3.468 3.111 6.823 4.063 10.813l.525 2.119A139 139 0 0 1 577 303c-2.035-2.035-2.638-3.234-3.625-5.875-.26-.678-.52-1.356-.79-2.055C572 293 572 293 572 289h-2l-1 4z"/><path fill="#102327" d="M607 329c4.55 1.578 6.862 5.2 9.688 8.875l1.51 1.895c2.4 3.08 4.036 5.339 4.802 9.23-3.638-3.547-7-7.222-10.25-11.125l-1.352-1.59c-2.029-2.429-3.387-4.252-4.398-7.285"/><path fill="#B1C1C2" d="m682.625 717.938 2.477.027L687 718c-1.375 1.5-1.375 1.5-3 3h-2v4l-9-3c3.61-3.61 4.74-4.132 9.625-4.062"/><path fill="#109EA6" d="M448 282h1l.367 3.473.508 4.59.238 2.279c.413 3.664.962 6.911 2.02 10.467.825 3.037 1.012 4.33-.133 7.191q-.974-3.311-1.937-6.625l-1.09-3.727c-.858-3.218-1.464-6.36-1.973-9.648l-.687-2.125c-.419-2.51.394-3.746 1.687-5.875"/><path fill="#E4A129" d="M519 184h2c-.438 5.47-1.716 8.622-5 13l-2 3-8-2v-1h8l.875-2.312C516 192 516 192 518 189a75 75 0 0 0 1-5"/><path fill="#00121A" d="M742 578c1 2 1 2-.04 5.125a306 306 0 0 1-1.585 3.875l-.829 2.03A183 183 0 0 1 732 605h-1v-5h2l.809-2.512c1.304-3.818 2.752-7.556 4.254-11.3l.814-2.061c2-5.005 2-5.005 3.123-6.127"/><path fill="#245164" d="M405 541c2.352.599 4.686 1.27 7 2l1 2c-4.75-.875-4.75-.875-7-2 3 5.832 7.803 9.202 13 13-4.068-.525-6.176-1.614-9.187-4.375l-2.043-1.836C406 548 406 548 404 545c.375-2.187.375-2.187 1-4"/><path fill="#0F292F" d="M691 411c3.353.576 4.938 1.593 7.25 4.063l1.578 1.66L701 418l2-2c.994 3.094.878 4.903 0 8a3032 3032 0 0 1-6-5.937l-1.734-1.71A287 287 0 0 1 691 412z"/><path fill="#F5A31F" d="M578 188c8.185-.618 8.185-.618 11.063 1.563 1.312 3.412 1.376 5.802.937 9.437-2 3.438-2 3.438-4 6l-2-1 1.5-2.062c1.827-3.58 1.875-5.968 1.5-9.938-2.762-2.762-5.207-2.579-9-3z"/><path fill="#265265" d="M567 522c5.449 1.72 10.712 3.847 16 6-2.551.93-3.74 1.086-6.36.223L570 525l6 8c-4.593-2.297-6.017-3.94-9-8z"/><path fill="#364539" d="M517 210v1h-11v2c-2.123.389-4.248.76-6.375 1.125l-3.586.633L493 215l-2-2c8.824-2.426 16.855-3.404 26-3"/><path fill="#11A2A8" d="m669 671 2 1-5 4 3 1-16 4c1.505-3.01 3.88-3.564 6.875-5 3.206-1.545 6.161-3.024 9.125-5"/><path fill="#FBA51E" d="M674 268c-1.2 3.598-2.1 3.946-5.25 5.875-3.769 2.404-6.745 4.83-9.75 8.125 0-3.52.704-4.439 3-7h2l1-3c2.66-1.994 5.612-4 9-4"/><path fill="#FDA218" d="M661 224v2l-1.941.078c-6.118.401-9.972 1.493-15.059 4.922.966-2.546 1.939-3.946 4-5.75 4.323-1.801 8.379-1.492 13-1.25"/><path fill="#F8A120" d="M643 232c.813 1.688.813 1.688 1 4-2.729 3.352-4.736 5.239-9 6l-1 2-5-1c1.883-2.302 3.046-3.015 5.938-3.937 3.952-1.372 6.19-3.32 8.062-7.063"/><path fill="#0C8089" d="M657 712c-4.75 3-4.75 3-7 3v2a105 105 0 0 1-5 4v-2l-4 1c3.405-3.954 10.543-10.729 16-8"/><path fill="#2D979F" d="M429 568h5l-2 1v2c-2.453 1.226-4.05 1.114-6.79 1.098l-2.85-.01-2.985-.025-3.008-.014q-3.683-.018-7.367-.049v-1l20-1z"/><path fill="#1C3032" d="M573 253h2q1.543 3.18 3.063 6.375l1.722 3.586L581 266l-1 2c-2.309-2.123-3.784-4.136-5.187-6.937l-1.043-2.028C573 257 573 257 573 253"/><path fill="#0E242C" d="M759 609h1c.533 6.259-1.182 10.451-4 16h-2c1.59-5.361 3.19-10.708 5-16"/><path fill="#14262C" d="m737 658 1 3c-1.582 2.664-1.582 2.664-3.812 5.625l-2.208 2.977C730 672 730 672 728 673c.601-4.007 2.666-6.555 5.063-9.75l2.222-2.984z"/><path fill="#67DFE3" d="M626 522c1 2 1 2 .063 5.188-2.125 4.77-6.03 7.66-10.063 10.812l-2-1 1.355-1.25c4.392-4.195 7.666-8.464 10.645-13.75"/><path fill="#132125" d="M449 248c1 3 1 3-.434 6.137a242 242 0 0 1-2.003 3.55l-1.026 1.838A523 523 0 0 1 443 264c-.68-1.645-.68-1.645-1-4 1.18-2.762 1.18-2.762 2.875-5.687l1.68-2.95C448 249 448 249 449 248"/><path fill="#0B99A4" d="M334 437c1 2 1 2 .25 4.438C333 444 333 444 331.59 445.398c-1.777 1.79-2.971 3.636-4.277 5.79l-1.325 2.167L325 455l-1-2c1.387-2.6 2.819-5.068 4.375-7.562.425-.699.85-1.397 1.29-2.116 3.145-5.132 3.145-5.132 4.335-6.322"/><path fill="#0A929C" d="M404 357c0 3.699-.844 4.358-3.25 7.063l-1.828 2.097c-1.892 1.811-3.528 2.818-5.922 3.84 3.388-4.692 6.782-9.03 11-13"/><path fill="#119FAA" d="m710 676 2 1-12 12-2-1c3.422-4.705 7.58-8.277 12-12"/><path fill="#FDA117" d="M666 253a763 763 0 0 1-5.875 3.063l-3.305 1.722L654 259l-2-1c2.287-2.618 4.268-3.686 7.563-4.75l2.378-.797C664 252 664 252 666 253"/><path fill="#4CBDC5" d="m607 543-2.937 1.375c-3.134 1.283-3.134 1.283-4.063 3.625h-4v-4c7.625-2.125 7.625-2.125 11-1"/><path fill="#081921" d="M274 518c1.38 3.767.596 6.448-.437 10.25l-.872 3.266L272 534h-1a535 535 0 0 1-.062-4.25l-.036-2.39c.094-2.267.466-4.189 1.098-6.36h2z"/><path fill="#13252B" d="m457 237 2 1c-1.132 3.395-2.429 4.58-5 7l-1.75 1.75L451 248c.445-5.04 2.713-7.376 6-11"/><path fill="#E4B63A" d="m496 167 2 1v16l-2-1z"/><path fill="#128992" d="m639 720 4 2-1 2c-2.285.633-2.285.633-5.062 1.125l-2.786.508L632 726c2.257-2.335 4.28-4.187 7-6"/><path fill="#0D838D" d="M700 684c0 3.608-.99 5.063-3 8l-2 1-2-2z"/><path fill="#FCCC29" d="M500 327h12v2l-11 1z"/><path fill="#FED62E" d="M550 298h2c-1.516 3.478-3.577 5.956-6.125 8.75l-2.195 2.422L542 311c0-3.55.561-3.976 2.875-6.5 1.935-2.132 3.515-4.085 5.125-6.5"/><path fill="#F1A027" d="M645 294v2l-13 1c1-2 1-2 2.563-2.625 3.501-.539 6.895-.434 10.437-.375"/><path fill="#FDA013" d="M672 237h1c.447 8.787.447 8.787-3 13l-3 1c2-4 2-4 3.063-5.875 1.176-2.666 1.545-5.25 1.937-8.125"/><path fill="#04535D" d="M356 685c3.444 1.448 5.361 3.277 7.75 6.125l1.86 2.195L367 695c-3.72 0-4.449-.903-7.187-3.312l-2.168-1.864C356 688 356 688 356 685"/><path fill="#122B32" d="M280 647c3.116 3.116 3.934 4.824 5 9l-1 2h-3z"/><path fill="#091C23" d="M282 495c1 2 1 2 .223 4.383l-1.16 2.742-1.153 2.758L279 507h-1c.875-7.625.875-7.625 2-11z"/><path fill="#14252C" d="M300 681c6.571 5.143 6.571 5.143 8 9-3.135-.336-4.025-1.027-6.25-3.375C300 684 300 684 300 681"/><path fill="#143036" d="M269 613c3 2 3 2 3.813 5.438C273 622 273 622 271 625l-1.367-6.055c-.538-2.152-.538-2.152-2.633-3.945h2z"/><path fill="#51BFC4" d="m627 522 8 4c-3.196 1.065-5.657 1.074-9 1z"/><path fill="#FEEB46" d="m510 261 2 2c-2.375 1.563-2.375 1.563-5 3l-2-1zm-5 5v2l-8 1c6-3 6-3 8-3"/><path fill="#233736" d="m471 223 2 1c-2.883 4.214-5.043 5.76-10 7 2.416-3.192 4.68-5.747 8-8"/><path fill="#0A1E24" d="m335 407 3 1-7 9-1-3c.996-1.824.996-1.824 2.438-3.687l1.433-1.887z"/><path fill="#F6A816" d="M503 192c3 1 3 1 4 3 2.322.407 4.657.744 7 1v1h-10z"/><path fill="#DDE7E8" d="m678 718 3 6c-5.75-.75-5.75-.75-8-3z"/><path fill="#1B3138" d="m727 672 1 3c-1.215 1.824-1.215 1.824-2.937 3.688l-1.715 1.886L722 682l-1-3 1.938-.75c2.245-1.056 2.245-1.056 2.75-3.312L726 673z"/><path fill="#12262B" d="M425 298c.75 1.563.75 1.563 1 4-1.13 2.503-2.521 4.67-4 7-.75-1.562-.75-1.562-1-4 1.13-2.503 2.521-4.67 4-7"/><path fill="#F3D42F" d="M460 290c1.884 3.265 2.493 6.281 3 10-2.69-1.65-3.838-2.526-4.875-5.562L458 292z"/><path fill="#FDA31B" d="M548 250c3.087 3.087 3.449 3.92 4 8h-2l-1 4z"/><path fill="#A6B6B8" d="m336 717 1 3 6-2 2 2c-1 1-1 1-3.504 1.098l-3.058-.035-3.067-.028L333 721l3-1z"/><path fill="#214A5D" d="M405 541c2.352.599 4.686 1.27 7 2l1 2c-4.75-.875-4.75-.875-7-2l-1 4a88 88 0 0 1-1-5z"/><path fill="#224C60" d="M377 497v3c-2.312 2-2.312 2-5 4a98 98 0 0 0-3 3c0-3 0-3 1.75-4.824l2.25-1.863 2.25-1.887z"/><path fill="#102125" d="M593 305h3l3 10c-3.376-3.376-4.275-5.645-6-10"/><path fill="#F6A11E" d="M584 206c-1.389 3.356-2.917 5.073-6 7h-2v-2h2v-2c3.462-3 3.462-3 6-3"/><path fill="#29555C" d="M284 658c3 3.75 3 3.75 3 6h-4l-2-5z"/><path fill="#13A7B0" d="M287 597c1.952 3.904 2.506 6.722 3 11l-3-1z"/><path fill="#0C949E" d="M312 479c1.217 3.652.642 4.63-1 8l-2 2c.75-6.625.75-6.625 3-10"/><path fill="#2E3B40" d="M692 708v2c-1.75 1.29-1.75 1.29-4 2.625l-2.25 1.352L684 715v-3c5.257-4 5.257-4 8-4"/><path fill="#081A21" d="M276 508h2c-.586 6.152-.586 6.152-1 8l-2 1z"/><path fill="#011015" d="m359 491 3 1-5 5-3-1z"/><path fill="#F2A126" d="M638 269h1v11l-3-4c.813-3.75.813-3.75 2-7"/><path fill="#011B24" d="m734 596 2 1-4 8h-1v-5h2z"/><path fill="#0D1D23" d="M638 364c3.255.349 4.019 1.021 6.25 3.563L646 370c-3.914-1.27-5.79-2.512-8-6"/><path fill="#F1CA2C" d="m530 323 2 1c-2 3-2 3-4.625 3.688L525 328v-3c2.375-1.062 2.375-1.062 5-2"/><path fill="#203533" d="M591 296c1.991 2.986 2.941 5.597 4 9l-3-1c-1.354-2.709-1.065-5.01-1-8"/><path fill="#F89D16" d="M578 188h9l2 4-1.562-.937c-3.105-1.354-6.09-1.677-9.438-2.063z"/><path fill="#F8A61A" d="M440 188c5.625-.25 5.625-.25 9 2l-1 3c-2.712-1.613-5.374-3.249-8-5"/><path fill="#6C7A54" d="m474 216 3 1v2l-5 2c0-3 0-3 2-5"/><path fill="#778152" d="M504 208h10v1h-10z"/><path fill="#B3C3C3" d="M479 765h6l-4 2z"/><path fill="#14484F" d="m265 599 1 4-2 1z"/><path fill="#768054" d="M500 208h3v2h-5z"/><path fill="#B4C4C5" d="M535 765h6v1h-6z"/><path fill="#B3C3C4" d="M487 765h6v1h-6z"/><path fill="#B9C7C8" d="M369 759h6v1h-6z"/><path fill="#14494F" d="M264 593h1v6h-1z"/><path fill="#235253" d="m424 290 4 1-4 1z"/><path fill="#657757" d="M540 216h4v2z"/><path fill="#B4C4C4" d="M664 758h5v1h-5z"/><path fill="#A7B8B9" d="M321 720h5v1h-5z"/><path fill="#A8B8B8" d="M317 720h2v2l-3-1z"/><path fill="#486E75" d="m305 691 2 2-2 2z"/><path fill="#17454D" d="m727 445 1 4-2-3z"/><path fill="#12474F" d="m312 432 2 1-2 3z"/><path fill="#496452" d="m450 242 2 1-3 2z"/><path fill="#B2C3C5" d="m543 765 4 1Z"/><path fill="#B4C2C3" d="m586 764 4 1Z"/><path fill="#BAC7C8" d="m652 759 4 1Z"/><path fill="#B6C6C6" d="m359 758 3 1h-3z"/><path fill="#B4C3C4" d="m671 757 4 1Z"/><path fill="#16474E" d="m266 606 1 4Z"/><path fill="#12454D" d="m288 472 2 1-2 2z"/><path fill="#13464B" d="m738 464 3 1h-3z"/><path fill="#13454C" d="M733 456h2l-1 3z"/><path fill="#11444C" d="m307 440 1 3-2-1z"/><path fill="#E6B73C" d="M642 285h2v2h-2z"/><path fill="#355B52" d="M441 258v3Z"/><path fill="#F6C238" d="m664 248 3 1-3 1z"/><path fill="#F5BE36" d="M664 230h2v2h-2z"/><path fill="#6E7A55" d="m478 216 3 1-3 1z"/><path fill="#E5AE31" d="M676 208h3l-1 2z"/><path fill="#B2C2C3" d="m559 765 3 1Z"/><path fill="#B4C4C5" d="m520 765 3 1Z"/><path fill="#B3C3C3" d="m445 764 3 1Z"/><path fill="#B5C4C5" d="m606 763 3 1ZM418 763l3 1Z"/><path fill="#B6C4C6" d="m352 757 3 1Z"/><path fill="#B6C5C5" d="m344 756 3 1Z"/><path fill="#ADBCBD" d="m709 722 3 1Z"/><path fill="#3E656C" d="m300 685 2 2h-2z"/><path fill="#1A4951" d="M268 622h2l-1 2z"/><path fill="#11444C" d="m265 548 1 2-2-1z"/><path fill="#1A4B50" d="M694 410h2l-1 2z"/><path fill="#1A4B4F" d="m692 408 3 1Z"/><path fill="#225253" d="m667 384 3 1Z"/><path fill="#144951" d="m352 384 3 1Z"/><path fill="#174B51" d="m368 368 2 1-2 1z"/><path fill="#375C53" d="M614 334h2l-1 2z"/><path fill="#C4A744" d="m645 318 3 1Z"/><path fill="#B49D46" d="M625 307h2l-1 2z"/><path fill="#E1B43F" d="m653 296 3 1Z"/><path fill="#EBB83A" d="m655 286 1 2-2-1z"/><path fill="#F8BE36" d="m655 228 2 1-2 1z"/><path fill="#F8BE35" d="m650 228 3 1Z"/><path fill="#677753" d="m466 224 3 1Z"/><path fill="#E1AE31" d="m694 218 2 1-2 1z"/><path fill="#E5AE30" d="M690 217h2l-1 2z"/><path fill="#EBB739" d="m632 208 3 1Z"/><path fill="#E8B332" d="m658 202 1 2-2-1z"/><path fill="#DDB43B" d="m591 198 1 2-2-1z"/><path fill="#B3C3C2" d="m551 765 2 1Z"/><path fill="#B2C3C3" d="m548 765 2 1Z"/><path fill="#B4C3C4" d="m471 765 2 1Z"/><path fill="#B3C4C4" d="m580 764 2 1Z"/><path fill="#B4C3C3" d="m622 762 2 1Z"/><path fill="#B5C3C4" d="m680 756 2 1Z"/><path fill="#ACBCBC" d="m713 723 2 1Z"/><path fill="#ACBBBC" d="m312 722 2 1Z"/><path fill="#ABB9BA" d="m706 721 2 1Z"/><path fill="#A7B7B9" d="m699 720 2 1Z"/><path fill="#96ABAD" d="m332 718 2 1Z"/><path fill="#10444D" d="m264 546 2 1Z"/><path fill="#11444C" d="m280 489 2 1Z"/><path fill="#11444A" d="m280 481 2 1Z"/><path fill="#10474E" d="m330 408 2 1Z"/><path fill="#184D51" d="m683 400 2 1Z"/><path fill="#225252" d="m670 385 2 1Z"/><path fill="#E7B53E" d="m643 292 2 1Z"/><path fill="#EABA3C" d="m647 287 2 1Z"/><path fill="#2A5352" d="m434 272 2 1Z"/><path fill="#F0BB39" d="m676 270 2 1Z"/><path fill="#556A53" d="m573 247 2 1Z"/><path fill="#F6BC36" d="m653 231 2 1Z"/><path fill="#F7C036" d="m662 229 2 1Z"/><path fill="#F8BC37" d="m648 229 2 1Z"/><path fill="#F9BF37" d="m658 228 2 1Z"/><path fill="#707B52" d="m488 212 2 1Z"/><path fill="#E8B233" d="m663 204 2 1Z"/></svg>