<svg xmlns="http://www.w3.org/2000/svg" width="1024" height="1024"><path fill="#03838B" d="M556.785 223.313c5.939 5.58 10.211 11.86 14.403 18.78 1.658 2.903 1.658 2.903 3.812 4.907l1 3q1.518 3.849 3.063 7.688l.853 2.126q1.041 2.594 2.084 5.186h2l.188 2.5c1.034 4.454 3.04 7.88 5.812 11.5l2 1 .39 2.668c3.104 16.968 23.734 36.546 35.61 48.332 2.692 2.687 5.378 5.38 8.05 8.086 7.637 7.743 7.637 7.743 15.712 15.02 1.92 1.625 3.81 3.278 5.695 4.945l3.793 3.324 1.828 1.627 1.75 1.521 1.56 1.373c1.836 1.258 3.468 1.58 5.612 2.104a113 113 0 0 1 2 4c1.653 1.661 3.37 3.26 5.125 4.813l2.758 2.457a387 387 0 0 0 4.987 4.322c5.02 4.306 9.621 8.884 14.13 13.72l2.059 2.167L705 402.55l1.75 1.864C708 406 708 406 708 408h4l.316 1.73c.8 2.656 1.983 4.366 3.625 6.598l1.768 2.422 1.854 2.5 1.865 2.547A1462 1462 0 0 0 726 430l1.194-1.82c6.772-10.252 12.996-19.025 25.619-21.618 7.506-1.03 15.336-.41 21.558 4.192 8.762 7.486 13.815 17.403 14.864 28.798 2.12 33.903-10.72 67.844-28.704 96.175-2.835 6.06-2.631 12.37-2.465 18.954.696 28.7-3.43 58.244-13.066 85.319l-1.262 3.57C737.736 659.495 729.876 674.867 719 688l-2.277 2.918c-3.907 4.949-7.855 9.401-12.72 13.418a87 87 0 0 0-3.976 3.516C693.31 714.155 685.756 719.083 678 724l-2.828 1.793C673 727 673 727 671 727v2q3.915.356 7.828.707 3.143.29 6.281.617l2.953.301c.899.095 1.797.19 2.723.29 2.257.265 2.257.265 4.215-.915v2l1.893.471c2.873.725 5.74 1.47 8.607 2.216l2.977.74c6.072 1.6 11.659 3.457 16.523 7.573 1 2.5 1 2.5 0 5-5.283 4.302-11.36 6.376-17.812 8.25l-2.561.773q-2.332.705-4.67 1.392A166 166 0 0 0 695 760c-1.362.165-2.73.294-4.098.402-4.741.44-9.44 1.084-14.148 1.79l-2.248.333c-3.092.46-6.183.921-9.272 1.394-8.79 1.34-17.308 2.509-26.234 2.081v2l-1.8-.048c-8.055-.116-16.002.53-24.017 1.216-16.609 1.411-33.217 2.341-49.87 3.02l-3.149.128q-7.007.286-14.014.548l-2.147.08c-2 .056-4.002.056-6.003.056l-1 2-1-1a67 67 0 0 0-4.441-.082l-2.907.02-3.215.035q-3.45.021-6.9.04l-3.718.026c-29.862.183-59.633-.667-89.471-1.902-6.002-.245-12.005-.474-18.008-.703l-3.448-.132L396 771v1h-5l-1-2a82 82 0 0 0-6.926-.86q-2.246-.215-4.49-.433l-2.416-.224C305.221 761.814 305.221 761.814 286 749c-.687-2.812-.687-2.812 0-6 13.006-11.592 37.679-12.288 54-15l-1.6-.98c-4.394-2.712-8.511-5.556-12.54-8.786-1.962-1.302-3.56-1.807-5.86-2.234l-.223-1.746c-1.056-3.064-2.736-4.247-5.214-6.317-4.94-4.265-9.175-8.827-13.434-13.75-2.014-2.404-2.014-2.404-5.129-3.187v-3a181 181 0 0 0-4-4c-1-1.812-1-1.812-2-4-2.67-5.17-2.67-5.17-7-9v-3a155 155 0 0 0-3-6.687l-1.687-3.575L277 655h-2l1-5-2-1c-.71-2.047-.71-2.047-1.375-4.75a297 297 0 0 0-3.75-13.312l-1.008-3.286c-.775-2.59-.775-2.59-1.867-4.652a97 97 0 0 1-.496-4.754l-.25-2.996L265 612l-.266-3.332c-.276-3.534-.538-7.07-.796-10.606l-.276-3.591C260.86 556.058 268.9 515.155 287 481l1.112-2.1c2.86-5.361 5.837-10.646 8.888-15.9l1.167-2.019c13.425-22.99 31.225-45.34 50.65-63.633 2.524-2.18 2.524-2.18 2.183-5.348l1.798-.279c2.742-.898 3.63-2.027 5.429-4.26 3.803-4.55 7.919-8.684 12.148-12.836q2.14-2.102 4.273-4.21l1.88-1.846c1.567-1.52 1.567-1.52 2.472-3.569h2l.738-1.719c1.496-2.704 3.297-4.56 5.45-6.781 11.054-11.969 20.686-25.393 28.812-39.5l1.902-3.094c8.956-14.896 15.12-31.186 21.223-47.406 5.465-14.433 11.386-26.935 21.875-38.5l1.633-1.914c10.723-11.801 27.017-19.125 42.633-20.93 19.4-.811 36.694 5.848 51.52 18.156"/><path fill="#002F39" d="M556.785 223.313c5.939 5.58 10.211 11.86 14.403 18.78 1.658 2.903 1.658 2.903 3.812 4.907l1 3q1.518 3.849 3.063 7.688l.853 2.126q1.041 2.594 2.084 5.186h2l.188 2.5c1.034 4.454 3.04 7.88 5.812 11.5l2 1 .39 2.668c3.104 16.968 23.734 36.546 35.61 48.332 2.692 2.687 5.378 5.38 8.05 8.086 7.637 7.743 7.637 7.743 15.712 15.02 1.92 1.625 3.81 3.278 5.695 4.945l3.793 3.324 1.828 1.627 1.75 1.521 1.56 1.373c1.836 1.258 3.468 1.58 5.612 2.104a113 113 0 0 1 2 4c1.653 1.661 3.37 3.26 5.125 4.813l2.758 2.457a387 387 0 0 0 4.987 4.322c5.02 4.306 9.621 8.884 14.13 13.72l2.059 2.167L705 402.55l1.75 1.864C708 406 708 406 708 408h4l.316 1.73c.8 2.656 1.983 4.366 3.625 6.598l1.768 2.422 1.854 2.5 1.865 2.547A1462 1462 0 0 0 726 430l1.194-1.82c6.772-10.252 12.996-19.025 25.619-21.618 7.506-1.03 15.336-.41 21.558 4.192 8.762 7.486 13.815 17.403 14.864 28.798 2.12 33.903-10.72 67.844-28.704 96.175-2.835 6.06-2.631 12.37-2.465 18.954.696 28.7-3.43 58.244-13.066 85.319l-1.262 3.57C737.736 659.495 729.876 674.867 719 688l-2.277 2.918c-3.907 4.949-7.855 9.401-12.72 13.418a87 87 0 0 0-3.976 3.516C693.31 714.155 685.756 719.083 678 724l-2.828 1.793C673 727 673 727 671 727v2q3.915.356 7.828.707 3.143.29 6.281.617l2.953.301c.899.095 1.797.19 2.723.29 2.257.265 2.257.265 4.215-.915v2l1.893.471c2.873.725 5.74 1.47 8.607 2.216l2.977.74c6.072 1.6 11.659 3.457 16.523 7.573 1 2.5 1 2.5 0 5-5.283 4.302-11.36 6.376-17.812 8.25l-2.561.773q-2.332.705-4.67 1.392A166 166 0 0 0 695 760c-1.362.165-2.73.294-4.098.402-4.741.44-9.44 1.084-14.148 1.79l-2.248.333c-3.092.46-6.183.921-9.272 1.394-8.79 1.34-17.308 2.509-26.234 2.081v2l-1.8-.048c-8.055-.116-16.002.53-24.017 1.216-16.609 1.411-33.217 2.341-49.87 3.02l-3.149.128q-7.007.286-14.014.548l-2.147.08c-2 .056-4.002.056-6.003.056l-1 2-1-1a67 67 0 0 0-4.441-.082l-2.907.02-3.215.035q-3.45.021-6.9.04l-3.718.026c-29.862.183-59.633-.667-89.471-1.902-6.002-.245-12.005-.474-18.008-.703l-3.448-.132L396 771v1h-5l-1-2a82 82 0 0 0-6.926-.86q-2.246-.215-4.49-.433l-2.416-.224C305.221 761.814 305.221 761.814 286 749c-.687-2.812-.687-2.812 0-6 13.006-11.592 37.679-12.288 54-15l-1.6-.98c-4.394-2.712-8.511-5.556-12.54-8.786-1.962-1.302-3.56-1.807-5.86-2.234l-.223-1.746c-1.056-3.064-2.736-4.247-5.214-6.317-4.94-4.265-9.175-8.827-13.434-13.75-2.014-2.404-2.014-2.404-5.129-3.187v-3a181 181 0 0 0-4-4c-1-1.812-1-1.812-2-4-2.67-5.17-2.67-5.17-7-9v-3a155 155 0 0 0-3-6.687l-1.687-3.575L277 655h-2l1-5-2-1c-.71-2.047-.71-2.047-1.375-4.75a297 297 0 0 0-3.75-13.312l-1.008-3.286c-.775-2.59-.775-2.59-1.867-4.652a97 97 0 0 1-.496-4.754l-.25-2.996L265 612l-.266-3.332c-.276-3.534-.538-7.07-.796-10.606l-.276-3.591C260.86 556.058 268.9 515.155 287 481l1.112-2.1c2.86-5.361 5.837-10.646 8.888-15.9l1.167-2.019c13.425-22.99 31.225-45.34 50.65-63.633 2.524-2.18 2.524-2.18 2.183-5.348l1.798-.279c2.742-.898 3.63-2.027 5.429-4.26 3.803-4.55 7.919-8.684 12.148-12.836q2.14-2.102 4.273-4.21l1.88-1.846c1.567-1.52 1.567-1.52 2.472-3.569h2l.738-1.719c1.496-2.704 3.297-4.56 5.45-6.781 11.054-11.969 20.686-25.393 28.812-39.5l1.902-3.094c8.956-14.896 15.12-31.186 21.223-47.406 5.465-14.433 11.386-26.935 21.875-38.5l1.633-1.914c10.723-11.801 27.017-19.125 42.633-20.93 19.4-.811 36.694 5.848 51.52 18.156M450 278l-1.25 3.742c-10.23 30.2-24.693 56.946-46.75 80.258a503 503 0 0 0-3.187 3.688c-4.065 4.67-8.32 9.16-12.553 13.677a721 721 0 0 0-11.994 13.127 343 343 0 0 1-5.094 5.516A278 278 0 0 0 349 422l-1.305 1.738c-6.508 8.738-12.302 17.8-17.695 27.262l-1.055 1.831c-17.42 30.47-26.06 67.13-23.945 102.169l.133 2.313c1.659 25.258 11.067 47.875 29.617 65.437 19.403 16.48 42.051 26.09 66.25 33.25l2.396.71c22.65 6.49 47.303 8.513 70.791 8.477l2.263-.001c67.905-.149 136.797-21.428 187.3-68.127 1.972-1.805 3.996-3.492 6.063-5.184 5.839-5.071 10.646-11.202 15.645-17.077 2.722-3.173 5.533-6.264 8.347-9.357 1.264-1.406 2.519-2.82 3.747-4.258 4.043-4.716 8.305-8.992 12.885-13.183 7.553-7.013 14.897-14.217 22.188-21.5l1.56-1.552C740.01 519.145 745.668 513.263 751 507q2.337-2.632 4.688-5.25l2.199-2.453A177 177 0 0 1 764 493l-1 9c10.692-9.544 16.236-32.618 17.169-46.515 1.2-17.823 1.2-17.823-6.169-33.485-6.237-5.365-11.122-7.62-19.39-7.34-6.151.801-10.083 5.35-13.887 9.906-5.185 7.325-7.903 15.784-10.598 24.247-6.301 19.745-18.397 43.173-37.387 53.406L691 503c3.776-6.751 7.603-13.438 11.786-19.948C714.547 465.257 714.547 465.257 718 445c-1.536-3.352-1.536-3.352-3.812-6.562l-1.222-1.819C708.32 429.813 703.233 423.361 698 417l-1.401-1.718C686.126 402.506 674.54 390.75 662 380l-1.717-1.48q-2.45-2.108-4.908-4.207l-1.802-1.545q-4.556-3.905-9.132-7.788c-8.003-6.797-15.854-13.72-23.441-20.98l-2.308-2.205C599.491 323.334 584.431 304.072 573 280c-1.91 3.286-2.386 6.119-2.812 9.875-2.288 15.8-9.195 30.409-21.188 41.125-13.77 10.06-30.115 13.463-47 12-15.96-2.663-28.509-9.917-38.156-22.902C455.259 307.14 452.36 293.278 451 278z"/><path fill="#FEE422" d="M540 226c12.707 10.127 22.984 23.376 25 40 1.429 14.99-2.978 29.7-12 41.648-8.098 9.631-19.474 17.01-32 19.352-16.457.907-31.255-1.127-44.187-12.187-10.33-9.778-17.501-22.321-18.149-36.731-.305-17.705 3.078-32.676 15.649-45.957 17.71-16.517 45.14-19.699 65.687-6.125"/><path fill="#000F17" d="M450.75 479.918c11.059 8.508 19.961 20.209 22.035 34.398 1.05 13.113.687 25.355-8.105 35.875L463 552l-1.742 1.902c-6.757 6.631-15.016 9.247-24.383 9.535-13.3-.536-24.847-6.512-33.926-16.113-2.734-3.26-4.861-6.62-6.949-10.324 1.002 3.793 1.81 6.715 4 10-5.292 4.923-5.292 4.923-8.875 5.313L389 552v-2l-5-1c6.477 8.352 14.472 13.589 24 18v1c-13.009.75-25.193-3.841-35.387-11.883-9.734-9.16-15.952-22.316-16.851-35.648-.267-14.255 2.632-26.966 12.39-37.875 21.671-21.074 58.819-19.26 82.598-2.676"/><path fill="#B7CBCD" d="m670 727 1 2c2.213.436 2.213.436 4.875.563l2.988.214L682 730q4.394.447 8.785.914c2.257.266 2.257.266 4.215-.914v2l1.893.471c2.873.725 5.74 1.47 8.607 2.216.982.245 1.965.49 2.977.74 6.072 1.6 11.659 3.457 16.523 7.573 1 2.5 1 2.5 0 5-5.283 4.302-11.36 6.376-17.812 8.25l-2.561.773q-2.332.705-4.67 1.392A166 166 0 0 0 695 760c-1.362.165-2.73.294-4.098.402-4.741.44-9.44 1.084-14.148 1.79l-2.248.333c-3.092.46-6.183.921-9.272 1.394-8.79 1.34-17.308 2.509-26.234 2.081v2l-1.8-.048c-8.055-.116-16.002.53-24.017 1.216-16.609 1.411-33.217 2.341-49.87 3.02l-3.149.128q-7.007.286-14.014.548l-2.147.08c-2 .056-4.002.056-6.003.056l-1 2-1-1a67 67 0 0 0-4.441-.082l-2.907.02-3.215.035q-3.45.021-6.9.04l-3.718.026c-29.862.183-59.633-.667-89.471-1.902-6.002-.245-12.005-.474-18.008-.703l-3.448-.132L396 771v1h-5l-1-2a82 82 0 0 0-6.926-.86q-2.246-.215-4.49-.433l-2.416-.224C305.221 761.814 305.221 761.814 286 749c-.687-2.812-.687-2.812 0-6 9.454-8.426 25.42-10.036 37.5-12.312l2.711-.52c9.668-1.72 17.059-2.432 25.601 2.832 9.66 5.501 19.699 9.375 30.188 13l2.383.832C415.426 757.45 449.336 761.407 482 762l2.07.04c63.215 1.195 128.718-6.434 185.93-35.04"/><path fill="#000F17" d="M654.25 453.75c9.317 7.517 15.425 19.377 16.75 31.25 1.173 15.55-1.67 30.032-11.848 42.21-4.374 4.68-9.194 8.346-15.152 10.79h-3l1.54-1.293c6.267-5.693 9.324-11.915 12.46-19.707l-1.812 2.938C651 523 651 523 648 524l-1-4h-4c-1.467-3.815-.433-6.29 1-10l-2-2-.191 1.695C640.038 521.291 634.484 532.83 625 540c-8.34 5.18-16.264 5.762-26 5-3.353-.87-6.064-2.18-9-4l-2.078-1.25c-9.186-6.17-13.84-15.38-16.922-25.75l-.582-1.887c-2.598-13.133.542-26.584 7.773-37.71 10.83-14.386 27.363-24.139 45.149-27.118 11.858-1.271 20.998-.38 30.91 6.465"/><path fill="#FEA103" d="M524 227c4.958-.292 8.028-.13 12 3v2l2.813.313c3.216.693 4.347 1.03 6.187 3.687v3l1.688.625c2.293 1.363 3.266 2.433 4.875 4.5L554 247h3c3.385 5.445 3.674 10.677 4 17h2c1.7 18.705-.395 31.806-12.687 46.688-8.268 8.912-20.709 15.838-33 16.515-16.735.306-30.533-2.955-42.989-14.746C465.9 303.55 459 291.904 459 279.375c.258-6.473.726-11.638 4-17.375h2l.586-2.809.789-3.628.773-3.622L468 249l2-1-.105 3c-.247 9.728-.144 16.757 6.668 24.188 11.112 10.34 24.318 11.377 38.8 11.058 11.036-.45 21.838-3.77 29.574-12.058 4.635-7.163 6.183-14.68 5.063-23.188-2.373-2.373-4.94-4.442-7.54-6.562-.481-.475-.963-.95-1.46-1.438v-2l-2.125-.812L536 239l-2.937-1.187c-3.852-2.28-6.55-5.115-9.063-8.813z"/><path fill="#FCCC06" d="M524 227c4.958-.292 8.028-.13 12 3v2l2.813.313c3.216.693 4.347 1.03 6.187 3.687v3l1.688.625c2.293 1.363 3.266 2.433 4.875 4.5L554 247h3c3.385 5.445 3.674 10.677 4 17h2c1.7 18.705-.395 31.806-12.687 46.688-8.268 8.912-20.709 15.838-33 16.515-16.735.306-30.533-2.955-42.989-14.746C465.9 303.55 459 291.904 459 279.375c.258-6.473.726-11.638 4-17.375 2.597 3.895 2.284 8.059 2.375 12.563.484 12.185 3.6 21.747 12.59 30.308 12.428 10.45 26.42 12.31 42.035 11.129 10.46-1.905 22.08-6.407 28.723-15.07 6.065-9.164 7.49-15.647 7.59-26.555l.087-3.16c.057-6.972-.69-13.166-4.4-19.215-1.96-1.69-1.96-1.69-4-3a220 220 0 0 1-3.75-3.062l-1.86-1.536C541 243 541 243 541 241l-2.125-.812L536 239l-2.937-1.187c-3.852-2.28-6.55-5.115-9.063-8.813z"/><path fill="#058E91" d="M285 603c2 1 2 1 3.008 3.598l1.117 3.465C297.589 634.873 313.063 657.11 331 676l1.428 1.51c7.93 8.333 16.319 15.663 25.572 22.49l2.648 1.957C373.752 711.35 388.568 720.961 404 726c-3.011.944-4.94 1.013-7.984.215l-2.31-.599-2.456-.678-2.562-.699C364.451 717.462 344.342 706.365 326 689l-2.68-2.484C306.2 670.122 293.731 649.03 288 626c-.23-.908-.461-1.815-.7-2.75-1.505-6.665-1.895-13.443-2.3-20.25"/><path fill="#0B9495" d="M732 604c1.686 3.372-.231 6.452-1.35 9.897l-1.087 3.228-1.106 3.29C725.356 629.405 721.6 637.694 717 646l-1.566 3.043c-19.63 36.454-57.364 58.623-95.692 70.666C607.84 723.28 607.84 723.28 604 722l3.305-1.398c27.724-11.915 53.572-28.209 75.299-49.253a322 322 0 0 1 3.814-3.61c10.4-9.96 18.634-21.916 26.517-33.898 1.257-1.91 2.523-3.815 3.79-5.718A695 695 0 0 0 732 604"/><path fill="#149896" d="M765.516 415.8c7.603 3.764 11.744 10.343 14.484 18.2.227 2.587.227 2.587.195 5.3l-.02 2.96-.05 3.053-.027 3.11q-.036 3.79-.098 7.577h-1l-1-12-1.793 2.52-2.394 3.293-1.174 1.658c-3.008 4.102-5.784 7.03-10.92 7.927-4.746-.05-7.946-.237-11.719-3.398-4.612-4.77-7.14-8.047-7.098-14.887l.01-2.842.025-2.959.014-2.994q.02-3.66.049-7.318l-5 8-1-2c6.791-11.194 14.445-19.678 28.516-15.2"/><path fill="#0B4457" d="m405 479-1.137 1.363c-8.444 10.615-13.082 22.801-12.119 36.423.554 4.792 1.562 9.5 2.568 14.214l.645 3.041c1.087 4.8 2.076 8.921 5.043 12.959-5.292 4.923-5.292 4.923-8.875 5.313L389 552v-2l-3.23-.031C382 549 382 549 380.705 547.562c-1.146-1.978-2.102-3.967-3.017-6.062l-1.028-2.23c-5.295-11.8-7.227-25.808-3.035-38.332 4.432-10.173 11.426-16.804 21.563-21.375 3.325-.666 6.43-.698 9.812-.563"/><path fill="#82DADC" d="M417.938 386.313c2.332 1.908 3.845 3.572 4.433 6.597.281 9.104-3.81 15.543-9.558 22.34-5.547 5.88-12.723 11.2-20.813 12.75-4.475.055-7.862-.147-11.5-2.875-2.188-3.1-2.983-6.122-2.895-9.914 1.78-9.972 8.687-18.097 16.395-24.211 7.585-4.945 15.194-8.594 23.938-4.687"/><path fill="#8D8C8F" d="M0 0h1v1024H0z"/><path fill="#0A4255" d="M622.96 457.813c10.346.803 19.332 5.342 26.356 12.98 6.626 8.686 9.031 18.076 8.871 28.832l-.001 2.523c-.03 4.074-.173 7.88-1.186 11.852h-2l-.75 2.75c-1.29 3.354-2.57 4.927-5.25 7.25l-2-1v-3h-4c-1.467-3.815-.433-6.29 1-10l-2-2h-1l-.078-3.078c-.536-14.75-3.835-27.8-14.598-38.61A186 186 0 0 0 619 460c2-2 2-2 3.96-2.187"/><path fill="#FEFCE5" d="M502 231c4.876 2.528 9.228 5.684 11 11 .525 4.999.593 8.857-1.75 13.375L509 258l-1.875 2.25c-4.179 3.441-8.886 4.218-14.172 4.066-4.543-.736-7.336-3.616-10.265-6.941-3.329-4.684-3.164-8.747-2.688-14.375 1.918-5.451 4.935-8.206 9.855-11.086 3.93-1.674 7.963-1.457 12.145-.914"/><path fill="#FDCC11" d="M445.426 182.625c3.684 1.968 5.45 4.78 7.762 8.188l1.326 1.869c3.822 5.492 6.128 10.512 6.486 17.318-1 3.375-1 3.375-3 6-4.77 1.59-8.395 1.067-12.89-.867-7.448-4-13.482-9.412-17.11-17.133-1.253-4.347-1.534-7.635.125-11.875 5.439-6.164 9.975-5.388 17.3-3.5"/><path fill="#0A465C" d="M461.793 528.238 464 529c1.387 3.583.9 5.882-.5 9.313-3.782 7.784-9.56 14.06-17.5 17.687-8.95 2.332-18.649 2.347-26.734-2.379-3.906-2.794-7.462-5.69-10.266-9.621-.5-3.5-.5-3.5 0-6 4.387-1.423 6.962-.771 11.063.938 7.934 3.093 16.017 3.382 24.125.625 5.068-2.262 8.674-5.868 12.488-9.833C459 528 459 528 461.793 528.238"/><path fill="#FDCD16" d="M588.75 182.188c2.742 2.209 3.486 3.374 4.25 6.812-.126 7.675-2.776 12.635-8.05 18.14-5.666 5.284-10.97 9.338-18.763 10.36-3.187-.5-3.187-.5-4.847-2.25-2.398-4.027-2.2-7.723-1.34-12.25 3.717-8.63 9.102-15.902 17.063-20.937 4.403-1.593 7.365-1.742 11.687.125"/><path fill="#00131B" d="M560.75 538.438C563 539 563 539 565 541c.459 3.59.338 5.44-1.547 8.563-8.976 9.93-20.417 15.687-33.869 16.601-2.737.12-5.469.18-8.209.211l-2.638.042c-9.19-.067-18.623-2.262-25.737-8.417-1.634-2.628-2.051-3.561-1.687-6.687C492 549 492 549 493 548c2.898-.414 5.082-.568 7.637 1.012l1.675 1.3c8.705 6.618 19.137 6.8 29.688 5.688 9.052-1.94 17.468-6.592 23.25-13.875 2.432-3.06 2.432-3.06 5.5-3.687"/><path fill="#FBCB16" d="M512.063 154.938c3.848 1.392 5.473 2.776 7.937 6.062 3.602 8.558 2.34 19.049-.75 27.563-1.748 3.861-3.341 6.483-7.25 8.437-3.062.125-3.062.125-6-1-5.565-6.493-6.347-13.856-6.312-22.062l-.05-2.354c-.004-4.936.635-8.313 3.362-12.584 3.14-2.721 4.878-3.977 9.063-4.062"/><path fill="#06151A" d="M788 444h1c1.94 32.117-11.482 64.966-28.469 91.727-2.835 6.06-2.631 12.37-2.465 18.954.696 28.7-3.43 58.244-13.066 85.319l-1.262 3.57C737.736 659.495 729.876 674.867 719 688l-2.277 2.918C712.26 696.571 707.632 701.504 702 706l-2-2 1.363-1.074C720.666 686.95 732.618 664.213 741 641l.757-2.086c8.17-22.959 12.11-47.442 12.368-71.77l.07-4.832c.044-3.188.046-6.373.025-9.562.034-8.152.722-14.47 5.31-21.499 2.116-3.24 3.23-6.6 4.47-10.251h2l.688-2.312c1.094-3.074 2.313-5.924 3.687-8.875 2.17-4.693 4.002-9.428 5.71-14.305.798-2.188 1.687-4.272 2.665-6.383 1.4-2.941 1.4-2.941 1.25-5.562 0-3.05 1.027-5.28 2.137-8.083 3.135-9.007 4.21-18.335 4.652-27.812C787 445 787 445 788 444"/><path fill="#FCCA16" d="M784 348c3.214 2.009 4.645 3.47 5.512 7.207.762 10.763-6.784 18.596-13.336 26.36-2.6 2.908-4.903 5.302-8.176 7.433-2.25.125-2.25.125-4-1-3.695-7.351-1.621-15.633.688-23.187 3.35-9.305 7.954-18.868 19.312-16.813"/><path fill="#0C4960" d="M633 518c-.124 5.96-1.962 8.905-6.04 13.207-6.53 5.972-14.573 8.39-23.343 8.164-7.838-1.111-13.332-5.445-18.242-11.406-3.529-5.043-3.529-5.043-3-8.215L583 518c3.815.594 6.663 1.763 10.063 3.563 6.94 3.208 13.36 3.75 20.742 1.632 3.576-1.369 6.704-2.864 9.883-5.008 3.32-1.704 5.757-.954 9.312-.187"/><path fill="#08191E" d="m441 263 2 1c-1.555 4.273-3.12 8.543-4.687 12.813l-1.319 3.623c-4.086 11.108-8.759 21.565-14.682 31.814l-1.585 2.752c-9.376 16.12-20.037 31.023-32.672 44.76a267 267 0 0 0-5.68 6.426c-2.85 3.283-5.863 6.35-8.992 9.367-1.492 1.416-1.492 1.416-2.383 3.445h-2v2h-2v2h-2l-.687 1.688c-1.663 2.929-3.92 4.983-6.313 7.312a3953 3953 0 0 0-9.375 9.25l-2.5 2.45c-4.512 4.475-8.63 9.016-12.45 14.094-1.712 2.254-3.495 4.426-5.316 6.593l-1.804 2.154a1223 1223 0 0 1-3.657 4.328c-3.257 3.902-5.665 7.54-7.898 12.131a207 207 0 0 1-4 4c-1.648 2.602-3.133 5.264-4.633 7.953L305 457h-2l-.625 2.375c-1.532 4.04-3.579 7.414-5.844 11.078-2.059 3.425-3.798 6.948-5.531 10.547h-2c.896-5.412 3.172-9.497 5.813-14.25l1.48-2.674c4.97-8.808 10.655-16.985 16.707-25.076l1.308-1.768c10.373-13.981 21.821-27.936 34.508-39.884 2.525-2.18 2.525-2.18 2.184-5.348l1.798-.279c2.742-.898 3.63-2.027 5.429-4.26 3.803-4.55 7.919-8.684 12.148-12.836q2.14-2.102 4.273-4.21l1.88-1.846c1.567-1.52 1.567-1.52 2.472-3.569h2l.738-1.719c1.496-2.704 3.297-4.56 5.45-6.781 11.054-11.969 20.686-25.393 28.812-39.5l1.902-3.094c8.872-14.757 15.227-30.948 21.04-47.117C440 264 440 264 441 263"/><path fill="#1AADB1" d="M642 499h1l.184 1.828.254 2.422c.08.789.162 1.578.246 2.39.259 2.344.259 2.344.91 4.497.589 2.7-.512 4.38-1.594 6.863v3h4l2 3c3.08-2.773 4.688-5.063 6-9 1.17 3.512.55 4.604-.993 7.836l-1.914 3.754c-4.717 8.856-11.829 15.404-21.093 19.41-8.286 1.857-8.286 1.857-12 0-1.34.302-2.674.64-4 1-2.784.146-5.528.23-8.312.25l-2.225.063c-5.23.037-8.787-.966-13.463-3.313l2-1 2.703.914c8.107 2.67 17.349 2.028 25.055-1.598 7.706-4.524 12.225-10.42 16.242-18.316l.965-1.855c3.041-6.855 3.274-14.768 4.035-22.145"/><path fill="#FAC819" d="M736.625 362.563c4.316 2.612 5.639 5.603 6.963 10.402.734 3.626.66 7.224.6 10.91l-.002 2.336c-.045 5.648-.045 5.648-1.186 6.789-6.462.359-6.462.359-10-2-1.57-2.277-1.57-2.277-3.125-4.937l-1.57-2.653c-2.316-4.277-2.632-7.585-2.305-12.41 1.316-3.602 2.441-5.53 5.375-8 2.625-1 2.625-1 5.25-.437"/><path fill="#FCC816" d="M812.5 384.875c2.5 2.125 2.5 2.125 3.625 5.438-.157 4.632-1.048 6.235-4.125 9.687-4.48 3.529-8.296 5.304-14 6l-1 2h-8c-.81-3.678-1.21-6.296-.125-9.937 4.496-6.48 10.3-11.774 18.043-13.848C809 384 809 384 812.5 384.875"/><path fill="#03141C" d="M288 482c1.182 3.546.81 4.018-.75 7.25q-1.128 2.374-2.25 4.75l-1.52 3.21c-1.808 4.262-2.596 8.628-3.418 13.165-1.248 6.584-2.6 13.114-4.187 19.625A220 220 0 0 0 272 550h-3c-1.54 9.036-2.318 17.92-2.658 27.07-.171 4.393-.492 8.602-1.342 12.93h-1c-5.027-34.168 5.575-76.83 22-107z"/><path fill="#83DBDB" d="M395 535c1.83 2.252 3.645 4.498 5.32 6.867 6.28 8.818 12.851 13.604 22.825 17.871C426 561 426 561 429 563c-5.277-.539-9.256-1.773-14-4l-.875 2.313C413 564 413 564 411 567c-9.626-.219-17.667-6.365-24.25-12.937A234 234 0 0 1 383 550l1-2 5 2v2c4.43-1.208 6.981-2.517 10-6l-2-2c-1.599-3.375-2-5.166-2-9"/><path fill="#F4F13C" d="M540 226c12.656 10.087 23.08 23.4 25 40 .638 10.724.638 10.724-2 16l-1-17-2-1c-.309-2.293-.309-2.293-.437-5.187-.333-4.731-1.073-7.807-3.563-11.813h-3l-1-3-3-1-1-2c-2.017-1.134-2.017-1.134-4-2v-5h-2l-.562-2.25c-2-3.825-4.666-4.902-8.438-6.75l-1.937-1.187c-3.27-1.288-6.574-1.464-10.063-1.813v-2l-1.941.438c-5.138 1.102-9.783 1.665-15.059 1.562q-2.502.487-5 1l-1-1c-6.245 1.432-10.735 3.078-15.41 7.512-3.423 3.204-7.405 5.445-11.59 7.488 7.23-9.322 15.723-14.65 27-18l1.852-.586c13.452-2.593 28.733.045 40.148 7.586"/><path fill="#081A1E" d="m569 240 1.875 2.375c2.024 2.593 2.024 2.593 4.125 4.625l1 3q1.518 3.849 3.063 7.688l.853 2.126q1.041 2.594 2.084 5.186h2l.188 2.5c1.034 4.454 3.04 7.88 5.812 11.5l2 1 .39 2.668c3.104 16.968 23.734 36.546 35.61 48.332 2.692 2.687 5.378 5.38 8.05 8.086 5.31 5.36 10.59 10.68 16.364 15.547 1.609 1.387 3.103 2.848 4.586 4.367l-1 2a797 797 0 0 1-5-3.875l-2.812-2.18L646 353v-2l-1.7-.742c-6.91-3.779-12.501-10.265-17.527-16.235-1.97-2.248-4.067-4.313-6.21-6.398-4.62-4.58-8.633-9.447-12.563-14.625l-1.242-1.616c-11.577-15.12-20.813-30.758-28.453-48.204-2.47-5.632-5.244-11.07-8.125-16.5C569 244 569 244 569 240"/><path fill="#FAFBFB" d="M422 486c3.294 2.882 4.769 4.741 5.563 9.063-.693 3.615-2.019 5.318-4.563 7.937-3.139 1.57-5.539 1.352-9 1-3.248-2.4-4.69-4.142-6.062-7.937.083-4.072 1.527-5.948 4.062-9.063 3.244-1.622 6.505-1.702 10-1"/><path fill="#041319" d="M355 393c-1.313 2.918-2.704 4.93-5.012 7.137l-1.785 1.733-1.89 1.817c-4.446 4.363-8.642 8.66-12.329 13.696-1.746 2.303-3.55 4.518-5.406 6.734l-1.9 2.272q-1.89 2.255-3.793 4.497c-3.253 3.895-5.656 7.53-7.885 12.114a207 207 0 0 1-4 4c-1.648 2.602-3.133 5.264-4.633 7.953L305 457h-2l-.625 2.375c-1.532 4.04-3.579 7.414-5.844 11.078-2.059 3.425-3.798 6.948-5.531 10.547h-2c.896-5.412 3.172-9.497 5.813-14.25l1.48-2.674c4.97-8.808 10.655-16.985 16.707-25.076l1.308-1.768C347.124 393 347.124 393 355 393"/><path fill="#06141A" d="M265 592c2.628 2.628 2.416 4.15 2.746 7.82.115 1.176.23 2.352.35 3.563q.338 3.706.672 7.414c.654 6.633 1.663 12.067 4.232 18.203.506 2.24.967 4.49 1.375 6.75 2.905 14.034 9.896 28.05 17.625 40.125 2 3.125 2 3.125 2 5.125-1.75-.062-1.75-.062-4-1-1.156-1.71-2.07-3.453-2.973-5.309-1.065-2.022-1.065-2.022-4.027-3.691v-3a155 155 0 0 0-3-6.687l-1.687-3.575L277 655h-2l1-5-2-1c-.71-2.047-.71-2.047-1.375-4.75a297 297 0 0 0-3.75-13.312l-1.008-3.286c-.775-2.59-.775-2.59-1.867-4.652-1.695-10.169-1.09-20.73-1-31"/><path fill="#F9F9FA" d="M599 472c2.796 2.345 2.975 3.802 3.438 7.438-.506 4.113-1.543 5.667-4.438 8.562-2.84 1.42-4.855 1.315-8 1-3.179-2.148-3.907-3.706-5.062-7.375.085-4.982 1.553-6.197 5.062-9.625 3.183-1.592 5.613-.772 9 0"/><path fill="#F5BB0B" d="M784 350c3.875 1.875 3.875 1.875 5 3 1.103 6.91-.254 11.664-4.09 17.414C774.13 385.01 774.13 385.01 768 389c-2.25.125-2.25.125-4-1-3.79-7.538-1.531-15.942.938-23.625 1.745-5.058 1.745-5.058 4.062-7.375 1.565 4.02.462 7.7-.437 11.75l-.448 2.113A704 704 0 0 1 767 376h-2v8l1.875-1c2.125-1 2.125-1 4.125-1l2-2 2-2h2l.313-2.238c.749-3.01 1.795-4.525 3.687-6.95 3.33-4.774 4.23-9.029 4-14.812a56 56 0 0 0-1-4"/><path fill="#A7E7E5" d="M762 421c2.284 1.827 2.87 3.23 3.352 6.09.27 4.286 0 6.378-2.414 10.035C760 439 760 439 756.375 439.063 753 438 753 438 751.063 436.438c-1.522-3.491-1.746-6.735-1.063-10.438 3.486-5.46 5.71-6.669 12-5"/><path fill="#F8DF0B" d="M463 262c2.596 3.894 2.287 8.06 2.375 12.563.225 6.7 1.077 12.188 3.883 18.37C470 295 470 295 469 298l-3-4c0 6.329 5.214 12.056 9.34 16.547 5.37 5.056 10.876 8.58 17.66 11.453-3 1-3 1-6.562-.375-13.724-7.366-21.61-20.052-26.75-34.25-1.88-8.32-.882-18.026 3.312-25.375"/><path fill="#F5BE09" d="m515 156 1 2h-2v2l-9 2c-3.467 10.036-.546 19.99 2 30 3.799.384 3.799.384 5.688-1.187 1.613-2.23 1.947-4.111 2.312-6.813h2l-.062 2.375c-.125 2.606-.125 2.606 1.062 4.625-3.248 4.691-3.248 4.691-6.437 6-3.377 0-4.839-1.043-7.563-3-4.02-6.092-4.376-13.23-4.437-20.312l-.031-2.317c.074-4.828.827-8.19 3.468-12.371 4.17-3.615 6.654-4.74 12-3"/><path fill="#F6BF09" d="m574 184 2 1-1.867 1.645c-2.382 2.63-3.19 4.683-4.258 8.042A87 87 0 0 1 568 200l-2 1c-.692 2.81-.692 2.81-1.125 6.063l-.508 3.347L564 213c4.35.175 6.342-.627 10-3h2v-2l2.75-.625c4.031-1.706 4.94-3.756 7.25-7.375 2.25-.875 2.25-.875 4-1-1.664 6.1-6.193 10.21-11.39 13.523A146 146 0 0 1 572 216l-2 1c-3.437.313-3.437.313-7 0-2.598-2.683-3.49-4.793-3.625-8.5.266-8.588 5.7-15.828 11.563-21.75A124 124 0 0 1 574 184"/><path fill="#0D1C1E" d="M658 362c3.106.6 5.064 1.577 7.563 3.5 2.266 1.736 3.662 2.575 6.437 3.5l.867 1.762c1.545 3.052 3.702 4.79 6.258 7.05l2.758 2.458a387 387 0 0 0 4.987 4.322c5.02 4.306 9.621 8.884 14.13 13.72l2.059 2.167L705 402.55l1.75 1.864C708 406 708 406 708 408h4l.328 1.75c.762 2.55 1.836 4.128 3.43 6.254l1.644 2.244q1.73 2.325 3.47 4.64l1.636 2.24 1.52 2.034L725 429l-1 3-1.003-1.43c-13.687-19.438-28.602-37.64-47.36-52.445-6.2-4.996-12.047-10.457-17.637-16.125"/><path fill="#E2AD12" d="M815 387c1.409 4.148 1.397 6.137-.437 10.125-4.731 5.308-9.477 8.01-16.563 8.875l-1 2h-8c-.822-3.736-1.214-6.315-.062-10 2.784-4.05 6.248-6.938 10.062-10l1 3-1.496 1.39-1.942 1.86-1.933 1.828c-1.714 2.022-2.223 3.335-2.629 5.922h14v-3h3v-2l5-2v-7h-11l1-3c4.57-1.478 7.124-.82 11 2"/><path fill="#449DA5" d="M395 535c2.471 2.824 4.349 5.56 5.938 8.938 1.865 3.916 4.166 6.844 7.062 10.062l-5.176 2.832c-1.884 1.206-3.304 2.535-4.824 4.168l-1.574-1.207c-3.04-2.31-5.972-4.536-9.301-6.418-2.387-1.544-3.129-2.749-4.125-5.375l6 2v2c4.43-1.208 6.981-2.517 10-6l-2-2c-1.599-3.375-2-5.166-2-9"/><path fill="#023740" d="m755.625 408.438 2.43.158q2.972.196 5.945.404c-.664 1.934-.664 1.934-2 4-2.46.723-2.46.723-5.375 1.063-5.307.636-7.824 2.136-11.562 5.875-2.221 2.22-4.586 4.135-7.063 6.062v-2l-4-1 1-3h2v-2c1.46-1.473 1.46-1.473 3.375-3.062l1.898-1.598C744 412 744 412 746 411l-1-2c3.328-1.664 6.997-.819 10.625-.562"/><path fill="#1DB3B7" d="m415 559 1.761.65c6.922 2.34 13.1 2.718 20.364 2.538l3.188-.042q3.843-.052 7.687-.146c-2.846 2.846-5.804 2.456-9.625 2.625l-2.14.117c-1.745.094-3.49.177-5.235.258l-1 3c-3.019 1.51-6.13 1.184-9.437 1.188l-2.065.037c-3.726.01-5.318-.105-8.498-2.225l-1-2 3-1c1.699-2.498 1.699-2.498 3-5"/><path fill="#0B191E" d="m740 643 3 1c-2.18 7.199-5.128 13.661-8.625 20.313l-1.616 3.08C728.76 674.87 724.45 681.49 719 688l-2.273 2.91c-4.462 5.657-9.093 10.592-14.727 15.09l-2-2 1.363-1.074C720.105 687.414 731.951 665.599 740 643"/><path fill="#EEB80E" d="M736.688 362.563c2.548 1.584 3.293 2.659 4.312 5.437-3.473 1.158-6.36 1.069-10 1q-.04 2.625-.062 5.25l-.036 2.953c.086 2.455.39 4.459 1.098 6.797h3l1 6c-2.622-.369-3.727-.672-5.45-2.742l-1.237-2.133-1.262-2.117c-2.149-4.106-2.362-7.423-2.051-12.008 1.316-3.602 2.441-5.53 5.375-8 2.625-1 2.625-1 5.313-.437"/><path fill="#358D95" d="M642 499h1l.184 1.828.254 2.422.246 2.39c.259 2.344.259 2.344.91 4.497.589 2.7-.512 4.38-1.594 6.863v3h4l2 3c3.08-2.773 4.688-5.063 6-9 1.373 4.12.097 5.956-1.676 9.77-1.949 3.282-4.22 5.043-7.324 7.23l-.125-1.875L645 527c-2.996-1.305-2.996-1.305-6-2-.22-5.06.42-9.478 1.488-14.422.763-3.841 1.135-7.682 1.512-11.578"/><path fill="#81D7D7" d="M639 519c1 3 1 3 0 6l2.875.25c3.125.75 3.125.75 4.5 2.813L647 530l4-4c-1.345 4.042-3.05 6.387-6.125 9.313l-2.195 2.113L641 539l-2-1 3-3-10-1c1.366-3.542 2.91-6.926 4.625-10.312l1.352-2.676z"/><path fill="#FBE827" d="m545 236 1 2 1.75-.75L550 237c2.063 1.75 2.063 1.75 4 4l1.43 1.258c7.982 8.856 9.776 21.654 9.836 33.043C565 278 565 278 563 282l-1-17-2-1c-.309-2.293-.309-2.293-.437-5.187-.333-4.731-1.073-7.807-3.563-11.813h-3l-1-3-3-1-1-2c-2.017-1.134-2.017-1.134-4-2z"/><path fill="#9BE6E7" d="M378 434c1 1 1 1 1.313 3.813-.313 3.187-.313 3.187-2 5.5-2.568 1.873-4.147 2.525-7.313 2.687-3-2-3-2-3.562-4.312 1.164-5.562 6.04-8.635 11.562-7.688"/><path fill="#152124" d="m478 214 2 1-3 3-2.25 2.438c-2.75 2.562-2.75 2.562-6 4.187-11.164 6.173-17.079 20.563-22.75 31.375-1.048-3.232-1.09-3.796.371-7.102a160 160 0 0 1 2.067-3.523l1.105-1.875c7.402-12.282 16.549-21.617 28.457-29.5"/><path fill="#0BA5A5" d="M732 604c1.441 2.882.455 4.282-.547 7.305l-1.062 3.207-1.141 3.363-1.094 3.34-1.078 3.215-.987 2.945c-1.074 2.583-2.312 4.48-4.091 6.625.672-3.806 1.727-7.352 3-11-3.324 1.108-3.629 1.53-5.41 4.344l-1.31 2.027-1.342 2.129a797 797 0 0 1-2.66 4.156c-.39.617-.78 1.234-1.18 1.87C712 639 712 639 710 640c1.669-5.066 4.64-9.14 7.625-13.5A495 495 0 0 0 732 604"/><path fill="#003D48" d="M745 569c1.419 18.323-2.815 42.466-13 58l-1-2a129 129 0 0 1 2.688-6.5c3.634-8.583 5.591-17.366 7.312-26.5l.602-3.098c.452-3.292.494-6.455.46-9.777l-.027-3.492L742 573l-4 3c3.138-7 3.138-7 7-7"/><path fill="#102123" d="m569 240 1.875 2.375c2.024 2.593 2.024 2.593 4.125 4.625l1 3q1.518 3.849 3.063 7.688l.853 2.126q1.041 2.594 2.084 5.186h2l.188 2.5c1.034 4.454 3.04 7.88 5.812 11.5l2 1-1 2-3 1a552 552 0 0 1-14.03-29.435l-1.087-2.46-.957-2.182c-.99-2.168-.99-2.168-2.926-4.923z"/><path fill="#0D9F9E" d="M377 714c4.997 1.501 9.445 3.62 14.063 6 4.256 2.182 8.45 4.32 12.937 6-3.142 1.008-5.127.96-8.3.11l-2.464-.653-2.548-.707-2.514-.66c-4.938-1.333-9.526-2.957-14.174-5.09 2-1 3.831-1.494 6-2z"/><path fill="#10ADAD" d="M551 655c-3.013 2.009-4.777 2.539-8.262 3.254l-3.142.65-3.284.659-3.224.67c-7.891 1.613-15.503 2.921-23.588 2.83l-3.156-.028L504 663v-1c6.483-1.648 12.696-2.375 19.375-2.754 2.549.043 2.549.043 3.625-1.246 2.579-.322 5.16-.513 7.75-.719 2.217-.043 2.217-.043 3.25-1.281 4.375-.656 8.57-1.138 13-1"/><path fill="#16ACAA" d="M763 415c4.218 1.691 7.784 3.784 11 7 .398 1.988.738 3.99 1 6l-2.375-2c-2.34-2.202-2.34-2.202-4.625-2v3h-2l-1-9c-6.105-.94-10.054-1.022-16 1h-3c5.265-4.553 10.171-5.122 17-4"/><path fill="#0C9191" d="m636 710-1 3c-2.687 1.098-2.687 1.098-6 2.063a107 107 0 0 0-6 1.937l-1 2a103 103 0 0 1-7.375 2.188l-2.078.576c-3.37.888-5.174 1.36-8.547.236l1.557-.687q3.535-1.561 7.068-3.125l2.45-1.08A292 292 0 0 0 628 711c5.652-2.174 5.652-2.174 8-1"/><path fill="#EDB70A" d="M458 200c2.373 3.56 2.784 5.743 3 10-1 3.375-1 3.375-3 6-4.934 1.49-8.291.952-13-1v-2l1.898-.113 2.477-.2 2.46-.175c2.544-.342 2.544-.342 4.165-3.512v-2h3z"/><path fill="#74DEE0" d="m401 545 2.938 2.625c7.713 6.556 15.608 10.76 25.062 14.375-2.866 1.162-4.016.995-7.016.004l-3.234-1.442-3.266-1.433L413 558l-2 3-4-1v-2l-3-1 4-3-1.531-1.46-1.969-1.915-1.969-1.898C401 547 401 547 401 545"/><path fill="#015C67" d="M742 444c2 2 2 2 3.875 5.375 2.337 4.17 4.468 7.073 9.125 8.625 4.58.532 8.054.455 12.25-1.562 3.261-2.89 5.369-5.796 7.75-9.438l1 2c-2.664 5.993-7.595 9.842-13.375 12.625-5.125.53-8.368-.807-12.625-3.625-3.889-3.425-6.585-6.45-7.937-11.5z"/><path fill="#132429" d="M300 690c4.34 3.505 8.103 7.083 11.543 11.484 1.66 1.728 3.274 2.563 5.457 3.516v3l1.875.875C321 710 321 710 323 712l-1 3c-19.029-17.41-19.029-17.41-22-22z"/><path fill="#F1BC09" d="M586 181c3.08 1.33 4.588 2.344 6.375 5.188.879 3.953.409 6.828-.375 10.812l-2 2c-.857-3.08-1.27-6.068-1.562-9.25l-.254-2.703L588 185l-9-2-1 2-2-2c3.417-2.103 6.02-2.406 10-2"/><path fill="#003B46" d="M375 696c5.063.578 9.425 1.708 14.25 3.438 6.178 2.158 12.253 3.657 18.75 4.562v1c-11.426.968-22.522-2.723-33-7z"/><path fill="#069B9E" d="M285 603c3.207 1.604 3.416 4.451 4.563 7.75l1.316 3.734c.909 2.851 1.621 5.572 2.121 8.516l-3-1-1 4h-1c-1.775-7.636-2.534-15.181-3-23"/><path fill="#AAE8E8" d="m647 546-1 7-7 1c-.687-2.312-.687-2.312-1-5 2.701-3.602 4.784-4.265 9-3"/><path fill="#001721" d="M611 538h8v2l4 1-2.312.438c-2.77.525-2.77.525-5.688 1.562-2.573.07-5.116.094-7.687.063l-2.127-.014q-2.594-.02-5.186-.049c3.274-3.852 6.132-3.601 11-4z"/><path fill="#4CA6AC" d="M655 514c1.373 4.12.097 5.956-1.676 9.77-1.949 3.282-4.22 5.043-7.324 7.23l-.125-1.875L645 527c-2.996-1.305-2.996-1.305-6-2l1-3 2 1c4.99.5 4.99.5 9.313-1.687 1.73-2.372 2.761-4.536 3.687-7.313"/><path fill="#07A8AB" d="M572 280c2.925 3.61 5.063 7.547 7.25 11.625l1.14 2.063c.935 1.737 1.78 3.522 2.61 5.312l-1 2-1.46-2.406-1.915-3.094-1.898-3.094L575 290h-2l-2 8h-1q.212-3.375.438-6.75c.08-1.253.162-2.506.246-3.797.241-2.636.559-4.933 1.316-7.453"/><path fill="#010A0B" d="M560.605 538.64C563 539 563 539 565 541c.563 2.625.563 2.625 0 6-2.096 2.906-4.475 5.462-7 8l-2-1 1.277-1.32c3.487-3.79 5.462-6.326 5.723-11.68h-5l-.773 1.797c-1.345 2.415-2.72 3.715-4.852 5.453l-1.914 1.578L549 551c1.423-3.112 3.12-5.625 5.313-8.25l1.738-2.14C558 539 558 539 560.605 538.64"/><path fill="#A1BABB" d="M657 764v1c-6.026 1.071-11.89 1.1-18 1v2l-2.02-.035a153 153 0 0 0-17.253.812c-4.244.347-8.473.306-12.727.223v-1q8.51-.863 17.023-1.709 2.89-.288 5.781-.582 4.173-.422 8.348-.834l2.577-.265c5.451-.532 10.794-.687 16.271-.61"/><path fill="#3A8D96" d="M395 535c3.826 4.236 5.864 8.784 8 14a219 219 0 0 1-4.187 2.563l-2.356 1.44c-2.94 1.193-4.461.886-7.457-.003v-1l2.75-.75c3.354-1.29 4.927-2.57 7.25-5.25l-2-2c-1.599-3.375-2-5.166-2-9"/><path fill="#EFB809" d="M430 184c1.31 2.62.776 4.006.313 6.875-.364 2.669-.364 2.669-.313 5.125 1.813 2.23 1.813 2.23 4 4 .75 3.75.75 3.75 1 7-5.14-4.786-7.464-8.857-8.082-15.84.114-3.014 1.215-4.844 3.082-7.16"/><path fill="#C5D5D5" d="M700 756v2c-2.678 2.678-4.14 2.305-7.883 2.414l-3.535.117-3.707.094-3.73.117q-4.572.142-9.145.258v-1q5.31-1.01 10.625-2l3.027-.578c4.839-.897 9.402-1.692 14.348-1.422"/><path fill="#0E2326" d="m747 411-2.312 1.25c-2.641 1.72-3.872 3.242-5.688 5.75h-2v2a100 100 0 0 1-3 3 348 348 0 0 0-4 5c0-5.864 3.071-8.833 6.797-12.95 5.894-5.486 5.894-5.486 10.203-4.05"/><path fill="#F3BE0D" d="m775 378 3 1c-6.83 8.309-6.83 8.309-10 10-2.25-.312-2.25-.312-4-1l2-1c.652-2.025.652-2.025 1-4l1.75-.25c2.866-.955 4.25-2.535 6.25-4.75"/><path fill="#F8EE30" d="M541 229c4.104.518 5.957 2.646 8.75 5.563l2.422 2.503L554 239l-1 3-1.812-2c-2.063-2.337-2.063-2.337-5.188-2v-2h-2v-2h-2z"/><path fill="#EBDE18" d="M562 257c2.715 4.887 3.153 9.527 3.188 15.063l.042 3.097C565 278 565 278 563 282l-1-17-2-1a85 85 0 0 1 2-7"/><path fill="#9EB8BB" d="m544 760 16 1v1c-9.387 1.334-18.491 2.324-28 2v-1l2.371-.148 3.067-.227c1.009-.07 2.018-.14 3.058-.21L543 762zm16 0h7v1h-7z"/><path fill="#CAD9DA" d="M303 754c8.74 1.36 17.366 3.084 26 5v1q-2.844.039-5.687.063l-3.2.035c-2.837-.09-5.357-.449-8.113-1.098v-2l-9-2z"/><path fill="#D8A919" d="M741 368c2.52 3.78 3.125 6.592 3.133 11.074l.004 2.272-.012 2.341.012 2.377c-.01 5.81-.01 5.81-1.137 6.936q-3.5.062-7 0v-1l5-1z"/><path fill="#FBC205" d="M739 368h2c.842 2.925 1.118 5.507 1.098 8.547l-.01 2.558-.025 2.645-.014 2.691q-.018 3.28-.049 6.559l-2 1-3-2 2-1c1.287-7.138.79-13.821 0-21"/><path fill="#FCD108" d="M461 280c5.203 3.035 6.475 7.03 8.398 12.441C470 295 470 295 469 298c-2-2.546-3.792-4.98-5-8l1-2h-3z"/><path fill="#FDCB07" d="M519 165h1c.554 18.041.554 18.041-3 25-.997-2.991-1.026-4.298-.695-7.344l.27-2.527c.098-.868.198-1.735.3-2.629l.277-2.629c.381-3.47.74-6.546 1.848-9.871"/><path fill="#10B0AF" d="M602 638a1341 1341 0 0 1-8.437 3.875l-2.374 1.105c-5.35 2.423-10.416 3.922-16.189 5.02 2.36-2.36 3.779-2.491 7-3v-2l2.703-.805 3.547-1.07 3.516-1.055c3.134-.935 3.134-.935 5.468-2.265C599 637 599 637 602 638"/><path fill="#001722" d="m721 581 1 3c-1.215 2.262-1.215 2.262-2.937 4.688-.85 1.212-.85 1.212-1.715 2.449L716 593l3-1v2c-1.531 1.29-1.531 1.29-3.5 2.625l-1.969 1.352L712 599l-2-1q2.466-3.97 4.938-7.937l1.42-2.288 1.357-2.177 1.254-2.016C720 582 720 582 721 581"/><path fill="#FDDA18" d="M550 244h2l2 3h3c1.625 2.75 1.625 2.75 3 6-.812 2.375-.812 2.375-2 4l-1-4h-2l-1-4-4-1z"/><path fill="#0FB0AE" d="M386 719c4.218 1.355 8.294 2.902 12.375 4.625l3.21 1.352L404 726c-4.09 1.676-7.715.24-11.75-.937l-2.113-.592A644 644 0 0 1 385 723l2-2z"/><path fill="#FCC806" d="M782 349c-3.376 3.674-6.391 6.054-11 8h-2c2.358-7.271 5.537-8.43 13-8"/><path fill="#2FC1C5" d="m415 559 5 1-5 6 9 1v1h-14l-1-3 3-1c1.699-2.498 1.699-2.498 3-5"/><path fill="#FED614" d="m469 244 3 3-3 2c-.79 1.954-.79 1.954-1.187 4.125L467 257l-3-1c-.325-4.654.202-7.234 3-11z"/><path fill="#001820" d="M373 710c4.691 1.768 8.92 4.112 13.281 6.563 2.676 1.476 2.676 1.476 5.45 2.523 2.383.96 3.605 1.987 5.269 3.914-3.535-.574-6.264-1.478-9.39-3.215l-2.4-1.33-2.46-1.393-2.508-1.38C374.13 712.26 374.13 712.26 373 710"/><path fill="#003843" d="M730 628c1 3 1 3-.434 6.137a242 242 0 0 1-2.004 3.55l-1.025 1.838A523 523 0 0 1 724 644l-2-1 1.563-3.375L725 636l-1-2c.938-2.125.938-2.125 2-4l2 1z"/><path fill="#129B9F" d="M430 564q2.374-.079 4.75-.125l2.672-.07c2.692.204 4.277.83 6.578 2.195q-2.374.506-4.75 1l-2.672.563C434 568 434 568 430 568z"/><path fill="#E7B20D" d="M560 203c2.565 2.565 2.724 4.658 3.438 8.125.467 2.096.467 2.096 2.562 3.875 1.317.697 2.65 1.37 4 2-3.312.25-3.312.25-7 0-2.212-2.171-2.941-3.485-3.293-6.578l.106-2.672.082-2.703z"/><path fill="#69B8B9" d="m408 553-10 8-2-1c1.29-2.878 2.574-4.962 5-7 3.133-1.044 3.99-.934 7 0"/><path fill="#010507" d="M593 460v3c-1.38 1.178-2.768 2.347-4.2 3.46-3.303 2.825-6.013 6.217-8.8 9.54l-2-1c4.719-5.4 9.304-10.618 15-15"/><path fill="#3BC0C5" d="m643 534-1 2c-3.04.358-6.059.444-9.117.559-3.102.475-4.017.994-5.883 3.441l-2-1c5.247-7.141 9.643-6.487 18-5"/><path fill="#29352D" d="M536 211c4.462 1.31 7.996 3.07 11.875 5.625l2.93 1.914L553 220c-3.75 1.125-3.75 1.125-6 0v-2l-2.062-.812c-3.335-1.349-6.635-2.763-9.938-4.188z"/><path fill="#FDC60B" d="M589 190h1v9h-2l-1 3c-1.02-3.891-1.168-5.606.438-9.375zm-5 10 2 1-2 1zm-1 2 1 3-4 3z"/><path fill="#F1B70B" d="m799 388 1 3a335 335 0 0 1-3.312 3.5l-1.864 1.969C793 398 793 398 790 398c1.382-3.21 2.924-5.05 5.625-7.25l1.914-1.578z"/><path fill="#F8F437" d="m487 226-1.54 1.137c-4.264 3.17-8.41 6.421-12.46 9.863l-2-1c11.127-11.624 11.127-11.624 16-10"/><path fill="#1C2B2B" d="m478 214 2 1c-9 9-9 9-11.562 9.063L466 224c3.7-3.925 7.55-6.946 12-10"/><path fill="#0DB5B5" d="M732 604c1 2 1 2 .563 3.88l-.778 2.253-.83 2.441-.893 2.551-.88 2.574q-1.08 3.154-2.182 6.301c-1.403-4.21-1.041-7.71 0-12 1.428-2.856 3.105-5.433 5-8"/><path fill="#70D0D1" d="M634 532h11c-.96 3.837-1.236 4.597-4 7l-2-1 3-3-8-1z"/><path fill="#0B2428" d="M632 336c7.483 6.15 7.483 6.15 10 10-4.349-.502-6.956-3.025-10-6z"/><path fill="#EBB60C" d="M448 184v2c-2.375.125-2.375.125-5 0l-2-2c-2.44-.243-2.44-.243-5.125-.125l-2.758.055L431 184c2.883-5.765 12.438-2.138 17 0"/><path fill="#70D4D4" d="M663 532h3v6l-5 1-1-2c1.25-2.625 1.25-2.625 3-5"/><path fill="#162625" d="M687 385c4.136 3.381 7.813 6.666 11 11-3 0-3 0-5.043-1.645l-2.144-2.168-2.168-2.144C687 388 687 388 687 385"/><path fill="#E9B40D" d="M586 181c2.875 1.5 2.875 1.5 5 3l-1 2-2.687-.937A62 62 0 0 0 579 183l-1 2-2-2c3.417-2.103 6.02-2.406 10-2"/><path fill="#026B74" d="M768 488c1.283 3.848.487 5.282-1 9-1.562 2.875-1.562 2.875-3 5h-1c.087-1.439.196-2.876.313-4.312l.175-2.426c.602-2.659 1.498-3.496 3.512-5.262z"/><path fill="#0E5269" d="M417 538c-3 2-3 2-5 3v5l-3-2c-.187-3.125-.187-3.125 0-6 2.862-1.43 4.934-.6 8 0"/><path fill="#58AAAD" d="M406 551c-2.41 2.41-4.943 3.538-8 5 1.802-5.02 2.656-6.603 8-5m-12 5c2.063.438 2.063.438 4 1l-3 2-2-2z"/><path fill="#1F7284" d="M375 533c1.867 2.31 3.207 4.43 4.5 7.125 1.328 3.108 1.328 3.108 4.5 4.875l-1 4c-3.932-4.494-8-9.848-8-16"/><path fill="#1E7182" d="M642 499h1l.184 1.828.254 2.422.246 2.39c.255 2.35.255 2.35.941 4.516C645 512 645 512 643.563 514.25L642 516c-.97-5.93-.893-11.064 0-17"/><path fill="#111C1D" d="M784 426h2c2.44 5.644 2.193 10.978 2 17h-1q-.755-3.405-1.5-6.812l-.844-3.833C784 429 784 429 784 426"/><path fill="#2A3D32" d="M766 407c-3.11 2.073-3.891 2.274-7.437 2.25l-2.31.016c-2.467-.291-4.11-1.036-6.253-2.266 5.5-1.303 10.47-.71 16 0"/><path fill="#11B9B6" d="M618.39 717.852 620 719q-3.152 1.045-6.312 2.063l-3.551 1.16C607 723 607 723 604 722a361 361 0 0 1 5.75-2.625l3.234-1.477C616 717 616 717 618.391 717.852"/><path fill="#013942" d="m500 664 3 3h-15c4.925-3.693 6.107-3.561 12-3"/><path fill="#061E25" d="M653 531v2a519 519 0 0 1-4.312 2.5l-2.426 1.406C644 538 644 538 641 538c8.412-8.794 8.412-8.794 12-7"/><path fill="#01364A" d="m390 482 2 2-2.625 1.625c-3.596 2.38-6.403 5.261-9.375 8.375l-2-1c3.315-4.696 7.363-7.725 12-11"/><path fill="#0BB1B3" d="M450 278h1v12l-2-1-2 2c.549-4.571 1.417-8.674 3-13"/><path fill="#263E45" d="M323 713c2.798.386 3.82.801 5.75 2.938C330 718 330 718 330 720l-1.625-.875c-2.728-1.292-5.501-2.21-8.375-3.125l1-2 1 1z"/><path fill="#00080E" d="m455 549 3 1c-3.196 3.707-6.387 5.406-11 7l-3-1 2.152-1.277 2.786-1.66 2.777-1.653c2.17-1.217 2.17-1.217 3.285-2.41"/><path fill="#31909E" d="M395 535c6 7.4 6 7.4 6 11-2.824-1.035-3.824-1.666-5.25-4.375C395 539 395 539 395 535"/><path fill="#05171D" d="M655 517h3c-.706 3.669-2.277 6.705-4 10h-2v2l-2-1z"/><path fill="#00525E" d="m775 447 1 2c-2.09 4.55-5.136 6.995-9 10l-2-1 2.188-1.562c3.313-2.872 5.37-5.809 7.812-9.438"/><path fill="#1A2B29" d="m569 240 1.875 2.375c2.024 2.593 2.024 2.593 4.125 4.625l1 3-1 2c-2.624-2.374-4.386-4.85-6-8z"/><path fill="#ECDE32" d="M502 218h6v2h11v1c-1.748.223-3.499.428-5.25.625l-2.953.352c-2.98.025-4.328-.371-6.797-1.977z"/><path fill="#037F85" d="M290 622h4l1 3c-1.437 2.688-1.437 2.688-3 5-2-2-2-2-2.125-5.125z"/><path fill="#01A1A7" d="M412 351c0 3.759-.771 4.98-3 8-2.252 1.836-4.569 3.395-7 5 1.516-3.478 3.577-5.956 6.125-8.75l2.195-2.422z"/><path fill="#001C28" d="m696 493 1 2a179 179 0 0 1-2 4v3c-2.5 1.688-2.5 1.688-5 3 1.319-4.615 3.214-8.099 6-12"/><path fill="#01364B" d="m405 479-4 5-2-1 1-2-4 1-1-2c3.473-1.158 6.36-1.069 10-1"/><path fill="#F0BC0C" d="M813 386v2h-10l1-3c3.779-1.05 5.65-1.11 9 1"/><path fill="#E4AF14" d="m768 382 1 3 3 1c-1.75 1.563-1.75 1.563-4 3-2.25-.312-2.25-.312-4-1l2-1a70 70 0 0 0 1-4z"/><path fill="#DEAF11" d="m503 190 4 2v3h7l-2 2c-3.546-.15-5.369-.348-7.875-2.937C503 192 503 192 503 190"/><path fill="#C7D5D5" d="m713 750 3 1-2 1v2c-3.473 1.158-6.36 1.069-10 1 3.188-2.125 5.265-2.502 9-3z"/><path fill="#0A232A" d="m265 605 3 1c.082 4.161-.018 7.947-1 12h-1z"/><path fill="#79C5C4" d="M407.133 554.426 409 555l-1.531 1.023-1.969 1.352-1.969 1.336L402 560v2l-3-1c1.54-3.72 3.65-7.47 8.133-6.574"/><path fill="#19687D" d="M391 523c3.572 3.572 4 8.102 4 13h-2c-2.286-8.429-2.286-8.429-2-13"/><path fill="#10ABAB" d="m745 420 1 3-2.312 2.188c-2.4 2.51-4.042 4.78-5.688 7.812l-1-2q1.433-2.19 2.875-4.375l1.617-2.46C743 422 743 422 745 420"/><path fill="#020B11" d="M355 393c-1.583 4.274-4.506 6.265-8 9 .46-4.147 3.516-9 8-9"/><path fill="#02202B" d="m274 513 1 3 3-1v6l-3 1c-2.125-5.625-2.125-5.625-1-9"/><path fill="#014B54" d="m762 500 3 1c-.187 2.875-.187 2.875-1 6-2.562 1.375-2.562 1.375-5 2z"/><path fill="#0D1E23" d="M775 414c3.751 1.726 5.716 3.493 8 7 .25 2.813.25 2.813 0 5z"/><path fill="#273931" d="M770 408c2.884 1.442 4.765 3.706 7 6l-3 1c-1.824-.996-1.824-.996-3.687-2.437l-1.887-1.434L767 410z"/><path fill="#FABF05" d="m784 350 3 1 1 9h-2z"/><path fill="#0FB2B2" d="M565 541h1c.813 3.188.813 3.188 1 7-2.437 2.938-2.437 2.938-5 5 0-3 0-3 2-6 .39-1.99.732-3.99 1-6"/><path fill="#16242A" d="M694 711c-1.349 4.046-3.348 4.955-7 7l-3-1a617 617 0 0 1 3.875-3l2.18-1.687C692 711 692 711 694 711"/><path fill="#0B171C" d="m300 690 7 6-2 3c-5-5.625-5-5.625-5-9"/><path fill="#061319" d="M737 651h1c.18 3.947.094 6.598-2 10h-2c.61-3.558 1.578-6.683 3-10"/><path fill="#0B1E22" d="m756 588-1 12h-1l-1-11c2-1 2-1 3-1"/><path fill="#077378" d="M778 439h1v12l-1-3-3-1 2-3a75 75 0 0 0 1-5"/><path fill="#081920" d="m294 682 3 1v2h2l-1 4c-2-1.812-2-1.812-4-4z"/><path fill="#05272B" d="M401 564c2.36.936 4.696 1.933 7 3v1h-8l-1-3z"/><path fill="#010709" d="M411 553c4 0 4 0 5.5 1.313L418 556c1.32 1.018 2.65 2.022 4 3-4.51-.53-7.384-2.309-11-5z"/><path fill="#01717B" d="m775 469 2 1-2 8-2-1c.875-6.875.875-6.875 2-8"/><path fill="#0C1F24" d="m387 357 1 3c-1.437 2.188-1.437 2.188-3 4l-4-1z"/><path fill="#EDBB0C" d="m435 207 7 1v4c-3.653-1.25-4.78-1.671-7-5"/><path fill="#098588" d="M722 623h3l-1 5h-3l-2 1c1.875-4.875 1.875-4.875 3-6"/><path fill="#5ECACC" d="m413 560 2 1c-1.511 2.342-2.461 3.771-5.062 4.875L408 566l-2-2c5.273-3.223 5.273-3.223 7-4"/><path fill="#0B7B80" d="m639 539 2 1-1 2 1 3-3 1v-2l-2-1z"/><path fill="#001823" d="m626 534 2 1-3 5-5-2c1.974-1.974 3.437-2.959 6-4"/><path fill="#F6E328" d="m552 241 4 1c0 3 0 3-2 6-2-2-2-2-2.125-4.625z"/><path fill="#112A31" d="m312 703 5 2-2 4c-1.5-1.312-1.5-1.312-3-3z"/><path fill="#4CA7AC" d="M643 524h9v2l-4 2z"/><path fill="#329AA7" d="M641 512h1l1 8-4-1z"/><path fill="#06A9AF" d="m668 473 1 2h2c1.097 3.29.8 4.713 0 8-2.296-3.445-2.54-5.938-3-10"/><path fill="#FDC103" d="M791 397h1l1 8h-3q-.062-3.5 0-7z"/><path fill="#05151C" d="m363 382 3 1-4 5-2-1z"/><path fill="#F0B508" d="m773 350 2 1-3 6h-3c1.074-2.915 1.778-4.778 4-7"/><path fill="#043B41" d="m536 322 2 1-9 5-2-2a419 419 0 0 1 4.375-2.062l2.46-1.16z"/><path fill="#94B1B0" d="M512 774h14v1l-14 1z"/><path fill="#ABC1C0" d="m304 758 7 1c-3.01.934-3.867 1.044-7 0z"/><path fill="#ACC2C1" d="M640 767h8v1h-8z"/><path fill="#838239" d="M482 208h6l-4 2z"/><path fill="#A7C0BF" d="m352 766 6 1v1h-6z"/><path fill="#103D41" d="m400 335 3 2-3 2z"/><path fill="#95B1B0" d="M528 774h6v1h-6z"/><path fill="#9BB7B6" d="m431 773 4 1-2 1z"/><path fill="#AAC1C0" d="M651 766h3l-1 2h-2z"/><path fill="#A7C0BF" d="m347 766 4 1-4 1z"/><path fill="#41686B" d="m312 707 3 3-3-1z"/><path fill="#0A3138" d="M288 474h2l-1 3z"/><path fill="#95B2B2" d="m506 774 4 1Z"/><path fill="#99B6B7" d="m464 774 4 1Z"/><path fill="#98B4B4" d="m459 774 4 1Z"/><path fill="#97B2B2" d="m559 773 4 1Z"/><path fill="#9DB7B8" d="m409 772 3 1h-3z"/><path fill="#9DB7B7" d="m404 772 4 1Z"/><path fill="#8EA8AB" d="m684 729 4 1Z"/><path fill="#15373C" d="m742 649 1 3-2-1z"/><path fill="#0E3137" d="m265 619 1 4Z"/><path fill="#0F3D40" d="m411 321 2 1h-3z"/><path fill="#616B3E" d="m566 232 2 1-1 2z"/><path fill="#7F7F3C" d="M548 216h3l-1 2z"/><path fill="#97B3B2" d="m455 774 3 1Z"/><path fill="#97B3B3" d="m567 773 3 1Z"/><path fill="#9BB6B6" d="m424 773 3 1Z"/><path fill="#9CB6B6" d="m579 772 3 1Z"/><path fill="#9EB8B7" d="m602 771 3 1Z"/><path fill="#AEC5C4" d="m657 765 3 1Z"/><path fill="#AAC1C1" d="m344 765 3 1Z"/><path fill="#5C8184" d="m320 718 2 2h-2z"/><path fill="#365B5F" d="m305 700 2 2h-2z"/><path fill="#264B4F" d="m292 686 2 1-2 1z"/><path fill="#7C824A" d="m773 408 2 1-2 1z"/><path fill="#505F3B" d="m573 240 2 1-2 1z"/><path fill="#7C803F" d="m533 208 3 1Z"/><path fill="#96B3B2" d="m552 773 2 1Z"/><path fill="#9BB4B4" d="m584 772 2 1Z"/><path fill="#A0B8B9" d="m598 771 2 1Z"/><path fill="#A2BBBC" d="m388 770 2 1Z"/><path fill="#A0BCBD" d="m360 767 2 1Z"/><path fill="#AAC2C0" d="m663 765 2 1Z"/><path fill="#AAC1C1" d="m333 764 2 1Z"/><path fill="#9DB5B4" d="m312 731 2 1Z"/><path fill="#81A0A2" d="m677 728 2 1Z"/><path fill="#0A333A" d="m313 435 2 1Z"/><path fill="#3F5C43" d="m733 416 2 1Z"/><path fill="#2E4E43" d="m717 416 2 1Z"/><path fill="#C3A729" d="m814 385 2 1Z"/><path fill="#204641" d="m432 275 2 1Z"/><path fill="#475939" d="m441 248 2 1Z"/><path fill="#7D7E3A" d="m540 211 2 1Z"/><path fill="#7E7F37" d="m480 211 2 1Z"/></svg>